<svg id="svg" version="1.1" xmlns="http://www.w3.org/2000/svg" xmlns:xlink="http://www.w3.org/1999/xlink" width="400" height="400" viewBox="0, 0, 400,400"><g id="svgg"><path id="path0" d="M193.600 198.688 C 192.721 199.020,168.800 223.303,132.800 260.406 C 129.297 264.017,100.647 293.185,87.335 306.694 C 77.564 316.609,66.232 328.217,55.863 338.932 C 51.112 343.841,39.141 356.076,29.881 365.486 C 25.236 370.206,23.178 372.566,23.339 372.986 C 23.917 374.491,83.150 373.749,83.733 372.230 C 83.850 371.925,84.496 371.555,85.168 371.407 C 85.841 371.259,86.503 370.957,86.639 370.736 C 86.776 370.515,87.633 369.986,88.544 369.561 C 89.455 369.136,90.920 368.347,91.800 367.808 C 92.680 367.269,94.011 366.538,94.758 366.184 C 95.505 365.830,96.373 365.284,96.687 364.970 C 97.001 364.657,97.582 364.400,97.980 364.400 C 98.377 364.400,98.947 364.105,99.245 363.745 C 99.544 363.385,100.511 362.753,101.394 362.340 C 102.277 361.926,103.720 361.153,104.600 360.622 C 105.480 360.090,106.791 359.379,107.514 359.042 C 108.237 358.705,109.105 358.153,109.443 357.815 C 109.781 357.477,110.376 357.200,110.767 357.200 C 111.157 357.200,111.793 356.850,112.179 356.423 C 112.566 355.995,113.386 355.535,114.000 355.400 C 114.614 355.265,115.434 354.805,115.821 354.377 C 116.207 353.950,116.843 353.600,117.233 353.600 C 117.624 353.600,118.219 353.323,118.557 352.985 C 118.895 352.647,119.763 352.095,120.486 351.758 C 121.209 351.421,122.520 350.710,123.400 350.178 C 124.280 349.647,125.765 348.855,126.700 348.420 C 127.635 347.985,128.400 347.450,128.400 347.232 C 128.400 347.014,129.033 346.718,129.806 346.573 C 130.579 346.428,131.344 346.079,131.506 345.797 C 131.668 345.516,132.430 344.990,133.200 344.627 C 135.787 343.410,137.798 342.308,138.000 341.998 C 138.110 341.828,138.830 341.403,139.600 341.053 C 141.009 340.412,141.415 340.178,144.022 338.510 C 144.803 338.009,145.726 337.600,146.073 337.600 C 146.419 337.600,146.935 337.320,147.219 336.977 C 147.504 336.634,148.291 336.088,148.968 335.763 C 151.996 334.309,153.946 333.210,154.187 332.821 C 154.330 332.590,154.769 332.400,155.162 332.400 C 155.555 332.400,156.187 332.056,156.567 331.636 C 156.948 331.216,157.741 330.752,158.329 330.606 C 158.918 330.460,159.760 330.015,160.200 329.616 C 160.640 329.218,161.447 328.756,161.992 328.590 C 162.538 328.424,163.438 327.991,163.992 327.628 C 165.625 326.559,166.527 326.022,167.800 325.361 C 168.460 325.018,169.900 324.221,171.000 323.590 C 172.100 322.958,173.720 322.064,174.600 321.604 C 175.480 321.143,176.920 320.326,177.800 319.789 C 178.680 319.251,180.120 318.446,181.000 318.000 C 181.880 317.554,183.320 316.747,184.200 316.208 C 185.080 315.669,186.411 314.938,187.158 314.584 C 187.905 314.230,188.773 313.684,189.087 313.370 C 189.401 313.057,189.933 312.800,190.271 312.800 C 190.608 312.800,191.419 312.350,192.073 311.800 C 192.727 311.250,193.586 310.800,193.982 310.800 C 194.378 310.800,194.909 310.551,195.161 310.247 C 195.414 309.943,196.966 309.001,198.610 308.155 C 200.255 307.309,201.600 306.492,201.600 306.340 C 201.600 306.188,202.121 305.949,202.759 305.809 C 203.396 305.669,204.234 305.205,204.621 304.777 C 205.007 304.350,205.621 304.000,205.984 304.000 C 206.347 304.000,207.255 303.550,208.000 303.000 C 208.745 302.450,209.592 302.000,209.882 302.000 C 210.171 302.000,210.716 301.640,211.093 301.200 C 211.470 300.760,212.085 300.400,212.460 300.400 C 212.836 300.400,213.437 300.106,213.797 299.746 C 214.623 298.920,215.348 299.536,214.912 300.693 C 214.648 301.394,198.409 317.913,152.137 364.546 C 147.097 369.625,144.183 372.849,144.365 373.143 C 144.585 373.500,152.248 373.588,175.828 373.507 L 207.000 373.400 211.800 368.465 C 214.440 365.751,219.390 360.677,222.800 357.189 C 245.715 333.752,251.823 327.480,252.000 327.208 C 252.193 326.910,278.281 300.339,296.800 281.578 C 301.750 276.563,310.055 268.082,315.256 262.730 C 329.997 247.563,330.967 246.568,345.400 231.819 C 352.880 224.175,363.005 213.865,367.900 208.908 C 373.114 203.629,376.800 199.586,376.800 199.148 C 376.800 197.930,320.201 197.989,317.675 199.209 C 316.754 199.654,316.000 200.186,316.000 200.391 C 316.000 200.596,315.367 200.882,314.594 201.027 C 313.821 201.172,313.056 201.521,312.894 201.803 C 312.732 202.084,311.970 202.610,311.200 202.973 C 308.495 204.246,306.675 205.268,306.111 205.831 C 305.799 206.144,305.310 206.400,305.025 206.400 C 304.741 206.400,304.050 206.760,303.491 207.200 C 302.931 207.640,302.258 208.000,301.995 208.000 C 301.731 208.000,300.981 208.450,300.327 209.000 C 299.673 209.550,298.799 210.000,298.385 210.000 C 297.970 210.000,297.309 210.338,296.916 210.750 C 296.522 211.163,295.753 211.638,295.208 211.807 C 294.662 211.975,293.762 212.409,293.208 212.772 C 291.450 213.923,290.641 214.390,289.000 215.200 C 287.366 216.007,286.867 216.297,284.378 217.890 C 283.597 218.391,282.680 218.800,282.340 218.800 C 282.001 218.800,281.413 219.144,281.033 219.564 C 280.652 219.984,279.859 220.448,279.271 220.595 C 278.682 220.742,277.930 221.092,277.600 221.372 C 277.270 221.652,275.290 222.814,273.200 223.955 C 271.110 225.095,269.130 226.204,268.800 226.419 C 268.470 226.634,267.480 227.177,266.600 227.626 C 265.720 228.074,264.100 228.958,263.000 229.590 C 261.900 230.221,260.460 231.023,259.800 231.372 C 259.140 231.720,257.880 232.447,257.000 232.986 C 256.120 233.525,254.655 234.319,253.744 234.750 C 252.833 235.181,251.976 235.715,251.839 235.936 C 251.703 236.157,251.072 236.453,250.437 236.592 C 249.802 236.731,248.976 237.185,248.600 237.600 C 248.224 238.015,247.396 238.469,246.759 238.609 C 246.121 238.749,245.600 238.988,245.600 239.140 C 245.600 239.292,244.252 240.133,242.603 241.008 C 240.955 241.884,238.750 243.087,237.703 243.682 C 236.657 244.277,235.170 245.063,234.400 245.427 C 233.630 245.792,232.910 246.229,232.800 246.400 C 232.690 246.571,231.970 247.007,231.200 247.369 C 229.578 248.133,226.888 249.606,224.600 250.982 C 223.720 251.512,222.409 252.221,221.686 252.558 C 220.963 252.895,220.095 253.447,219.757 253.785 C 219.419 254.123,218.824 254.400,218.433 254.400 C 218.043 254.400,217.407 254.750,217.021 255.177 C 216.634 255.605,215.798 256.069,215.163 256.208 C 214.528 256.347,213.897 256.643,213.761 256.864 C 213.624 257.085,212.767 257.614,211.856 258.039 C 210.945 258.464,209.480 259.247,208.600 259.778 C 207.720 260.310,206.409 261.021,205.686 261.358 C 204.963 261.695,204.095 262.247,203.757 262.585 C 203.419 262.923,202.867 263.200,202.529 263.200 C 202.192 263.200,201.381 263.650,200.727 264.200 C 200.073 264.750,199.214 265.200,198.818 265.200 C 198.422 265.200,197.865 265.480,197.581 265.823 C 197.296 266.166,196.509 266.713,195.832 267.039 C 193.125 268.341,191.453 269.290,190.911 269.831 C 190.599 270.144,190.024 270.400,189.633 270.400 C 189.243 270.400,188.622 270.734,188.252 271.143 C 187.590 271.873,185.425 271.898,185.683 271.172 C 185.747 270.991,188.497 268.088,191.793 264.722 C 198.376 257.996,235.167 220.625,247.719 207.912 C 252.588 202.980,255.590 199.642,255.513 199.246 C 255.388 198.597,195.271 198.055,193.600 198.688 " stroke="none" fill="#3505ca" fill-rule="evenodd"></path><path id="path1" d="M23.600 23.647 C 23.600 23.904,26.279 26.834,29.552 30.157 C 32.826 33.481,37.101 37.843,39.052 39.850 C 41.004 41.858,45.570 46.549,49.200 50.274 C 52.830 53.999,59.310 60.691,63.600 65.145 C 67.890 69.599,76.170 78.085,82.000 84.002 C 122.233 124.837,133.128 135.951,143.800 147.042 C 161.233 165.160,192.747 196.939,193.874 197.536 C 195.291 198.288,254.752 198.192,255.041 197.437 C 255.281 196.813,254.443 195.902,241.400 182.612 C 236.560 177.680,232.016 173.049,231.303 172.322 C 230.589 171.595,229.779 170.775,229.503 170.500 C 229.226 170.225,228.415 169.415,227.700 168.700 C 226.985 167.985,226.217 167.220,225.994 167.000 C 216.437 157.594,183.200 123.873,183.200 123.584 C 183.200 122.241,187.490 123.551,188.723 125.271 C 189.010 125.672,189.687 126.000,190.227 126.000 C 190.766 126.000,191.516 126.360,191.893 126.800 C 192.270 127.240,192.843 127.600,193.167 127.600 C 193.492 127.600,194.397 128.009,195.178 128.510 C 197.754 130.159,198.184 130.403,199.900 131.191 C 200.835 131.620,201.600 132.158,201.600 132.386 C 201.600 132.614,201.946 132.800,202.369 132.800 C 202.792 132.800,203.673 133.250,204.327 133.800 C 204.981 134.350,205.867 134.800,206.296 134.800 C 206.725 134.800,207.387 135.144,207.767 135.564 C 208.148 135.984,208.926 136.445,209.498 136.589 C 210.069 136.732,210.980 137.198,211.522 137.625 C 212.064 138.051,212.671 138.400,212.870 138.400 C 213.069 138.400,213.765 138.760,214.416 139.200 C 215.067 139.640,216.098 140.335,216.708 140.744 C 217.317 141.153,218.262 141.625,218.808 141.793 C 219.353 141.962,220.122 142.437,220.516 142.850 C 220.909 143.262,221.570 143.600,221.985 143.600 C 222.399 143.600,223.273 144.050,223.927 144.600 C 224.581 145.150,225.392 145.600,225.729 145.600 C 226.067 145.600,226.599 145.857,226.913 146.170 C 227.227 146.484,228.095 147.025,228.842 147.373 C 229.589 147.721,230.920 148.448,231.800 148.989 C 232.680 149.529,234.030 150.268,234.800 150.629 C 235.570 150.990,236.340 151.529,236.511 151.827 C 236.682 152.124,237.449 152.486,238.217 152.629 C 238.984 152.773,239.744 153.121,239.906 153.403 C 240.068 153.684,240.830 154.205,241.600 154.560 C 242.370 154.915,243.720 155.644,244.600 156.179 C 245.480 156.715,246.861 157.448,247.669 157.808 C 248.477 158.168,249.237 158.718,249.357 159.031 C 249.477 159.344,249.960 159.600,250.430 159.600 C 250.900 159.600,251.819 160.050,252.473 160.600 C 253.127 161.150,253.980 161.600,254.369 161.600 C 254.758 161.600,255.402 161.960,255.800 162.400 C 256.198 162.840,256.821 163.200,257.184 163.200 C 257.547 163.200,258.455 163.650,259.200 164.200 C 259.945 164.750,260.796 165.200,261.090 165.200 C 261.384 165.200,261.724 165.459,261.846 165.776 C 261.967 166.092,262.573 166.462,263.192 166.598 C 263.811 166.734,264.634 167.195,265.021 167.623 C 265.407 168.050,266.042 168.400,266.431 168.400 C 266.820 168.400,267.673 168.850,268.327 169.400 C 268.981 169.950,269.764 170.400,270.069 170.400 C 270.373 170.400,271.067 170.713,271.611 171.097 C 272.837 171.960,274.580 172.956,276.358 173.808 C 277.105 174.166,277.973 174.716,278.287 175.030 C 278.601 175.343,279.105 175.600,279.408 175.600 C 279.711 175.600,280.444 176.050,281.038 176.600 C 281.631 177.150,282.532 177.600,283.039 177.600 C 283.545 177.600,284.104 177.851,284.280 178.157 C 284.456 178.463,285.230 179.010,286.000 179.371 C 288.066 180.342,289.722 181.191,290.400 181.629 C 290.730 181.842,291.554 182.272,292.232 182.585 C 292.909 182.898,293.696 183.434,293.981 183.777 C 294.265 184.120,294.837 184.400,295.252 184.400 C 295.666 184.400,296.397 184.850,296.875 185.400 C 297.353 185.950,298.155 186.400,298.657 186.400 C 299.158 186.400,299.891 186.738,300.284 187.150 C 300.678 187.563,301.450 188.034,302.000 188.198 C 302.550 188.361,303.270 188.717,303.600 188.989 C 303.930 189.261,304.830 189.803,305.600 190.194 C 306.370 190.584,307.675 191.245,308.500 191.661 C 309.325 192.078,310.000 192.594,310.000 192.809 C 310.000 193.024,310.346 193.200,310.769 193.200 C 311.192 193.200,312.073 193.650,312.727 194.200 C 313.381 194.750,314.141 195.200,314.416 195.200 C 314.692 195.200,315.866 195.830,317.026 196.600 L 319.136 198.000 347.768 198.000 C 375.748 198.000,376.400 197.982,376.400 197.231 C 376.400 196.758,371.669 191.694,364.100 184.066 C 351.500 171.367,328.304 147.690,325.158 144.315 C 321.876 140.796,309.044 127.631,296.600 115.016 C 279.095 97.270,251.418 69.084,245.918 63.400 C 243.363 60.760,239.272 56.530,236.826 54.000 C 234.381 51.470,230.044 47.018,227.190 44.107 C 224.335 41.196,222.000 38.731,222.000 38.628 C 222.000 38.526,218.566 35.013,214.369 30.821 L 206.738 23.200 175.793 23.200 C 158.234 23.200,144.752 23.353,144.628 23.555 C 144.508 23.750,150.794 30.346,158.598 38.212 C 172.737 52.464,197.351 77.538,202.519 82.951 C 204.014 84.518,207.232 87.815,209.670 90.278 C 212.707 93.347,214.027 94.952,213.864 95.378 C 213.537 96.229,212.527 96.158,211.309 95.200 C 210.750 94.760,209.984 94.400,209.608 94.400 C 209.232 94.400,208.598 94.040,208.200 93.600 C 207.802 93.160,207.199 92.800,206.860 92.800 C 206.520 92.800,205.603 92.391,204.822 91.890 C 202.253 90.246,201.813 89.990,200.568 89.415 C 199.891 89.102,199.104 88.566,198.819 88.223 C 198.535 87.880,197.978 87.600,197.582 87.600 C 197.186 87.600,196.327 87.150,195.673 86.600 C 195.019 86.050,194.220 85.600,193.896 85.600 C 193.573 85.600,192.850 85.240,192.291 84.800 C 191.731 84.360,191.101 84.000,190.891 84.000 C 190.680 84.000,190.064 83.651,189.522 83.225 C 188.980 82.798,188.042 82.325,187.436 82.173 C 186.831 82.021,186.241 81.650,186.125 81.349 C 186.009 81.047,185.689 80.800,185.413 80.800 C 185.137 80.800,184.275 80.368,183.497 79.840 C 182.719 79.312,181.659 78.750,181.141 78.590 C 180.624 78.431,179.878 77.963,179.484 77.550 C 179.091 77.138,178.451 76.800,178.062 76.800 C 177.673 76.800,176.745 76.350,176.000 75.800 C 175.255 75.250,174.437 74.800,174.183 74.800 C 173.930 74.800,173.307 74.440,172.800 74.000 C 172.293 73.560,171.663 73.200,171.400 73.200 C 171.137 73.200,170.507 72.840,170.000 72.400 C 169.493 71.960,168.870 71.600,168.617 71.600 C 168.363 71.600,167.545 71.150,166.800 70.600 C 166.055 70.050,165.126 69.600,164.736 69.600 C 164.347 69.600,163.847 69.261,163.625 68.847 C 163.403 68.432,162.626 67.981,161.898 67.845 C 161.170 67.708,160.267 67.237,159.891 66.798 C 159.515 66.359,158.919 66.000,158.567 66.000 C 158.215 66.000,157.469 65.640,156.909 65.200 C 156.350 64.760,155.659 64.400,155.375 64.400 C 155.090 64.400,154.601 64.144,154.289 63.831 C 153.730 63.273,151.958 62.275,149.214 60.974 C 148.451 60.613,147.641 60.086,147.414 59.803 C 147.186 59.520,146.325 59.074,145.500 58.813 C 144.675 58.552,144.000 58.199,144.000 58.030 C 144.000 57.860,143.325 57.430,142.500 57.074 C 141.010 56.432,140.373 56.073,138.340 54.734 C 137.757 54.350,136.825 53.921,136.270 53.782 C 135.714 53.642,134.948 53.184,134.567 52.764 C 134.187 52.344,133.575 52.000,133.208 52.000 C 132.840 52.000,132.117 51.550,131.600 51.000 C 131.083 50.450,130.270 50.000,129.792 50.000 C 129.315 50.000,128.613 49.656,128.233 49.236 C 127.852 48.816,127.086 48.358,126.530 48.218 C 125.975 48.079,125.043 47.650,124.460 47.266 C 122.622 46.055,121.835 45.600,120.568 45.015 C 119.891 44.702,119.104 44.166,118.819 43.823 C 118.535 43.480,117.978 43.200,117.582 43.200 C 117.186 43.200,116.327 42.750,115.673 42.200 C 115.019 41.650,114.220 41.200,113.896 41.200 C 113.573 41.200,112.879 40.865,112.354 40.455 C 111.829 40.045,110.950 39.574,110.400 39.408 C 109.850 39.241,109.124 38.864,108.786 38.569 C 108.448 38.273,107.098 37.464,105.786 36.770 C 104.474 36.077,103.130 35.281,102.800 35.002 C 102.470 34.723,101.750 34.361,101.200 34.198 C 100.650 34.034,99.878 33.563,99.484 33.150 C 99.091 32.738,98.430 32.400,98.015 32.400 C 97.601 32.400,96.727 31.950,96.073 31.400 C 95.419 30.850,94.608 30.400,94.271 30.400 C 93.933 30.400,93.401 30.143,93.087 29.830 C 92.773 29.516,91.905 28.975,91.158 28.627 C 90.411 28.279,89.080 27.552,88.200 27.011 C 87.320 26.471,85.976 25.733,85.214 25.373 C 84.451 25.012,83.611 24.421,83.346 24.059 C 82.728 23.213,23.600 22.806,23.600 23.647 " stroke="none" fill="#fc0404" fill-rule="evenodd"></path><path id="path2" d="M0.000 200.000 L 0.000 400.000 200.000 400.000 L 400.000 400.000 400.000 200.000 L 400.000 0.000 200.000 0.000 L 0.000 0.000 0.000 200.000 M81.556 22.047 C 82.570 22.513,83.670 23.057,84.000 23.255 C 84.330 23.454,85.230 23.902,86.000 24.251 C 86.770 24.600,87.536 25.123,87.702 25.412 C 87.869 25.701,88.525 26.052,89.161 26.191 C 89.797 26.331,90.634 26.795,91.021 27.223 C 91.407 27.650,92.056 28.000,92.462 28.000 C 92.868 28.000,93.542 28.342,93.961 28.761 C 94.379 29.179,95.144 29.650,95.661 29.808 C 96.177 29.966,96.870 30.325,97.200 30.607 C 97.530 30.890,98.430 31.405,99.200 31.752 C 100.622 32.394,101.361 32.815,103.260 34.066 C 103.843 34.450,104.780 34.880,105.343 35.022 C 105.907 35.163,106.585 35.541,106.852 35.862 C 107.118 36.183,107.942 36.699,108.682 37.009 C 109.422 37.318,110.305 37.847,110.643 38.185 C 110.981 38.523,111.576 38.800,111.967 38.800 C 112.357 38.800,113.002 39.160,113.400 39.600 C 113.798 40.040,114.449 40.400,114.846 40.400 C 115.244 40.400,115.891 40.738,116.284 41.150 C 116.678 41.563,117.450 42.034,118.000 42.198 C 118.550 42.361,119.270 42.725,119.600 43.007 C 119.930 43.290,120.875 43.799,121.700 44.140 C 122.525 44.480,123.200 44.948,123.200 45.180 C 123.200 45.411,123.546 45.600,123.969 45.600 C 124.392 45.600,125.273 46.050,125.927 46.600 C 126.581 47.150,127.380 47.600,127.704 47.600 C 128.027 47.600,128.750 47.960,129.309 48.400 C 129.869 48.840,130.488 49.200,130.685 49.200 C 130.883 49.200,131.655 49.650,132.400 50.200 C 133.145 50.750,134.053 51.200,134.416 51.200 C 134.779 51.200,135.393 51.550,135.779 51.977 C 136.166 52.405,137.016 52.872,137.669 53.015 C 138.321 53.158,138.947 53.517,139.060 53.813 C 139.174 54.109,139.773 54.462,140.392 54.598 C 141.011 54.734,141.834 55.195,142.221 55.623 C 142.607 56.050,143.222 56.400,143.587 56.400 C 143.951 56.400,144.612 56.738,145.055 57.151 C 145.499 57.564,146.298 58.039,146.831 58.206 C 147.364 58.373,148.229 58.845,148.754 59.255 C 149.279 59.665,149.955 60.000,150.258 60.000 C 150.560 60.000,151.116 60.360,151.493 60.800 C 151.870 61.240,152.474 61.600,152.835 61.600 C 153.196 61.600,153.924 61.940,154.453 62.356 C 154.981 62.771,156.040 63.398,156.807 63.748 C 158.209 64.388,158.619 64.624,161.222 66.290 C 162.003 66.791,162.920 67.200,163.260 67.200 C 163.599 67.200,164.202 67.560,164.600 68.000 C 164.998 68.440,165.649 68.800,166.046 68.800 C 166.444 68.800,167.091 69.145,167.484 69.568 C 167.878 69.990,168.682 70.456,169.271 70.604 C 169.859 70.751,170.652 71.216,171.033 71.636 C 171.413 72.056,172.056 72.400,172.462 72.400 C 172.868 72.400,173.542 72.742,173.961 73.161 C 174.379 73.579,175.144 74.050,175.661 74.208 C 176.177 74.366,176.870 74.725,177.200 75.007 C 177.530 75.290,178.430 75.810,179.200 76.163 C 179.970 76.517,181.320 77.248,182.200 77.789 C 183.080 78.329,184.430 79.066,185.200 79.426 C 185.970 79.785,186.870 80.310,187.200 80.593 C 187.530 80.875,188.250 81.239,188.800 81.402 C 189.350 81.566,190.122 82.037,190.516 82.450 C 190.909 82.862,191.556 83.200,191.954 83.200 C 192.351 83.200,193.002 83.560,193.400 84.000 C 193.798 84.440,194.401 84.800,194.740 84.800 C 195.080 84.800,195.997 85.209,196.778 85.710 C 199.354 87.359,199.784 87.603,201.500 88.391 C 202.435 88.820,203.200 89.344,203.200 89.554 C 203.200 89.764,203.748 90.057,204.418 90.204 C 205.087 90.351,205.942 90.790,206.318 91.179 C 207.135 92.027,209.200 92.609,209.200 91.992 C 209.200 91.759,208.075 90.427,206.700 89.032 C 199.379 81.604,173.483 55.123,169.368 50.856 C 166.746 48.137,162.215 43.503,159.300 40.558 C 156.385 37.613,154.000 35.023,154.000 34.802 C 154.000 34.581,153.799 34.400,153.554 34.400 C 153.087 34.400,150.400 31.646,150.400 31.168 C 150.400 31.017,150.040 30.799,149.600 30.684 C 149.160 30.569,148.800 30.200,148.800 29.864 C 148.800 29.529,148.449 29.143,148.020 29.006 C 147.592 28.870,147.130 28.408,146.994 27.980 C 146.857 27.551,146.500 27.200,146.200 27.200 C 145.900 27.200,145.543 26.849,145.406 26.420 C 145.270 25.992,144.853 25.542,144.480 25.421 C 143.436 25.083,141.934 22.226,142.502 21.658 C 142.838 21.322,151.230 21.200,174.101 21.200 L 205.242 21.200 206.821 22.100 C 207.690 22.595,208.503 23.315,208.627 23.700 C 208.752 24.085,209.112 24.400,209.427 24.400 C 209.742 24.400,210.000 24.559,210.000 24.753 C 210.000 24.947,214.410 29.546,219.800 34.972 C 225.190 40.397,229.600 44.903,229.600 44.984 C 229.600 45.064,233.965 49.526,239.300 54.898 C 248.248 63.908,267.171 83.264,277.200 93.664 C 279.510 96.060,286.215 102.887,292.100 108.836 C 297.985 114.784,302.800 119.820,302.800 120.026 C 302.800 120.232,303.076 120.400,303.413 120.400 C 303.749 120.400,304.131 120.675,304.260 121.012 C 304.389 121.349,309.289 126.461,315.147 132.372 C 325.456 142.774,347.135 164.948,353.222 171.316 C 354.860 173.030,359.395 177.671,363.300 181.628 C 367.205 185.585,370.400 188.998,370.400 189.212 C 370.400 189.425,370.562 189.600,370.760 189.600 C 371.213 189.600,374.000 192.364,374.000 192.813 C 374.000 192.996,374.360 193.260,374.800 193.400 C 375.240 193.540,375.600 193.900,375.600 194.200 C 375.600 194.500,375.951 194.857,376.380 194.994 C 376.808 195.130,377.270 195.592,377.406 196.020 C 377.543 196.449,377.815 196.800,378.013 196.800 C 379.116 196.800,379.263 198.520,378.241 199.467 C 377.669 199.998,377.200 200.593,377.200 200.789 C 377.200 200.986,376.840 201.260,376.400 201.400 C 375.960 201.540,375.600 201.821,375.600 202.025 C 375.600 202.228,372.405 205.629,368.500 209.581 C 364.595 213.533,359.707 218.529,357.638 220.683 C 348.772 229.912,331.820 247.277,321.900 257.291 C 316.015 263.232,311.200 268.251,311.200 268.446 C 311.200 268.641,310.942 268.800,310.627 268.800 C 310.312 268.800,309.943 269.151,309.806 269.580 C 309.670 270.008,309.208 270.470,308.780 270.606 C 308.351 270.743,308.000 271.129,308.000 271.464 C 308.000 271.800,307.640 272.169,307.200 272.284 C 306.760 272.399,306.400 272.617,306.400 272.768 C 306.400 273.246,303.713 276.000,303.246 276.000 C 303.001 276.000,302.800 276.178,302.800 276.396 C 302.800 276.614,299.560 280.056,295.600 284.044 C 291.640 288.032,288.400 291.442,288.400 291.621 C 288.400 291.800,288.040 292.060,287.600 292.200 C 287.160 292.340,286.800 292.700,286.800 293.000 C 286.800 293.300,286.440 293.660,286.000 293.800 C 285.560 293.940,285.200 294.187,285.200 294.349 C 285.200 294.841,282.524 297.600,282.046 297.600 C 281.801 297.600,281.600 297.799,281.600 298.042 C 281.600 298.285,278.423 301.694,274.539 305.617 C 270.656 309.540,267.362 312.938,267.219 313.169 C 266.986 313.546,250.430 330.417,226.100 355.070 C 221.205 360.030,217.200 364.236,217.200 364.417 C 217.200 364.598,216.840 364.860,216.400 365.000 C 215.960 365.140,215.600 365.529,215.600 365.864 C 215.600 366.200,215.240 366.569,214.800 366.684 C 214.360 366.799,214.000 367.017,214.000 367.168 C 214.000 367.646,211.313 370.400,210.846 370.400 C 210.601 370.400,210.400 370.586,210.400 370.813 C 210.400 371.323,207.764 374.000,207.262 374.000 C 207.062 374.000,206.674 374.270,206.400 374.600 C 205.677 375.472,143.158 375.513,142.435 374.642 C 142.079 374.213,142.113 373.944,142.586 373.471 C 142.924 373.133,143.200 372.723,143.200 372.560 C 143.200 372.396,146.080 369.411,149.600 365.927 C 153.120 362.442,156.000 359.425,156.000 359.223 C 156.000 359.020,156.351 358.743,156.780 358.606 C 157.208 358.470,157.670 358.008,157.806 357.580 C 157.943 357.151,158.300 356.800,158.600 356.800 C 158.900 356.800,159.257 356.449,159.394 356.020 C 159.530 355.592,159.992 355.130,160.420 354.994 C 160.849 354.857,161.200 354.471,161.200 354.136 C 161.200 353.800,161.560 353.431,162.000 353.316 C 162.440 353.201,162.800 352.983,162.800 352.832 C 162.800 352.354,165.487 349.600,165.954 349.600 C 166.199 349.600,166.400 349.414,166.400 349.187 C 166.400 348.649,169.049 346.000,169.587 346.000 C 169.814 346.000,170.000 345.806,170.000 345.569 C 170.000 345.332,173.195 341.932,177.100 338.013 C 181.005 334.094,189.870 325.070,196.800 317.959 C 203.730 310.848,209.935 304.528,210.589 303.915 C 212.093 302.505,210.646 302.234,208.909 303.600 C 208.350 304.040,207.659 304.400,207.375 304.400 C 207.090 304.400,206.601 304.656,206.289 304.969 C 205.729 305.528,203.954 306.527,201.207 307.829 C 200.440 308.192,199.381 308.829,198.853 309.244 C 198.324 309.660,197.596 310.000,197.235 310.000 C 196.874 310.000,196.270 310.360,195.893 310.800 C 195.516 311.240,194.960 311.600,194.658 311.600 C 194.355 311.600,193.679 311.935,193.154 312.345 C 192.629 312.755,191.777 313.222,191.261 313.384 C 190.744 313.546,189.979 314.021,189.561 314.439 C 189.142 314.858,188.468 315.200,188.062 315.200 C 187.656 315.200,187.007 315.550,186.621 315.977 C 186.234 316.405,185.411 316.866,184.792 317.002 C 184.173 317.138,183.574 317.491,183.460 317.787 C 183.347 318.083,182.721 318.442,182.069 318.585 C 181.416 318.728,180.566 319.195,180.179 319.623 C 179.793 320.050,179.179 320.400,178.816 320.400 C 178.453 320.400,177.545 320.850,176.800 321.400 C 176.055 321.950,175.283 322.400,175.085 322.400 C 174.888 322.400,174.269 322.760,173.709 323.200 C 173.150 323.640,172.351 324.000,171.934 324.000 C 171.516 324.000,171.077 324.256,170.957 324.569 C 170.837 324.882,170.077 325.434,169.269 325.796 C 168.461 326.158,166.900 326.971,165.800 327.603 C 164.700 328.235,163.374 328.946,162.853 329.184 C 162.332 329.422,161.453 329.972,160.899 330.408 C 160.345 330.844,159.596 331.200,159.235 331.200 C 158.874 331.200,158.270 331.560,157.893 332.000 C 157.516 332.440,156.971 332.800,156.682 332.800 C 156.392 332.800,155.545 333.250,154.800 333.800 C 154.055 334.350,153.147 334.800,152.784 334.800 C 152.421 334.800,151.798 335.160,151.400 335.600 C 151.002 336.040,150.458 336.400,150.192 336.400 C 149.926 336.400,149.264 336.749,148.722 337.175 C 148.180 337.602,147.269 338.068,146.698 338.211 C 146.126 338.355,145.348 338.816,144.967 339.236 C 144.587 339.656,143.972 340.000,143.600 340.000 C 143.228 340.000,142.613 340.344,142.233 340.764 C 141.852 341.184,141.059 341.649,140.471 341.796 C 139.882 341.944,139.078 342.410,138.684 342.832 C 138.291 343.255,137.644 343.600,137.246 343.600 C 136.849 343.600,136.213 343.944,135.833 344.364 C 135.452 344.784,134.686 345.242,134.130 345.382 C 133.575 345.521,132.643 345.950,132.060 346.334 C 130.175 347.576,129.425 348.004,128.007 348.652 C 127.240 349.002,126.181 349.629,125.653 350.044 C 125.124 350.460,124.356 350.800,123.946 350.800 C 123.536 350.800,123.200 350.986,123.200 351.214 C 123.200 351.442,122.435 351.990,121.500 352.431 C 120.565 352.873,119.080 353.675,118.200 354.214 C 117.320 354.753,115.970 355.483,115.200 355.837 C 114.430 356.190,113.530 356.710,113.200 356.993 C 112.870 357.275,112.177 357.634,111.661 357.792 C 111.144 357.950,110.379 358.421,109.961 358.839 C 109.542 359.258,108.868 359.600,108.462 359.600 C 108.056 359.600,107.413 359.944,107.033 360.364 C 106.652 360.784,105.900 361.239,105.360 361.374 C 104.821 361.510,104.024 361.976,103.590 362.410 C 103.155 362.845,102.468 363.200,102.062 363.200 C 101.656 363.200,100.998 363.560,100.600 364.000 C 100.202 364.440,99.557 364.800,99.167 364.800 C 98.776 364.800,98.201 365.056,97.889 365.369 C 97.347 365.910,96.527 366.382,92.967 368.200 C 92.105 368.640,91.264 369.211,91.098 369.469 C 90.931 369.727,90.258 370.055,89.602 370.200 C 88.946 370.344,88.297 370.643,88.161 370.864 C 88.024 371.085,87.167 371.609,86.256 372.028 C 84.560 372.808,83.811 373.232,81.916 374.484 C 80.351 375.518,21.730 375.604,21.334 374.573 C 20.951 373.574,21.822 372.365,26.107 367.947 C 38.651 355.011,54.318 339.000,63.700 329.528 C 69.585 323.586,74.400 318.573,74.400 318.389 C 74.400 318.205,74.760 317.940,75.200 317.800 C 75.640 317.660,76.000 317.271,76.000 316.936 C 76.000 316.600,76.360 316.231,76.800 316.116 C 77.240 316.001,77.600 315.761,77.600 315.584 C 77.600 315.406,82.415 310.400,88.300 304.458 C 94.185 298.517,99.540 293.017,100.200 292.236 C 100.860 291.456,101.625 290.813,101.900 290.809 C 102.175 290.804,102.400 290.611,102.400 290.380 C 102.400 290.149,105.602 286.684,109.516 282.680 C 113.429 278.676,119.144 272.815,122.216 269.657 C 127.001 264.735,148.394 242.969,149.595 241.800 C 150.174 241.236,151.453 239.941,161.500 229.745 C 166.395 224.777,170.400 220.553,170.400 220.357 C 170.400 220.160,170.687 220.000,171.037 220.000 C 171.388 220.000,171.767 219.646,171.881 219.213 C 171.994 218.781,172.427 218.318,172.843 218.186 C 173.259 218.054,173.600 217.757,173.600 217.527 C 173.600 217.054,176.382 214.400,176.878 214.400 C 177.055 214.400,177.200 214.218,177.200 213.996 C 177.200 213.774,180.184 210.579,183.831 206.896 C 187.478 203.213,190.810 199.718,191.237 199.130 L 192.012 198.059 189.802 195.671 C 188.586 194.358,184.443 190.112,180.596 186.235 C 176.748 182.358,173.600 179.022,173.600 178.820 C 173.600 178.619,173.240 178.340,172.800 178.200 C 172.360 178.060,172.000 177.700,172.000 177.400 C 172.000 177.100,171.649 176.743,171.220 176.606 C 170.792 176.470,170.333 176.017,170.200 175.600 C 170.067 175.183,169.608 174.730,169.180 174.594 C 168.751 174.457,168.400 174.100,168.400 173.800 C 168.400 173.500,168.040 173.140,167.600 173.000 C 167.160 172.860,166.800 172.601,166.800 172.425 C 166.800 172.248,162.435 167.675,157.100 162.264 C 142.380 147.332,120.145 124.597,103.000 106.946 C 100.800 104.681,93.825 97.592,87.500 91.192 C 81.175 84.793,76.000 79.399,76.000 79.205 C 76.000 79.012,75.640 78.740,75.200 78.600 C 74.760 78.460,74.400 78.201,74.400 78.024 C 74.400 77.846,70.035 73.294,64.700 67.907 C 42.237 45.226,22.518 24.849,21.626 23.396 C 20.236 21.133,19.345 21.200,50.905 21.200 C 79.402 21.200,79.732 21.209,81.556 22.047 M187.600 126.650 C 187.600 126.726,189.940 129.134,192.800 132.000 C 195.660 134.866,198.000 137.389,198.000 137.606 C 198.000 137.823,198.201 138.000,198.446 138.000 C 198.913 138.000,201.600 140.754,201.600 141.232 C 201.600 141.383,201.960 141.601,202.400 141.716 C 202.840 141.831,203.200 142.200,203.200 142.536 C 203.200 142.871,203.560 143.260,204.000 143.400 C 204.440 143.540,204.800 143.804,204.800 143.987 C 204.800 144.170,205.475 144.968,206.300 145.760 C 208.184 147.569,205.920 145.298,224.402 163.914 C 233.201 172.777,240.400 180.190,240.400 180.387 C 240.400 180.585,240.751 180.857,241.180 180.994 C 241.608 181.130,242.070 181.592,242.206 182.020 C 242.343 182.449,242.700 182.800,243.000 182.800 C 243.300 182.800,243.657 183.151,243.794 183.580 C 243.930 184.008,244.392 184.470,244.820 184.606 C 245.249 184.743,245.600 185.003,245.600 185.185 C 245.600 185.367,248.390 188.318,251.800 191.743 C 255.210 195.167,258.000 198.096,258.000 198.251 C 258.000 198.631,258.187 198.436,246.820 209.945 C 241.309 215.525,236.800 220.238,236.800 220.418 C 236.800 220.599,236.440 220.860,236.000 221.000 C 235.560 221.140,235.200 221.529,235.200 221.864 C 235.200 222.200,234.840 222.569,234.400 222.684 C 233.960 222.799,233.600 223.017,233.600 223.168 C 233.600 223.646,230.913 226.400,230.446 226.400 C 230.201 226.400,230.000 226.577,230.000 226.794 C 230.000 227.011,226.805 230.420,222.900 234.370 C 218.995 238.320,214.110 243.318,212.044 245.476 C 209.978 247.634,204.254 253.498,199.325 258.507 C 194.395 263.516,190.461 267.774,190.581 267.970 C 190.889 268.467,192.446 268.028,193.400 267.174 C 193.840 266.781,194.710 266.333,195.332 266.178 C 195.955 266.024,196.556 265.659,196.668 265.368 C 196.779 265.077,197.470 264.641,198.203 264.399 C 198.936 264.157,199.752 263.698,200.017 263.380 C 200.282 263.061,200.823 262.800,201.220 262.800 C 201.618 262.800,202.219 262.523,202.557 262.185 C 202.895 261.847,203.778 261.318,204.518 261.009 C 205.258 260.699,206.096 260.166,206.381 259.823 C 206.665 259.480,207.201 259.200,207.571 259.200 C 207.942 259.200,208.855 258.750,209.600 258.200 C 210.345 257.650,211.163 257.200,211.416 257.200 C 211.669 257.200,212.202 256.840,212.600 256.400 C 212.998 255.960,213.621 255.600,213.984 255.600 C 214.347 255.600,215.255 255.150,216.000 254.600 C 216.745 254.050,217.517 253.600,217.715 253.600 C 217.912 253.600,218.531 253.240,219.091 252.800 C 219.650 252.360,220.416 252.000,220.792 252.000 C 221.168 252.000,221.793 251.650,222.179 251.223 C 222.566 250.795,223.404 250.331,224.041 250.191 C 224.679 250.051,225.200 249.764,225.200 249.554 C 225.200 249.344,225.965 248.820,226.900 248.391 C 227.835 247.961,228.870 247.428,229.200 247.205 C 229.530 246.982,230.250 246.610,230.800 246.379 C 231.350 246.148,232.520 245.519,233.400 244.982 C 234.280 244.445,235.627 243.714,236.393 243.359 C 237.160 243.003,238.219 242.371,238.747 241.956 C 239.276 241.540,240.044 241.200,240.454 241.200 C 240.864 241.200,241.200 241.014,241.200 240.786 C 241.200 240.558,241.965 240.010,242.900 239.569 C 243.835 239.127,245.320 238.325,246.200 237.786 C 247.080 237.247,248.430 236.517,249.200 236.163 C 249.970 235.810,250.870 235.290,251.200 235.007 C 251.530 234.725,252.223 234.366,252.739 234.208 C 253.256 234.050,254.021 233.579,254.439 233.161 C 254.858 232.742,255.532 232.400,255.938 232.400 C 256.344 232.400,256.987 232.056,257.367 231.636 C 257.748 231.216,258.541 230.751,259.129 230.604 C 259.718 230.456,260.522 229.990,260.916 229.568 C 261.309 229.145,261.956 228.800,262.354 228.800 C 262.751 228.800,263.402 228.440,263.800 228.000 C 264.198 227.560,264.801 227.200,265.140 227.200 C 265.480 227.200,266.397 226.791,267.178 226.290 C 269.627 224.723,270.156 224.412,271.800 223.578 C 272.680 223.131,274.120 222.325,275.000 221.786 C 275.880 221.247,277.230 220.517,278.000 220.163 C 278.770 219.810,279.670 219.290,280.000 219.007 C 280.330 218.725,281.023 218.366,281.539 218.208 C 282.056 218.050,282.821 217.579,283.239 217.161 C 283.658 216.742,284.332 216.400,284.738 216.400 C 285.144 216.400,285.787 216.056,286.167 215.636 C 286.548 215.216,287.326 214.755,287.898 214.611 C 288.469 214.468,289.380 214.002,289.922 213.575 C 290.464 213.149,291.141 212.800,291.425 212.800 C 291.710 212.800,292.181 212.565,292.471 212.277 C 293.015 211.740,294.946 210.658,297.856 209.261 C 298.767 208.824,299.632 208.271,299.780 208.033 C 299.927 207.795,300.369 207.600,300.762 207.600 C 301.155 207.600,301.793 207.250,302.179 206.823 C 302.566 206.395,303.416 205.928,304.069 205.785 C 304.721 205.642,305.348 205.280,305.462 204.982 C 305.577 204.683,306.330 204.225,307.135 203.963 C 307.941 203.701,308.736 203.256,308.902 202.975 C 309.069 202.693,309.725 202.348,310.361 202.209 C 310.997 202.069,311.834 201.605,312.221 201.177 C 312.607 200.750,313.245 200.400,313.638 200.400 C 314.031 200.400,314.465 200.218,314.602 199.996 C 314.740 199.774,315.515 199.250,316.326 198.832 L 317.800 198.072 316.729 197.800 C 316.141 197.650,315.348 197.184,314.967 196.764 C 314.587 196.344,313.955 196.000,313.562 196.000 C 313.169 196.000,312.730 195.810,312.587 195.579 C 312.337 195.175,310.179 193.970,307.200 192.571 C 306.430 192.210,305.656 191.663,305.480 191.357 C 305.304 191.051,304.864 190.800,304.502 190.800 C 304.139 190.800,303.203 190.391,302.422 189.890 C 299.819 188.224,299.409 187.988,298.007 187.348 C 297.240 186.998,296.181 186.371,295.653 185.956 C 295.124 185.540,294.365 185.200,293.966 185.200 C 293.567 185.200,293.096 184.949,292.920 184.643 C 292.744 184.337,291.970 183.795,291.200 183.440 C 290.430 183.084,288.900 182.271,287.800 181.632 C 286.700 180.993,285.237 180.202,284.549 179.876 C 283.861 179.549,283.184 179.097,283.044 178.872 C 282.905 178.646,282.241 178.341,281.568 178.193 C 280.896 178.045,280.253 177.683,280.140 177.387 C 280.026 177.091,279.427 176.738,278.808 176.602 C 278.189 176.466,277.376 176.015,277.000 175.600 C 276.624 175.185,275.814 174.735,275.200 174.600 C 274.586 174.465,273.766 174.005,273.379 173.577 C 272.993 173.150,272.372 172.800,272.000 172.800 C 271.628 172.800,270.998 172.440,270.600 172.000 C 270.202 171.560,269.599 171.200,269.260 171.200 C 268.920 171.200,268.003 170.791,267.222 170.290 C 264.646 168.641,264.216 168.397,262.500 167.609 C 261.565 167.180,260.800 166.665,260.800 166.464 C 260.800 166.264,260.263 165.993,259.606 165.861 C 258.949 165.730,258.099 165.257,257.717 164.811 C 257.335 164.365,256.726 164.000,256.365 164.000 C 256.004 164.000,255.250 163.640,254.691 163.200 C 254.131 162.760,253.512 162.400,253.315 162.400 C 253.117 162.400,252.345 161.950,251.600 161.400 C 250.855 160.850,249.947 160.400,249.584 160.400 C 249.221 160.400,248.607 160.050,248.221 159.623 C 247.834 159.195,246.997 158.731,246.361 158.591 C 245.725 158.452,245.069 158.127,244.902 157.869 C 244.736 157.611,243.895 157.040,243.033 156.600 C 239.473 154.782,238.653 154.310,238.111 153.769 C 237.799 153.456,237.218 153.200,236.820 153.200 C 236.423 153.200,235.882 152.939,235.617 152.620 C 235.352 152.302,234.536 151.843,233.803 151.601 C 233.070 151.359,232.377 150.917,232.262 150.618 C 232.148 150.320,231.521 149.958,230.869 149.815 C 230.216 149.672,229.366 149.205,228.979 148.777 C 228.593 148.350,227.944 148.000,227.538 148.000 C 227.132 148.000,226.458 147.658,226.039 147.239 C 225.621 146.821,224.856 146.350,224.339 146.192 C 223.823 146.034,223.130 145.675,222.800 145.393 C 222.470 145.110,221.570 144.590,220.800 144.237 C 220.030 143.883,218.680 143.152,217.800 142.611 C 216.920 142.071,215.570 141.332,214.800 140.971 C 214.030 140.610,213.256 140.063,213.080 139.757 C 212.904 139.451,212.444 139.200,212.058 139.200 C 211.672 139.200,210.745 138.750,210.000 138.200 C 209.255 137.650,208.434 137.200,208.176 137.200 C 207.919 137.200,207.250 136.840,206.691 136.400 C 206.131 135.960,205.415 135.600,205.099 135.600 C 204.783 135.600,204.207 135.250,203.821 134.823 C 203.434 134.395,202.614 133.935,202.000 133.800 C 201.386 133.665,200.566 133.205,200.179 132.777 C 199.793 132.350,199.151 132.000,198.754 132.000 C 198.356 132.000,197.709 131.655,197.316 131.232 C 196.922 130.810,196.118 130.344,195.529 130.196 C 194.941 130.049,194.148 129.584,193.767 129.164 C 193.387 128.744,192.817 128.400,192.500 128.400 C 192.183 128.400,191.446 128.066,190.862 127.657 C 189.923 127.000,187.600 126.282,187.600 126.650 M188.800 269.200 C 188.800 269.420,189.070 269.600,189.400 269.600 C 189.730 269.600,190.000 269.420,190.000 269.200 C 190.000 268.980,189.730 268.800,189.400 268.800 C 189.070 268.800,188.800 268.980,188.800 269.200 " stroke="none" fill="#fbfbfb" fill-rule="evenodd"></path><path id="path3" d="M36.529 21.500 C 44.631 21.560,57.771 21.560,65.729 21.500 C 73.688 21.439,67.060 21.390,51.000 21.390 C 34.940 21.390,28.428 21.439,36.529 21.500 M142.456 21.733 C 142.127 22.129,142.171 22.462,142.629 23.033 C 143.215 23.764,143.223 23.757,142.805 22.894 C 142.153 21.551,140.884 21.607,174.600 21.497 L 205.800 21.395 174.349 21.298 C 148.553 21.218,142.818 21.296,142.456 21.733 M21.215 22.400 C 21.221 22.730,21.490 23.349,21.813 23.776 C 22.568 24.775,22.563 24.405,21.802 22.946 C 21.474 22.316,21.210 22.070,21.215 22.400 M33.000 35.600 C 36.074 38.680,38.679 41.200,38.789 41.200 C 38.899 41.200,36.474 38.680,33.400 35.600 C 30.326 32.520,27.721 30.000,27.611 30.000 C 27.501 30.000,29.926 32.520,33.000 35.600 M44.000 46.910 C 44.000 46.971,45.395 48.366,47.100 50.010 L 50.200 53.000 47.210 49.900 C 44.433 47.021,44.000 46.617,44.000 46.910 M178.200 60.000 C 180.833 62.640,183.077 64.800,183.187 64.800 C 183.297 64.800,181.233 62.640,178.600 60.000 C 175.967 57.360,173.723 55.200,173.613 55.200 C 173.503 55.200,175.567 57.360,178.200 60.000 M257.400 73.600 C 259.371 75.580,261.073 77.200,261.183 77.200 C 261.293 77.200,259.771 75.580,257.800 73.600 C 255.829 71.620,254.127 70.000,254.017 70.000 C 253.907 70.000,255.429 71.620,257.400 73.600 M270.800 87.400 C 271.995 88.610,273.063 89.600,273.173 89.600 C 273.283 89.600,272.395 88.610,271.200 87.400 C 270.005 86.190,268.937 85.200,268.827 85.200 C 268.717 85.200,269.605 86.190,270.800 87.400 M209.000 91.769 C 209.000 92.279,209.253 92.934,209.562 93.222 C 210.039 93.668,210.080 93.570,209.834 92.574 C 209.453 91.034,209.000 90.597,209.000 91.769 M109.400 113.600 C 110.483 114.700,111.460 115.600,111.570 115.600 C 111.680 115.600,110.883 114.700,109.800 113.600 C 108.717 112.500,107.740 111.600,107.630 111.600 C 107.520 111.600,108.317 112.500,109.400 113.600 M123.400 128.000 C 125.812 130.420,127.876 132.400,127.986 132.400 C 128.096 132.400,126.212 130.420,123.800 128.000 C 121.388 125.580,119.324 123.600,119.214 123.600 C 119.104 123.600,120.988 125.580,123.400 128.000 M186.957 125.833 C 187.091 126.181,187.200 126.610,187.200 126.787 C 187.200 126.963,187.695 127.409,188.300 127.778 L 189.400 128.447 188.500 127.660 C 188.005 127.226,187.600 126.782,187.600 126.673 C 187.600 126.564,188.005 126.553,188.500 126.649 L 189.400 126.823 188.500 126.424 C 188.005 126.205,187.600 125.840,187.600 125.613 C 187.600 125.386,187.401 125.200,187.157 125.200 C 186.914 125.200,186.824 125.485,186.957 125.833 M330.600 148.400 C 331.683 149.500,332.660 150.400,332.770 150.400 C 332.880 150.400,332.083 149.500,331.000 148.400 C 329.917 147.300,328.940 146.400,328.830 146.400 C 328.720 146.400,329.517 147.300,330.600 148.400 M346.600 164.800 C 348.792 167.000,350.675 168.800,350.785 168.800 C 350.895 168.800,349.192 167.000,347.000 164.800 C 344.808 162.600,342.925 160.800,342.815 160.800 C 342.705 160.800,344.408 162.600,346.600 164.800 M229.291 169.137 C 229.841 169.947,231.608 171.469,231.596 171.123 C 231.593 171.055,230.931 170.370,230.123 169.600 C 229.211 168.731,228.896 168.555,229.291 169.137 M256.400 197.398 C 256.400 197.743,256.150 198.121,255.844 198.238 C 255.539 198.356,255.372 198.771,255.474 199.161 C 255.606 199.667,253.400 202.158,247.730 207.901 C 235.176 220.615,198.382 257.991,191.793 264.722 C 188.497 268.088,185.747 270.991,185.683 271.172 C 185.425 271.898,187.590 271.873,188.252 271.143 C 188.622 270.734,189.243 270.400,189.633 270.400 C 190.024 270.400,190.599 270.144,190.911 269.831 C 191.453 269.290,193.125 268.341,195.832 267.039 C 196.509 266.713,197.296 266.166,197.581 265.823 C 197.865 265.480,198.422 265.200,198.818 265.200 C 199.214 265.200,200.073 264.750,200.727 264.200 C 201.381 263.650,202.192 263.200,202.529 263.200 C 202.867 263.200,203.419 262.923,203.757 262.585 C 204.095 262.247,204.963 261.695,205.686 261.358 C 206.409 261.021,207.720 260.310,208.600 259.778 C 209.480 259.247,210.945 258.464,211.856 258.039 C 212.767 257.614,213.624 257.085,213.761 256.864 C 213.897 256.643,214.528 256.347,215.163 256.208 C 215.798 256.069,216.634 255.605,217.021 255.177 C 217.407 254.750,218.043 254.400,218.433 254.400 C 218.824 254.400,219.419 254.123,219.757 253.785 C 220.095 253.447,220.963 252.895,221.686 252.558 C 222.409 252.221,223.720 251.512,224.600 250.982 C 226.888 249.606,229.578 248.133,231.200 247.369 C 231.970 247.007,232.690 246.571,232.800 246.400 C 232.910 246.229,233.630 245.792,234.400 245.427 C 235.170 245.063,236.657 244.277,237.703 243.682 C 238.750 243.087,240.955 241.884,242.603 241.008 C 244.252 240.133,245.600 239.292,245.600 239.140 C 245.600 238.988,246.121 238.749,246.759 238.609 C 247.396 238.469,248.224 238.015,248.600 237.600 C 248.976 237.185,249.802 236.731,250.437 236.592 C 251.072 236.453,251.703 236.157,251.839 235.936 C 251.976 235.715,252.833 235.181,253.744 234.750 C 254.655 234.319,256.120 233.525,257.000 232.986 C 257.880 232.447,259.140 231.720,259.800 231.372 C 260.460 231.023,261.900 230.221,263.000 229.590 C 264.100 228.958,265.720 228.074,266.600 227.626 C 267.480 227.177,268.470 226.634,268.800 226.419 C 269.130 226.204,271.110 225.095,273.200 223.955 C 275.290 222.814,277.270 221.652,277.600 221.372 C 277.930 221.092,278.682 220.742,279.271 220.595 C 279.859 220.448,280.652 219.984,281.033 219.564 C 281.413 219.144,282.001 218.800,282.340 218.800 C 282.680 218.800,283.597 218.391,284.378 217.890 C 286.867 216.297,287.366 216.007,289.000 215.200 C 290.641 214.390,291.450 213.923,293.208 212.772 C 293.762 212.409,294.662 211.975,295.208 211.807 C 295.753 211.638,296.522 211.163,296.916 210.750 C 297.309 210.338,297.970 210.000,298.385 210.000 C 298.799 210.000,299.673 209.550,300.327 209.000 C 300.981 208.450,301.731 208.000,301.995 208.000 C 302.258 208.000,302.931 207.640,303.491 207.200 C 304.050 206.760,304.741 206.400,305.025 206.400 C 305.310 206.400,305.799 206.144,306.111 205.831 C 306.675 205.268,308.495 204.246,311.200 202.973 C 311.970 202.610,312.732 202.084,312.894 201.803 C 313.056 201.521,313.821 201.172,314.594 201.027 C 315.367 200.882,316.000 200.583,316.000 200.361 C 316.000 200.140,316.630 199.696,317.400 199.374 C 318.715 198.825,319.306 198.000,318.384 198.000 C 317.777 198.000,314.897 199.519,314.604 199.994 C 314.466 200.217,314.031 200.400,313.638 200.400 C 313.245 200.400,312.607 200.750,312.221 201.177 C 311.834 201.605,310.997 202.069,310.361 202.209 C 309.725 202.348,309.069 202.693,308.902 202.975 C 308.736 203.256,307.941 203.701,307.135 203.963 C 306.330 204.225,305.577 204.683,305.462 204.982 C 305.348 205.280,304.721 205.642,304.069 205.785 C 303.416 205.928,302.566 206.395,302.179 206.823 C 301.793 207.250,301.155 207.600,300.762 207.600 C 300.369 207.600,299.927 207.795,299.780 208.033 C 299.632 208.271,298.767 208.824,297.856 209.261 C 294.946 210.658,293.015 211.740,292.471 212.277 C 292.181 212.565,291.710 212.800,291.425 212.800 C 291.141 212.800,290.464 213.149,289.922 213.575 C 289.380 214.002,288.469 214.468,287.898 214.611 C 287.326 214.755,286.548 215.216,286.167 215.636 C 285.787 216.056,285.144 216.400,284.738 216.400 C 284.332 216.400,283.658 216.742,283.239 217.161 C 282.821 217.579,282.056 218.050,281.539 218.208 C 281.023 218.366,280.330 218.725,280.000 219.007 C 279.670 219.290,278.770 219.810,278.000 220.163 C 277.230 220.517,275.880 221.247,275.000 221.786 C 274.120 222.325,272.680 223.131,271.800 223.578 C 270.156 224.412,269.627 224.723,267.178 226.290 C 266.397 226.791,265.480 227.200,265.140 227.200 C 264.801 227.200,264.198 227.560,263.800 228.000 C 263.402 228.440,262.751 228.800,262.354 228.800 C 261.956 228.800,261.309 229.145,260.916 229.568 C 260.522 229.990,259.718 230.456,259.129 230.604 C 258.541 230.751,257.748 231.216,257.367 231.636 C 256.987 232.056,256.344 232.400,255.938 232.400 C 255.532 232.400,254.858 232.742,254.439 233.161 C 254.021 233.579,253.256 234.050,252.739 234.208 C 252.223 234.366,251.530 234.725,251.200 235.007 C 250.870 235.290,249.970 235.810,249.200 236.163 C 248.430 236.517,247.080 237.247,246.200 237.786 C 245.320 238.325,243.835 239.127,242.900 239.569 C 241.965 240.010,241.200 240.558,241.200 240.786 C 241.200 241.014,240.864 241.200,240.454 241.200 C 240.044 241.200,239.276 241.540,238.747 241.956 C 238.219 242.371,237.160 243.003,236.393 243.359 C 235.627 243.714,234.280 244.445,233.400 244.982 C 232.520 245.519,231.350 246.148,230.800 246.379 C 230.250 246.610,229.530 246.982,229.200 247.205 C 228.870 247.428,227.835 247.961,226.900 248.391 C 225.965 248.820,225.200 249.344,225.200 249.554 C 225.200 249.764,224.679 250.051,224.041 250.191 C 223.404 250.331,222.566 250.795,222.179 251.223 C 221.793 251.650,221.168 252.000,220.792 252.000 C 220.416 252.000,219.650 252.360,219.091 252.800 C 218.531 253.240,217.912 253.600,217.715 253.600 C 217.517 253.600,216.745 254.050,216.000 254.600 C 215.255 255.150,214.347 255.600,213.984 255.600 C 213.621 255.600,212.998 255.960,212.600 256.400 C 212.202 256.840,211.669 257.200,211.416 257.200 C 211.163 257.200,210.345 257.650,209.600 258.200 C 208.855 258.750,207.942 259.200,207.571 259.200 C 207.201 259.200,206.665 259.480,206.381 259.823 C 206.096 260.166,205.258 260.699,204.518 261.009 C 203.778 261.318,202.895 261.847,202.557 262.185 C 202.219 262.523,201.618 262.800,201.220 262.800 C 200.823 262.800,200.282 263.061,200.017 263.380 C 199.752 263.698,198.936 264.157,198.203 264.399 C 197.470 264.641,196.779 265.077,196.668 265.368 C 196.556 265.659,195.955 266.024,195.332 266.178 C 194.710 266.333,193.840 266.781,193.400 267.174 C 192.446 268.028,190.889 268.467,190.581 267.970 C 190.461 267.774,194.395 263.516,199.325 258.507 C 204.254 253.498,209.978 247.634,212.044 245.476 C 214.110 243.318,218.995 238.320,222.900 234.370 C 226.805 230.420,230.000 227.011,230.000 226.794 C 230.000 226.577,230.201 226.400,230.446 226.400 C 230.913 226.400,233.600 223.646,233.600 223.168 C 233.600 223.017,233.960 222.799,234.400 222.684 C 234.840 222.569,235.200 222.200,235.200 221.864 C 235.200 221.529,235.560 221.140,236.000 221.000 C 236.440 220.860,236.800 220.599,236.800 220.418 C 236.800 220.238,241.309 215.525,246.820 209.945 C 252.331 204.365,257.101 199.515,257.420 199.166 C 258.214 198.299,258.148 197.707,257.200 197.200 C 256.558 196.857,256.400 196.896,256.400 197.398 M377.800 197.600 C 377.980 198.168,377.872 198.400,377.427 198.400 C 377.081 198.400,376.800 198.735,376.800 199.148 C 376.800 199.586,373.114 203.629,367.900 208.908 C 363.005 213.865,352.880 224.175,345.400 231.819 C 330.967 246.568,329.997 247.563,315.256 262.730 C 310.055 268.082,301.750 276.563,296.800 281.578 C 278.281 300.339,252.193 326.910,252.000 327.208 C 251.823 327.480,245.715 333.752,222.800 357.189 C 219.390 360.677,214.440 365.751,211.800 368.465 L 207.000 373.400 175.828 373.507 C 152.248 373.588,144.585 373.500,144.365 373.143 C 144.183 372.849,147.097 369.625,152.137 364.546 C 198.409 317.913,214.648 301.394,214.912 300.693 C 215.348 299.536,214.623 298.920,213.797 299.746 C 213.437 300.106,212.836 300.400,212.460 300.400 C 212.085 300.400,211.470 300.760,211.093 301.200 C 210.716 301.640,210.171 302.000,209.882 302.000 C 209.592 302.000,208.745 302.450,208.000 303.000 C 207.255 303.550,206.347 304.000,205.984 304.000 C 205.621 304.000,205.007 304.350,204.621 304.777 C 204.234 305.205,203.396 305.669,202.759 305.809 C 202.121 305.949,201.600 306.188,201.600 306.340 C 201.600 306.492,200.255 307.309,198.610 308.155 C 196.966 309.001,195.414 309.943,195.161 310.247 C 194.909 310.551,194.378 310.800,193.982 310.800 C 193.586 310.800,192.727 311.250,192.073 311.800 C 191.419 312.350,190.608 312.800,190.271 312.800 C 189.933 312.800,189.401 313.057,189.087 313.370 C 188.773 313.684,187.905 314.230,187.158 314.584 C 186.411 314.938,185.080 315.669,184.200 316.208 C 183.320 316.747,181.880 317.554,181.000 318.000 C 180.120 318.446,178.680 319.251,177.800 319.789 C 176.920 320.326,175.480 321.143,174.600 321.604 C 173.720 322.064,172.100 322.958,171.000 323.590 C 169.900 324.221,168.460 325.018,167.800 325.361 C 166.527 326.022,165.625 326.559,163.992 327.628 C 163.438 327.991,162.538 328.424,161.992 328.590 C 161.447 328.756,160.640 329.218,160.200 329.616 C 159.760 330.015,158.918 330.460,158.329 330.606 C 157.741 330.752,156.948 331.216,156.567 331.636 C 156.187 332.056,155.555 332.400,155.162 332.400 C 154.769 332.400,154.330 332.590,154.187 332.821 C 153.946 333.210,151.996 334.309,148.968 335.763 C 148.291 336.088,147.504 336.634,147.219 336.977 C 146.935 337.320,146.419 337.600,146.073 337.600 C 145.726 337.600,144.803 338.009,144.022 338.510 C 141.415 340.178,141.009 340.412,139.600 341.053 C 138.830 341.403,138.110 341.828,138.000 341.998 C 137.798 342.308,135.787 343.410,133.200 344.627 C 132.430 344.990,131.668 345.516,131.506 345.797 C 131.344 346.079,130.579 346.428,129.806 346.573 C 129.033 346.718,128.400 347.014,128.400 347.232 C 128.400 347.450,127.635 347.985,126.700 348.420 C 125.765 348.855,124.280 349.647,123.400 350.178 C 122.520 350.710,121.209 351.421,120.486 351.758 C 119.763 352.095,118.895 352.647,118.557 352.985 C 118.219 353.323,117.624 353.600,117.233 353.600 C 116.843 353.600,116.207 353.950,115.821 354.377 C 115.434 354.805,114.614 355.265,114.000 355.400 C 113.386 355.535,112.566 355.995,112.179 356.423 C 111.793 356.850,111.157 357.200,110.767 357.200 C 110.376 357.200,109.781 357.477,109.443 357.815 C 109.105 358.153,108.237 358.705,107.514 359.042 C 106.791 359.379,105.480 360.090,104.600 360.622 C 103.720 361.153,102.277 361.926,101.394 362.340 C 100.511 362.753,99.544 363.385,99.245 363.745 C 98.947 364.105,98.377 364.400,97.980 364.400 C 97.582 364.400,97.001 364.657,96.687 364.970 C 96.373 365.284,95.505 365.830,94.758 366.184 C 94.011 366.538,92.680 367.269,91.800 367.808 C 90.920 368.347,89.455 369.136,88.544 369.561 C 87.633 369.986,86.776 370.515,86.639 370.736 C 86.503 370.957,85.841 371.259,85.168 371.407 C 84.496 371.555,83.850 371.925,83.733 372.230 C 83.150 373.749,23.917 374.491,23.339 372.986 C 23.178 372.566,25.236 370.206,29.881 365.486 C 39.141 356.076,51.112 343.841,55.863 338.932 C 66.232 328.217,77.564 316.609,87.335 306.694 C 100.647 293.185,129.297 264.017,132.800 260.406 C 153.699 238.866,165.415 226.880,184.640 207.367 C 189.282 202.655,193.323 198.800,193.620 198.800 C 194.334 198.800,193.709 198.284,192.233 197.654 C 191.221 197.222,191.130 197.233,191.549 197.738 C 192.104 198.408,190.926 199.772,182.352 208.388 C 179.518 211.235,177.200 213.753,177.200 213.982 C 177.200 214.212,177.055 214.400,176.878 214.400 C 176.382 214.400,173.600 217.054,173.600 217.527 C 173.600 217.757,173.240 218.060,172.800 218.200 C 172.360 218.340,172.000 218.729,172.000 219.064 C 172.000 219.400,171.640 219.769,171.200 219.884 C 170.760 219.999,170.400 220.233,170.400 220.403 C 170.400 220.574,166.395 224.777,161.500 229.745 C 151.453 239.941,150.174 241.236,149.595 241.800 C 148.394 242.969,127.001 264.735,122.216 269.657 C 119.144 272.815,113.429 278.676,109.516 282.680 C 105.602 286.684,102.400 290.149,102.400 290.380 C 102.400 290.611,102.175 290.804,101.900 290.809 C 101.625 290.813,100.860 291.456,100.200 292.236 C 99.540 293.017,94.185 298.517,88.300 304.458 C 82.415 310.400,77.600 315.427,77.600 315.630 C 77.600 315.834,77.313 316.000,76.963 316.000 C 76.612 316.000,76.233 316.354,76.119 316.787 C 76.006 317.219,75.573 317.682,75.157 317.814 C 74.741 317.946,74.400 318.205,74.400 318.389 C 74.400 318.573,69.585 323.586,63.700 329.528 C 54.318 339.000,38.651 355.011,26.107 367.947 C 21.822 372.365,20.951 373.574,21.334 374.573 C 21.730 375.604,80.351 375.518,81.916 374.484 C 83.811 373.232,84.560 372.808,86.256 372.028 C 87.167 371.609,88.024 371.085,88.161 370.864 C 88.297 370.643,88.946 370.344,89.602 370.200 C 90.258 370.055,90.931 369.727,91.098 369.469 C 91.264 369.211,92.105 368.640,92.967 368.200 C 96.527 366.382,97.347 365.910,97.889 365.369 C 98.201 365.056,98.776 364.800,99.167 364.800 C 99.557 364.800,100.202 364.440,100.600 364.000 C 100.998 363.560,101.656 363.200,102.062 363.200 C 102.468 363.200,103.155 362.845,103.590 362.410 C 104.024 361.976,104.821 361.510,105.360 361.374 C 105.900 361.239,106.652 360.784,107.033 360.364 C 107.413 359.944,108.056 359.600,108.462 359.600 C 108.868 359.600,109.542 359.258,109.961 358.839 C 110.379 358.421,111.144 357.950,111.661 357.792 C 112.177 357.634,112.870 357.275,113.200 356.993 C 113.530 356.710,114.430 356.190,115.200 355.837 C 115.970 355.483,117.320 354.753,118.200 354.214 C 119.080 353.675,120.565 352.873,121.500 352.431 C 122.435 351.990,123.200 351.442,123.200 351.214 C 123.200 350.986,123.536 350.800,123.946 350.800 C 124.356 350.800,125.124 350.460,125.653 350.044 C 126.181 349.629,127.240 349.002,128.007 348.652 C 129.425 348.004,130.175 347.576,132.060 346.334 C 132.643 345.950,133.575 345.521,134.130 345.382 C 134.686 345.242,135.452 344.784,135.833 344.364 C 136.213 343.944,136.849 343.600,137.246 343.600 C 137.644 343.600,138.291 343.255,138.684 342.832 C 139.078 342.410,139.882 341.944,140.471 341.796 C 141.059 341.649,141.852 341.184,142.233 340.764 C 142.613 340.344,143.228 340.000,143.600 340.000 C 143.972 340.000,144.587 339.656,144.967 339.236 C 145.348 338.816,146.126 338.355,146.698 338.211 C 147.269 338.068,148.180 337.602,148.722 337.175 C 149.264 336.749,149.926 336.400,150.192 336.400 C 150.458 336.400,151.002 336.040,151.400 335.600 C 151.798 335.160,152.421 334.800,152.784 334.800 C 153.147 334.800,154.055 334.350,154.800 333.800 C 155.545 333.250,156.392 332.800,156.682 332.800 C 156.971 332.800,157.516 332.440,157.893 332.000 C 158.270 331.560,158.874 331.200,159.235 331.200 C 159.596 331.200,160.345 330.844,160.899 330.408 C 161.453 329.972,162.332 329.422,162.853 329.184 C 163.374 328.946,164.700 328.235,165.800 327.603 C 166.900 326.971,168.461 326.158,169.269 325.796 C 170.077 325.434,170.837 324.882,170.957 324.569 C 171.077 324.256,171.516 324.000,171.934 324.000 C 172.351 324.000,173.150 323.640,173.709 323.200 C 174.269 322.760,174.888 322.400,175.085 322.400 C 175.283 322.400,176.055 321.950,176.800 321.400 C 177.545 320.850,178.453 320.400,178.816 320.400 C 179.179 320.400,179.793 320.050,180.179 319.623 C 180.566 319.195,181.416 318.728,182.069 318.585 C 182.721 318.442,183.347 318.083,183.460 317.787 C 183.574 317.491,184.173 317.138,184.792 317.002 C 185.411 316.866,186.234 316.405,186.621 315.977 C 187.007 315.550,187.656 315.200,188.062 315.200 C 188.468 315.200,189.142 314.858,189.561 314.439 C 189.979 314.021,190.744 313.546,191.261 313.384 C 191.777 313.222,192.629 312.755,193.154 312.345 C 193.679 311.935,194.355 311.600,194.658 311.600 C 194.960 311.600,195.516 311.240,195.893 310.800 C 196.270 310.360,196.874 310.000,197.235 310.000 C 197.596 310.000,198.324 309.660,198.853 309.244 C 199.381 308.829,200.440 308.192,201.207 307.829 C 203.954 306.527,205.729 305.528,206.289 304.969 C 206.601 304.656,207.090 304.400,207.375 304.400 C 207.659 304.400,208.350 304.040,208.909 303.600 C 210.646 302.234,212.093 302.505,210.589 303.915 C 209.935 304.528,203.730 310.848,196.800 317.959 C 189.870 325.070,181.005 334.094,177.100 338.013 C 173.195 341.932,170.000 345.332,170.000 345.569 C 170.000 345.806,169.814 346.000,169.587 346.000 C 169.049 346.000,166.400 348.649,166.400 349.187 C 166.400 349.414,166.199 349.600,165.954 349.600 C 165.487 349.600,162.800 352.354,162.800 352.832 C 162.800 352.983,162.440 353.201,162.000 353.316 C 161.560 353.431,161.200 353.800,161.200 354.136 C 161.200 354.471,160.849 354.857,160.420 354.994 C 159.992 355.130,159.530 355.592,159.394 356.020 C 159.257 356.449,158.900 356.800,158.600 356.800 C 158.300 356.800,157.943 357.151,157.806 357.580 C 157.670 358.008,157.208 358.470,156.780 358.606 C 156.351 358.743,156.000 359.020,156.000 359.223 C 156.000 359.425,153.120 362.442,149.600 365.927 C 146.080 369.411,143.200 372.396,143.200 372.560 C 143.200 372.723,142.924 373.133,142.586 373.471 C 142.113 373.944,142.079 374.213,142.435 374.642 C 143.158 375.513,205.677 375.472,206.400 374.600 C 206.674 374.270,207.062 374.000,207.262 374.000 C 207.764 374.000,210.400 371.323,210.400 370.813 C 210.400 370.586,210.601 370.400,210.846 370.400 C 211.313 370.400,214.000 367.646,214.000 367.168 C 214.000 367.017,214.360 366.799,214.800 366.684 C 215.240 366.569,215.600 366.200,215.600 365.864 C 215.600 365.529,215.960 365.140,216.400 365.000 C 216.840 364.860,217.200 364.598,217.200 364.417 C 217.200 364.236,221.205 360.030,226.100 355.070 C 250.430 330.417,266.986 313.546,267.219 313.169 C 267.362 312.938,270.656 309.540,274.539 305.617 C 278.423 301.694,281.600 298.285,281.600 298.042 C 281.600 297.799,281.801 297.600,282.046 297.600 C 282.524 297.600,285.200 294.841,285.200 294.349 C 285.200 294.187,285.560 293.940,286.000 293.800 C 286.440 293.660,286.800 293.300,286.800 293.000 C 286.800 292.700,287.160 292.340,287.600 292.200 C 288.040 292.060,288.400 291.800,288.400 291.621 C 288.400 291.442,291.640 288.032,295.600 284.044 C 299.560 280.056,302.800 276.614,302.800 276.396 C 302.800 276.178,303.001 276.000,303.246 276.000 C 303.739 276.000,306.400 273.234,306.400 272.722 C 306.400 272.545,306.687 272.400,307.037 272.400 C 307.388 272.400,307.767 272.046,307.881 271.613 C 307.994 271.181,308.418 270.721,308.823 270.593 C 309.228 270.464,309.670 270.008,309.806 269.580 C 309.943 269.151,310.312 268.800,310.627 268.800 C 310.942 268.800,311.200 268.641,311.200 268.446 C 311.200 268.251,316.015 263.232,321.900 257.291 C 331.820 247.277,348.772 229.912,357.638 220.683 C 359.707 218.529,364.595 213.533,368.500 209.581 C 372.405 205.629,375.600 202.228,375.600 202.025 C 375.600 201.821,375.960 201.540,376.400 201.400 C 376.840 201.260,377.200 200.986,377.200 200.789 C 377.200 200.593,377.669 199.998,378.241 199.467 C 379.126 198.646,379.214 198.374,378.827 197.651 C 378.249 196.571,377.461 196.532,377.800 197.600 M190.000 269.200 C 190.000 269.420,189.730 269.600,189.400 269.600 C 189.070 269.600,188.800 269.420,188.800 269.200 C 188.800 268.980,189.070 268.800,189.400 268.800 C 189.730 268.800,190.000 268.980,190.000 269.200 " stroke="none" fill="#c798c4" fill-rule="evenodd"></path><path id="path4" d="M21.600 22.154 C 21.600 23.200,22.624 24.680,25.011 27.082 C 26.325 28.405,30.015 32.168,33.211 35.444 C 58.645 61.515,68.807 71.907,78.000 81.245 C 91.623 95.085,110.088 113.917,114.869 118.848 C 124.556 128.838,142.991 147.723,150.200 155.042 C 164.551 169.613,185.866 191.326,189.100 194.669 C 193.106 198.809,189.492 198.448,225.600 198.314 L 256.200 198.200 256.200 197.259 C 256.200 196.286,252.814 192.803,206.740 146.389 C 196.037 135.607,187.177 126.518,187.052 126.192 C 186.927 125.867,186.549 125.600,186.213 125.600 C 185.876 125.600,185.600 125.437,185.600 125.237 C 185.600 124.735,187.333 125.216,187.695 125.819 C 187.857 126.090,188.473 126.432,189.063 126.580 C 189.654 126.728,190.580 127.198,191.122 127.625 C 191.664 128.051,192.329 128.400,192.600 128.400 C 192.871 128.400,193.536 128.749,194.078 129.175 C 194.620 129.602,195.531 130.068,196.103 130.211 C 196.674 130.355,197.233 130.709,197.344 130.998 C 197.455 131.288,198.079 131.642,198.731 131.785 C 199.384 131.928,200.224 132.385,200.600 132.800 C 200.976 133.215,201.816 133.672,202.469 133.815 C 203.121 133.958,203.747 134.317,203.860 134.613 C 203.974 134.909,204.590 135.266,205.229 135.406 C 205.868 135.547,206.503 135.843,206.639 136.064 C 206.776 136.285,207.633 136.814,208.544 137.239 C 209.455 137.664,210.920 138.455,211.800 138.997 C 212.680 139.539,214.075 140.284,214.900 140.652 C 215.725 141.020,216.400 141.455,216.400 141.617 C 216.400 141.780,217.075 142.215,217.900 142.584 C 218.725 142.952,220.300 143.771,221.400 144.403 C 222.500 145.035,223.826 145.746,224.347 145.984 C 224.868 146.222,225.747 146.772,226.301 147.208 C 226.855 147.644,227.616 148.000,227.992 148.000 C 228.368 148.000,228.993 148.350,229.379 148.777 C 229.766 149.205,230.604 149.669,231.241 149.809 C 231.879 149.949,232.400 150.221,232.400 150.413 C 232.400 150.605,233.165 151.133,234.100 151.586 C 235.035 152.039,237.240 153.217,239.000 154.204 C 240.760 155.191,242.754 156.259,243.432 156.576 C 244.109 156.894,244.882 157.417,245.148 157.738 C 245.415 158.059,246.106 158.440,246.685 158.586 C 247.263 158.731,248.180 159.198,248.722 159.625 C 249.264 160.051,249.941 160.400,250.225 160.400 C 250.510 160.400,250.999 160.657,251.313 160.970 C 251.627 161.284,252.495 161.830,253.242 162.184 C 253.989 162.538,255.320 163.269,256.200 163.808 C 257.080 164.347,258.520 165.162,259.400 165.619 C 262.512 167.233,263.805 167.962,264.259 168.356 C 264.512 168.576,265.322 169.032,266.059 169.369 C 266.797 169.707,267.760 170.207,268.200 170.480 C 271.274 172.387,272.046 172.800,272.529 172.800 C 272.830 172.800,273.393 173.150,273.779 173.577 C 274.166 174.005,275.004 174.469,275.641 174.609 C 276.279 174.749,276.800 175.021,276.800 175.213 C 276.800 175.405,277.565 175.927,278.500 176.371 C 279.435 176.816,280.470 177.365,280.800 177.590 C 281.130 177.816,281.850 178.190,282.400 178.421 C 282.950 178.652,284.120 179.279,285.000 179.815 C 285.880 180.350,287.320 181.159,288.200 181.611 C 289.080 182.064,290.520 182.874,291.400 183.411 C 292.280 183.949,293.720 184.759,294.600 185.211 C 295.480 185.664,296.920 186.474,297.800 187.011 C 298.680 187.549,300.120 188.354,301.000 188.800 C 301.880 189.246,303.320 190.051,304.200 190.589 C 305.080 191.126,306.520 191.936,307.400 192.389 C 308.280 192.841,309.720 193.651,310.600 194.189 C 311.480 194.726,312.920 195.541,313.800 196.000 C 314.680 196.459,315.940 197.142,316.600 197.517 C 317.740 198.166,378.000 198.871,378.000 198.236 C 378.000 197.128,376.051 194.825,369.429 188.109 C 361.545 180.112,354.944 173.355,346.213 164.342 C 338.095 155.962,291.187 108.108,289.612 106.600 C 288.440 105.478,279.995 96.835,268.830 85.332 C 262.804 79.123,240.316 56.087,229.503 45.047 C 212.708 27.898,207.757 22.959,206.702 22.300 C 205.566 21.591,143.379 21.154,142.683 21.851 C 142.053 22.481,144.302 25.105,153.196 34.115 C 158.453 39.442,164.790 45.892,167.277 48.449 C 180.010 61.537,197.792 79.706,203.277 85.232 C 206.679 88.660,209.578 91.765,209.719 92.132 C 209.860 92.500,210.251 92.800,210.587 92.800 C 211.260 92.800,211.415 93.420,210.832 93.780 C 210.630 93.905,210.186 93.729,209.846 93.389 C 209.506 93.049,208.637 92.493,207.914 92.154 C 207.191 91.815,205.700 91.020,204.600 90.387 C 203.500 89.754,201.970 88.937,201.200 88.573 C 200.430 88.208,199.710 87.771,199.600 87.600 C 199.490 87.429,198.770 86.993,198.000 86.631 C 195.911 85.647,194.273 84.806,193.600 84.371 C 193.270 84.158,192.446 83.728,191.768 83.415 C 191.091 83.102,190.313 82.577,190.041 82.249 C 189.768 81.920,189.030 81.538,188.400 81.400 C 187.770 81.262,187.048 80.899,186.796 80.595 C 186.543 80.290,185.720 79.838,184.968 79.589 C 184.216 79.341,183.600 78.991,183.600 78.812 C 183.600 78.633,182.925 78.185,182.100 77.816 C 181.275 77.448,179.700 76.632,178.600 76.004 C 177.500 75.376,176.037 74.596,175.349 74.272 C 174.661 73.947,173.984 73.497,173.844 73.272 C 173.705 73.046,173.041 72.741,172.368 72.593 C 171.696 72.445,171.052 72.080,170.938 71.782 C 170.823 71.483,170.070 71.025,169.265 70.763 C 168.459 70.501,167.664 70.056,167.498 69.775 C 167.331 69.493,166.675 69.148,166.039 69.009 C 165.403 68.869,164.566 68.405,164.179 67.977 C 163.793 67.550,163.184 67.200,162.827 67.200 C 162.470 67.200,161.733 66.887,161.189 66.503 C 159.969 65.644,158.225 64.647,156.459 63.799 C 155.722 63.445,154.912 62.976,154.659 62.756 C 154.205 62.362,152.912 61.633,149.800 60.019 C 148.920 59.562,147.480 58.762,146.600 58.241 C 145.720 57.720,143.710 56.635,142.134 55.829 C 140.558 55.024,139.066 54.120,138.818 53.822 C 138.570 53.523,137.894 53.160,137.315 53.014 C 136.737 52.869,135.820 52.402,135.278 51.975 C 134.736 51.549,134.059 51.200,133.775 51.200 C 133.490 51.200,133.001 50.944,132.689 50.631 C 132.133 50.076,130.377 49.086,127.642 47.786 C 126.895 47.431,126.027 46.884,125.713 46.570 C 125.399 46.257,124.921 46.000,124.649 46.000 C 124.378 46.000,123.545 45.550,122.800 45.000 C 122.055 44.450,121.114 44.000,120.710 44.000 C 120.306 44.000,119.872 43.732,119.746 43.404 C 119.620 43.076,118.816 42.597,117.959 42.340 C 117.101 42.084,116.400 41.729,116.400 41.552 C 116.400 41.375,115.005 40.563,113.300 39.749 C 111.595 38.934,110.110 38.138,110.000 37.981 C 109.774 37.658,107.352 36.357,105.100 35.350 C 104.275 34.981,103.600 34.545,103.600 34.383 C 103.600 34.220,102.925 33.785,102.100 33.416 C 101.275 33.048,99.700 32.229,98.600 31.597 C 97.500 30.965,96.174 30.254,95.653 30.016 C 95.132 29.778,94.253 29.228,93.699 28.792 C 93.145 28.356,92.384 28.000,92.008 28.000 C 91.632 28.000,91.007 27.650,90.621 27.223 C 90.234 26.795,89.396 26.331,88.759 26.191 C 88.121 26.051,87.600 25.779,87.600 25.587 C 87.600 25.395,86.835 24.873,85.900 24.429 C 84.965 23.984,83.930 23.466,83.600 23.277 C 80.520 21.519,82.098 21.600,50.968 21.600 C 26.206 21.600,21.600 21.687,21.600 22.154 M83.346 24.059 C 83.611 24.421,84.451 25.012,85.214 25.373 C 85.976 25.733,87.320 26.471,88.200 27.011 C 89.080 27.552,90.411 28.279,91.158 28.627 C 91.905 28.975,92.773 29.516,93.087 29.830 C 93.401 30.143,93.933 30.400,94.271 30.400 C 94.608 30.400,95.419 30.850,96.073 31.400 C 96.727 31.950,97.601 32.400,98.015 32.400 C 98.430 32.400,99.091 32.738,99.484 33.150 C 99.878 33.563,100.650 34.034,101.200 34.198 C 101.750 34.361,102.470 34.723,102.800 35.002 C 103.130 35.281,104.474 36.077,105.786 36.770 C 107.098 37.464,108.448 38.273,108.786 38.569 C 109.124 38.864,109.850 39.241,110.400 39.408 C 110.950 39.574,111.829 40.045,112.354 40.455 C 112.879 40.865,113.573 41.200,113.896 41.200 C 114.220 41.200,115.019 41.650,115.673 42.200 C 116.327 42.750,117.186 43.200,117.582 43.200 C 117.978 43.200,118.535 43.480,118.819 43.823 C 119.104 44.166,119.891 44.702,120.568 45.015 C 121.835 45.600,122.622 46.055,124.460 47.266 C 125.043 47.650,125.975 48.079,126.530 48.218 C 127.086 48.358,127.852 48.816,128.233 49.236 C 128.613 49.656,129.315 50.000,129.792 50.000 C 130.270 50.000,131.083 50.450,131.600 51.000 C 132.117 51.550,132.840 52.000,133.208 52.000 C 133.575 52.000,134.187 52.344,134.567 52.764 C 134.948 53.184,135.714 53.642,136.270 53.782 C 136.825 53.921,137.757 54.350,138.340 54.734 C 140.373 56.073,141.010 56.432,142.500 57.074 C 143.325 57.430,144.000 57.860,144.000 58.030 C 144.000 58.199,144.675 58.552,145.500 58.813 C 146.325 59.074,147.186 59.520,147.414 59.803 C 147.641 60.086,148.451 60.613,149.214 60.974 C 151.958 62.275,153.730 63.273,154.289 63.831 C 154.601 64.144,155.090 64.400,155.375 64.400 C 155.659 64.400,156.350 64.760,156.909 65.200 C 157.469 65.640,158.215 66.000,158.567 66.000 C 158.919 66.000,159.515 66.359,159.891 66.798 C 160.267 67.237,161.170 67.708,161.898 67.845 C 162.626 67.981,163.403 68.432,163.625 68.847 C 163.847 69.261,164.347 69.600,164.736 69.600 C 165.126 69.600,166.055 70.050,166.800 70.600 C 167.545 71.150,168.363 71.600,168.617 71.600 C 168.870 71.600,169.493 71.960,170.000 72.400 C 170.507 72.840,171.137 73.200,171.400 73.200 C 171.663 73.200,172.293 73.560,172.800 74.000 C 173.307 74.440,173.930 74.800,174.183 74.800 C 174.437 74.800,175.255 75.250,176.000 75.800 C 176.745 76.350,177.673 76.800,178.062 76.800 C 178.451 76.800,179.091 77.138,179.484 77.550 C 179.878 77.963,180.624 78.431,181.141 78.590 C 181.659 78.750,182.719 79.312,183.497 79.840 C 184.275 80.368,185.137 80.800,185.413 80.800 C 185.689 80.800,186.009 81.047,186.125 81.349 C 186.241 81.650,186.831 82.021,187.436 82.173 C 188.042 82.325,188.980 82.798,189.522 83.225 C 190.064 83.651,190.680 84.000,190.891 84.000 C 191.101 84.000,191.731 84.360,192.291 84.800 C 192.850 85.240,193.573 85.600,193.896 85.600 C 194.220 85.600,195.019 86.050,195.673 86.600 C 196.327 87.150,197.186 87.600,197.582 87.600 C 197.978 87.600,198.535 87.880,198.819 88.223 C 199.104 88.566,199.891 89.102,200.568 89.415 C 201.813 89.990,202.253 90.246,204.822 91.890 C 205.603 92.391,206.520 92.800,206.860 92.800 C 207.199 92.800,207.802 93.160,208.200 93.600 C 208.598 94.040,209.232 94.400,209.608 94.400 C 209.984 94.400,210.750 94.760,211.309 95.200 C 212.527 96.158,213.537 96.229,213.864 95.378 C 214.027 94.952,212.707 93.347,209.670 90.278 C 207.232 87.815,204.014 84.518,202.519 82.951 C 197.351 77.538,172.737 52.464,158.598 38.212 C 150.794 30.346,144.508 23.750,144.628 23.555 C 144.752 23.353,158.234 23.200,175.793 23.200 L 206.738 23.200 214.369 30.821 C 218.566 35.013,222.000 38.526,222.000 38.628 C 222.000 38.731,224.335 41.196,227.190 44.107 C 230.044 47.018,234.381 51.470,236.826 54.000 C 239.272 56.530,243.363 60.760,245.918 63.400 C 251.418 69.084,279.095 97.270,296.600 115.016 C 309.044 127.631,321.876 140.796,325.158 144.315 C 328.304 147.690,351.500 171.367,364.100 184.066 C 371.669 191.694,376.400 196.758,376.400 197.231 C 376.400 197.982,375.748 198.000,347.768 198.000 L 319.136 198.000 317.026 196.600 C 315.866 195.830,314.692 195.200,314.416 195.200 C 314.141 195.200,313.381 194.750,312.727 194.200 C 312.073 193.650,311.192 193.200,310.769 193.200 C 310.346 193.200,310.000 193.024,310.000 192.809 C 310.000 192.594,309.325 192.078,308.500 191.661 C 307.675 191.245,306.370 190.584,305.600 190.194 C 304.830 189.803,303.930 189.261,303.600 188.989 C 303.270 188.717,302.550 188.361,302.000 188.198 C 301.450 188.034,300.678 187.563,300.284 187.150 C 299.891 186.738,299.158 186.400,298.657 186.400 C 298.155 186.400,297.353 185.950,296.875 185.400 C 296.397 184.850,295.666 184.400,295.252 184.400 C 294.837 184.400,294.265 184.120,293.981 183.777 C 293.696 183.434,292.909 182.898,292.232 182.585 C 291.554 182.272,290.730 181.842,290.400 181.629 C 289.722 181.191,288.066 180.342,286.000 179.371 C 285.230 179.010,284.456 178.463,284.280 178.157 C 284.104 177.851,283.545 177.600,283.039 177.600 C 282.532 177.600,281.631 177.150,281.038 176.600 C 280.444 176.050,279.711 175.600,279.408 175.600 C 279.105 175.600,278.601 175.343,278.287 175.030 C 277.973 174.716,277.105 174.166,276.358 173.808 C 274.580 172.956,272.837 171.960,271.611 171.097 C 271.067 170.713,270.373 170.400,270.069 170.400 C 269.764 170.400,268.981 169.950,268.327 169.400 C 267.673 168.850,266.820 168.400,266.431 168.400 C 266.042 168.400,265.407 168.050,265.021 167.623 C 264.634 167.195,263.811 166.734,263.192 166.598 C 262.573 166.462,261.967 166.092,261.846 165.776 C 261.724 165.459,261.384 165.200,261.090 165.200 C 260.796 165.200,259.945 164.750,259.200 164.200 C 258.455 163.650,257.547 163.200,257.184 163.200 C 256.821 163.200,256.198 162.840,255.800 162.400 C 255.402 161.960,254.758 161.600,254.369 161.600 C 253.980 161.600,253.127 161.150,252.473 160.600 C 251.819 160.050,250.900 159.600,250.430 159.600 C 249.960 159.600,249.477 159.344,249.357 159.031 C 249.237 158.718,248.477 158.168,247.669 157.808 C 246.861 157.448,245.480 156.715,244.600 156.179 C 243.720 155.644,242.370 154.915,241.600 154.560 C 240.830 154.205,240.068 153.684,239.906 153.403 C 239.744 153.121,238.984 152.773,238.217 152.629 C 237.449 152.486,236.682 152.124,236.511 151.827 C 236.340 151.529,235.570 150.990,234.800 150.629 C 234.030 150.268,232.680 149.529,231.800 148.989 C 230.920 148.448,229.589 147.721,228.842 147.373 C 228.095 147.025,227.227 146.484,226.913 146.170 C 226.599 145.857,226.067 145.600,225.729 145.600 C 225.392 145.600,224.581 145.150,223.927 144.600 C 223.273 144.050,222.399 143.600,221.985 143.600 C 221.570 143.600,220.909 143.262,220.516 142.850 C 220.122 142.437,219.353 141.962,218.808 141.793 C 218.262 141.625,217.317 141.153,216.708 140.744 C 216.098 140.335,215.067 139.640,214.416 139.200 C 213.765 138.760,213.069 138.400,212.870 138.400 C 212.671 138.400,212.064 138.051,211.522 137.625 C 210.980 137.198,210.069 136.732,209.498 136.589 C 208.926 136.445,208.148 135.984,207.767 135.564 C 207.387 135.144,206.725 134.800,206.296 134.800 C 205.867 134.800,204.981 134.350,204.327 133.800 C 203.673 133.250,202.792 132.800,202.369 132.800 C 201.946 132.800,201.600 132.614,201.600 132.386 C 201.600 132.158,200.835 131.620,199.900 131.191 C 198.184 130.403,197.754 130.159,195.178 128.510 C 194.397 128.009,193.492 127.600,193.167 127.600 C 192.843 127.600,192.270 127.240,191.893 126.800 C 191.516 126.360,190.766 126.000,190.227 126.000 C 189.687 126.000,189.010 125.672,188.723 125.271 C 187.490 123.551,183.200 122.241,183.200 123.584 C 183.200 123.873,216.437 157.594,225.994 167.000 C 226.217 167.220,226.985 167.985,227.700 168.700 C 228.415 169.415,229.226 170.225,229.503 170.500 C 229.779 170.775,230.589 171.595,231.303 172.322 C 232.016 173.049,236.560 177.680,241.400 182.612 C 254.443 195.902,255.281 196.813,255.041 197.437 C 254.752 198.192,195.291 198.288,193.874 197.536 C 192.747 196.939,161.233 165.160,143.800 147.042 C 133.128 135.951,122.233 124.837,82.000 84.002 C 76.170 78.085,67.890 69.599,63.600 65.145 C 59.310 60.691,52.830 53.999,49.200 50.274 C 45.570 46.549,41.004 41.858,39.052 39.850 C 37.101 37.843,32.826 33.481,29.552 30.157 C 26.279 26.834,23.600 23.904,23.600 23.647 C 23.600 22.806,82.728 23.213,83.346 24.059 " stroke="none" fill="#fc8484" fill-rule="evenodd"></path></g></svg>