<svg xmlns="http://www.w3.org/2000/svg" width="342" height="120" viewBox="0 0 342 120" version="1.1"><path d="M 118 36.594 C 107.730 41.043, 103.138 52.499, 107.903 61.790 C 110.520 66.894, 113.640 69.511, 119.410 71.442 C 123.969 72.967, 124.697 72.967, 129.569 71.434 C 146.649 66.062, 147.860 44.384, 131.500 36.879 C 126.660 34.659, 122.663 34.574, 118 36.594 M 150.567 36.889 C 141.540 43.016, 144.144 52.943, 155.975 57.500 C 162.170 59.886, 163.422 61.182, 162.620 64.376 C 161.316 69.572, 153.354 68.409, 149.877 62.515 C 146.531 56.845, 143.801 58.838, 145.959 65.377 C 148.871 74.199, 162.470 75.245, 167.328 67.021 C 169.444 63.440, 169.480 57.130, 167.403 54.164 C 166.027 52.201, 159.875 48.832, 153.683 46.651 C 152.399 46.199, 151.959 45.204, 152.183 43.256 C 152.446 40.972, 153.045 40.447, 155.683 40.192 C 158.169 39.951, 159.723 40.658, 162.784 43.424 C 167 47.233, 168 47.156, 168 43.024 C 168 39.764, 165.894 36.735, 163.385 36.387 C 162.348 36.243, 159.700 35.849, 157.500 35.512 C 154.437 35.042, 152.813 35.365, 150.567 36.889 M 52.994 36.874 C 47.758 38.592, 44.091 41.090, 40.028 45.705 C 34.843 51.596, 33 55.855, 33 61.944 C 33 71.849, 38.048 80.529, 46.754 85.596 C 50.895 88.005, 52.596 88.366, 60.096 88.429 C 65.971 88.477, 69.212 88.069, 70.334 87.138 C 71.236 86.389, 72.639 86.031, 73.450 86.343 C 76.087 87.354, 81.300 78.900, 79.283 76.883 C 78.729 76.329, 76.675 77.530, 74.082 79.925 C 70.572 83.165, 68.810 84.005, 64.357 84.561 C 47.480 86.670, 35.737 68.136, 43.884 52.247 C 48.062 44.098, 52.721 41, 60.798 41 C 65.986 41, 67.005 41.345, 69.583 43.972 C 73.133 47.590, 76.006 47.939, 75.985 44.750 C 75.960 40.970, 73.644 37.518, 70.972 37.279 C 59.665 36.269, 55.150 36.167, 52.994 36.874 M 79.500 54 L 79.500 72 84.762 72 L 90.024 72 89.449 67.750 C 89.133 65.412, 88.669 62.487, 88.418 61.250 C 87.824 58.320, 89.660 58.320, 90.545 61.250 C 92.429 67.485, 101.069 72.809, 108.250 72.158 C 111.254 71.886, 110.369 68.240, 107.126 67.528 C 104.158 66.876, 101.654 64.567, 98.615 59.679 C 96.892 56.908, 96.906 56.816, 99.441 54.467 C 103.154 51.026, 104.296 47.426, 102.958 43.373 C 101.107 37.764, 97.491 36, 87.846 36 L 79.500 36 79.500 54 M 168 37.500 C 168 38.325, 168.456 39, 169.013 39 C 169.570 39, 170.984 41.138, 172.155 43.750 C 173.326 46.362, 175.499 51.200, 176.985 54.500 C 178.471 57.800, 180.740 63.087, 182.027 66.250 C 185.570 74.952, 186.613 74.377, 192.450 60.500 C 194.532 55.550, 196.569 51.050, 196.977 50.500 C 197.385 49.950, 198.516 47.369, 199.490 44.764 C 200.464 42.159, 201.877 39.517, 202.630 38.892 C 205.031 36.899, 204.120 36, 199.700 36 C 195.526 36, 195.398 36.096, 195.346 39.250 C 195.274 43.638, 188.547 57.686, 187.395 55.852 C 185.189 52.339, 180.357 38.897, 181.129 38.420 C 183.578 36.907, 181.281 36, 175 36 C 169.444 36, 168 36.310, 168 37.500 M 205.631 37.750 C 207.002 40.590, 207.290 66.946, 205.968 68.539 C 204.039 70.863, 205.875 72, 211.559 72 C 215.630 72, 217 71.637, 217 70.559 C 217 69.766, 216.550 68.840, 216 68.500 C 215.411 68.136, 215 62.176, 215 54 C 215 45.824, 215.411 39.864, 216 39.500 C 216.550 39.160, 217 38.234, 217 37.441 C 217 36.344, 215.544 36, 210.893 36 C 205.422 36, 204.874 36.182, 205.631 37.750 M 222 36.941 C 222 37.459, 222.450 38.160, 223 38.500 C 224.496 39.424, 224.327 68.724, 222.823 69.226 C 222.176 69.441, 221.977 70.154, 222.382 70.809 C 222.885 71.623, 226.897 72, 235.046 72 L 246.973 72 248.510 68.323 C 250.632 63.243, 249.230 62.226, 243.759 64.875 C 239.181 67.091, 237.238 67.412, 234.582 66.393 C 233.249 65.882, 233 63.688, 233 52.452 C 233 44.641, 233.414 38.862, 234 38.500 C 236.526 36.939, 234.461 36, 228.500 36 C 224.925 36, 222 36.423, 222 36.941 M 249 36.941 C 249 37.459, 249.450 38.160, 250 38.500 C 251.423 39.380, 251.319 67.281, 249.887 68.713 C 247.408 71.192, 250.273 72, 261.533 72 L 272.949 72 274.474 69.050 C 276.226 65.662, 276.456 63, 274.996 63 C 274.444 63, 272.314 63.900, 270.261 65 C 266.456 67.039, 263.409 67.478, 260.582 66.393 C 259.248 65.881, 259 63.683, 259 52.393 C 259 44.131, 259.383 39, 260 39 C 260.550 39, 261 38.325, 261 37.500 C 261 36.333, 259.667 36, 255 36 C 251.700 36, 249 36.423, 249 36.941 M 275 36.800 C 275 37.240, 275.521 38.121, 276.157 38.757 C 276.936 39.536, 277.442 46.987, 277.705 61.562 C 278.057 81.063, 277.928 83.332, 276.395 84.453 C 272.698 87.156, 275.919 88, 289.937 88 C 305.103 88, 305.373 87.900, 306.500 81.865 C 307.359 77.270, 305.962 76.347, 302.971 79.531 C 300.944 81.689, 299.791 82, 293.826 82 L 287 82 287 72 L 287 62 293.893 62 C 299.098 62, 300.927 62.367, 301.362 63.500 C 302.625 66.792, 304 64.739, 304 59.559 C 304 53.671, 302.744 51.741, 301.015 54.972 C 300.095 56.690, 298.936 57, 293.424 57 L 286.919 57 287.210 48.750 L 287.500 40.500 293.166 40.203 C 298.217 39.937, 299.100 40.195, 301.309 42.577 C 305.130 46.698, 307.382 44.128, 304.839 38.547 L 303.679 36 289.339 36 C 281.453 36, 275 36.360, 275 36.800 M 89 46.500 C 89 51.130, 89.285 52, 90.800 52 C 93.467 52, 95 49.992, 95 46.500 C 95 43.008, 93.467 41, 90.800 41 C 89.285 41, 89 41.870, 89 46.500 M 116.123 43.369 C 112.902 46.798, 112.086 50.767, 113.567 55.796 C 115.202 61.347, 116.565 62.910, 121.790 65.227 C 129.711 68.739, 136 64.461, 136 55.559 C 136 47.373, 130.073 41.019, 122.424 41.007 C 119.424 41.002, 117.761 41.625, 116.123 43.369 M 83 79.500 L 83 82.010 178.250 81.755 C 272.748 81.502, 273.500 81.484, 273.500 79.500 C 273.500 77.516, 272.748 77.498, 178.250 77.245 L 83 76.990 83 79.500" stroke="none" fill="#d5ce7e" fill-rule="evenodd"/><path d="M 0 60.003 L 0 120.006 171.250 119.753 L 342.500 119.500 342.758 59.750 L 343.016 0 171.508 0 L 0 0 0 60.003 M 0.469 60.500 C 0.469 93.500, 0.596 106.855, 0.750 90.178 C 0.904 73.501, 0.903 46.501, 0.749 30.178 C 0.595 13.855, 0.469 27.500, 0.469 60.500 M 118 36.594 C 107.730 41.043, 103.138 52.499, 107.903 61.790 C 110.520 66.894, 113.640 69.511, 119.410 71.442 C 123.969 72.967, 124.697 72.967, 129.569 71.434 C 146.649 66.062, 147.860 44.384, 131.500 36.879 C 126.660 34.659, 122.663 34.574, 118 36.594 M 150.567 36.889 C 141.540 43.016, 144.144 52.943, 155.975 57.500 C 162.170 59.886, 163.422 61.182, 162.620 64.376 C 161.316 69.572, 153.354 68.409, 149.877 62.515 C 146.531 56.845, 143.801 58.838, 145.959 65.377 C 148.871 74.199, 162.470 75.245, 167.328 67.021 C 169.444 63.440, 169.480 57.130, 167.403 54.164 C 166.027 52.201, 159.875 48.832, 153.683 46.651 C 152.399 46.199, 151.959 45.204, 152.183 43.256 C 152.446 40.972, 153.045 40.447, 155.683 40.192 C 158.169 39.951, 159.723 40.658, 162.784 43.424 C 167 47.233, 168 47.156, 168 43.024 C 168 39.764, 165.894 36.735, 163.385 36.387 C 162.348 36.243, 159.700 35.849, 157.500 35.512 C 154.437 35.042, 152.813 35.365, 150.567 36.889 M 52.994 36.874 C 47.758 38.592, 44.091 41.090, 40.028 45.705 C 34.843 51.596, 33 55.855, 33 61.944 C 33 71.849, 38.048 80.529, 46.754 85.596 C 50.895 88.005, 52.596 88.366, 60.096 88.429 C 65.971 88.477, 69.212 88.069, 70.334 87.138 C 71.236 86.389, 72.639 86.031, 73.450 86.343 C 76.087 87.354, 81.300 78.900, 79.283 76.883 C 78.729 76.329, 76.675 77.530, 74.082 79.925 C 70.572 83.165, 68.810 84.005, 64.357 84.561 C 47.480 86.670, 35.737 68.136, 43.884 52.247 C 48.062 44.098, 52.721 41, 60.798 41 C 65.986 41, 67.005 41.345, 69.583 43.972 C 73.133 47.590, 76.006 47.939, 75.985 44.750 C 75.960 40.970, 73.644 37.518, 70.972 37.279 C 59.665 36.269, 55.150 36.167, 52.994 36.874 M 79.500 54 L 79.500 72 84.762 72 L 90.024 72 89.449 67.750 C 89.133 65.412, 88.669 62.487, 88.418 61.250 C 87.824 58.320, 89.660 58.320, 90.545 61.250 C 92.429 67.485, 101.069 72.809, 108.250 72.158 C 111.254 71.886, 110.369 68.240, 107.126 67.528 C 104.158 66.876, 101.654 64.567, 98.615 59.679 C 96.892 56.908, 96.906 56.816, 99.441 54.467 C 103.154 51.026, 104.296 47.426, 102.958 43.373 C 101.107 37.764, 97.491 36, 87.846 36 L 79.500 36 79.500 54 M 168 37.500 C 168 38.325, 168.456 39, 169.013 39 C 169.570 39, 170.984 41.138, 172.155 43.750 C 173.326 46.362, 175.499 51.200, 176.985 54.500 C 178.471 57.800, 180.740 63.087, 182.027 66.250 C 185.570 74.952, 186.613 74.377, 192.450 60.500 C 194.532 55.550, 196.569 51.050, 196.977 50.500 C 197.385 49.950, 198.516 47.369, 199.490 44.764 C 200.464 42.159, 201.877 39.517, 202.630 38.892 C 205.031 36.899, 204.120 36, 199.700 36 C 195.526 36, 195.398 36.096, 195.346 39.250 C 195.274 43.638, 188.547 57.686, 187.395 55.852 C 185.189 52.339, 180.357 38.897, 181.129 38.420 C 183.578 36.907, 181.281 36, 175 36 C 169.444 36, 168 36.310, 168 37.500 M 205.631 37.750 C 207.002 40.590, 207.290 66.946, 205.968 68.539 C 204.039 70.863, 205.875 72, 211.559 72 C 215.630 72, 217 71.637, 217 70.559 C 217 69.766, 216.550 68.840, 216 68.500 C 215.411 68.136, 215 62.176, 215 54 C 215 45.824, 215.411 39.864, 216 39.500 C 216.550 39.160, 217 38.234, 217 37.441 C 217 36.344, 215.544 36, 210.893 36 C 205.422 36, 204.874 36.182, 205.631 37.750 M 222 36.941 C 222 37.459, 222.450 38.160, 223 38.500 C 224.496 39.424, 224.327 68.724, 222.823 69.226 C 222.176 69.441, 221.977 70.154, 222.382 70.809 C 222.885 71.623, 226.897 72, 235.046 72 L 246.973 72 248.510 68.323 C 250.632 63.243, 249.230 62.226, 243.759 64.875 C 239.181 67.091, 237.238 67.412, 234.582 66.393 C 233.249 65.882, 233 63.688, 233 52.452 C 233 44.641, 233.414 38.862, 234 38.500 C 236.526 36.939, 234.461 36, 228.500 36 C 224.925 36, 222 36.423, 222 36.941 M 249 36.941 C 249 37.459, 249.450 38.160, 250 38.500 C 251.423 39.380, 251.319 67.281, 249.887 68.713 C 247.408 71.192, 250.273 72, 261.533 72 L 272.949 72 274.474 69.050 C 276.226 65.662, 276.456 63, 274.996 63 C 274.444 63, 272.314 63.900, 270.261 65 C 266.456 67.039, 263.409 67.478, 260.582 66.393 C 259.248 65.881, 259 63.683, 259 52.393 C 259 44.131, 259.383 39, 260 39 C 260.550 39, 261 38.325, 261 37.500 C 261 36.333, 259.667 36, 255 36 C 251.700 36, 249 36.423, 249 36.941 M 275 36.800 C 275 37.240, 275.521 38.121, 276.157 38.757 C 276.936 39.536, 277.442 46.987, 277.705 61.562 C 278.057 81.063, 277.928 83.332, 276.395 84.453 C 272.698 87.156, 275.919 88, 289.937 88 C 305.103 88, 305.373 87.900, 306.500 81.865 C 307.359 77.270, 305.962 76.347, 302.971 79.531 C 300.944 81.689, 299.791 82, 293.826 82 L 287 82 287 72 L 287 62 293.893 62 C 299.098 62, 300.927 62.367, 301.362 63.500 C 302.625 66.792, 304 64.739, 304 59.559 C 304 53.671, 302.744 51.741, 301.015 54.972 C 300.095 56.690, 298.936 57, 293.424 57 L 286.919 57 287.210 48.750 L 287.500 40.500 293.166 40.203 C 298.217 39.937, 299.100 40.195, 301.309 42.577 C 305.130 46.698, 307.382 44.128, 304.839 38.547 L 303.679 36 289.339 36 C 281.453 36, 275 36.360, 275 36.800 M 89 46.500 C 89 51.130, 89.285 52, 90.800 52 C 93.467 52, 95 49.992, 95 46.500 C 95 43.008, 93.467 41, 90.800 41 C 89.285 41, 89 41.870, 89 46.500 M 116.123 43.369 C 112.902 46.798, 112.086 50.767, 113.567 55.796 C 115.202 61.347, 116.565 62.910, 121.790 65.227 C 129.711 68.739, 136 64.461, 136 55.559 C 136 47.373, 130.073 41.019, 122.424 41.007 C 119.424 41.002, 117.761 41.625, 116.123 43.369 M 83 79.500 L 83 82.010 178.250 81.755 C 272.748 81.502, 273.500 81.484, 273.500 79.500 C 273.500 77.516, 272.748 77.498, 178.250 77.245 L 83 76.990 83 79.500" stroke="none" fill="#057d0d" fill-rule="evenodd"/></svg>