<?xml version="1.0" encoding="UTF-8"?>
<svg version="1.1" xmlns="http://www.w3.org/2000/svg" width="129" height="130">
<path d="M0 0 C42.57 0 85.14 0 129 0 C129 42.9 129 85.8 129 130 C86.43 130 43.86 130 0 130 C0 87.1 0 44.2 0 0 Z " fill="#FDDE1F" transform="translate(0,0)"/>
<path d="M0 0 C0 0.99 0 1.98 0 3 C-2.64 3.33 -5.28 3.66 -8 4 C-7.98428955 4.69971924 -7.9685791 5.39943848 -7.95239258 6.12036133 C-7.8892767 9.35098896 -7.8507692 12.58148618 -7.8125 15.8125 C-7.78736328 16.91271484 -7.76222656 18.01292969 -7.73632812 19.14648438 C-7.64854396 29.06609514 -8.37215891 38.31728786 -15.5625 45.75 C-28.56855421 58.96309704 -44.97326097 65.85987651 -63.5625 66.375 C-81.87994729 65.82059784 -97.6478929 57.78419505 -110.24609375 44.66015625 C-120.43894595 32.77170671 -125.30571883 18.46522097 -125 3 C-123.49663086 3.04543945 -123.49663086 3.04543945 -121.96289062 3.09179688 C-91.19287123 4.00633431 -60.4015423 4.62203825 -29.625 3.625 C-28.04948364 3.57883545 -28.04948364 3.57883545 -26.44213867 3.53173828 C-20.11397443 3.28063306 -14.17053933 2.39677726 -8 1 C-5.20653043 0.39386486 -2.86985286 0 0 0 Z " fill="#DD7E20" transform="translate(126,63)"/>
<path d="M0 0 C42.57 0 85.14 0 129 0 C129 42.9 129 85.8 129 130 C86.43 130 43.86 130 0 130 C0 87.1 0 44.2 0 0 Z M16 23 C2.80102526 38.81155531 -0.44538839 56.0418109 1 76 C2.93431761 90.55483994 11.13968377 105.01964169 22.52636719 114.23535156 C36.23572804 124.7257776 51.4674738 130.71619834 69 129 C87.03994054 126.35936464 102.47268423 118.95846104 114.0625 104.4375 C118.57312385 96.43478027 118.25973988 87.91843098 118.125 78.9375 C118.11597656 77.78572266 118.10695313 76.63394531 118.09765625 75.44726562 C118.07428714 72.63128807 118.04152565 69.81575842 118 67 C120.64 66.67 123.28 66.34 126 66 C126 61.38 126 56.76 126 52 C124.948125 51.54625 123.89625 51.0925 122.8125 50.625 C122.22082031 50.36976562 121.62914063 50.11453125 121.01953125 49.8515625 C118.93257717 48.9227369 118.93257717 48.9227369 116.375 48.2578125 C114 47 114 47 112.91796875 44.453125 C112.55638672 42.86757812 112.55638672 42.86757812 112.1875 41.25 C110.33534891 34.37714182 107.3619976 28.9216684 103.70703125 22.8984375 C102 20 102 20 101 17 C100.01 16.505 100.01 16.505 99 16 C98.59007813 15.22011719 98.18015625 14.44023437 97.7578125 13.63671875 C95.53252991 10.29879487 93.52331961 9.42103808 89.875 7.8125 C88.79992187 7.32394531 87.72484375 6.83539063 86.6171875 6.33203125 C61.60408838 -2.87905601 34.24085473 3.61237248 16 23 Z " fill="#F0EFED" transform="translate(0,0)"/>
<path d="M0 0 C0.66 0 1.32 0 2 0 C2 18.81 2 37.62 2 57 C-40.24 57 -82.48 57 -126 57 C-126 40.5 -126 24 -126 7 C-125.01 7.33 -124.02 7.66 -123 8 C-121.82421875 10.58984375 -121.82421875 10.58984375 -120.6875 13.9375 C-114.52034845 30.76369855 -103.64286079 42.57162449 -87.5 50.375 C-70.50539388 57.13562798 -52.92434817 56.40641885 -36.15625 49.4921875 C-19.38819033 41.65494222 -9.0483899 28.65889728 -2.76269531 11.55639648 C-1.43654857 7.73525469 -0.54478001 4.00537119 0 0 Z " fill="#FEFDFC" transform="translate(126,73)"/>
<path d="M0 0 C0 0.99 0 1.98 0 3 C-2.64 3.33 -5.28 3.66 -8 4 C-7.98428955 4.69971924 -7.9685791 5.39943848 -7.95239258 6.12036133 C-7.8892767 9.35098896 -7.8507692 12.58148618 -7.8125 15.8125 C-7.78736328 16.91271484 -7.76222656 18.01292969 -7.73632812 19.14648438 C-7.64435718 29.5392017 -8.57144566 38.54199093 -16.0625 46.1875 C-16.94035156 47.10917969 -17.81820312 48.03085938 -18.72265625 48.98046875 C-21 51 -21 51 -23 51 C-23 50.34 -23 49.68 -23 49 C-22.34 49 -21.68 49 -21 49 C-21 48.34 -21 47.68 -21 47 C-20.34 47 -19.68 47 -19 47 C-18.67 45.68 -18.34 44.36 -18 43 C-17.34 43 -16.68 43 -16 43 C-12.41702677 30.69419313 -12.67989398 18.70246356 -13 6 C-14.98 6 -16.96 6 -19 6 C-19 6.99 -19 7.98 -19 9 C-20.875 11.1875 -20.875 11.1875 -23 13 C-23.66 13 -24.32 13 -25 13 C-25 13.66 -25 14.32 -25 15 C-30.21202016 20.00353936 -37.06836534 20.2465776 -43.9375 20.125 C-44.62134766 20.11597656 -45.30519531 20.10695313 -46.00976562 20.09765625 C-47.67333287 20.07438958 -49.33671631 20.03853167 -51 20 C-51 19.34 -51 18.68 -51 18 C-51.5775 17.87625 -52.155 17.7525 -52.75 17.625 C-55.07394051 16.97946097 -56.94945654 16.27275111 -59 15 C-59.495 13.515 -59.495 13.515 -60 12 C-55.1444542 10.03153549 -50.56190771 9.59225885 -45.390625 9.24609375 C-42.98753764 9.14096605 -42.98753764 9.14096605 -41 8 C-48.26 8.33 -55.52 8.66 -63 9 C-63 9.99 -63 10.98 -63 12 C-63.66 12 -64.32 12 -65 12 C-65 10.68 -65 9.36 -65 8 C-69.95 8 -74.9 8 -80 8 C-80 9.32 -80 10.64 -80 12 C-80.66 12 -81.32 12 -82 12 C-82.495 10.02 -82.495 10.02 -83 8 C-93.23 7.67 -103.46 7.34 -114 7 C-114.33 6.34 -114.66 5.68 -115 5 C-97.82842718 4.90533283 -80.6637135 5.1833459 -63.49517822 5.46356201 C-59.70643939 5.52505113 -55.91767161 5.58470308 -52.12890625 5.64453125 C-44.75257546 5.76127042 -37.3762781 5.87997266 -30 6 C-30 5.34 -30 4.68 -30 4 C-29.14619751 3.92483154 -29.14619751 3.92483154 -28.27514648 3.84814453 C-25.66191893 3.61407662 -23.04976061 3.3696142 -20.4375 3.125 C-19.54224609 3.04636719 -18.64699219 2.96773438 -17.72460938 2.88671875 C-11.81364154 2.32376943 -5.80666566 0 0 0 Z " fill="#954F05" transform="translate(126,63)"/>
<path d="M0 0 C2.97 0 5.94 0 9 0 C9 0.66 9 1.32 9 2 C9.86782104 2.029729 9.86782104 2.029729 10.75317383 2.06005859 C31.98173114 2.82463304 31.98173114 2.82463304 41 5 C40.34 5.33 39.68 5.66 39 6 C39 6.66 39 7.32 39 8 C36.4385343 10.29648649 35.52032428 11 32 11 C32 11.66 32 12.32 32 13 C25.61701301 14.865559 18.3026325 15.36645307 12.1015625 12.80078125 C9.61665012 11.31953468 7.30809775 9.74179868 5 8 C3.96875 7.29875 2.9375 6.5975 1.875 5.875 C1.25625 5.25625 0.6375 4.6375 0 4 C0 2.68 0 1.36 0 0 Z " fill="#5B4128" transform="translate(1,70)"/>
<path d="M0 0 C-0.8125 2.4375 -0.8125 2.4375 -2 5 C-2.99 5.33 -3.98 5.66 -5 6 C-5 6.66 -5 7.32 -5 8 C-10.21202016 13.00353936 -17.06836534 13.2465776 -23.9375 13.125 C-24.62134766 13.11597656 -25.30519531 13.10695313 -26.00976562 13.09765625 C-27.67333287 13.07438958 -29.33671631 13.03853167 -31 13 C-31 12.34 -31 11.68 -31 11 C-31.5775 10.87625 -32.155 10.7525 -32.75 10.625 C-35.07394051 9.97946097 -36.94945654 9.27275111 -39 8 C-39.33 7.01 -39.66 6.02 -40 5 C-35.1444542 3.03153549 -30.56190771 2.59225885 -25.390625 2.24609375 C-22.98753764 2.14096605 -22.98753764 2.14096605 -21 1 C-13.97531479 -0.01971237 -7.08998119 -0.10796926 0 0 Z " fill="#46321F" transform="translate(106,70)"/>
<path d="M0 0 C6.97169579 1.1619493 10.62093511 4.57195759 15 10 C20.7824384 18.41458778 25.94558471 26.6667302 27 37 C17.20063358 34.73600845 17.20063358 34.73600845 14.51953125 30.859375 C13.52065313 28.26636894 12.73881701 25.67821165 12 23 C9.87302387 17.11536605 7.52567714 11.84578117 3.953125 6.69140625 C3 5 3 5 3 2 C2.01 1.67 1.02 1.34 0 1 C0 0.67 0 0.34 0 0 Z " fill="#F7C2BF" transform="translate(98,15)"/>
<path d="M0 0 C1.38554077 0.04543945 1.38554077 0.04543945 2.79907227 0.09179688 C33.53386611 1.07557757 64.25185802 1.11375781 95 1 C95 1.66 95 2.32 95 3 C67.28 3 39.56 3 11 3 C21.23 3.66 31.46 4.32 42 5 C42.495 6.98 42.495 6.98 43 9 C43.66 9 44.32 9 45 9 C45 7.68 45 6.36 45 5 C49.95 5 54.9 5 60 5 C59.67 6.32 59.34 7.64 59 9 C59 8.01 59 7.02 59 6 C54.71 6 50.42 6 46 6 C45.67 7.65 45.34 9.3 45 11 C43.02 11 41.04 11 39 11 C39 10.67 39 10.34 39 10 C32.31226546 8.36750685 25.79133513 7.4568844 18.9375 6.875 C17.97650391 6.78863281 17.01550781 6.70226562 16.02539062 6.61328125 C13.68400552 6.40360497 11.34228922 6.1992756 9 6 C9 5.34 9 4.68 9 4 C6.03 4 3.06 4 0 4 C0 2.68 0 1.36 0 0 Z " fill="#BA7911" transform="translate(1,66)"/>
<path d="M0 0 C0.33 0 0.66 0 1 0 C1.66236054 12.46219093 -1.29896784 23.89341601 -7 35 C-8.65625 36.83984375 -8.65625 36.83984375 -10 38 C-9.84660156 36.948125 -9.69320312 35.89625 -9.53515625 34.8125 C-8.79552465 28.89544724 -8.64554912 22.95497967 -8.4375 17 C-8.39431641 15.84371094 -8.35113281 14.68742187 -8.30664062 13.49609375 C-8.20132083 10.66416146 -8.09918913 7.83215253 -8 5 C-5.36 4.67 -2.72 4.34 0 4 C0 2.68 0 1.36 0 0 Z " fill="#FBC9C7" transform="translate(126,62)"/>
<path d="M0 0 C1.24910156 0.09796875 2.49820313 0.1959375 3.78515625 0.296875 C5.65494141 0.42835937 5.65494141 0.42835937 7.5625 0.5625 C10.84765625 1.046875 10.84765625 1.046875 13.84765625 3.046875 C11.66927787 10.41984797 11.66927787 10.41984797 8.84765625 13.046875 C5.59765625 14.234375 5.59765625 14.234375 1.84765625 14.046875 C-1.05481152 12.12504682 -3.18138021 9.91002026 -5.15234375 7.046875 C-5.71484375 4.234375 -5.71484375 4.234375 -5.15234375 2.046875 C-3.15234375 0.046875 -3.15234375 0.046875 0 0 Z " fill="#FE565E" transform="translate(50.15234375,84.953125)"/>
<path d="M0 0 C10.92 3.38 10.92 3.38 13.75 7.625 C14.1625 8.40875 14.575 9.1925 15 10 C15.66 10.33 16.32 10.66 17 11 C21.94843562 18.67603718 28.17208519 29.61065744 29.359375 38.7734375 C29.78784133 41.21505476 29.78784133 41.21505476 32.21484375 42.328125 C33.11332031 42.63234375 34.01179688 42.9365625 34.9375 43.25 C36.28134766 43.72179688 36.28134766 43.72179688 37.65234375 44.203125 C38.42707031 44.46609375 39.20179687 44.7290625 40 45 C40.99 45.495 40.99 45.495 42 46 C41.67 47.32 41.34 48.64 41 50 C40.525625 49.54625 40.05125 49.0925 39.5625 48.625 C36.91260597 46.9445794 35.47530711 46.69528117 32.4375 46.25 C30.0546875 45.7734375 30.0546875 45.7734375 28 45 C26.35968906 42.35433719 25.70030821 40.89724282 25 38 C24.79890625 37.30777344 24.5978125 36.61554687 24.390625 35.90234375 C23.442659 32.47557476 23 29.57158343 23 26 C22.34 26 21.68 26 21 26 C20.505 23.525 20.505 23.525 20 21 C19.34 21 18.68 21 18 21 C17.76925781 20.48050781 17.53851563 19.96101563 17.30078125 19.42578125 C15.11696218 14.75603375 12.88305796 11.49475216 9 8 C8.34 7.29875 7.68 6.5975 7 5.875 C4.83495484 3.84527016 2.55517366 2.49051797 0 1 C0 0.67 0 0.34 0 0 Z " fill="#AE6C1A" transform="translate(84,6)"/>
<path d="M0 0 C0.66 0 1.32 0 2 0 C1.32829194 3.8063457 0.27253436 7.35206816 -1 11 C3.455 13.97 3.455 13.97 8 17 C5 18 5 18 2.58203125 16.890625 C1.66808594 16.34921875 0.75414062 15.8078125 -0.1875 15.25 C-8.73952889 10.20931916 -15.58476835 8.54021201 -25.5 8.3125 C-26.51320313 8.27833984 -27.52640625 8.24417969 -28.5703125 8.20898438 C-31.04676417 8.12721474 -33.52289349 8.0578375 -36 8 C-36.33 7.34 -36.66 6.68 -37 6 C-32.71320923 4.79890784 -28.67499567 4.81611519 -24.25 4.8125 C-23.4765625 4.80025391 -22.703125 4.78800781 -21.90625 4.77539062 C-16.61087482 4.76206334 -12.08898881 5.53023497 -7 7 C-7 7.66 -7 8.32 -7 9 C-5.68 9 -4.36 9 -3 9 C-2.67 7.02 -2.34 5.04 -2 3 C-1.34 3 -0.68 3 0 3 C0 2.01 0 1.02 0 0 Z " fill="#482809" transform="translate(52,99)"/>
<path d="M0 0 C4.29 0.33 8.58 0.66 13 1 C13 2.32 13 3.64 13 5 C16.41656024 5.16677282 16.41656024 5.16677282 20 5 C20.66 4.34 21.32 3.68 22 3 C24.1640625 2.8046875 24.1640625 2.8046875 26.625 2.875 C27.85089844 2.90207031 27.85089844 2.90207031 29.1015625 2.9296875 C30.04128906 2.96449219 30.04128906 2.96449219 31 3 C31 3.66 31 4.32 31 5 C25.26325711 8.98384923 19.83983749 9.62998503 13 9 C7.90170791 7.76184335 3.80270458 5.68387006 0 2 C0 1.34 0 0.68 0 0 Z " fill="#B9B9B9" transform="translate(6,73)"/>
<path d="M0 0 C-1.80455386 4.33092926 -4.15355745 5.88026313 -8.2265625 8.015625 C-13.88007366 10.02222333 -20.42598527 10.13542706 -26.1640625 8.3125 C-27.8125 7.5 -27.8125 7.5 -30 6 C-30 5.34 -30 4.68 -30 4 C-28.94039063 4.03480469 -27.88078125 4.06960937 -26.7890625 4.10546875 C-25.40105748 4.13360399 -24.01303537 4.16090443 -22.625 4.1875 C-21.57699219 4.22520508 -21.57699219 4.22520508 -20.5078125 4.26367188 C-18.23252323 4.32978561 -18.23252323 4.32978561 -15 4 C-14.34 3.01 -13.68 2.02 -13 1 C-10.9765625 0.48828125 -10.9765625 0.48828125 -8.625 0.3125 C-7.46871094 0.21388672 -7.46871094 0.21388672 -6.2890625 0.11328125 C-4.19493105 0.00964676 -2.09669422 0 0 0 Z " fill="#F3F3F3" transform="translate(102,72)"/>
<path d="M0 0 C0.33 0 0.66 0 1 0 C1.08840346 3.93735417 1.1408564 7.87444724 1.1875 11.8125 C1.22520508 13.46282227 1.22520508 13.46282227 1.26367188 15.14648438 C1.35564282 25.5392017 0.42855434 34.54199093 -7.0625 42.1875 C-7.94035156 43.10917969 -8.81820312 44.03085938 -9.72265625 44.98046875 C-12 47 -12 47 -14 47 C-14 46.34 -14 45.68 -14 45 C-13.34 45 -12.68 45 -12 45 C-12 44.34 -12 43.68 -12 43 C-11.34 43 -10.68 43 -10 43 C-9.67 41.68 -9.34 40.36 -9 39 C-8.34 39 -7.68 39 -7 39 C-5.515 32.07 -5.515 32.07 -4 25 C-3.34 25.66 -2.68 26.32 -2 27 C-0.98412022 23.95236066 -0.80195594 21.65281033 -0.68359375 18.45703125 C-0.64169922 17.38388672 -0.59980469 16.31074219 -0.55664062 15.20507812 C-0.51732422 14.08552734 -0.47800781 12.96597656 -0.4375 11.8125 C-0.39431641 10.68134766 -0.35113281 9.55019531 -0.30664062 8.38476562 C-0.20050901 5.58996646 -0.09845615 2.79507838 0 0 Z " fill="#C55136" transform="translate(117,67)"/>
<path d="M0 0 C30.88173253 -0.28477007 30.88173253 -0.28477007 41 2 C41 2.33 41 2.66 41 3 C39.02 3 37.04 3 35 3 C35 4.32 35 5.64 35 7 C34.34 7 33.68 7 33 7 C32.505 5.02 32.505 5.02 32 3 C21.77 2.67 11.54 2.34 1 2 C0.67 1.34 0.34 0.68 0 0 Z " fill="#9E5506" transform="translate(11,68)"/>
<path d="M0 0 C0.05847045 3.85410207 0.09375405 7.70808865 0.125 11.5625 C0.14175781 12.64853516 0.15851563 13.73457031 0.17578125 14.85351562 C0.21098659 20.64479442 -0.01076326 25.54134642 -2 31 C-2.33 31 -2.66 31 -3 31 C-3.33 21.1 -3.66 11.2 -4 1 C-1 0 -1 0 0 0 Z " fill="#B73107" transform="translate(117,67)"/>
<path d="M0 0 C2.475 0.495 2.475 0.495 5 1 C5.90570419 7.89618858 6.1222984 14.61208545 6.0625 21.5625 C6.05798828 22.57119141 6.05347656 23.57988281 6.04882812 24.61914062 C6.03716769 27.07949147 6.02080378 29.53971239 6 32 C5.34 31.67 4.68 31.34 4 31 C3.67 23.08 3.34 15.16 3 7 C2.34 7 1.68 7 1 7 C0.67 4.69 0.34 2.38 0 0 Z " fill="#B57B0B" transform="translate(78,4)"/>
<path d="M0 0 C0.99 0 1.98 0 3 0 C7.97285783 10.16192686 7.79764509 23.01439111 6 34 C5.34 34 4.68 34 4 34 C3.67 25.09 3.34 16.18 3 7 C2.34 7 1.68 7 1 7 C0.67 4.69 0.34 2.38 0 0 Z " fill="#B9820E" transform="translate(51,3)"/>
<path d="M0 0 C9.47266484 0.42199445 18.71179652 0.93372579 28 3 C26.4375 5.5625 26.4375 5.5625 24 8 C20.25 7.8125 20.25 7.8125 17 7 C17 5.68 17 4.36 17 3 C11.39 2.67 5.78 2.34 0 2 C0 1.34 0 0.68 0 0 Z " fill="#382C21" transform="translate(2,71)"/>
<path d="M0 0 C0 0.33 0 0.66 0 1 C-6.15562742 2.37533541 -12.15723868 3.28403183 -18.45703125 3.65625 C-21.24065177 4.0325305 -23.43298163 4.87984653 -26 6 C-26.99 6.33 -27.98 6.66 -29 7 C-29.99 6.34 -30.98 5.68 -32 5 C-31.34 5 -30.68 5 -30 5 C-30 4.01 -30 3.02 -30 2 C-20.6811346 -1.10628847 -9.72836213 -0.11961101 0 0 Z " fill="#D2771C" transform="translate(93,70)"/>
<path d="M0 0 C4.29 0.33 8.58 0.66 13 1 C13.33 2.98 13.66 4.96 14 7 C8.22085395 6.74818536 4.16982776 6.43884891 0 2 C0 1.34 0 0.68 0 0 Z " fill="#FCFCFC" transform="translate(6,73)"/>
<path d="M0 0 C0.66 0 1.32 0 2 0 C1.32829194 3.8063457 0.27253436 7.35206816 -1 11 C1.97 12.98 4.94 14.96 8 17 C5 18 5 18 2.37109375 16.8203125 C1.40300781 16.26085937 0.43492188 15.70140625 -0.5625 15.125 C-1.53316406 14.57070312 -2.50382812 14.01640625 -3.50390625 13.4453125 C-4.32761719 12.96835938 -5.15132812 12.49140625 -6 12 C-6.66 11.67 -7.32 11.34 -8 11 C-8 10.34 -8 9.68 -8 9 C-6.35 9 -4.7 9 -3 9 C-2.67 7.02 -2.34 5.04 -2 3 C-1.34 3 -0.68 3 0 3 C0 2.01 0 1.02 0 0 Z " fill="#55300B" transform="translate(52,99)"/>
<path d="M0 0 C5.28 0 10.56 0 16 0 C16 0.66 16 1.32 16 2 C15.34 2 14.68 2 14 2 C14 2.66 14 3.32 14 4 C16.64 3.67 19.28 3.34 22 3 C17.13544996 6.24303336 11.69368099 5.48145097 6 5 C3.58322891 4.25339036 2.09846599 3.43894811 0 2 C0 1.34 0 0.68 0 0 Z " fill="#B3B3B3" transform="translate(72,76)"/>
<path d="M0 0 C0 0.99 0 1.98 0 3 C-10.3925806 6.19910742 -19.305489 6.0630472 -30 5 C-30 4.67 -30 4.34 -30 4 C-29.14619751 3.92483154 -29.14619751 3.92483154 -28.27514648 3.84814453 C-25.66191893 3.61407662 -23.04976061 3.3696142 -20.4375 3.125 C-19.54224609 3.04636719 -18.64699219 2.96773438 -17.72460938 2.88671875 C-11.81364154 2.32376943 -5.80666566 0 0 0 Z " fill="#AA6309" transform="translate(126,63)"/>
<path d="M0 0 C6.27 0 12.54 0 19 0 C19.33 0.66 19.66 1.32 20 2 C14.06 2.495 14.06 2.495 8 3 C7.67 4.32 7.34 5.64 7 7 C5.83040013 6.02433888 4.66438823 5.044375 3.5 4.0625 C2.8503125 3.51722656 2.200625 2.97195312 1.53125 2.41015625 C1.0259375 1.94480469 0.520625 1.47945313 0 1 C0 0.67 0 0.34 0 0 Z " fill="#DF8228" transform="translate(17,108)"/>
<path d="M0 0 C0.66 0 1.32 0 2 0 C2.67667998 1.24460783 3.34094719 2.49596896 4 3.75 C4.556875 4.79414063 4.556875 4.79414063 5.125 5.859375 C6 8 6 8 6 12 C6.66 12 7.32 12 8 12 C8 14.97 8 17.94 8 21 C7.34 21 6.68 21 6 21 C5.73445313 20.03578125 5.46890625 19.0715625 5.1953125 18.078125 C4.84210937 16.81484375 4.48890625 15.5515625 4.125 14.25 C3.77695312 12.99703125 3.42890625 11.7440625 3.0703125 10.453125 C2.14447215 7.13567355 2.14447215 7.13567355 0.8671875 4.734375 C0 3 0 3 0 0 Z " fill="#C69312" transform="translate(22,17)"/>
<path d="M0 0 C1.89510699 -0.08160748 3.79124504 -0.13946459 5.6875 -0.1875 C6.74324219 -0.22230469 7.79898438 -0.25710937 8.88671875 -0.29296875 C12.38158604 0.03590835 14.22938553 0.87706164 17 3 C17 3.66 17 4.32 17 5 C11.08507728 4.54775239 5.64800112 3.8417395 0 2 C0 1.34 0 0.68 0 0 Z " fill="#57310B" transform="translate(26,111)"/>
<path d="M0 0 C3.465 1.98 3.465 1.98 7 4 C7 4.66 7 5.32 7 6 C7.99 6.33 8.98 6.66 10 7 C9.01 7.495 9.01 7.495 8 8 C7.566875 7.525625 7.13375 7.05125 6.6875 6.5625 C4.97690387 4.76313043 4.97690387 4.76313043 2 4 C2 12.25 2 20.5 2 29 C1.67 29 1.34 29 1 29 C0.67 19.43 0.34 9.86 0 0 Z " fill="#E7C019" transform="translate(83,6)"/>
<path d="M0 0 C2.09749995 2.35968744 2.96905704 3.54616994 3.1875 6.75 C3.0946875 7.86375 3.0946875 7.86375 3 9 C4.010625 8.938125 5.02125 8.87625 6.0625 8.8125 C10.55499372 9.02642827 13.01085961 10.04613532 17 12 C16.67 13.32 16.34 14.64 16 16 C15.525625 15.54625 15.05125 15.0925 14.5625 14.625 C11.91260597 12.9445794 10.47530711 12.69528117 7.4375 12.25 C5.0625 11.7890625 5.0625 11.7890625 3 11 C0.56181396 7.01024103 0 4.67125614 0 0 Z " fill="#CA972C" transform="translate(109,40)"/>
<path d="M0 0 C2.29371595 0.03813083 4.58633147 0.15570982 6.875 0.3125 C8.75832031 0.43044922 8.75832031 0.43044922 10.6796875 0.55078125 C14 1 14 1 17 3 C16.67 4.65 16.34 6.3 16 8 C15.81695312 7.36578125 15.63390625 6.7315625 15.4453125 6.078125 C14.08900123 3.64400014 14.08900123 3.64400014 10.7421875 3.171875 C9.46601562 3.03265625 8.18984375 2.8934375 6.875 2.75 C5.59367187 2.60046875 4.31234375 2.4509375 2.9921875 2.296875 C2.00476562 2.19890625 1.01734375 2.1009375 0 2 C0 2.99 0 3.98 0 5 C-0.66 5 -1.32 5 -2 5 C-1.125 1.125 -1.125 1.125 0 0 Z " fill="#EE5443" transform="translate(47,85)"/>
<path d="M0 0 C5.69051363 0.5381371 11.34865884 1.1400133 17 2 C16.01 2.495 16.01 2.495 15 3 C15 3.66 15 4.32 15 5 C9.82421875 8.22265625 9.82421875 8.22265625 8 9 C7.01 8.67 6.02 8.34 5 8 C8.625 5 8.625 5 12 5 C12 4.34 12 3.68 12 3 C10.7625 3.061875 9.525 3.12375 8.25 3.1875 C4.49490248 3.37525488 2.84017099 2.43717376 0 0 Z " fill="#442E18" transform="translate(25,73)"/>
<path d="M0 0 C0 0.33 0 0.66 0 1 C-0.94875 1.103125 -1.8975 1.20625 -2.875 1.3125 C-6.29107501 1.68539295 -6.29107501 1.68539295 -8 5 C-11.5 5.375 -11.5 5.375 -15 5 C-15.66 4.01 -16.32 3.02 -17 2 C-13.74446848 -1.25553152 -4.36230645 -0.07789833 0 0 Z " fill="#2B1F15" transform="translate(95,72)"/>
<path d="M0 0 C6.93 0 13.86 0 21 0 C21 0.99 21 1.98 21 3 C18.43719792 2.85845864 15.87484515 2.71191438 13.3125 2.5625 C12.59126953 2.52318359 11.87003906 2.48386719 11.12695312 2.44335938 C7.33292718 2.21814322 3.71348508 1.87160695 0 1 C0 0.67 0 0.34 0 0 Z " fill="#D4791C" transform="translate(22,71)"/>
<path d="M0 0 C7.26 0.33 14.52 0.66 22 1 C22 1.33 22 1.66 22 2 C14.64424835 2.70776992 7.3905476 3.14715692 0 3 C0 2.01 0 1.02 0 0 Z " fill="#B06E08" transform="translate(1,66)"/>
<path d="M0 0 C-0.66 1.32 -1.32 2.64 -2 4 C-2.33 3.01 -2.66 2.02 -3 1 C-4.65 1 -6.3 1 -8 1 C-8 1.66 -8 2.32 -8 3 C-12.95 3 -17.9 3 -23 3 C-18.05286787 -1.94713213 -6.60441095 -0.10057479 0 0 Z " fill="#51300F" transform="translate(106,70)"/>
<path d="M0 0 C0 0.33 0 0.66 0 1 C-9.04075456 3.6877919 -17.7504357 2.79404612 -27 2 C-27 1.67 -27 1.34 -27 1 C-17.96278689 0.05757182 -9.07448253 -0.11157151 0 0 Z " fill="#B66411" transform="translate(93,70)"/>
<path d="M0 0 C2.27071461 1.01790655 3.80784632 1.77442829 5.4375 3.6875 C6.96498894 5.28215581 6.96498894 5.28215581 9.375 4.8125 C11.98579184 4.00439776 14.48841881 3.07639194 17 2 C15.9375 4.4375 15.9375 4.4375 14 7 C10.75 8.25 10.75 8.25 7 8 C4.26484364 5.99244834 2.07137681 3.68208669 0 1 C0 0.67 0 0.34 0 0 Z " fill="#EC5047" transform="translate(45,91)"/>
<path d="M0 0 C0.33 0 0.66 0 1 0 C1.08696177 3.93736123 1.14037835 7.87447628 1.1875 11.8125 C1.21263672 12.93205078 1.23777344 14.05160156 1.26367188 15.20507812 C1.27333984 16.27822266 1.28300781 17.35136719 1.29296875 18.45703125 C1.3086792 19.44678955 1.32438965 20.43654785 1.34057617 21.45629883 C0.95047123 24.3699213 0.27991712 25.22497802 -2 27 C-1.84660156 25.88625 -1.69320312 24.7725 -1.53515625 23.625 C-0.92693771 18.75925164 -0.66688586 13.89607197 -0.4375 9 C-0.39431641 8.12988281 -0.35113281 7.25976562 -0.30664062 6.36328125 C-0.20175782 4.24231781 -0.10049925 2.12117567 0 0 Z " fill="#EDA7A1" transform="translate(118,73)"/>
<path d="M0 0 C10.99662162 3.40371622 10.99662162 3.40371622 13.375 7.1875 C13.58125 7.785625 13.7875 8.38375 14 9 C9.59151947 8.51016883 7.98899217 7.17580418 5 4 C3.34338239 2.98343919 1.67888441 1.97934924 0 1 C0 0.67 0 0.34 0 0 Z " fill="#B57536" transform="translate(84,6)"/>
<path d="M0 0 C3.3 0 6.6 0 10 0 C8.25 2.5 8.25 2.5 6 5 C4.68 5 3.36 5 2 5 C1.34 3.35 0.68 1.7 0 0 Z " fill="#0D0B09" transform="translate(20,74)"/>
<path d="M0 0 C0 0.99 0 1.98 0 3 C-5.94 3.495 -5.94 3.495 -12 4 C-12.33 3.34 -12.66 2.68 -13 2 C-8.49646738 0.24252386 -4.82360189 -0.19294408 0 0 Z " fill="#53381F" transform="translate(79,73)"/>
<path d="M0 0 C0 0.66 0 1.32 0 2 C0.969375 2.268125 1.93875 2.53625 2.9375 2.8125 C3.948125 3.204375 4.95875 3.59625 6 4 C6.33 4.99 6.66 5.98 7 7 C5.68 7 4.36 7 3 7 C3 6.34 3 5.68 3 5 C2.4225 4.896875 1.845 4.79375 1.25 4.6875 C-1.32049158 3.90207202 -2.93657284 2.69495803 -5 1 C-2 0 -2 0 0 0 Z " fill="#62482E" transform="translate(72,76)"/>
<path d="M0 0 C0.66 0 1.32 0 2 0 C1.39301257 4.12751449 -0.03810791 7.3321148 -2 11 C-3.32 10.34 -4.64 9.68 -6 9 C-5.01 9 -4.02 9 -3 9 C-2.67 7.02 -2.34 5.04 -2 3 C-1.34 3 -0.68 3 0 3 C0 2.01 0 1.02 0 0 Z " fill="#7A4312" transform="translate(52,99)"/>
<path d="M0 0 C2.23294289 2.5374351 3.06120277 4.23257054 3.9375 7.5625 C5.05986509 11.19368116 5.77089991 12.17017662 9 14 C6.03 13.505 6.03 13.505 3 13 C2.49242138 11.58603098 1.99425075 10.16868271 1.5 8.75 C1.08234375 7.56664062 1.08234375 7.56664062 0.65625 6.359375 C0 4 0 4 0 0 Z " fill="#AB6421" transform="translate(109,36)"/>
<path d="M0 0 C-3.5496416 2.20322582 -6.49648471 2.2686389 -10.625 2.25 C-11.77226562 2.25515625 -12.91953125 2.2603125 -14.1015625 2.265625 C-17 2 -17 2 -19 0 C-17.86111328 0.01740234 -17.86111328 0.01740234 -16.69921875 0.03515625 C-15.70535156 0.04417969 -14.71148437 0.05320312 -13.6875 0.0625 C-12.70136719 0.07410156 -11.71523438 0.08570312 -10.69921875 0.09765625 C-1.03583427 -0.25195969 -1.03583427 -0.25195969 0 0 Z " fill="#684018" transform="translate(33,82)"/>
<path d="M0 0 C4.29 0.33 8.58 0.66 13 1 C13 1.33 13 1.66 13 2 C8.545 2.495 8.545 2.495 4 3 C4.33 3.66 4.66 4.32 5 5 C3.0625 4.1875 3.0625 4.1875 1 3 C0.67 2.01 0.34 1.02 0 0 Z " fill="#A9A9A9" transform="translate(6,73)"/>
<path d="M0 0 C-0.66 1.32 -1.32 2.64 -2 4 C-2.33 3.34 -2.66 2.68 -3 2 C-6.63 2.66 -10.26 3.32 -14 4 C-13.67 3.01 -13.34 2.02 -13 1 C-11.58366664 0.83052421 -10.16691467 0.66454493 -8.75 0.5 C-7.56664063 0.36078125 -7.56664063 0.36078125 -6.359375 0.21875 C-4 0 -4 0 0 0 Z " fill="#A5A5A5" transform="translate(102,72)"/>
<path d="M0 0 C0 0.99 0 1.98 0 3 C-6.0546875 3.9765625 -6.0546875 3.9765625 -8 4 C-8.66 3.34 -9.32 2.68 -10 2 C-3.375 0 -3.375 0 0 0 Z " fill="#AF6E19" transform="translate(126,63)"/>
<path d="M0 0 C0.96661363 3.12180401 0.98988909 5.52083795 0.5625 8.75 C0.40974609 9.94882812 0.40974609 9.94882812 0.25390625 11.171875 C0.12822266 12.07679687 0.12822266 12.07679687 0 13 C-0.66 13 -1.32 13 -2 13 C-2 9.37 -2 5.74 -2 2 C-1.34 2 -0.68 2 0 2 C0 1.34 0 0.68 0 0 Z " fill="#D1A512" transform="translate(57,24)"/>
<path d="M0 0 C3.465 1.98 3.465 1.98 7 4 C7 4.66 7 5.32 7 6 C7.99 6.33 8.98 6.66 10 7 C9.01 7.495 9.01 7.495 8 8 C7.38125 7.2884375 7.38125 7.2884375 6.75 6.5625 C4.817815 4.83733482 3.51807725 4.43415125 1 4 C0.67 5.32 0.34 6.64 0 8 C0 5.36 0 2.72 0 0 Z " fill="#DCB314" transform="translate(83,6)"/>
<path d="M0 0 C1.65 0 3.3 0 5 0 C5.33 1.32 5.66 2.64 6 4 C5.01 4.33 4.02 4.66 3 5 C3 5.66 3 6.32 3 7 C1.02 7.33 -0.96 7.66 -3 8 C-0.66666667 5.66666667 1.66666667 3.33333333 4 1 C2.68 0.67 1.36 0.34 0 0 Z " fill="#594B3F" transform="translate(98,71)"/>
<path d="M0 0 C2.475 0.99 2.475 0.99 5 2 C5 2.66 5 3.32 5 4 C3.35333797 3.8864371 1.70763918 3.75882619 0.0625 3.625 C-0.85402344 3.55539063 -1.77054688 3.48578125 -2.71484375 3.4140625 C-3.84599609 3.20910156 -3.84599609 3.20910156 -5 3 C-5.33 2.34 -5.66 1.68 -6 1 C-4.02 1 -2.04 1 0 1 C0 0.67 0 0.34 0 0 Z " fill="#7E4611" transform="translate(38,112)"/>
<path d="M0 0 C0.99 0 1.98 0 3 0 C1.55922954 3.36179774 -0.24750021 5.59156268 -3 8 C-3.66 8 -4.32 8 -5 8 C-5 7.34 -5 6.68 -5 6 C-4.34 6 -3.68 6 -3 6 C-3 5.34 -3 4.68 -3 4 C-2.34 4 -1.68 4 -1 4 C-0.67 2.68 -0.34 1.36 0 0 Z " fill="#C45534" transform="translate(108,106)"/>
<path d="M0 0 C2.64 0 5.28 0 8 0 C8 0.99 8 1.98 8 3 C5.125 3.1875 5.125 3.1875 2 3 C1.34 2.01 0.68 1.02 0 0 Z " fill="#060505" transform="translate(78,74)"/>
<path d="M0 0 C0.99 0.66 1.98 1.32 3 2 C-2.17578125 5.22265625 -2.17578125 5.22265625 -4 6 C-4.99 5.67 -5.98 5.34 -7 5 C-3.375 2 -3.375 2 0 2 C0 1.34 0 0.68 0 0 Z " fill="#503B27" transform="translate(37,76)"/>
<path d="M0 0 C3.3 0 6.6 0 10 0 C9.67 0.99 9.34 1.98 9 3 C9 2.34 9 1.68 9 1 C7.35 1 5.7 1 4 1 C4 1.99 4 2.98 4 4 C3.34 4 2.68 4 2 4 C1.34 2.68 0.68 1.36 0 0 Z " fill="#EAEAEA" transform="translate(9,75)"/>
<path d="M0 0 C0.66 0 1.32 0 2 0 C2 0.66 2 1.32 2 2 C3.32 2.33 4.64 2.66 6 3 C5.34 3.66 4.68 4.32 4 5 C0.875 4.625 0.875 4.625 -2 4 C-1.34 3.67 -0.68 3.34 0 3 C0 2.01 0 1.02 0 0 Z " fill="#B26519" transform="translate(63,72)"/>
</svg>
