<?xml version="1.0" encoding="UTF-8"?>
<svg version="1.1" xmlns="http://www.w3.org/2000/svg" width="129" height="129">
<path d="M0 0 C42.57 0 85.14 0 129 0 C129 42.57 129 85.14 129 129 C86.43 129 43.86 129 0 129 C0 86.43 0 43.86 0 0 Z " fill="#96F995" transform="translate(0,0)"/>
<path d="M0 0 C42.57 0 85.14 0 129 0 C129 42.57 129 85.14 129 129 C86.43 129 43.86 129 0 129 C0 86.43 0 43.86 0 0 Z M19 21 C18.37738281 21.59039063 17.75476562 22.18078125 17.11328125 22.7890625 C5.74607298 34.38616936 1.60479089 49.93982715 1.70678711 65.66015625 C2.00964316 83.14176115 8.35823803 97.78792225 21 110 C21.58652344 110.57234375 22.17304688 111.1446875 22.77734375 111.734375 C31.04798656 119.28498538 40.26749384 123.1641752 51 126 C51.63059326 126.1757959 52.26118652 126.3515918 52.91088867 126.53271484 C64.2901823 129.07799567 77.41428064 127.47800888 88 123 C89.31677734 122.45666016 89.31677734 122.45666016 90.66015625 121.90234375 C105.14188285 115.29939267 117.35944936 102.72739795 123.22265625 87.91015625 C128.38950833 72.92813713 129.98869456 54.63053814 123 40 C122.36384766 38.6078125 122.36384766 38.6078125 121.71484375 37.1875 C118.1911998 30.12058178 113.55218189 24.57129439 108 19 C107.38511719 18.36191406 106.77023438 17.72382813 106.13671875 17.06640625 C94.43897119 5.81953547 78.56098657 1.47913107 62.71289062 1.65039062 C45.45760901 2.18825534 31.04195182 8.63259002 19 21 Z " fill="#FCFDFC" transform="translate(0,0)"/>
<path d="M0 0 C6.51459087 -0.33125038 9.69299262 0.26316631 14.8125 4.5 C16 6 16 6 16 9 C16.66 9 17.32 9 18 9 C18.33 10.65 18.66 12.3 19 14 C19.66 14 20.32 14 21 14 C21.33 15.32 21.66 16.64 22 18 C22.66 18 23.32 18 24 18 C25.515625 19.57421875 25.515625 19.57421875 27.25 21.6875 C32.92956026 28.29028096 37.20035337 31.68983039 46 33 C46 33.66 46 34.32 46 35 C51.39513622 36.78883827 56.20196835 37.38457474 61.875 37.375 C63.06319336 37.37693359 63.06319336 37.37693359 64.27539062 37.37890625 C69.59588202 37.28256813 73.77785499 36.55551144 78.46875 33.875 C80 33 80 33 82 33 C82 32.34 82 31.68 82 31 C83.4562545 30.32880451 84.91507867 29.66318193 86.375 29 C87.18710938 28.62875 87.99921875 28.2575 88.8359375 27.875 C91 27 91 27 93 27 C93 26.34 93 25.68 93 25 C94.32 24.67 95.64 24.34 97 24 C97 23.34 97 22.68 97 22 C103.62615673 18.90133798 108.67372525 17.52733711 116 18 C116 18.66 116 19.32 116 20 C117.485 20.495 117.485 20.495 119 21 C116.871913 32.52938272 106.41446815 41.7682172 97.3125 48.1875 C82.44238795 57.77381589 66.72219234 59.77740801 49.44140625 57.5390625 C38.31196765 55.02644024 28.52290653 49.48547409 20 42 C19.31164062 41.40574219 18.62328125 40.81148437 17.9140625 40.19921875 C6.6369966 29.76469225 0.67295697 15.20882763 0 0 Z " fill="#171712" transform="translate(2,69)"/>
<path d="M0 0 C2.48970458 2.18746427 4.83126564 4.44426267 7.13671875 6.82421875 C7.78253906 7.47261719 8.42835937 8.12101562 9.09375 8.7890625 C13.50353298 13.48706659 20.13671875 21.12420285 20.13671875 27.82421875 C15.88759243 29.24059419 11.83743725 29.00852139 7.38671875 29.01171875 C6.06414062 29.03008789 6.06414062 29.03008789 4.71484375 29.04882812 C-0.57489562 29.06063558 -4.75848085 28.29150018 -9.86328125 26.82421875 C-13.67061261 26.44634558 -17.47765286 26.31861378 -21.30078125 26.19921875 C-22.31849609 26.16054688 -23.33621094 26.121875 -24.38476562 26.08203125 C-26.87743061 25.98841003 -29.37010075 25.90267882 -31.86328125 25.82421875 C-31.86328125 25.16421875 -31.86328125 24.50421875 -31.86328125 23.82421875 C-33.03890625 23.74171875 -34.21453125 23.65921875 -35.42578125 23.57421875 C-42.41441091 22.82383704 -49.12064806 20.73418731 -55.86328125 18.82421875 C-55.86328125 18.16421875 -55.86328125 17.50421875 -55.86328125 16.82421875 C-56.42015625 16.57671875 -56.97703125 16.32921875 -57.55078125 16.07421875 C-60.28739038 14.59497057 -62.53978994 12.88954436 -64.86328125 10.82421875 C-64.86328125 10.16421875 -64.86328125 9.50421875 -64.86328125 8.82421875 C-65.48203125 8.57671875 -66.10078125 8.32921875 -66.73828125 8.07421875 C-69.25853952 6.59171389 -69.87559784 5.54034811 -70.86328125 2.82421875 C-70.86328125 1.83421875 -70.86328125 0.84421875 -70.86328125 -0.17578125 C-71.52328125 -0.17578125 -72.18328125 -0.17578125 -72.86328125 -0.17578125 C-71.82010613 -3.16924028 -70.95591765 -4.11875325 -68.2109375 -5.80859375 C-45.95318837 -15.9185345 -19.98200265 -15.18414117 0 0 Z " fill="#659801" transform="translate(102.86328125,14.17578125)"/>
<path d="M0 0 C2.96404505 2.80804268 5.44499019 5.18315774 7 9 C7.66 9 8.32 9 9 9 C9.67154933 10.28913487 10.33708859 11.58140204 11 12.875 C11.37125 13.59429687 11.7425 14.31359375 12.125 15.0546875 C13 17 13 17 13 19 C13.66 19 14.32 19 15 19 C15.20625 19.721875 15.4125 20.44375 15.625 21.1875 C17.45122709 24.9229645 19.74286807 26.43587487 23 29 C23.33 29.66 23.66 30.32 24 31 C25.82287297 31.93845254 27.68364553 32.80435092 29.5625 33.625 C31.08037109 34.29402344 31.08037109 34.29402344 32.62890625 34.9765625 C33.41136719 35.31429687 34.19382813 35.65203125 35 36 C35 36.66 35 37.32 35 38 C35.680625 37.938125 36.36125 37.87625 37.0625 37.8125 C40.91936125 38.05868263 43.51079594 39.35802162 47 41 C47 41.66 47 42.32 47 43 C71.255 43.99 71.255 43.99 96 45 C91.7937934 48.36496528 89.35148215 49.89086467 84.5 51.6875 C83.3965625 52.10386719 82.293125 52.52023438 81.15625 52.94921875 C66.25861013 57.90895281 48.79726098 55.81248508 34.8125 49.25 C29.37084855 46.36954304 24.62120979 43.05870298 20 39 C19.31164062 38.40574219 18.62328125 37.81148437 17.9140625 37.19921875 C7.57627182 27.63379174 1.27237566 13.99613228 0 0 Z " fill="#90ED8B" transform="translate(2,72)"/>
<path d="M0 0 C2.97 0.495 2.97 0.495 6 1 C6 1.99 6 2.98 6 4 C6.825 4.226875 7.65 4.45375 8.5 4.6875 C11.39284976 5.77231866 13.08132231 6.68475001 15.53125 8.40625 C20.403238 11.50624882 25.40027503 12.63462682 31 13.8125 C32.44826172 14.13637695 32.44826172 14.13637695 33.92578125 14.46679688 C36.28121473 14.99152216 38.63875589 15.50220518 41 16 C40.505 15.505 40.505 15.505 40 15 C39.505 14.01 39.505 14.01 39 13 C41.76276177 13.52268466 44.3260876 14.10869587 47 15 C47 15.66 47 16.32 47 17 C47.99 17 48.98 17 50 17 C50 17.66 50 18.32 50 19 C51.98 19.66 53.96 20.32 56 21 C56 21.66 56 22.32 56 23 C57.32 23.33 58.64 23.66 60 24 C60 24.66 60 25.32 60 26 C63.3 26.33 66.6 26.66 70 27 C70 27.66 70 28.32 70 29 C76.6 29 83.2 29 90 29 C90.495 30.485 90.495 30.485 91 32 C86.75087368 33.41637544 82.7007185 33.18430264 78.25 33.1875 C76.92742187 33.20586914 76.92742187 33.20586914 75.578125 33.22460938 C70.28838563 33.23641683 66.1048004 32.46728143 61 31 C57.19266864 30.62212683 53.38562839 30.49439503 49.5625 30.375 C48.54478516 30.33632813 47.52707031 30.29765625 46.47851562 30.2578125 C43.98585064 30.16419128 41.4931805 30.07846007 39 30 C39 29.34 39 28.68 39 28 C37.824375 27.9175 36.64875 27.835 35.4375 27.75 C28.44887034 26.99961829 21.74263319 24.90996856 15 23 C15 22.34 15 21.68 15 21 C14.443125 20.7525 13.88625 20.505 13.3125 20.25 C10.57589087 18.77075182 8.32349131 17.06532561 6 15 C6 14.34 6 13.68 6 13 C5.38125 12.7525 4.7625 12.505 4.125 12.25 C1.60474173 10.76749514 0.98768341 9.71612936 0 7 C0 6.01 0 5.02 0 4 C-0.66 4 -1.32 4 -2 4 C-1.34 2.68 -0.68 1.36 0 0 Z " fill="#136C0E" transform="translate(32,10)"/>
<path d="M0 0 C0.66 0 1.32 0 2 0 C2.92459811 6.79704558 3.47830539 12.50920016 1 19 C-0.875 20.1875 -0.875 20.1875 -3 21 C-3.639375 21.845625 -4.27875 22.69125 -4.9375 23.5625 C-7 26 -7 26 -9.75 26.8125 C-10.4925 26.874375 -11.235 26.93625 -12 27 C-12 27.66 -12 28.32 -12 29 C-12.99 29 -13.98 29 -15 29 C-15 29.66 -15 30.32 -15 31 C-17.31 31.33 -19.62 31.66 -22 32 C-22 32.66 -22 33.32 -22 34 C-25.63 34 -29.26 34 -33 34 C-33 33.34 -33 32.68 -33 32 C-33.598125 31.855625 -34.19625 31.71125 -34.8125 31.5625 C-36.56150404 31.1127561 -38.28677023 30.57107659 -40 30 C-39.67 29.34 -39.34 28.68 -39 28 C-38.34 28 -37.68 28 -37 28 C-37 27.34 -37 26.68 -37 26 C-37.66 25.67 -38.32 25.34 -39 25 C-37.35 25 -35.7 25 -34 25 C-36.97 23.35 -39.94 21.7 -43 20 C-43 18.68 -43 17.36 -43 16 C-41.06532058 15.16013916 -39.12714871 14.32831973 -37.1875 13.5 C-36.10855469 13.0359375 -35.02960938 12.571875 -33.91796875 12.09375 C-31 11 -31 11 -28 11 C-27.67 11.66 -27.34 12.32 -27 13 C-22.78591406 13.91305195 -20.17111745 14.37376089 -16.0625 13.0625 C-12.95660033 9.95660033 -13.21259821 7.32283025 -13 3 C-11.02 3 -9.04 3 -7 3 C-6.505 8.94 -6.505 8.94 -6 15 C-5.34 14.67 -4.68 14.34 -4 14 C-3.53248212 11.64400765 -3.53248212 11.64400765 -3.375 8.9375 C-3.30023438 8.01839844 -3.22546875 7.09929687 -3.1484375 6.15234375 C-3.09945312 5.44207031 -3.05046875 4.73179688 -3 4 C-1.68 4 -0.36 4 1 4 C0.505 2.02 0.505 2.02 0 0 Z " fill="#95C967" transform="translate(115,58)"/>
<path d="M0 0 C2.97 0 5.94 0 9 0 C9 0.66 9 1.32 9 2 C9.99 2.33 10.98 2.66 12 3 C10.31991728 12.10222028 2.80264236 20.1512914 -4 26 C-6.40545638 27.20272819 -7.94996953 27.10071472 -10.625 27.0625 C-11.85089844 27.04896484 -11.85089844 27.04896484 -13.1015625 27.03515625 C-13.72804687 27.02355469 -14.35453125 27.01195313 -15 27 C-15.66 25.02 -16.32 23.04 -17 21 C-19.64 20.67 -22.28 20.34 -25 20 C-25 20.66 -25 21.32 -25 22 C-25.66 22 -26.32 22 -27 22 C-26.67 23.98 -26.34 25.96 -26 28 C-29.3 28 -32.6 28 -36 28 C-36 27.34 -36 26.68 -36 26 C-36.99 26 -37.98 26 -39 26 C-39 25.34 -39 24.68 -39 24 C-40.134375 23.87625 -41.26875 23.7525 -42.4375 23.625 C-43.613125 23.41875 -44.78875 23.2125 -46 23 C-46.33 22.34 -46.66 21.68 -47 21 C-46.15179688 20.98582031 -45.30359375 20.97164062 -44.4296875 20.95703125 C-34.15428493 20.53924016 -24.43058468 18.7393077 -15.7890625 12.7890625 C-14.86867187 12.19867188 -13.94828125 11.60828125 -13 11 C-9.875 11.6875 -9.875 11.6875 -7 13 C-3.64918173 14.11693942 -1.42516025 13.85629006 2 13 C2 11.68 2 10.36 2 9 C1.01 8.67 0.02 8.34 -1 8 C-1 6.68 -1 5.36 -1 4 C-1.66 3.67 -2.32 3.34 -3 3 C-2.01 2.67 -1.02 2.34 0 2 C0 1.34 0 0.68 0 0 Z " fill="#600202" transform="translate(109,87)"/>
<path d="M0 0 C6.16874596 1.33514877 11.64817059 5.84670917 15.3984375 10.875 C16.33201734 12.54797508 17.16888162 14.27383107 18 16 C18.73329699 17.11532934 19.48294713 18.22011091 20.25 19.3125 C22 22 22 22 22 24 C22.66 24 23.32 24 24 24 C24.66 25.65 25.32 27.3 26 29 C26.99 29 27.98 29 29 29 C29.33 29.99 29.66 30.98 30 32 C26.56257082 32.05802698 23.12526747 32.09360486 19.6875 32.125 C18.71103516 32.14175781 17.73457031 32.15851563 16.72851562 32.17578125 C15.79072266 32.18222656 14.85292969 32.18867187 13.88671875 32.1953125 C13.02264404 32.20578613 12.15856934 32.21625977 11.26831055 32.22705078 C9 32 9 32 6 30 C6 29.34 6 28.68 6 28 C6.99 28 7.98 28 9 28 C6.42215154 25.35247996 4.08351902 23.05567935 1 21 C0.07811539 18.23434618 -0.11785222 16.61716298 -0.09765625 13.76953125 C-0.09282227 12.56586914 -0.09282227 12.56586914 -0.08789062 11.33789062 C-0.07951172 10.50451172 -0.07113281 9.67113281 -0.0625 8.8125 C-0.05798828 7.96751953 -0.05347656 7.12253906 -0.04882812 6.25195312 C-0.03705403 4.16793845 -0.0191189 2.08396023 0 0 Z " fill="#4B6244" transform="translate(9,38)"/>
<path d="M0 0 C0.87269531 -0.01417969 1.74539062 -0.02835938 2.64453125 -0.04296875 C5.29669085 0.19739594 6.91214999 0.84562691 9.1875 2.1875 C9.1875 3.1775 9.1875 4.1675 9.1875 5.1875 C7.8675 5.1875 6.5475 5.1875 5.1875 5.1875 C5.1875 8.4875 5.1875 11.7875 5.1875 15.1875 C4.1975 15.5175 3.2075 15.8475 2.1875 16.1875 C0.8603739 12.2061217 1.11834087 8.33704773 1.1875 4.1875 C-0.7925 4.1875 -2.7725 4.1875 -4.8125 4.1875 C-4.750625 5.445625 -4.68875 6.70375 -4.625 8 C-4.65937114 11.89081283 -4.65937114 11.89081283 -5.8125 14.125 C-8.99435819 15.81536216 -12.22888183 16.216342 -15.8125 16.1875 C-18.3125 15.25 -18.3125 15.25 -19.8125 14.1875 C-19.8125 13.5275 -19.8125 12.8675 -19.8125 12.1875 C-24.7625 14.1675 -29.7125 16.1475 -34.8125 18.1875 C-33.68692123 21.56423632 -33.37750561 21.77802027 -30.375 23.3125 C-25.64512306 25.56155219 -20.99383104 25.97515037 -15.8125 26.1875 C-15.8125 26.5175 -15.8125 26.8475 -15.8125 27.1875 C-20.1025 27.1875 -24.3925 27.1875 -28.8125 27.1875 C-28.8125 27.8475 -28.8125 28.5075 -28.8125 29.1875 C-28.1525 29.5175 -27.4925 29.8475 -26.8125 30.1875 C-29.1225 29.8575 -31.4325 29.5275 -33.8125 29.1875 C-33.8125 28.5275 -33.8125 27.8675 -33.8125 27.1875 C-34.6478125 26.878125 -34.6478125 26.878125 -35.5 26.5625 C-38.67090149 24.67709912 -40.49979479 22.03390641 -42.8125 19.1875 C-43.8025 18.5275 -44.7925 17.8675 -45.8125 17.1875 C-45.8125 16.5275 -45.8125 15.8675 -45.8125 15.1875 C-41.8525 15.1875 -37.8925 15.1875 -33.8125 15.1875 C-33.8125 14.5275 -33.8125 13.8675 -33.8125 13.1875 C-33.16023438 12.93355469 -32.50796875 12.67960937 -31.8359375 12.41796875 C-27.94346112 10.88509088 -24.1549987 9.36509192 -20.4375 7.4375 C-17.8125 6.1875 -17.8125 6.1875 -13.8125 6.1875 C-13.8125 5.5275 -13.8125 4.8675 -13.8125 4.1875 C-13.24660156 3.98253906 -12.68070313 3.77757812 -12.09765625 3.56640625 C-10.99744141 3.16228516 -10.99744141 3.16228516 -9.875 2.75 C-9.14410156 2.48316406 -8.41320312 2.21632812 -7.66015625 1.94140625 C-2.95522251 0.02163413 -2.95522251 0.02163413 0 0 Z " fill="#414022" transform="translate(106.8125,56.8125)"/>
<path d="M0 0 C1.32 0 2.64 0 4 0 C4.14285714 7.42857143 4.14285714 7.42857143 3 11 C2.34 11 1.68 11 1 11 C0.731875 11.639375 0.46375 12.27875 0.1875 12.9375 C-1 15 -1 15 -4 16 C-4 16.66 -4 17.32 -4 18 C-11.70961565 20.22141468 -20.5872646 21.41325929 -28.1640625 18.03515625 C-29.8125 16.9375 -29.8125 16.9375 -32 15 C-31 12 -31 12 -28.3828125 10.61328125 C-26.77019531 9.96939453 -26.77019531 9.96939453 -25.125 9.3125 C-24.05507812 8.87550781 -22.98515625 8.43851563 -21.8828125 7.98828125 C-19 7 -19 7 -16 7 C-15.67 7.66 -15.34 8.32 -15 9 C-9.39066338 10.28873117 -9.39066338 10.28873117 -4.125 8.5625 C-3.42375 8.046875 -2.7225 7.53125 -2 7 C-1.34 7 -0.68 7 0 7 C0 4.69 0 2.38 0 0 Z " fill="#EFEFEF" transform="translate(103,62)"/>
<path d="M0 0 C2.80496237 1.36781311 5.49431299 2.86279503 8.1875 4.4375 C12.62884781 6.93114711 17.12010227 8.58102265 22 10 C22 10.66 22 11.32 22 12 C23.85625 12.185625 23.85625 12.185625 25.75 12.375 C28.8762197 12.75746305 31.28879237 13.30549523 34 15 C34 15.66 34 16.32 34 17 C35.1034375 16.9690625 36.206875 16.938125 37.34375 16.90625 C42.4821699 16.90625 47.43725883 17.68319147 52.5 18.5 C53.4178125 18.64308594 54.335625 18.78617188 55.28125 18.93359375 C57.52174119 19.2836705 59.76120947 19.6392349 62 20 C61.67 20.66 61.34 21.32 61 22 C48.08756153 26.30414616 31.70414456 22.83026984 19.8125 17.25 C12.36518964 13.32164126 5.59643772 8.31855872 0 2 C0 1.34 0 0.68 0 0 Z " fill="#6BC016" transform="translate(17,104)"/>
<path d="M0 0 C2.0625 0.4375 2.0625 0.4375 4 1 C3.01 1 2.02 1 1 1 C1.33 7.93 1.66 14.86 2 22 C3.32 22.66 4.64 23.32 6 24 C6 24.66 6 25.32 6 26 C6.8971875 26.433125 6.8971875 26.433125 7.8125 26.875 C10 28 10 28 13 30 C11.02 29.67 9.04 29.34 7 29 C7.99 30.32 8.98 31.64 10 33 C9.34 33 8.68 33 8 33 C8.33 34.65 8.66 36.3 9 38 C8.34 37.67 7.68 37.34 7 37 C7 36.34 7 35.68 7 35 C3.92933254 33.56062463 1.15679349 32.8139386 -2.1875 32.43359375 C-3.445625 32.29050781 -4.70375 32.14742187 -6 32 C-6.62365777 20.55241523 -5.88636728 11.50969487 -1 1 C-0.67 0.67 -0.34 0.34 0 0 Z " fill="#95F393" transform="translate(8,37)"/>
<path d="M0 0 C-0.66 0.33 -1.32 0.66 -2 1 C-0.88145414 4.72614153 -0.88145414 4.72614153 2 7 C2 8.32 2 9.64 2 11 C-2.39940387 13.07749627 -2.39940387 13.07749627 -4.9375 12.75 C-7 12 -7 12 -9.75 10.625 C-12.82038404 9.69864671 -12.82038404 9.69864671 -14.7421875 10.84375 C-16.06047393 11.74084118 -17.37389465 12.6451052 -18.68359375 13.5546875 C-26.22747763 18.26166395 -34.65488253 19.45793872 -43.3828125 19.82421875 C-45.98081398 19.82946121 -45.98081398 19.82946121 -48 21 C-50.2224899 20.59149607 -52.43024103 20.10043112 -54.625 19.5625 C-55.81351563 19.27503906 -57.00203125 18.98757812 -58.2265625 18.69140625 C-59.14179687 18.46324219 -60.05703125 18.23507813 -61 18 C-61 17.34 -61 16.68 -61 16 C-62.98 15.67 -64.96 15.34 -67 15 C-67.33 14.01 -67.66 13.02 -68 12 C-65.69 12.33 -63.38 12.66 -61 13 C-61 13.66 -61 14.32 -61 15 C-55.60486378 16.78883827 -50.79803165 17.38457474 -45.125 17.375 C-43.93680664 17.37693359 -43.93680664 17.37693359 -42.72460938 17.37890625 C-37.40411798 17.28256813 -33.22214501 16.55551144 -28.53125 13.875 C-27 13 -27 13 -25 13 C-25 12.34 -25 11.68 -25 11 C-23.5437455 10.32880451 -22.08492133 9.66318193 -20.625 9 C-19.81289062 8.62875 -19.00078125 8.2575 -18.1640625 7.875 C-16 7 -16 7 -14 7 C-14 6.34 -14 5.68 -14 5 C-12.68 4.67 -11.36 4.34 -10 4 C-10 3.34 -10 2.68 -10 2 C-3.375 -1.125 -3.375 -1.125 0 0 Z " fill="#272E19" transform="translate(109,89)"/>
<path d="M0 0 C4.40656451 1.31803492 8.06991867 3.05795857 12 5.4375 C18.05358068 9.08698939 23.47218319 12.09919815 30.4375 13.5625 C31.57445313 13.81386719 32.71140625 14.06523437 33.8828125 14.32421875 C34.91148438 14.54722656 35.94015625 14.77023438 37 15 C42.63515772 16.29331489 47.48564074 18.34161016 52 22 C52 22.66 52 23.32 52 24 C40.90929183 22.57305742 31.18954459 20.81831178 21 16 C19.50538317 15.46391429 18.00581522 14.94127365 16.5 14.4375 C12.9166881 12.96578261 11.56137364 11.80150242 9 9 C6.92890803 7.44770227 4.82791621 5.94828277 2.70703125 4.46484375 C1 3 1 3 0 0 Z " fill="#3266B4" transform="translate(34,12)"/>
<path d="M0 0 C6.51459087 -0.33125038 9.69299262 0.26316631 14.8125 4.5 C16 6 16 6 16 9 C16.66 9 17.32 9 18 9 C19.57629161 12.15258321 20.12021949 14.64900434 20.0625 18.125 C19.78724336 21.91420675 19.78724336 21.91420675 21 25 C20.34 25 19.68 25 19 25 C18.67 25.66 18.34 26.32 18 27 C16.5 25.625 16.5 25.625 15 24 C15 23.34 15 22.68 15 22 C14.34 22 13.68 22 13 22 C11.27735506 18.70450534 9.70554068 15.66881155 9 12 C8.34 12 7.68 12 7 12 C5.2734375 10.13671875 5.2734375 10.13671875 3.375 7.6875 C2.74335937 6.88699219 2.11171875 6.08648437 1.4609375 5.26171875 C-0 3 -0 3 0 0 Z " fill="#1B1D13" transform="translate(2,69)"/>
<path d="M0 0 C2.97 0.495 2.97 0.495 6 1 C6 1.66 6 2.32 6 3 C5.01 3 4.02 3 3 3 C5.77486031 5.94303366 8.4677749 8.40329749 11.8125 10.6875 C12.864375 11.450625 13.91625 12.21375 15 13 C15 13.66 15 14.32 15 15 C15.825 15.0825 16.65 15.165 17.5 15.25 C20.44854094 15.8818302 22.16717339 16.49959234 24.75 17.875 C28.54790487 19.87884695 32.33280104 21.10970122 36.45703125 22.2734375 C40.3480578 23.38515937 44.17009948 24.69561359 48 26 C47.67 26.66 47.34 27.32 47 28 C38.01841436 27.08986599 30.18137559 25.98777741 22 22 C20.95328125 21.49726563 19.9065625 20.99453125 18.828125 20.4765625 C14.74732845 18.47521491 10.78465941 16.52310627 7 14 C7 13.34 7 12.68 7 12 C6.34 12 5.68 12 5 12 C4.67 10.68 4.34 9.36 4 8 C2.68 7.67 1.36 7.34 0 7 C0 6.01 0 5.02 0 4 C-0.66 4 -1.32 4 -2 4 C-1.34 2.68 -0.68 1.36 0 0 Z " fill="#1C5215" transform="translate(32,10)"/>
<path d="M0 0 C4.12562117 0.5381245 8.22051859 1.18324508 12.3125 1.9375 C13.15425781 2.09089844 13.99601562 2.24429688 14.86328125 2.40234375 C17 3 17 3 19 5 C19.0625 7.4375 19.0625 7.4375 18 10 C13.96787558 12.24868477 10.61053565 13.56015854 6 13 C3.9453125 11.42578125 3.9453125 11.42578125 2.125 9.3125 C1.50882813 8.62800781 0.89265625 7.94351563 0.2578125 7.23828125 C-1 5 -1 5 -0.6953125 2.23046875 C-0.46585938 1.49441406 -0.23640625 0.75835937 0 0 Z " fill="#FB6264" transform="translate(39,80)"/>
<path d="M0 0 C0.99 0 1.98 0 3 0 C3 0.66 3 1.32 3 2 C3.61875 2.28875 4.2375 2.5775 4.875 2.875 C7 4 7 4 9 6 C8.8359375 8.2421875 8.8359375 8.2421875 8.375 10.875 C7.83519975 14.91573436 7.83519975 14.91573436 9.5 18.5625 C12.65682929 20.37767684 15.39522817 20.72270986 19 21 C19 21.99 19 22.98 19 24 C11.68983559 23.60838405 6.81694652 21.37893626 1.33203125 16.5234375 C-1.34451254 13.46228772 -1.13520056 10.24101151 -1.125 6.375 C-1.12757812 5.39273438 -1.13015625 4.41046875 -1.1328125 3.3984375 C-1 1 -1 1 0 0 Z " fill="#EEEEEE" transform="translate(12,43)"/>
<path d="M0 0 C3.49107379 1.16369126 3.85222763 1.88973538 5.6875 4.9375 C6.34298828 6.00291016 6.34298828 6.00291016 7.01171875 7.08984375 C8 9 8 9 8 11 C8.66 11 9.32 11 10 11 C11.32 13.31 12.64 15.62 14 18 C9.38 18 4.76 18 0 18 C0 17.34 0 16.68 0 16 C2.64 16 5.28 16 8 16 C8 15.01 8 14.02 8 13 C6.948125 13.103125 5.89625 13.20625 4.8125 13.3125 C1 13 1 13 -2 10.875 C-4 8 -4 8 -4 4.8125 C-3 2 -3 2 0 0 Z " fill="#4A4E22" transform="translate(23,51)"/>
<path d="M0 0 C4.44067619 0.5163577 7.24568155 1.6288515 11 4 C13.19130534 4.69579454 13.19130534 4.69579454 15 5 C15 5.66 15 6.32 15 7 C15.99 7 16.98 7 18 7 C18 6.01 18 5.02 18 4 C23.445 4.495 23.445 4.495 29 5 C29 5.66 29 6.32 29 7 C29.99 7 30.98 7 32 7 C32 7.66 32 8.32 32 9 C33.32 9.33 34.64 9.66 36 10 C35.34 10.33 34.68 10.66 34 11 C34.66 11.33 35.32 11.66 36 12 C35.67 12.66 35.34 13.32 35 14 C22.00131032 11.46947925 11.04804258 8.48295993 0 1 C0 0.67 0 0.34 0 0 Z " fill="#4F8E02" transform="translate(38,13)"/>
<path d="M0 0 C1.58323688 -0.027193 3.16661062 -0.04648306 4.75 -0.0625 C6.07257812 -0.07990234 6.07257812 -0.07990234 7.421875 -0.09765625 C9.7818838 -0.00826198 11.74498524 0.33087179 14 1 C14 1.66 14 2.32 14 3 C14.66644531 3.03738281 15.33289063 3.07476562 16.01953125 3.11328125 C22.98271493 3.60995589 29.33366568 4.94981208 36 7 C36 7.66 36 8.32 36 9 C36.99 9.33 37.98 9.66 39 10 C29.19880171 10.35355024 19.09216248 9.99249939 10 6 C10 5.34 10 4.68 10 4 C7.03 3.505 7.03 3.505 4 3 C4 2.34 4 1.68 4 1 C2.68 0.67 1.36 0.34 0 0 Z " fill="#862E2E" transform="translate(34,104)"/>
<path d="M0 0 C0.66 1.32 1.32 2.64 2 4 C2.66 4 3.32 4 4 4 C5.55078125 5.57421875 5.55078125 5.57421875 7.3125 7.6875 C10.08499308 10.95300964 12.92600859 14.01915985 16 17 C14.02 16.34 12.04 15.68 10 15 C10 14.34 10 13.68 10 13 C7.36 13 4.72 13 2 13 C2 13.66 2 14.32 2 15 C2.99 15.33 3.98 15.66 5 16 C5 16.66 5 17.32 5 18 C5.66 18 6.32 18 7 18 C7.66 19.32 8.32 20.64 9 22 C7.02 21.34 5.04 20.68 3 20 C3 19.34 3 18.68 3 18 C2.4225 17.7525 1.845 17.505 1.25 17.25 C-1.3002997 15.83316683 -3.01785701 14.12372463 -5 12 C-4.67 11.34 -4.34 10.68 -4 10 C-3.34 10.66 -2.68 11.32 -2 12 C-1.01 11.67 -0.02 11.34 1 11 C0.34 10.01 -0.32 9.02 -1 8 C-0.96856707 5.26009592 -0.44521663 2.71582146 0 0 Z " fill="#2A3C24" transform="translate(22,83)"/>
<path d="M0 0 C1.98 0 3.96 0 6 0 C6.91457003 5.56157448 7.32086397 9.675665 5 15 C4.34 15 3.68 15 3 15 C2.731875 15.639375 2.46375 16.27875 2.1875 16.9375 C1 19 1 19 -2 20 C-2 20.66 -2 21.32 -2 22 C-3.32 22 -4.64 22 -6 22 C-6 22.66 -6 23.32 -6 24 C-11.94 24.33 -17.88 24.66 -24 25 C-24 24.34 -24 23.68 -24 23 C-24.66 22.67 -25.32 22.34 -26 22 C-24.35 22 -22.7 22 -21 22 C-21.66 21.34 -22.32 20.68 -23 20 C-22.31035156 20.01160156 -21.62070313 20.02320312 -20.91015625 20.03515625 C-14.84227348 20.09342124 -9.01642604 19.78903948 -3 19 C-3 18.34 -3 17.68 -3 17 C-0.625 14.375 -0.625 14.375 2 12 C2.66 12 3.32 12 4 12 C4.33 8.37 4.66 4.74 5 1 C3.68 1 2.36 1 1 1 C1 3.31 1 5.62 1 8 C0.67 8 0.34 8 0 8 C0 5.36 0 2.72 0 0 Z " fill="#626A58" transform="translate(102,61)"/>
<path d="M0 0 C0 0.66 0 1.32 0 2 C-0.99 2 -1.98 2 -3 2 C-3 2.66 -3 3.32 -3 4 C-3.66 4 -4.32 4 -5 4 C-4.67 5.98 -4.34 7.96 -4 10 C-7.3 10 -10.6 10 -14 10 C-14 9.34 -14 8.68 -14 8 C-14.99 8 -15.98 8 -17 8 C-17 7.34 -17 6.68 -17 6 C-18.134375 5.87625 -19.26875 5.7525 -20.4375 5.625 C-21.613125 5.41875 -22.78875 5.2125 -24 5 C-24.33 4.34 -24.66 3.68 -25 3 C-23.62328125 2.94392578 -23.62328125 2.94392578 -22.21875 2.88671875 C-16.00330088 2.55374826 -5.28571772 -1.76190591 0 0 Z " fill="#430000" transform="translate(87,105)"/>
<path d="M0 0 C1.32 0.33 2.64 0.66 4 1 C3.01 1 2.02 1 1 1 C1.33 7.93 1.66 14.86 2 22 C3.32 22.66 4.64 23.32 6 24 C6 24.66 6 25.32 6 26 C6.8971875 26.433125 6.8971875 26.433125 7.8125 26.875 C10 28 10 28 13 30 C8.6057696 30.4308069 6.67140255 30.52544547 3.125 27.75 C1.23888646 25.30914718 0.33405533 24.00649796 0 21 C-0.66 21 -1.32 21 -2 21 C-4.33780569 16.32438862 -3.83745665 8.731472 -2.328125 3.80859375 C-1.5 2.1875 -1.5 2.1875 0 0 Z " fill="#89BA65" transform="translate(8,37)"/>
<path d="M0 0 C2.30859375 1.01953125 2.30859375 1.01953125 4 2 C4 2.99 4 3.98 4 5 C2.68 5 1.36 5 0 5 C0 8.3 0 11.6 0 15 C-0.99 15.33 -1.98 15.66 -3 16 C-4.3271261 12.0186217 -4.06915913 8.14954773 -4 4 C-5.98 4 -7.96 4 -10 4 C-10 6.64 -10 9.28 -10 12 C-10.33 12 -10.66 12 -11 12 C-11 9.36 -11 6.72 -11 4 C-12.32 3.67 -13.64 3.34 -15 3 C-10.41072753 -0.67141797 -5.63222282 -0.70517261 0 0 Z " fill="#324A30" transform="translate(112,57)"/>
<path d="M0 0 C4.60853797 0.72008406 8.67237409 2.31295939 13 4 C13 4.66 13 5.32 13 6 C15.64 6.33 18.28 6.66 21 7 C21 7.66 21 8.32 21 9 C24.3 9 27.6 9 31 9 C31 9.66 31 10.32 31 11 C31.66 11 32.32 11 33 11 C33 11.66 33 12.32 33 13 C21.13825868 13.93033265 10.26844563 9.18127657 1 2 C0.67 1.34 0.34 0.68 0 0 Z " fill="#5A940F" transform="translate(26,113)"/>
<path d="M0 0 C2.31 0 4.62 0 7 0 C7 0.99 7 1.98 7 3 C8.3303125 3.4021875 8.3303125 3.4021875 9.6875 3.8125 C13 5 13 5 15.25 6.5625 C19.32208938 8.69109218 23.46418209 8.74458501 28 9 C28 9.33 28 9.66 28 10 C23.71 10 19.42 10 15 10 C15 10.66 15 11.32 15 12 C15.66 12.33 16.32 12.66 17 13 C14.69 12.67 12.38 12.34 10 12 C10 11.34 10 10.68 10 10 C9.40703125 9.75507812 8.8140625 9.51015625 8.203125 9.2578125 C5.63301274 7.79047891 4.45470034 6.27707775 2.75 3.875 C1.96882813 2.78832031 1.96882813 2.78832031 1.171875 1.6796875 C0.78515625 1.12539062 0.3984375 0.57109375 0 0 Z " fill="#384530" transform="translate(63,74)"/>
<path d="M0 0 C2.97 0 5.94 0 9 0 C9 0.66 9 1.32 9 2 C9.99 2.33 10.98 2.66 12 3 C9.37684968 4.31157516 7.76966564 3.89649988 4.875 3.5625 C3.96492188 3.46066406 3.05484375 3.35882813 2.1171875 3.25390625 C1.41851562 3.17011719 0.71984375 3.08632812 0 3 C0.49113281 3.58265625 0.98226562 4.1653125 1.48828125 4.765625 C3.5889217 7.87044758 3.21120663 10.339085 3 14 C1.68 14.33 0.36 14.66 -1 15 C-1.33 16.32 -1.66 17.64 -2 19 C-7.875 18.125 -7.875 18.125 -9 17 C-9.04063832 15.33382885 -9.042721 13.66611905 -9 12 C-7.515 12.99 -7.515 12.99 -6 14 C-3.93089407 14.02749478 -3.93089407 14.02749478 -1.8125 13.625 C-0.554375 13.41875 0.70375 13.2125 2 13 C2 11.68 2 10.36 2 9 C1.01 8.67 0.02 8.34 -1 8 C-1 6.68 -1 5.36 -1 4 C-1.66 3.67 -2.32 3.34 -3 3 C-2.01 2.67 -1.02 2.34 0 2 C0 1.34 0 0.68 0 0 Z " fill="#3F1818" transform="translate(109,87)"/>
<path d="M0 0 C1.9375 0.3125 1.9375 0.3125 4 1 C4.33 1.99 4.66 2.98 5 4 C5.66 4 6.32 4 7 4 C7 4.66 7 5.32 7 6 C7.9590625 6.433125 7.9590625 6.433125 8.9375 6.875 C11 8 11 8 12 10 C12.06950541 11.54023996 12.08452357 13.08334988 12.0625 14.625 C12.05347656 15.44226563 12.04445313 16.25953125 12.03515625 17.1015625 C12.02355469 17.72804688 12.01195312 18.35453125 12 19 C11.34 19 10.68 19 10 19 C5.78610069 14.07074377 3.27594197 9.48463627 3 3 C2.34 3 1.68 3 1 3 C0.67 2.01 0.34 1.02 0 0 Z " fill="#540000" transform="translate(8,72)"/>
<path d="M0 0 C2.80496237 1.36781311 5.49431299 2.86279503 8.1875 4.4375 C12.62884781 6.93114711 17.12010227 8.58102265 22 10 C22 10.66 22 11.32 22 12 C22.99 12 23.98 12 25 12 C25 12.66 25 13.32 25 14 C25.99 14 26.98 14 28 14 C28 14.66 28 15.32 28 16 C25.03 15.505 25.03 15.505 22 15 C22 14.34 22 13.68 22 13 C20.88625 12.87625 19.7725 12.7525 18.625 12.625 C15 12 15 12 13 10 C11.83404297 10.05800781 11.83404297 10.05800781 10.64453125 10.1171875 C7.07821714 9.9591529 6.10064301 8.6790233 3.6875 6.125 C2.99011719 5.40570313 2.29273438 4.68640625 1.57421875 3.9453125 C0 2 0 2 0 0 Z " fill="#68C512" transform="translate(17,104)"/>
<path d="M0 0 C2.64 0 5.28 0 8 0 C8.33 0.66 8.66 1.32 9 2 C11.11015954 3.12706706 11.11015954 3.12706706 13.5625 4.125 C14.38878906 4.47820312 15.21507812 4.83140625 16.06640625 5.1953125 C16.70449219 5.46085937 17.34257813 5.72640625 18 6 C18 6.66 18 7.32 18 8 C12.555 8.495 12.555 8.495 7 9 C6.34 7.68 5.68 6.36 5 5 C4.34 5 3.68 5 3 5 C1.375 3.625 1.375 3.625 0 2 C0 1.34 0 0.68 0 0 Z " fill="#490000" transform="translate(24,96)"/>
<path d="M0 0 C5.61 0 11.22 0 17 0 C17.33 0.99 17.66 1.98 18 3 C13.68219317 4.43926894 9.52237315 4.18431523 5 4.1875 C3.62714844 4.20586914 3.62714844 4.20586914 2.2265625 4.22460938 C0.90785156 4.22750977 0.90785156 4.22750977 -0.4375 4.23046875 C-1.24058594 4.23457764 -2.04367188 4.23868652 -2.87109375 4.24291992 C-5 4 -5 4 -8 2 C-5.36 2 -2.72 2 0 2 C0 1.34 0 0.68 0 0 Z " fill="#308A23" transform="translate(105,39)"/>
<path d="M0 0 C5.28 0.99 10.56 1.98 16 3 C15.67 2.67 15.34 2.34 15 2 C14.67 1.34 14.34 0.68 14 0 C16.76276177 0.52268466 19.3260876 1.10869587 22 2 C22 2.66 22 3.32 22 4 C22.99 4 23.98 4 25 4 C25 4.66 25 5.32 25 6 C25.99 6.33 26.98 6.66 28 7 C28.6875 9.0625 28.6875 9.0625 29 11 C26.79640655 9.93901056 24.76118039 8.84174112 22.71875 7.48828125 C19.75638078 5.86663948 17.52211221 5.41955802 14.1875 5 C9.06718184 4.25315508 4.75657626 3.01239765 0 1 C0 0.67 0 0.34 0 0 Z " fill="#136A22" transform="translate(57,23)"/>
<path d="M0 0 C9.04576659 -0.45995423 9.04576659 -0.45995423 13 3 C13 4.32 13 5.64 13 7 C12.34 7 11.68 7 11 7 C10.34 6.01 9.68 5.02 9 4 C8.34 4 7.68 4 7 4 C7 4.66 7 5.32 7 6 C7.66 6 8.32 6 9 6 C9.33 7.65 9.66 9.3 10 11 C9.34 11 8.68 11 8 11 C8 10.34 8 9.68 8 9 C7.4225 8.938125 6.845 8.87625 6.25 8.8125 C3.05289959 7.65799152 1.8563468 5.78452021 0 3 C0 2.01 0 1.02 0 0 Z " fill="#250B04" transform="translate(2,69)"/>
<path d="M0 0 C1.875 0.125 1.875 0.125 4 1 C5.25 4.0625 5.25 4.0625 6 7 C6.66 7 7.32 7 8 7 C9.32 9.31 10.64 11.62 12 14 C7.38 14 2.76 14 -2 14 C-2 13.34 -2 12.68 -2 12 C0.64 12 3.28 12 6 12 C6 10.68 6 9.36 6 8 C4.35 8 2.7 8 1 8 C1.66 7.67 2.32 7.34 3 7 C3 6.01 3 5.02 3 4 C2.01 4 1.02 4 0 4 C0 2.68 0 1.36 0 0 Z " fill="#313921" transform="translate(25,55)"/>
<path d="M0 0 C-0.3492558 3.14330223 -0.83925733 4.79491452 -2.8125 7.3125 C-5 9 -5 9 -9 9 C-9 8.34 -9 7.68 -9 7 C-9.66 7 -10.32 7 -11 7 C-11.66 5.68 -12.32 4.36 -13 3 C-11.39743892 2.49487756 -9.79288208 1.99608373 -8.1875 1.5 C-7.29417969 1.2215625 -6.40085937 0.943125 -5.48046875 0.65625 C-3 0 -3 0 0 0 Z " fill="#626F0F" transform="translate(53,3)"/>
<path d="M0 0 C2.625 0.375 2.625 0.375 5 1 C5 1.66 5 2.32 5 3 C7.97 3.495 7.97 3.495 11 4 C11 4.66 11 5.32 11 6 C11.71542969 6.12246094 12.43085937 6.24492188 13.16796875 6.37109375 C16.05112713 7.01135375 18.58592473 7.93551556 21.3125 9.0625 C22.19550781 9.42472656 23.07851563 9.78695312 23.98828125 10.16015625 C24.65214844 10.43730469 25.31601562 10.71445313 26 11 C22.34811918 12.07174763 19.73567172 11.76411467 16 11 C16 10.34 16 9.68 16 9 C15.13375 8.87625 14.2675 8.7525 13.375 8.625 C10.10486147 8.01941879 7.12743101 7.11693965 4 6 C4 5.34 4 4.68 4 4 C2.02 3.34 0.04 2.68 -2 2 C-1.34 1.34 -0.68 0.68 0 0 Z " fill="#2A2517" transform="translate(33,104)"/>
<path d="M0 0 C1.625 1.25 1.625 1.25 3 3 C3 4.32 3 5.64 3 7 C-1.38430311 9.07036536 -1.38430311 9.07036536 -4.1875 8.75 C-6 8 -6 8 -8 6 C-8 4.68 -8 3.36 -8 2 C-2.25 0 -2.25 0 0 0 Z " fill="#DDDBDC" transform="translate(108,93)"/>
<path d="M0 0 C6.00230002 -0.48667297 11.31700989 1.30117022 17 3 C17 3.66 17 4.32 17 5 C17.99 5.33 18.98 5.66 20 6 C11.92259196 6.29136943 3.87852456 5.95156113 -4 4 C-4.33 3.34 -4.66 2.68 -5 2 C-1.7 2.33 1.6 2.66 5 3 C5 2.34 5 1.68 5 1 C3.35 1 1.7 1 0 1 C0 0.67 0 0.34 0 0 Z " fill="#6B2626" transform="translate(53,108)"/>
<path d="M0 0 C0.66 1.32 1.32 2.64 2 4 C2.66 4 3.32 4 4 4 C5.2890625 5.53125 5.2890625 5.53125 6.625 7.5 C7.07101563 8.1496875 7.51703125 8.799375 7.9765625 9.46875 C8.48316406 10.22671875 8.48316406 10.22671875 9 11 C6.69 11.33 4.38 11.66 2 12 C0.4375 10.5 0.4375 10.5 -1 8 C-0.96823234 5.22562457 -0.50364148 2.74713533 0 0 Z " fill="#374B37" transform="translate(22,83)"/>
<path d="M0 0 C0 0.99 0 1.98 0 3 C-1.15628906 3.39832031 -1.15628906 3.39832031 -2.3359375 3.8046875 C-3.33882812 4.15789062 -4.34171875 4.51109375 -5.375 4.875 C-6.87160156 5.39707031 -6.87160156 5.39707031 -8.3984375 5.9296875 C-11.10442118 6.84782502 -11.10442118 6.84782502 -13 9 C-13 8.01 -13 7.02 -13 6 C-15.64 6.33 -18.28 6.66 -21 7 C-21.33 6.01 -21.66 5.02 -22 4 C-18.04 4 -14.08 4 -10 4 C-10 3.34 -10 2.68 -10 2 C-8.71211992 1.46987262 -7.41953322 0.9511671 -6.125 0.4375 C-5.40570313 0.14746094 -4.68640625 -0.14257812 -3.9453125 -0.44140625 C-2 -1 -2 -1 0 0 Z " fill="#435E43" transform="translate(83,68)"/>
<path d="M0 0 C7.85879863 0.35224909 14.65062002 1.13498747 22 4 C21.67 4.66 21.34 5.32 21 6 C18.62388845 5.71583399 16.24939504 5.42291099 13.875 5.125 C13.20984375 5.04636719 12.5446875 4.96773437 11.859375 4.88671875 C7.69621356 4.35611974 3.93328708 3.45813446 0 2 C0 1.34 0 0.68 0 0 Z " fill="#234102" transform="translate(58,32)"/>
<path d="M0 0 C2.97 0 5.94 0 9 0 C9 0.66 9 1.32 9 2 C10.65 2.33 12.3 2.66 14 3 C14 3.66 14 4.32 14 5 C15.65 5.33 17.3 5.66 19 6 C19.33 5.01 19.66 4.02 20 3 C20.33 4.32 20.66 5.64 21 7 C17.7 7 14.4 7 11 7 C11 6.34 11 5.68 11 5 C10.01 5 9.02 5 8 5 C8 4.34 8 3.68 8 3 C6.865625 2.87625 5.73125 2.7525 4.5625 2.625 C3.386875 2.41875 2.21125 2.2125 1 2 C0.67 1.34 0.34 0.68 0 0 Z " fill="#2A0303" transform="translate(62,108)"/>
<path d="M0 0 C2.31 0.33 4.62 0.66 7 1 C7 1.66 7 2.32 7 3 C12.21443596 4.68561267 16.97539135 5.38512698 22.4375 5.625 C23.53481445 5.68300781 23.53481445 5.68300781 24.65429688 5.7421875 C26.43583532 5.83533984 28.21788122 5.91870286 30 6 C30 6.33 30 6.66 30 7 C28.72125 7.144375 27.4425 7.28875 26.125 7.4375 C23.74307106 7.70642746 22.15547309 7.92226346 20 9 C17.7775101 8.59149607 15.56975897 8.10043112 13.375 7.5625 C12.18648437 7.27503906 10.99796875 6.98757812 9.7734375 6.69140625 C8.85820313 6.46324219 7.94296875 6.23507813 7 6 C7 5.34 7 4.68 7 4 C4.03 3.505 4.03 3.505 1 3 C0.67 2.01 0.34 1.02 0 0 Z " fill="#282719" transform="translate(41,101)"/>
<path d="M0 0 C7.625 0.875 7.625 0.875 11 2 C14.03561185 1.99146101 17.05705129 1.86996314 20.08984375 1.7421875 C23.37136159 2.03289915 24.68777591 2.69334753 27 5 C27 5.66 27 6.32 27 7 C23.99810728 6.57331968 20.99895388 6.13401091 18 5.6875 C17.16082031 5.56955078 16.32164063 5.45160156 15.45703125 5.33007812 C9.94813146 4.49733746 5.15158525 3.1286064 0 1 C0 0.67 0 0.34 0 0 Z " fill="#2D648F" transform="translate(59,29)"/>
<path d="M0 0 C-0.99 0.495 -0.99 0.495 -2 1 C-1.67 1.99 -1.34 2.98 -1 4 C-3.90600261 5.25664978 -5.79604584 6 -9 6 C-9.33 7.32 -9.66 8.64 -10 10 C-10 8.68 -10 7.36 -10 6 C-10.99 6 -11.98 6 -13 6 C-13 6.66 -13 7.32 -13 8 C-13.99 7.67 -14.98 7.34 -16 7 C-15.34 7 -14.68 7 -14 7 C-14 6.34 -14 5.68 -14 5 C-12.68 4.67 -11.36 4.34 -10 4 C-10 3.34 -10 2.68 -10 2 C-3.375 -1.125 -3.375 -1.125 0 0 Z " fill="#516B51" transform="translate(109,89)"/>
<path d="M0 0 C0.99 0 1.98 0 3 0 C3.1875 2.875 3.1875 2.875 3 6 C-0.45662331 8.30441554 -1.94857881 8.25860135 -6 8 C-6.66 7.67 -7.32 7.34 -8 7 C-7.67 5.68 -7.34 4.36 -7 3 C-4.69 3.33 -2.38 3.66 0 4 C0 2.68 0 1.36 0 0 Z " fill="#7E7D00" transform="translate(97,63)"/>
<path d="M0 0 C1 1 1 1 1.0625 3.5625 C1.041875 4.366875 1.02125 5.17125 1 6 C-1.97 6 -4.94 6 -8 6 C-8 4.35 -8 2.7 -8 1 C-5.26752652 -0.36623674 -3.01801098 -0.128426 0 0 Z " fill="#A7A9A9" transform="translate(91,109)"/>
<path d="M0 0 C0.99 0.33 1.98 0.66 3 1 C3.6875 3.0625 3.6875 3.0625 4 5 C4.66 5 5.32 5 6 5 C6 5.66 6 6.32 6 7 C6.70125 7.2475 7.4025 7.495 8.125 7.75 C12.23812973 9.53831727 15.98764555 11.34342 18.375 15.25 C18.58125 15.8275 18.7875 16.405 19 17 C17.35 16.67 15.7 16.34 14 16 C14 15.34 14 14.68 14 14 C13.443125 13.7525 12.88625 13.505 12.3125 13.25 C9.57589087 11.77075182 7.32349131 10.06532561 5 8 C5 7.34 5 6.68 5 6 C4.360625 5.7525 3.72125 5.505 3.0625 5.25 C1 4 1 4 0.25 1.875 C0.1675 1.25625 0.085 0.6375 0 0 Z " fill="#22811F" transform="translate(33,17)"/>
<path d="M0 0 C1.93884889 0.28256092 3.87605961 0.5763793 5.8125 0.875 C6.89144531 1.03742187 7.97039063 1.19984375 9.08203125 1.3671875 C12 2 12 2 15 4 C16.98799818 4.70164642 18.98698517 5.37372872 21 6 C17.25099104 7.87450448 13.08103368 7.54413782 9 7 C5.77304083 5.64477192 2.89568047 3.95843124 0 2 C0 1.34 0 0.68 0 0 Z " fill="#243E03" transform="translate(46,26)"/>
<path d="M0 0 C1.32 0.33 2.64 0.66 4 1 C3 3 3 3 0 4.4375 C-3.28917058 5.70863827 -3.28917058 5.70863827 -4 9 C-6.31 8.67 -8.62 8.34 -11 8 C-9.96461386 5.17621961 -9.33380245 4.1756855 -6.625 2.75 C-4 2 -4 2 0 2 C0 1.34 0 0.68 0 0 Z " fill="#1D2512" transform="translate(93,61)"/>
<path d="M0 0 C0.33 0 0.66 0 1 0 C1.05379226 2.95857409 1.09357093 5.91617721 1.125 8.875 C1.15013672 10.13763672 1.15013672 10.13763672 1.17578125 11.42578125 C1.18222656 12.23144531 1.18867188 13.03710938 1.1953125 13.8671875 C1.21102295 14.98262939 1.21102295 14.98262939 1.22705078 16.12060547 C1 18 1 18 -1 20 C-2.40248912 17.19502177 -2.16979056 14.81498635 -2.1875 11.6875 C-2.20876953 9.99173828 -2.20876953 9.99173828 -2.23046875 8.26171875 C-2.00480137 5.06795157 -1.36342654 2.8723571 0 0 Z " fill="#98CD6D" transform="translate(7,38)"/>
<path d="M0 0 C1.32 0 2.64 0 4 0 C4.28571429 7.42857143 4.28571429 7.42857143 2 11 C1.67 10.01 1.34 9.02 1 8 C0.4225 8.515625 -0.155 9.03125 -0.75 9.5625 C-3 11 -3 11 -5.25 10.6875 C-5.8275 10.460625 -6.405 10.23375 -7 10 C-2.25 7 -2.25 7 0 7 C0 4.69 0 2.38 0 0 Z " fill="#E0E0E0" transform="translate(103,62)"/>
<path d="M0 0 C2.64 0 5.28 0 8 0 C9.4606285 2.64738916 10 3.89448334 10 7 C12.64 7 15.28 7 18 7 C17.34 7.66 16.68 8.32 16 9 C13.27130593 8.96712417 10.7033382 8.43602229 8 8 C7.67 6.35 7.34 4.7 7 3 C4.36 3 1.72 3 -1 3 C-1.33 4.32 -1.66 5.64 -2 7 C-2 5.35 -2 3.7 -2 2 C-1.34 2 -0.68 2 0 2 C0 1.34 0 0.68 0 0 Z " fill="#351A1A" transform="translate(84,107)"/>
<path d="M0 0 C4.44067619 0.5163577 7.24568155 1.6288515 11 4 C11.680625 4.12375 12.36125 4.2475 13.0625 4.375 C16.04113568 5.33585022 17.22406844 7.52638104 19 10 C11.91987331 8.55179227 6.00615571 4.93506753 0 1 C0 0.67 0 0.34 0 0 Z " fill="#357F24" transform="translate(38,13)"/>
<path d="M0 0 C1.32 0.33 2.64 0.66 4 1 C4.33 2.65 4.66 4.3 5 6 C1.25474201 9.74525799 -2.98270909 9.68909949 -8 10 C-8.66 9.01 -9.32 8.02 -10 7 C-8.7625 7.04125 -7.525 7.0825 -6.25 7.125 C-3.00953974 7.11926467 -0.66650149 7.02654113 2 5 C2.33 4.01 2.66 3.02 3 2 C2.01 2 1.02 2 0 2 C0 1.34 0 0.68 0 0 Z " fill="#DA6463" transform="translate(53,83)"/>
<path d="M0 0 C3.465 1.485 3.465 1.485 7 3 C7 3.66 7 4.32 7 5 C3.37 5.33 -0.26 5.66 -4 6 C-4.66 5.01 -5.32 4.02 -6 3 C-4.02 2.67 -2.04 2.34 0 2 C0 1.34 0 0.68 0 0 Z " fill="#140100" transform="translate(35,99)"/>
<path d="M0 0 C1.32 0 2.64 0 4 0 C4 3.63 4 7.26 4 11 C3.67 10.34 3.34 9.68 3 9 C1.35 9 -0.3 9 -2 9 C-1.34 8.67 -0.68 8.34 0 8 C0 5.36 0 2.72 0 0 Z " fill="#6BA663" transform="translate(45,93)"/>
<path d="M0 0 C0.680625 0.639375 1.36125 1.27875 2.0625 1.9375 C5.46408839 4.3258493 7.90433701 4.67877153 12 5 C12 5.99 12 6.98 12 8 C5.84777564 7.56826496 2.18082051 6.34594658 -3 3 C-2.01 2.01 -1.02 1.02 0 0 Z " fill="#B2B1B1" transform="translate(19,59)"/>
<path d="M0 0 C0.48210938 0.42152344 0.96421875 0.84304687 1.4609375 1.27734375 C2.09257812 1.82519531 2.72421875 2.37304688 3.375 2.9375 C4.00148438 3.48277344 4.62796875 4.02804688 5.2734375 4.58984375 C6.95632334 6.06958624 6.95632334 6.06958624 9 7 C9.625 9.0625 9.625 9.0625 10 11 C8.02 11.99 8.02 11.99 6 13 C5.87625 11.8553125 5.87625 11.8553125 5.75 10.6875 C4.84504809 7.44475565 3.71226652 6.83734184 1 5 C1 4.34 1 3.68 1 3 C-0.32 3.33 -1.64 3.66 -3 4 C-3 3.34 -3 2.68 -3 2 C-2.01 2 -1.02 2 0 2 C0 1.34 0 0.68 0 0 Z " fill="#526651" transform="translate(14,40)"/>
<path d="M0 0 C2.96783129 1.45668783 5.86415313 3.01232086 8.75 4.625 C9.94882812 5.29402344 9.94882812 5.29402344 11.171875 5.9765625 C11.77515625 6.31429687 12.3784375 6.65203125 13 7 C10 9 10 9 7 9 C5.17578125 7.5390625 5.17578125 7.5390625 3.3125 5.625 C2.68988281 4.99851562 2.06726563 4.37203125 1.42578125 3.7265625 C0 2 0 2 0 0 Z " fill="#79B421" transform="translate(17,104)"/>
<path d="M0 0 C2.97 0 5.94 0 9 0 C9 0.66 9 1.32 9 2 C9.99 2.33 10.98 2.66 12 3 C9.37684968 4.31157516 7.76966564 3.89649988 4.875 3.5625 C3.96492188 3.46066406 3.05484375 3.35882813 2.1171875 3.25390625 C1.41851562 3.17011719 0.71984375 3.08632812 0 3 C-0.33 3.66 -0.66 4.32 -1 5 C-1.66 4.34 -2.32 3.68 -3 3 C-2.01 2.67 -1.02 2.34 0 2 C0 1.34 0 0.68 0 0 Z " fill="#1C2815" transform="translate(109,87)"/>
<path d="M0 0 C2.31 0 4.62 0 7 0 C7.66 1.98 8.32 3.96 9 6 C7.68 6.33 6.36 6.66 5 7 C3.35 4.69 1.7 2.38 0 0 Z " fill="#111B11" transform="translate(63,74)"/>
<path d="M0 0 C1.98 0 3.96 0 6 0 C6.91457003 5.56157448 7.32086397 9.675665 5 15 C4.01 14.67 3.02 14.34 2 14 C2 13.34 2 12.68 2 12 C2.66 12 3.32 12 4 12 C4.33 8.37 4.66 4.74 5 1 C3.68 1 2.36 1 1 1 C1 3.31 1 5.62 1 8 C0.67 8 0.34 8 0 8 C0 5.36 0 2.72 0 0 Z " fill="#81897A" transform="translate(102,61)"/>
<path d="M0 0 C4.35951434 -0.37367266 6.36322291 0.69375111 10 3 C11.98451771 3.71143088 13.98202112 4.38991336 16 5 C12.42355152 6.2380014 9.66305234 5.74926071 6 5 C6 4.34 6 3.68 6 3 C3.03 2.505 3.03 2.505 0 2 C0 1.34 0 0.68 0 0 Z " fill="#395C35" transform="translate(43,110)"/>
<path d="M0 0 C6.0546875 -0.1953125 6.0546875 -0.1953125 8 0 C8.66 0.66 9.32 1.32 10 2 C7.03 1.505 7.03 1.505 4 1 C4.5259375 1.86625 4.5259375 1.86625 5.0625 2.75 C6.14917407 5.35801776 5.93065133 6.39417629 5 9 C0 3.375 0 3.375 0 0 Z " fill="#294B27" transform="translate(2,69)"/>
<path d="M0 0 C1.58294782 -0.05437607 3.16644256 -0.09296271 4.75 -0.125 C5.63171875 -0.14820312 6.5134375 -0.17140625 7.421875 -0.1953125 C10.1135858 0.00860498 11.69904974 0.63448279 14 2 C11.62787353 3.49356111 10.39054922 4.04005633 7.5625 3.75 C4.95850149 2.98785409 2.49303838 2.06844502 0 1 C0 0.67 0 0.34 0 0 Z " fill="#7DD63B" transform="translate(65,123)"/>
<path d="M0 0 C1.98 0 3.96 0 6 0 C5.01 0.33 4.02 0.66 3 1 C3 3.97 3 6.94 3 10 C2.01 10 1.02 10 0 10 C0 6.7 0 3.4 0 0 Z " fill="#171F11" transform="translate(108,59)"/>
<path d="M0 0 C0 1.98 0 3.96 0 6 C-1.65 5.67 -3.3 5.34 -5 5 C-5 4.34 -5 3.68 -5 3 C-6.32 2.67 -7.64 2.34 -9 2 C-9 1.67 -9 1.34 -9 1 C-5.94152152 0.45627049 -3.11227195 0 0 0 Z " fill="#610000" transform="translate(81,108)"/>
<path d="M0 0 C0.99 0.33 1.98 0.66 3 1 C3 1.99 3 2.98 3 4 C1.68 4 0.36 4 -1 4 C-1 7.3 -1 10.6 -1 14 C-1.99 14.33 -2.98 14.66 -4 15 C-4 13.68 -4 12.36 -4 11 C-3.34 11 -2.68 11 -2 11 C-2.02320312 10.37351562 -2.04640625 9.74703125 -2.0703125 9.1015625 C-2.08835937 8.28429687 -2.10640625 7.46703125 -2.125 6.625 C-2.15980469 5.40683594 -2.15980469 5.40683594 -2.1953125 4.1640625 C-2 2 -2 2 0 0 Z " fill="#526E3A" transform="translate(113,58)"/>
<path d="M0 0 C1.32 0.33 2.64 0.66 4 1 C4.33 1.99 4.66 2.98 5 4 C4.01 4 3.02 4 2 4 C1.67 7.96 1.34 11.92 1 16 C0.67 16 0.34 16 0 16 C0 10.72 0 5.44 0 0 Z " fill="#3A472C" transform="translate(9,38)"/>
<path d="M0 0 C4.61513112 1.31860889 8.09897612 3.21355437 12 6 C11.01 6 10.02 6 9 6 C9 6.66 9 7.32 9 8 C5.18284914 6.44486447 2.77292558 4.00400272 0 1 C0 0.67 0 0.34 0 0 Z " fill="#2E668A" transform="translate(34,12)"/>
<path d="M0 0 C0.99 0 1.98 0 3 0 C3 1.98 3 3.96 3 6 C4.32 6 5.64 6 7 6 C7 6.66 7 7.32 7 8 C2.25 7.125 2.25 7.125 0 6 C0 4.02 0 2.04 0 0 Z " fill="#7E7B00" transform="translate(21,54)"/>
<path d="M0 0 C0.66 0.33 1.32 0.66 2 1 C2 1.66 2 2.32 2 3 C3.65 3.33 5.3 3.66 7 4 C7 4.66 7 5.32 7 6 C7.66 6.33 8.32 6.66 9 7 C6.69 6.67 4.38 6.34 2 6 C2 5.34 2 4.68 2 4 C0.68 3.34 -0.64 2.68 -2 2 C-1.34 1.34 -0.68 0.68 0 0 Z " fill="#2B4223" transform="translate(71,80)"/>
<path d="M0 0 C0.66 0 1.32 0 2 0 C6 5.41176471 6 5.41176471 6 8 C4.125 7.6875 4.125 7.6875 2 7 C0 4 0 4 0 0 Z " fill="#A1A1A1" transform="translate(21,87)"/>
<path d="M0 0 C0.33 0.66 0.66 1.32 1 2 C4.3 2 7.6 2 11 2 C11 2.33 11 2.66 11 3 C10.15695313 3.13277344 9.31390625 3.26554687 8.4453125 3.40234375 C7.34960938 3.57894531 6.25390625 3.75554687 5.125 3.9375 C4.03445312 4.11152344 2.94390625 4.28554687 1.8203125 4.46484375 C-0.93821546 4.85551159 -0.93821546 4.85551159 -3 6 C-3.33 4.35 -3.66 2.7 -4 1 C-2 0 -2 0 0 0 Z " fill="#90E68C" transform="translate(107,84)"/>
<path d="M0 0 C5.75 1.75 5.75 1.75 8 4 C7.67 4.66 7.34 5.32 7 6 C3.9375 6.625 3.9375 6.625 1 7 C0.67 6.01 0.34 5.02 0 4 C0.99 4 1.98 4 3 4 C2.01 2.68 1.02 1.36 0 0 Z " fill="#506741" transform="translate(15,62)"/>
<path d="M0 0 C2.97 0.33 5.94 0.66 9 1 C9 1.66 9 2.32 9 3 C10.32 3.33 11.64 3.66 13 4 C9.57056481 5.18771723 7.62215325 4.80226223 4.25 3.5625 C3.45078125 3.27503906 2.6515625 2.98757812 1.828125 2.69140625 C1.22484375 2.46324219 0.6215625 2.23507813 0 2 C0 1.34 0 0.68 0 0 Z " fill="#317A00" transform="translate(61,19)"/>
<path d="M0 0 C3.3 0.33 6.6 0.66 10 1 C9.67 1.99 9.34 2.98 9 4 C5.37471432 4.20140476 3.13498292 3.85776765 0 2 C0 1.34 0 0.68 0 0 Z " fill="#7EAF58" transform="translate(75,86)"/>
<path d="M0 0 C6.6 0.33 13.2 0.66 20 1 C20 1.33 20 1.66 20 2 C14.06 2.33 8.12 2.66 2 3 C2 2.34 2 1.68 2 1 C1.34 0.67 0.68 0.34 0 0 Z " fill="#6F954B" transform="translate(76,83)"/>
<path d="M0 0 C1.32 0 2.64 0 4 0 C4 0.66 4 1.32 4 2 C2.68 2 1.36 2 0 2 C0 3.32 0 4.64 0 6 C-1.32 6 -2.64 6 -4 6 C-4 5.34 -4 4.68 -4 4 C-4.66 3.67 -5.32 3.34 -6 3 C-4.35 3 -2.7 3 -1 3 C-0.67 2.01 -0.34 1.02 0 0 Z " fill="#191500" transform="translate(97,61)"/>
<path d="M0 0 C3.3 0.33 6.6 0.66 10 1 C10 1.66 10 2.32 10 3 C7.03 3 4.06 3 1 3 C0.67 2.01 0.34 1.02 0 0 Z " fill="#3566C9" transform="translate(69,29)"/>
<path d="M0 0 C2.97 0.495 2.97 0.495 6 1 C6 1.66 6 2.32 6 3 C4.35 3.33 2.7 3.66 1 4 C0.67 4.99 0.34 5.98 0 7 C0 6.01 0 5.02 0 4 C-0.66 4 -1.32 4 -2 4 C-1.34 2.68 -0.68 1.36 0 0 Z " fill="#277B2E" transform="translate(32,10)"/>
<path d="M0 0 C2.97 0 5.94 0 9 0 C9.33 0.99 9.66 1.98 10 3 C8.5199159 2.88637738 7.04089926 2.75877092 5.5625 2.625 C4.73878906 2.55539063 3.91507812 2.48578125 3.06640625 2.4140625 C2.38449219 2.27742188 1.70257813 2.14078125 1 2 C0.67 1.34 0.34 0.68 0 0 Z " fill="#0D0101" transform="translate(62,108)"/>
<path d="M0 0 C1.32 0.66 2.64 1.32 4 2 C4 4.31 4 6.62 4 9 C2.02 9.33 0.04 9.66 -2 10 C1 8 1 8 3 8 C3 6.68 3 5.36 3 4 C2.01 3.67 1.02 3.34 0 3 C0 2.01 0 1.02 0 0 Z " fill="#362828" transform="translate(108,92)"/>
<path d="M0 0 C1.77049689 -0.05410687 3.54146849 -0.09284119 5.3125 -0.125 C6.29863281 -0.14820312 7.28476563 -0.17140625 8.30078125 -0.1953125 C11 0 11 0 14 2 C13.01 2.33 12.02 2.66 11 3 C10.34 3.66 9.68 4.32 9 5 C9 4.01 9 3.02 9 2 C6.36 2.33 3.72 2.66 1 3 C0.67 2.01 0.34 1.02 0 0 Z " fill="#5C805C" transform="translate(61,72)"/>
<path d="M0 0 C1.485 0.99 1.485 0.99 3 2 C3 2.66 3 3.32 3 4 C3.598125 4.28875 4.19625 4.5775 4.8125 4.875 C7 6 7 6 10 8 C7.69 8 5.38 8 3 8 C0 2.25 0 2.25 0 0 Z " fill="#78A558" transform="translate(11,59)"/>
<path d="M0 0 C1.32 0.33 2.64 0.66 4 1 C3.67 1.66 3.34 2.32 3 3 C1.07421875 3.59765625 1.07421875 3.59765625 -1.3125 4.0625 C-2.09238281 4.21847656 -2.87226562 4.37445313 -3.67578125 4.53515625 C-4.44277344 4.68855469 -5.20976563 4.84195313 -6 5 C-7.33531635 5.32529853 -8.66939662 5.65593093 -10 6 C-7.93243723 3.2027092 -6.85559629 2.97307727 -3.3125 2.3125 C-2.219375 2.209375 -1.12625 2.10625 0 2 C0 1.34 0 0.68 0 0 Z " fill="#477846" transform="translate(93,61)"/>
<path d="M0 0 C2.84550012 0.66010476 5.52325999 1.51724966 8.25 2.5625 C8.95640625 2.83191406 9.6628125 3.10132813 10.390625 3.37890625 C10.92171875 3.58386719 11.4528125 3.78882813 12 4 C9.47524538 5.26237731 7.68799534 5.09856404 4.875 5.0625 C3.96492188 5.05347656 3.05484375 5.04445313 2.1171875 5.03515625 C1.41851562 5.02355469 0.71984375 5.01195312 0 5 C0.66 4.67 1.32 4.34 2 4 C2 3.01 2 2.02 2 1 C1.34 0.67 0.68 0.34 0 0 Z " fill="#1E5125" transform="translate(55,28)"/>
<path d="M0 0 C0 0.66 0 1.32 0 2 C0.66 2 1.32 2 2 2 C1.67 2.99 1.34 3.98 1 5 C-1.92879371 4.37240135 -4.36095629 3.41377341 -7 2 C-2.25 0 -2.25 0 0 0 Z " fill="#CD7339" transform="translate(47,4)"/>
<path d="M0 0 C1.32 0.66 2.64 1.32 4 2 C4 2.33 4 2.66 4 3 C-0.62 3 -5.24 3 -10 3 C-10 2.34 -10 1.68 -10 1 C-9.36191406 1.01160156 -8.72382813 1.02320312 -8.06640625 1.03515625 C-7.24011719 1.04417969 -6.41382813 1.05320312 -5.5625 1.0625 C-4.32693359 1.07990234 -4.32693359 1.07990234 -3.06640625 1.09765625 C-1.00836062 1.23267348 -1.00836062 1.23267348 0 0 Z " fill="#131B0F" transform="translate(33,66)"/>
<path d="M0 0 C2.33944736 0.28730055 4.6739143 0.61936779 7 1 C7 1.33 7 1.66 7 2 C6.21625 2.103125 5.4325 2.20625 4.625 2.3125 C1.66954819 2.77595022 1.66954819 2.77595022 0 6 C-0.38218767 4.34385343 -0.71395102 2.67542976 -1 1 C-0.67 0.67 -0.34 0.34 0 0 Z " fill="#DF6A69" transform="translate(39,80)"/>
<path d="M0 0 C6.75 -0.125 6.75 -0.125 9 1 C9 1.66 9 2.32 9 3 C6.03 2.67 3.06 2.34 0 2 C0 1.34 0 0.68 0 0 Z " fill="#2F3800" transform="translate(58,32)"/>
<path d="M0 0 C4.3177458 0.50797009 8.03302114 1.19682779 12 3 C12 3.33 12 3.66 12 4 C9.36 4 6.72 4 4 4 C4 3.34 4 2.68 4 2 C2.68 1.67 1.36 1.34 0 1 C0 0.67 0 0.34 0 0 Z " fill="#89EB69" transform="translate(47,117)"/>
<path d="M0 0 C3.37462715 0.54723683 5.08235 1.0549 8 3 C7.67 3.99 7.34 4.98 7 6 C5.83054208 5.19152271 4.66449539 4.37810888 3.5 3.5625 C2.8503125 3.11003906 2.200625 2.65757813 1.53125 2.19140625 C1.0259375 1.79824219 0.520625 1.40507813 0 1 C0 0.67 0 0.34 0 0 Z " fill="#37880D" transform="translate(26,113)"/>
<path d="M0 0 C1.53445094 3.06890187 0.54984289 5.70094266 0 9 C-2.475 8.01 -2.475 8.01 -5 7 C-4.01 6.67 -3.02 6.34 -2 6 C-1.855625 5.195625 -1.71125 4.39125 -1.5625 3.5625 C-1 1 -1 1 0 0 Z " fill="#D8D6DA" transform="translate(19,53)"/>
<path d="M0 0 C1.65 0 3.3 0 5 0 C4.67 1.32 4.34 2.64 4 4 C2.35 3.67 0.7 3.34 -1 3 C-0.67 2.01 -0.34 1.02 0 0 Z " fill="#32850F" transform="translate(42,120)"/>
<path d="M0 0 C1.98 0 3.96 0 6 0 C6 0.99 6 1.98 6 3 C4.02 3 2.04 3 0 3 C0 2.01 0 1.02 0 0 Z " fill="#FBFBFB" transform="translate(84,111)"/>
<path d="M0 0 C2.475 0.99 2.475 0.99 5 2 C5 2.66 5 3.32 5 4 C2.36 4 -0.28 4 -3 4 C-2.01 3.34 -1.02 2.68 0 2 C0 1.34 0 0.68 0 0 Z " fill="#220D0C" transform="translate(37,100)"/>
<path d="M0 0 C3.3 0 6.6 0 10 0 C7 3 7 3 4.4375 3.375 C3.633125 3.25125 2.82875 3.1275 2 3 C1.34 2.01 0.68 1.02 0 0 Z " fill="#E35860" transform="translate(43,90)"/>
<path d="M0 0 C0.99 0.33 1.98 0.66 3 1 C3 1.99 3 2.98 3 4 C3.66 4 4.32 4 5 4 C5.33 5.32 5.66 6.64 6 8 C4 8 4 8 1.875 6.25 C0 4 0 4 0 0 Z " fill="#2C331F" transform="translate(15,74)"/>
<path d="M0 0 C1.65 1.65 3.3 3.3 5 5 C4.01 5.495 4.01 5.495 3 6 C2.34 5.67 1.68 5.34 1 5 C1 4.34 1 3.68 1 3 C-0.32 3.33 -1.64 3.66 -3 4 C-3 3.34 -3 2.68 -3 2 C-2.01 2 -1.02 2 0 2 C0 1.34 0 0.68 0 0 Z " fill="#5E685E" transform="translate(14,40)"/>
<path d="M0 0 C3.69900008 0.88776002 7.34550461 1.94581864 11 3 C11 3.33 11 3.66 11 4 C4.6 4.49230769 4.6 4.49230769 1.5625 2 C1.046875 1.34 0.53125 0.68 0 0 Z " fill="#4B4C35" transform="translate(20,60)"/>
<path d="M0 0 C1.32 0.33 2.64 0.66 4 1 C4 1.66 4 2.32 4 3 C4.99 3 5.98 3 7 3 C7 3.66 7 4.32 7 5 C5.68 5 4.36 5 3 5 C3 4.34 3 3.68 3 3 C2.34 3 1.68 3 1 3 C0.67 2.01 0.34 1.02 0 0 Z " fill="#427203" transform="translate(41,7)"/>
</svg>
