<?xml version="1.0" encoding="UTF-8"?>
<svg version="1.1" xmlns="http://www.w3.org/2000/svg" width="128" height="128">
<path d="M0 0 C42.24 0 84.48 0 128 0 C128 42.24 128 84.48 128 128 C85.76 128 43.52 128 0 128 C0 85.76 0 43.52 0 0 Z " fill="#FCC048" transform="translate(0,0)"/>
<path d="M0 0 C42.24 0 84.48 0 128 0 C128 42.24 128 84.48 128 128 C85.76 128 43.52 128 0 128 C0 85.76 0 43.52 0 0 Z M13.87109375 25.54296875 C3.26127539 39.95673926 -0.68587445 56.3369106 1 74 C4.12684403 91.69911716 14.55904906 106.59043587 28.88671875 116.95703125 C33.40171046 119.91981753 37.94563192 122.12118971 43 124 C43.80179688 124.31839844 44.60359375 124.63679688 45.4296875 124.96484375 C61.6128799 130.43486361 79.13562748 127.19836261 94.25 120.3125 C100.36700733 117.07887562 105.15807726 112.90097058 110 108 C110.95519531 107.07767578 110.95519531 107.07767578 111.9296875 106.13671875 C117.51275595 100.34273438 120.7140158 93.25690971 124 86 C124.37511719 85.17886719 124.75023438 84.35773438 125.13671875 83.51171875 C130.2405655 68.66206509 127.76407069 49.76257723 121.3125 35.875 C112.87630861 19.93997183 99.43686613 8.80839897 82.375 3.0625 C56.82273173 -4.76967183 30.63055761 5.52386605 13.87109375 25.54296875 Z " fill="#FEFDFC" transform="translate(0,0)"/>
<path d="M0 0 C0.474375 0.598125 0.94875 1.19625 1.4375 1.8125 C4.92683848 4.79120358 8.6364811 5.7692639 13 7 C12.01 7.33 11.02 7.66 10 8 C9.89177208 11.06345144 9.81258521 14.1230601 9.75 17.1875 C9.71648438 18.05181641 9.68296875 18.91613281 9.6484375 19.80664062 C9.58377366 24.02595589 9.59929855 26.3487547 11.85546875 30.015625 C14.09275587 32.08582874 16.38197351 33.45603566 19 35 C21.29518219 37.3743264 21.96098229 38.42774033 22.1875 41.75 C22.0946875 42.86375 22.0946875 42.86375 22 44 C22.66 44 23.32 44 24 44 C24 46.64 24 49.28 24 52 C25.19625 52.103125 26.3925 52.20625 27.625 52.3125 C31.56927729 52.80290748 34.57508167 53.91163517 38 56 C39.17635297 58.35270593 39.13359359 59.820752 39.125 62.4375 C39.12886719 63.61119141 39.12886719 63.61119141 39.1328125 64.80859375 C39 67 39 67 38 70 C53.51981095 75.00446879 70.89098751 74.86723275 86.33203125 69.77734375 C89 69 89 69 91 70 C77.01495646 77.7993512 60.03081028 79.7551564 44.50488281 75.56103516 C27.91220709 70.40057561 14.37066439 60.53390942 6.00146484 45.16650391 C5.0075114 43.23008449 4.05510714 41.28034622 3.125 39.3125 C2.83874756 38.70728516 2.55249512 38.10207031 2.25756836 37.47851562 C-1.14413343 29.92872121 -2.33320722 23.09864701 -2.25 14.875 C-2.25773438 14.10285156 -2.26546875 13.33070312 -2.2734375 12.53515625 C-2.25787587 7.96781911 -1.73029176 4.29826445 0 0 Z " fill="#FD8007" transform="translate(3,50)"/>
<path d="M0 0 C0 0.33 0 0.66 0 1 C-0.96679688 1.03738281 -1.93359375 1.07476563 -2.9296875 1.11328125 C-10.69384113 1.50533257 -17.65275069 2.34329567 -25 5 C-26.49972816 5.4800168 -27.99972666 5.95918986 -29.5 6.4375 C-31.00181148 6.95308669 -32.50177517 7.47408204 -34 8 C-34.8146875 8.27457031 -35.629375 8.54914062 -36.46875 8.83203125 C-42.11110162 10.87825445 -46.3409287 13.50121078 -50.89453125 17.4140625 C-53.1675004 19.12616913 -55.36488264 19.96430711 -58 21 C-58.61875 21.721875 -59.2375 22.44375 -59.875 23.1875 C-62 25 -62 25 -65.5 24.875 C-68.39666526 24.15083369 -70.39806861 23.34293233 -73 22 C-74.99110401 21.61709538 -76.99100513 21.27395385 -79 21 C-72.06815692 7.13631384 -56.73794818 0.14280524 -42.875 -4.75 C-27.99131307 -8.93603695 -13.90289037 -5.52171532 0 0 Z " fill="#FC820A" transform="translate(92,7)"/>
<path d="M0 0 C2.05078125 0.03255208 4.1015625 0.06510417 6.15234375 0.09765625 C7.37185595 6.43911966 7.37185595 6.43911966 6.40234375 9.34765625 C5.15234375 11.09765625 5.15234375 11.09765625 3.46484375 12.41015625 C1.77973517 14.18755203 1.77973517 14.18755203 2.40234375 17.47265625 C2.64984375 18.66890625 2.89734375 19.86515625 3.15234375 21.09765625 C3.33796875 22.06703125 3.52359375 23.03640625 3.71484375 24.03515625 C3.85921875 24.71578125 4.00359375 25.39640625 4.15234375 26.09765625 C5.47234375 26.42765625 6.79234375 26.75765625 8.15234375 27.09765625 C6.17234375 27.75765625 4.19234375 28.41765625 2.15234375 29.09765625 C7.57033047 28.40599837 12.83462225 27.33966377 18.15234375 26.09765625 C20.74667475 36.7297806 20.74667475 36.7297806 20.15234375 40.09765625 C17.91496127 42.50077076 16.68893471 43.0610705 13.40234375 43.28515625 C12.28859375 43.19234375 12.28859375 43.19234375 11.15234375 43.09765625 C11.15234375 43.75765625 11.15234375 44.41765625 11.15234375 45.09765625 C7.77344702 45.38292896 4.52119284 45.54249623 1.15234375 45.09765625 C-1.44844177 42.26738966 -1.84765625 40.92020482 -1.84765625 37.09765625 C-2.50765625 37.09765625 -3.16765625 37.09765625 -3.84765625 37.09765625 C-3.28394211 33.82811423 -2.34803359 32.27189742 0.15234375 30.09765625 C-2.48765625 30.09765625 -5.12765625 30.09765625 -7.84765625 30.09765625 C-7.84765625 29.76765625 -7.84765625 29.43765625 -7.84765625 29.09765625 C-5.20765625 29.09765625 -2.56765625 29.09765625 0.15234375 29.09765625 C0.15234375 28.43765625 0.15234375 27.77765625 0.15234375 27.09765625 C0.81234375 27.09765625 1.47234375 27.09765625 2.15234375 27.09765625 C1.40984375 25.45796875 1.40984375 25.45796875 0.65234375 23.78515625 C-0.84765625 20.09765625 -0.84765625 20.09765625 -0.84765625 17.09765625 C-1.46253906 16.91589844 -2.07742187 16.73414062 -2.7109375 16.546875 C-3.51917969 16.29550781 -4.32742187 16.04414062 -5.16015625 15.78515625 C-5.96066406 15.54152344 -6.76117188 15.29789063 -7.5859375 15.046875 C-9.98645401 14.03940434 -11.23742481 13.12705905 -12.84765625 11.09765625 C-13.2633287 8.3265066 -13.29103951 6.80185319 -11.78515625 4.41015625 C-9.01376195 2.53276011 -6.06521174 1.9318373 -2.84765625 1.09765625 C-1.84765625 0.09765625 -1.84765625 0.09765625 0 0 Z " fill="#F9704D" transform="translate(80.84765625,66.90234375)"/>
<path d="M0 0 C0.33 0 0.66 0 1 0 C1.49346015 20.80756982 -3.63215827 36.29736661 -18.1875 51.6875 C-20.66796875 54.26171875 -20.66796875 54.26171875 -23 56 C-25.30078125 55.76953125 -25.30078125 55.76953125 -27 55 C-24.25 50.125 -24.25 50.125 -22 49 C-22.64654303 44.22636057 -22.64654303 44.22636057 -23.5625 39.5 C-24.23863646 35.63636307 -24.78865133 31.57730267 -23 28 C-21.948125 27.62875 -20.89625 27.2575 -19.8125 26.875 C-14.97448977 24.91605107 -12.79598438 21.23259514 -10 17 C-8.38012049 14.6194036 -6.72901972 12.30535962 -5 10 C-4.34 10 -3.68 10 -3 10 C-2.01 6.7 -1.02 3.4 0 0 Z " fill="#FAC04A" transform="translate(126,59)"/>
<path d="M0 0 C1.30249153 3.59855032 0.69931441 5.58099473 -0.75 9.0625 C-1.09546875 9.91972656 -1.4409375 10.77695313 -1.796875 11.66015625 C-2.98776224 13.97619995 -4.08982241 15.2682986 -6 17 C-8.82419184 20.10366916 -11.48556443 23.12941672 -13.625 26.75 C-15.15831703 29.25906422 -16.45697294 30.53583291 -19 32 C-20.32 32 -21.64 32 -23 32 C-23.23643001 37.79253532 -22.7201844 42.4094007 -21 48 C-20.375 50.625 -20.375 50.625 -21 53 C-24.3916971 55.85658015 -27.50666139 58 -32 58 C-32 58.66 -32 59.32 -32 60 C-42.45474056 61.21802803 -42.45474056 61.21802803 -45.9921875 58.4296875 C-48.23451337 55.37408281 -49.89745663 52.2264728 -51.4609375 48.7734375 C-54.36867504 45.59729342 -54.96537956 45.55592423 -59.0703125 45.265625 C-61.08825319 45.23110759 -63.10689507 45.22700893 -65.125 45.25 C-72.67944931 45.22064333 -79.63755941 44.78323389 -87 43 C-87 42.34 -87 41.68 -87 41 C-87.99 40.67 -88.98 40.34 -90 40 C-86.46503684 38.82167895 -84.57914276 39.22897346 -80.9375 39.875 C-79.87402344 40.05804688 -78.81054688 40.24109375 -77.71484375 40.4296875 C-75 41 -75 41 -73 42 C-70.89471067 42.08543895 -68.78668843 42.10714725 -66.6796875 42.09765625 C-64.79443359 42.09282227 -64.79443359 42.09282227 -62.87109375 42.08789062 C-61.55238281 42.07951172 -60.23367187 42.07113281 -58.875 42.0625 C-57.53515789 42.05748489 -56.195314 42.05292201 -54.85546875 42.04882812 C-51.57026794 42.03701086 -48.28515603 42.02053617 -45 42 C-46 45 -46 45 -48 46 C-48.33 46.99 -48.66 47.98 -49 49 C-48.34 49 -47.68 49 -47 49 C-44.95830515 51.90548882 -44 53.40142046 -44 57 C-40.7 57 -37.4 57 -34 57 C-34 56.34 -34 55.68 -34 55 C-29.5 53.5 -29.5 53.5 -25 52 C-25.66 47.38 -26.32 42.76 -27 38 C-28.876875 38.66 -30.75375 39.32 -32.6875 40 C-36.63141063 41.38686967 -39.8093765 42.24879397 -44 42 C-43 40 -43 40 -40.25 38.9375 C-37.5027536 38.14502508 -34.81332583 37.49646926 -32 37 C-32 36.34 -32 35.68 -32 35 C-30.1015625 33.4921875 -30.1015625 33.4921875 -27.625 31.875 C-26.81289062 31.33617188 -26.00078125 30.79734375 -25.1640625 30.2421875 C-23 29 -23 29 -21 29 C-21 28.34 -21 27.68 -21 27 C-16.52941176 23 -16.52941176 23 -14 23 C-13.73316406 22.42378906 -13.46632813 21.84757812 -13.19140625 21.25390625 C-11.57275071 18.19172839 -9.47323706 15.61994256 -7.33984375 12.90234375 C-5.81914723 10.9370042 -5.81914723 10.9370042 -5 8 C-4.34 8 -3.68 8 -3 8 C-2.814375 6.8553125 -2.814375 6.8553125 -2.625 5.6875 C-2 3 -2 3 0 0 Z " fill="#483819" transform="translate(126,55)"/>
<path d="M0 0 C0.474375 0.598125 0.94875 1.19625 1.4375 1.8125 C4.92683848 4.79120358 8.6364811 5.7692639 13 7 C12.01 7.33 11.02 7.66 10 8 C9.89177208 11.06345144 9.81258521 14.1230601 9.75 17.1875 C9.71648438 18.05181641 9.68296875 18.91613281 9.6484375 19.80664062 C9.58377366 24.02595589 9.59929855 26.3487547 11.85546875 30.015625 C14.09275587 32.08582874 16.38197351 33.45603566 19 35 C21.29518219 37.3743264 21.96098229 38.42774033 22.1875 41.75 C22.0946875 42.86375 22.0946875 42.86375 22 44 C22.66 44 23.32 44 24 44 C24 46.64 24 49.28 24 52 C25.19625 52.103125 26.3925 52.20625 27.625 52.3125 C31.56927729 52.80290748 34.57508167 53.91163517 38 56 C39.17635297 58.35270593 39.13359359 59.820752 39.125 62.4375 C39.12886719 63.61119141 39.12886719 63.61119141 39.1328125 64.80859375 C39 67 39 67 38 70 C53.51981095 75.00446879 70.89098751 74.86723275 86.33203125 69.77734375 C89 69 89 69 91 70 C76.84028708 77.89676297 59.69841912 79.79078801 44.04394531 75.3515625 C34.73569312 72.41711118 34.73569312 72.41711118 32 69 C32.99 69 33.98 69 35 69 C35.43494462 64.56356484 35.54001196 62.67136622 32.6875 59.125 C30.12829343 56.85367939 30.12829343 56.85367939 27 56 C27 55.34 27 54.68 27 54 C25.02 53.67 23.04 53.34 21 53 C20.84144531 52.11957031 20.68289062 51.23914063 20.51953125 50.33203125 C18.85671361 41.49183499 18.85671361 41.49183499 13 35 C11.21796608 33.45028646 9.44806324 31.8865629 7.6875 30.3125 C6.80449219 29.54550781 5.92148438 28.77851562 5.01171875 27.98828125 C4.34785156 27.33214844 3.68398437 26.67601563 3 26 C3 25.34 3 24.68 3 24 C3.99 24 4.98 24 6 24 C5.98839844 23.34773438 5.97679687 22.69546875 5.96484375 22.0234375 C5.91529006 17.2238086 6.00586249 12.72215315 7 8 C6.05125 7.938125 5.1025 7.87625 4.125 7.8125 C1 7 1 7 -0.4375 4.5625 C-1 2 -1 2 0 0 Z " fill="#D74E07" transform="translate(3,50)"/>
<path d="M0 0 C0.66 0 1.32 0 2 0 C2.33 2.31 2.66 4.62 3 7 C5.10464793 6.69075786 7.2087053 6.3774944 9.3125 6.0625 C11.07013672 5.80146484 11.07013672 5.80146484 12.86328125 5.53515625 C16.01641403 5.07906969 16.01641403 5.07906969 19 4 C19 2.68 19 1.36 19 0 C19.66 0 20.32 0 21 0 C23.98013893 5.71193294 24.80345757 10.57233948 24 17 C21.84782609 22.57608696 21.84782609 22.57608696 19 24 C17.35643193 24.09585131 15.70885358 24.12983511 14.0625 24.125 C13.18722656 24.12757812 12.31195313 24.13015625 11.41015625 24.1328125 C9 24 9 24 6 23 C1.40017509 17.82519698 -1.423762 13.80473728 -1.25 6.75 C-1.23453125 5.69296875 -1.2190625 4.6359375 -1.203125 3.546875 C-1 1 -1 1 0 0 Z " fill="#685A3E" transform="translate(90,31)"/>
<path d="M0 0 C2.594331 10.63212435 2.594331 10.63212435 2 14 C-0.23738248 16.40311451 -1.46340904 16.96341425 -4.75 17.1875 C-5.86375 17.0946875 -5.86375 17.0946875 -7 17 C-7 17.66 -7 18.32 -7 19 C-10.37889673 19.28527271 -13.63115091 19.44483998 -17 19 C-19.60078552 16.16973341 -20 14.82254857 -20 11 C-20.66 11 -21.32 11 -22 11 C-21.67 9.68 -21.34 8.36 -21 7 C-18.69 6.34 -16.38 5.68 -14 5 C-10 11.75 -10 11.75 -10 14 C-9.34 14 -8.68 14 -8 14 C-8.33 12.02 -8.66 10.04 -9 8 C-9.66 8 -10.32 8 -11 8 C-11 6.68 -11 5.36 -11 4 C-9.73308493 3.32591692 -8.46129251 2.66099503 -7.1875 2 C-6.47980469 1.62875 -5.77210937 1.2575 -5.04296875 0.875 C-3 0 -3 0 0 0 Z " fill="#F3F3F3" transform="translate(99,93)"/>
<path d="M0 0 C0.66 0 1.32 0 2 0 C2 0.99 2 1.98 2 3 C2.60328125 2.855625 3.2065625 2.71125 3.828125 2.5625 C4.62734375 2.376875 5.4265625 2.19125 6.25 2 C7.43335938 1.7215625 7.43335938 1.7215625 8.640625 1.4375 C11 1 11 1 15 1 C15 2.65 15 4.3 15 6 C16.65 6 18.3 6 20 6 C20.33 6.99 20.66 7.98 21 9 C21.66 9 22.32 9 23 9 C23 6.36 23 3.72 23 1 C23.33 1 23.66 1 24 1 C24.55689631 11.62228146 24.55689631 11.62228146 21 16 C19 18 19 18 15.6875 18.25 C11.19726062 17.94557699 8.61884205 17.64641357 5.39453125 14.3671875 C1.48251881 9.62817005 0.21842155 6.11580328 0 0 Z " fill="#645844" transform="translate(30,58)"/>
<path d="M0 0 C2.79192205 -0.05380578 5.5828141 -0.09357669 8.375 -0.125 C9.1690625 -0.14175781 9.963125 -0.15851562 10.78125 -0.17578125 C12.85492015 -0.19335473 14.92883241 -0.10335168 17 0 C17.99 0.99 17.99 0.99 19 2 C18.03320312 2.03738281 17.06640625 2.07476562 16.0703125 2.11328125 C8.30615887 2.50533257 1.34724931 3.34329567 -6 6 C-7.49972816 6.4800168 -8.99972666 6.95918986 -10.5 7.4375 C-12.00181148 7.95308669 -13.50177517 8.47408204 -15 9 C-15.8146875 9.27457031 -16.629375 9.54914062 -17.46875 9.83203125 C-23.11110162 11.87825445 -27.3409287 14.50121078 -31.89453125 18.4140625 C-34.1675004 20.12616913 -36.36488264 20.96430711 -39 22 C-39.61875 22.721875 -40.2375 23.44375 -40.875 24.1875 C-43 26 -43 26 -46.5 25.875 C-49.39666526 25.15083369 -51.39806861 24.34293233 -54 23 C-55.99110401 22.61709538 -57.99100513 22.27395385 -60 22 C-59.01 20.35 -58.02 18.7 -57 17 C-49.81543274 18.76225235 -49.81543274 18.76225235 -47 22 C-46.01 22.33 -45.02 22.66 -44 23 C-44 22.34 -44 21.68 -44 21 C-42.03501678 19.61558 -40.02951535 18.28796166 -38 17 C-37.2575 16.4225 -36.515 15.845 -35.75 15.25 C-34 14 -34 14 -32 14 C-32 13.34 -32 12.68 -32 12 C-28.535 11.505 -28.535 11.505 -25 11 C-25 10.34 -25 9.68 -25 9 C-21.535 8.505 -21.535 8.505 -18 8 C-18 7.34 -18 6.68 -18 6 C-15.94037148 5.32451422 -13.87715678 4.65995688 -11.8125 4 C-10.66394531 3.62875 -9.51539063 3.2575 -8.33203125 2.875 C-5.35679188 2.09369447 -3.04716104 1.81636694 0 2 C0 1.34 0 0.68 0 0 Z " fill="#B55B0C" transform="translate(73,6)"/>
<path d="M0 0 C1.91635217 -0.05423638 3.83314925 -0.09289963 5.75 -0.125 C7.35101562 -0.15980469 7.35101562 -0.15980469 8.984375 -0.1953125 C11.92470106 -0.00487687 13.52361878 0.47329896 16 2 C16 2.99 16 3.98 16 5 C15.401875 5.53625 14.80375 6.0725 14.1875 6.625 C11.4692966 9.57619226 10.86102383 12.23627922 9.90625 16.07421875 C9 18 9 18 7.09375 18.83203125 C5 19 5 19 2 18 C-0.13487045 15.92377984 -1.70925389 13.68241475 -3 11 C-2.92695887 6.69057359 -1.97159958 3.75503821 0 0 Z " fill="#A95D2D" transform="translate(11,35)"/>
<path d="M0 0 C1.30249153 3.59855032 0.69931441 5.58099473 -0.75 9.0625 C-1.09546875 9.91972656 -1.4409375 10.77695313 -1.796875 11.66015625 C-2.98776224 13.97619995 -4.08982241 15.2682986 -6 17 C-8.82419184 20.10366916 -11.48556443 23.12941672 -13.625 26.75 C-15.15831703 29.25906422 -16.45697294 30.53583291 -19 32 C-20.32 32 -21.64 32 -23 32 C-22.98839844 32.92683594 -22.97679688 33.85367188 -22.96484375 34.80859375 C-22.95582031 36.00613281 -22.94679688 37.20367187 -22.9375 38.4375 C-22.92589844 39.63246094 -22.91429688 40.82742187 -22.90234375 42.05859375 C-23 45 -23 45 -24 46 C-24.04080783 47.99958364 -24.04254356 50.00045254 -24 52 C-24.33 52 -24.66 52 -25 52 C-25.66 47.38 -26.32 42.76 -27 38 C-28.876875 38.66 -30.75375 39.32 -32.6875 40 C-36.63141063 41.38686967 -39.8093765 42.24879397 -44 42 C-43 40 -43 40 -40.25 38.9375 C-37.5027536 38.14502508 -34.81332583 37.49646926 -32 37 C-32 36.34 -32 35.68 -32 35 C-30.1015625 33.4921875 -30.1015625 33.4921875 -27.625 31.875 C-26.81289062 31.33617188 -26.00078125 30.79734375 -25.1640625 30.2421875 C-23 29 -23 29 -21 29 C-21 28.34 -21 27.68 -21 27 C-16.52941176 23 -16.52941176 23 -14 23 C-13.73316406 22.42378906 -13.46632813 21.84757812 -13.19140625 21.25390625 C-11.57275071 18.19172839 -9.47323706 15.61994256 -7.33984375 12.90234375 C-5.81914723 10.9370042 -5.81914723 10.9370042 -5 8 C-4.34 8 -3.68 8 -3 8 C-2.814375 6.8553125 -2.814375 6.8553125 -2.625 5.6875 C-2 3 -2 3 0 0 Z " fill="#6E5D39" transform="translate(126,55)"/>
<path d="M0 0 C14.13446735 4.23443855 29.58653617 3.43262903 43.51953125 -1.16015625 C46.1875 -1.9375 46.1875 -1.9375 48.1875 -0.9375 C34.73822579 6.56305677 18.4476127 8.75208846 3.4140625 5.0078125 C-6.81190938 2.06309062 -6.81190938 2.06309062 -9.8125 -0.9375 C-5.98641602 -2.38940299 -3.7518806 -1.37399327 0 0 Z " fill="#9C5F28" transform="translate(45.8125,120.9375)"/>
<path d="M0 0 C2.3125 0.1875 2.3125 0.1875 4 1 C4.45732667 6.71658336 3.52273754 9.48649253 0 14 C-3.3 13.34 -6.6 12.68 -10 12 C-10 11.34 -10 10.68 -10 10 C-10.99 9.67 -11.98 9.34 -13 9 C-12.34 7.68 -11.68 6.36 -11 5 C-10.113125 5.103125 -9.22625 5.20625 -8.3125 5.3125 C-3.97867518 4.9036486 -2.95665172 3.03445834 0 0 Z " fill="#FE6062" transform="translate(82,68)"/>
<path d="M0 0 C3 5.22222222 3 5.22222222 3 8 C4.32 8 5.64 8 7 8 C7 8.66 7 9.32 7 10 C8.65 9.67 10.3 9.34 12 9 C11.67 9.66 11.34 10.32 11 11 C9.35 11 7.7 11 6 11 C6 11.66 6 12.32 6 13 C2.62110327 13.28527271 -0.63115091 13.44483998 -4 13 C-6.60078552 10.16973341 -7 8.82254857 -7 5 C-7.66 5 -8.32 5 -9 5 C-8.8125 3.125 -8.8125 3.125 -8 1 C-4.70594381 -0.82039948 -3.63772813 -1.21257604 0 0 Z " fill="#E4E4E4" transform="translate(86,99)"/>
<path d="M0 0 C1.23556641 0.01740234 1.23556641 0.01740234 2.49609375 0.03515625 C3.32238281 0.04417969 4.14867188 0.05320313 5 0.0625 C5.63808594 0.07410156 6.27617188 0.08570313 6.93359375 0.09765625 C6.60359375 1.74765625 6.27359375 3.39765625 5.93359375 5.09765625 C8.40859375 6.08765625 8.40859375 6.08765625 10.93359375 7.09765625 C10.60359375 8.74765625 10.27359375 10.39765625 9.93359375 12.09765625 C9.27359375 12.09765625 8.61359375 12.09765625 7.93359375 12.09765625 C7.93359375 12.75765625 7.93359375 13.41765625 7.93359375 14.09765625 C5.62359375 13.76765625 3.31359375 13.43765625 0.93359375 13.09765625 C0.60359375 11.77765625 0.27359375 10.45765625 -0.06640625 9.09765625 C-0.72640625 9.09765625 -1.38640625 9.09765625 -2.06640625 9.09765625 C-2.9453125 2.9453125 -2.9453125 2.9453125 -3.06640625 1.09765625 C-2.06640625 0.09765625 -2.06640625 0.09765625 0 0 Z " fill="#191714" transform="translate(99.06640625,37.90234375)"/>
<path d="M0 0 C0.66 0.33 1.32 0.66 2 1 C2 1.66 2 2.32 2 3 C4.97 3.495 4.97 3.495 8 4 C8 5.98 8 7.96 8 10 C7.34 10 6.68 10 6 10 C6 12.97 6 15.94 6 19 C4.35 18.67 2.7 18.34 1 18 C1 18.66 1 19.32 1 20 C0.34 20 -0.32 20 -1 20 C-1.02689449 17.04160645 -1.04678741 14.08345573 -1.0625 11.125 C-1.07087891 10.28324219 -1.07925781 9.44148438 -1.08789062 8.57421875 C-1.09111328 7.76855469 -1.09433594 6.96289062 -1.09765625 6.1328125 C-1.10289307 5.38918457 -1.10812988 4.64555664 -1.11352539 3.87939453 C-1 2 -1 2 0 0 Z " fill="#FB8616" transform="translate(2,54)"/>
<path d="M0 0 C3.23060419 0.55700072 5.0658223 1.29215122 7 4 C7.1875 6.6875 7.1875 6.6875 7 9 C7.66 9 8.32 9 9 9 C9 13.62 9 18.24 9 23 C8.34 23 7.68 23 7 23 C7 21.68 7 20.36 7 19 C6.34 19 5.68 19 5 19 C4.67 18.34 4.34 17.68 4 17 C1.47266765 16.34444881 1.47266765 16.34444881 -1 16 C-1 14.35 -1 12.7 -1 11 C-2.32 10.67 -3.64 10.34 -5 10 C-0.375 7 -0.375 7 3 7 C2.01 4.69 1.02 2.38 0 0 Z " fill="#8F7642" transform="translate(46,48)"/>
<path d="M0 0 C0.99 0.495 0.99 0.495 2 1 C2.40729228 3.32156597 2.74438677 5.6568787 3 8 C3.33 6.35 3.66 4.7 4 3 C4.33 3 4.66 3 5 3 C5 5.64 5 8.28 5 11 C6.794375 11.1546875 6.794375 11.1546875 8.625 11.3125 C12.56927729 11.80290748 15.57508167 12.91163517 19 15 C20.16983345 17.3396669 20.1661241 18.83391527 20.1875 21.4375 C20.20167969 22.21996094 20.21585938 23.00242187 20.23046875 23.80859375 C20 26 20 26 18 29 C15.375 29.1875 15.375 29.1875 13 29 C13.99 28.67 14.98 28.34 16 28 C16.43494462 23.56356484 16.54001196 21.67136622 13.6875 18.125 C11.12829343 15.85367939 11.12829343 15.85367939 8 15 C8 14.34 8 13.68 8 13 C5.03 12.505 5.03 12.505 2 12 C1.66430703 10.37548581 1.3315204 8.75037083 1 7.125 C0.814375 6.22007813 0.62875 5.31515625 0.4375 4.3828125 C0 2 0 2 0 0 Z " fill="#DC5D0F" transform="translate(22,91)"/>
<path d="M0 0 C0.66 0 1.32 0 2 0 C4.94147774 5.63783234 5.85607842 10.64056032 5 17 C3 20 3 20 0.875 20.6875 C0.25625 20.790625 -0.3625 20.89375 -1 21 C-0.67 18.69 -0.34 16.38 0 14 C-1.32 13.34 -2.64 12.68 -4 12 C-3.67 10.35 -3.34 8.7 -3 7 C-4.65 7 -6.3 7 -8 7 C-8 6.67 -8 6.34 -8 6 C-5.36 5.34 -2.72 4.68 0 4 C0 2.68 0 1.36 0 0 Z " fill="#7C673C" transform="translate(109,31)"/>
<path d="M0 0 C2.45895618 0.30811738 4.91708307 0.62128988 7.375 0.9375 C8.07367188 1.02451172 8.77234375 1.11152344 9.4921875 1.20117188 C14.7734375 1.88671875 14.7734375 1.88671875 17 3 C19.10528933 3.08543895 21.21331157 3.10714725 23.3203125 3.09765625 C25.20556641 3.09282227 25.20556641 3.09282227 27.12890625 3.08789062 C28.44761719 3.07951172 29.76632813 3.07113281 31.125 3.0625 C32.46484211 3.05748489 33.804686 3.05292201 35.14453125 3.04882812 C38.42973206 3.03701086 41.71484397 3.02053617 45 3 C45 3.66 45 4.32 45 5 C44.195625 5.12375 43.39125 5.2475 42.5625 5.375 C41.716875 5.58125 40.87125 5.7875 40 6 C39.67 6.66 39.34 7.32 39 8 C38.01 7.67 37.02 7.34 36 7 C34.34515342 6.87473694 32.68631709 6.79880056 31.02734375 6.75390625 C30.04443359 6.72103516 29.06152344 6.68816406 28.04882812 6.65429688 C26.00204215 6.59390834 23.95516469 6.5365324 21.90820312 6.48242188 C15.41765672 6.25890078 9.32222664 5.49389998 3 4 C3 3.34 3 2.68 3 2 C2.01 1.67 1.02 1.34 0 1 C0 0.67 0 0.34 0 0 Z " fill="#31250C" transform="translate(36,94)"/>
<path d="M0 0 C-0.33 1.98 -0.66 3.96 -1 6 C0.65 6 2.3 6 4 6 C4 7.98 4 9.96 4 12 C-3.36113576 12.36202307 -3.36113576 12.36202307 -5.875 10.9375 C-7.51811193 8.10769612 -8.22448449 5.16171707 -9 2 C-5.62902617 0.50178941 -3.79557881 0 0 0 Z " fill="#0A0907" transform="translate(45,59)"/>
<path d="M0 0 C1.670625 0.061875 1.670625 0.061875 3.375 0.125 C4.0625 1.8125 4.0625 1.8125 4.375 4.125 C3 6.625 3 6.625 1.375 9.125 C0.67920546 11.31630534 0.67920546 11.31630534 0.375 13.125 C-4.5 12.25 -4.5 12.25 -5.625 11.125 C-5.79296875 9.12890625 -5.79296875 9.12890625 -5.8125 6.6875 C-5.82667969 5.88441406 -5.84085938 5.08132812 -5.85546875 4.25390625 C-5.42001486 0.2314932 -3.81106537 0.13141605 0 0 Z " fill="#F5AB78" transform="translate(17.625,36.875)"/>
<path d="M0 0 C0.66 0.33 1.32 0.66 2 1 C-6.65630876 9.93498268 -6.65630876 9.93498268 -11.875 10.1875 C-14.36702198 9.24053165 -16.63936112 8.21839426 -19 7 C-20.99110401 6.61709538 -22.99100513 6.27395385 -25 6 C-24.01 4.35 -23.02 2.7 -22 1 C-14.81543274 2.76225235 -14.81543274 2.76225235 -12 6 C-11.01 6.33 -10.02 6.66 -9 7 C-9 6.34 -9 5.68 -9 5 C-7.54735962 4.1361871 -6.0876837 3.28419546 -4.625 2.4375 C-3.81289063 1.96183594 -3.00078125 1.48617188 -2.1640625 0.99609375 C-1.44992188 0.66738281 -0.73578125 0.33867187 0 0 Z " fill="#9C4A06" transform="translate(38,22)"/>
<path d="M0 0 C1.30249153 3.59855032 0.69931441 5.58099473 -0.75 9.0625 C-1.09546875 9.91972656 -1.4409375 10.77695313 -1.796875 11.66015625 C-2.98776224 13.97619995 -4.08982241 15.2682986 -6 17 C-8.88057881 20.16563609 -11.54972256 23.21618371 -13.6875 26.9375 C-14.3371875 27.9584375 -14.3371875 27.9584375 -15 29 C-15.99 29 -16.98 29 -18 29 C-17.01 27.515 -17.01 27.515 -16 26 C-16.66 25.67 -17.32 25.34 -18 25 C-17.38125 24.7525 -16.7625 24.505 -16.125 24.25 C-13.56033316 22.74137245 -13.28143914 21.63380665 -12 19 C-10.49756486 16.92369043 -8.92226111 14.91808811 -7.33984375 12.90234375 C-5.81914723 10.9370042 -5.81914723 10.9370042 -5 8 C-4.34 8 -3.68 8 -3 8 C-2.87625 7.236875 -2.7525 6.47375 -2.625 5.6875 C-2 3 -2 3 0 0 Z " fill="#674E1D" transform="translate(126,55)"/>
<path d="M0 0 C0.66 0 1.32 0 2 0 C5 5.625 5 5.625 5 9 C6.32 9.33 7.64 9.66 9 10 C7.02 10.66 5.04 11.32 3 12 C7.455 11.505 7.455 11.505 12 11 C11.67 11.66 11.34 12.32 11 13 C10.01 13 9.02 13 8 13 C8 14.32 8 15.64 8 17 C8.66 17 9.32 17 10 17 C10.33 18.98 10.66 20.96 11 23 C10.34 23 9.68 23 9 23 C7.68 20.36 6.36 17.72 5 15 C3.68 15 2.36 15 1 15 C1 14.34 1 13.68 1 13 C-1.64 13 -4.28 13 -7 13 C-7 12.67 -7 12.34 -7 12 C-4.36 12 -1.72 12 1 12 C1 11.34 1 10.68 1 10 C1.66 10 2.32 10 3 10 C2.2575 8.3603125 2.2575 8.3603125 1.5 6.6875 C0 3 0 3 0 0 Z " fill="#795E2A" transform="translate(80,84)"/>
<path d="M0 0 C0.474375 0.598125 0.94875 1.19625 1.4375 1.8125 C4.92683848 4.79120358 8.6364811 5.7692639 13 7 C12.01 7.33 11.02 7.66 10 8 C9.67 13.94 9.34 19.88 9 26 C8.34 25.67 7.68 25.34 7 25 C7 19.39 7 13.78 7 8 C4.03 7.505 4.03 7.505 1 7 C-0.4375 4.5625 -0.4375 4.5625 -1 2 C-0.67 1.34 -0.34 0.68 0 0 Z " fill="#A0500C" transform="translate(3,50)"/>
<path d="M0 0 C2.79192205 -0.05380578 5.5828141 -0.09357669 8.375 -0.125 C9.1690625 -0.14175781 9.963125 -0.15851562 10.78125 -0.17578125 C12.85492015 -0.19335473 14.92883241 -0.10335168 17 0 C17.66 0.66 18.32 1.32 19 2 C18.05640625 2.03738281 17.1128125 2.07476562 16.140625 2.11328125 C8.58681981 2.50007248 1.77967139 3.27805206 -5.51171875 5.4765625 C-8.10706843 6.02252303 -9.52604765 5.86906991 -12 5 C-4.71428571 1.57142857 -4.71428571 1.57142857 0 2 C0 1.34 0 0.68 0 0 Z " fill="#A8530A" transform="translate(73,6)"/>
<path d="M0 0 C0.99 0.33 1.98 0.66 3 1 C2.34 1.66 1.68 2.32 1 3 C0.75746187 5.21072977 0.75746187 5.21072977 0.875 7.625 C0.89304687 8.44226562 0.91109375 9.25953125 0.9296875 10.1015625 C0.95289063 10.72804688 0.97609375 11.35453125 1 12 C3.475 12.99 3.475 12.99 6 14 C6.33 13.34 6.66 12.68 7 12 C7 13.32 7 14.64 7 16 C4.3125 16.375 4.3125 16.375 1 16 C-2.67693404 12.79246179 -2.67693404 12.79246179 -4 10 C-4 6.22720352 -3.8279979 4.0267174 -1.4375 1.0625 C-0.7259375 0.5365625 -0.7259375 0.5365625 0 0 Z " fill="#A55731" transform="translate(12,36)"/>
<path d="M0 0 C0.33 0 0.66 0 1 0 C1.46459606 8.86173965 1.46459606 8.86173965 -0.25 13.0625 C-2.16652718 15.18436938 -3.18957887 15.70926678 -6 16 C-5.34 15.34 -4.68 14.68 -4 14 C-6.64 13.67 -9.28 13.34 -12 13 C-12 12.67 -12 12.34 -12 12 C-9.36 12 -6.72 12 -4 12 C-4 10.02 -4 8.04 -4 6 C-5.65 6 -7.3 6 -9 6 C-8.67 4.68 -8.34 3.36 -8 2 C-8 2.99 -8 3.98 -8 5 C-6.35 5 -4.7 5 -3 5 C-2.67 5.99 -2.34 6.98 -2 8 C-1.34 8 -0.68 8 0 8 C0 5.36 0 2.72 0 0 Z " fill="#403D38" transform="translate(53,59)"/>
<path d="M0 0 C0.70382813 0.12117188 1.40765625 0.24234375 2.1328125 0.3671875 C14.74570068 2.50775599 27.22477066 4.2622208 40 5 C40 5.33 40 5.66 40 6 C36.70835171 6.02895225 33.41673601 6.0467823 30.125 6.0625 C29.18785156 6.07087891 28.25070313 6.07925781 27.28515625 6.08789062 C25.94130859 6.09272461 25.94130859 6.09272461 24.5703125 6.09765625 C23.32918701 6.10551147 23.32918701 6.10551147 22.06298828 6.11352539 C20 6 20 6 18 5 C14.59119309 4.59593884 11.18460266 4.23062017 7.765625 3.92578125 C5.83031668 3.71741776 3.91164442 3.36667318 2 3 C1.34 2.01 0.68 1.02 0 0 Z " fill="#BA8E35" transform="translate(33,92)"/>
<path d="M0 0 C1.65 0.33 3.3 0.66 5 1 C5 3.97 5 6.94 5 10 C4.34 10 3.68 10 3 10 C2.67 9.34 2.34 8.68 2 8 C-0.52733235 7.34444881 -0.52733235 7.34444881 -3 7 C-3 5.68 -3 4.36 -3 3 C-2.34 3 -1.68 3 -1 3 C-0.67 2.01 -0.34 1.02 0 0 Z " fill="#C2C2C0" transform="translate(48,57)"/>
<path d="M0 0 C1.32 0.33 2.64 0.66 4 1 C4 1.66 4 2.32 4 3 C5.32 3.66 6.64 4.32 8 5 C8.25 11.625 8.25 11.625 6 15 C3.375 15.1875 3.375 15.1875 1 15 C1.99 14.67 2.98 14.34 4 14 C4.45960987 8.25487658 3.47485126 5.56074228 0 1 C0 0.67 0 0.34 0 0 Z " fill="#D24102" transform="translate(34,105)"/>
<path d="M0 0 C1.32 0.33 2.64 0.66 4 1 C3.01 1.495 3.01 1.495 2 2 C1.67 2.99 1.34 3.98 1 5 C1.66 5 2.32 5 3 5 C5.04169485 7.90548882 6 9.40142046 6 13 C7.98 13 9.96 13 12 13 C12 13.33 12 13.66 12 14 C9.69 14.33 7.38 14.66 5 15 C2.36 11.37 -0.28 7.74 -3 4 C-2.34 3.67 -1.68 3.34 -1 3 C-0.67 2.01 -0.34 1.02 0 0 Z " fill="#4D473C" transform="translate(76,99)"/>
<path d="M0 0 C1.32 0.33 2.64 0.66 4 1 C4 2.65 4 4.3 4 6 C4.66 6 5.32 6 6 6 C6.33 6.99 6.66 7.98 7 9 C10.51190809 10.22969878 10.51190809 10.22969878 14 11 C11 13 11 13 9.1875 12.9375 C5.92418436 11.53893616 3.24192409 9.74167187 1 7 C0.125 3.1875 0.125 3.1875 0 0 Z " fill="#D6D6D5" transform="translate(93,41)"/>
<path d="M0 0 C0 1.32 0 2.64 0 4 C-2.05962852 4.67548578 -4.12284322 5.34004312 -6.1875 6 C-7.33605469 6.37125 -8.48460938 6.7425 -9.66796875 7.125 C-12.64320812 7.90630553 -14.95283896 8.18363306 -18 8 C-17 6 -17 6 -14.25 4.9375 C-11.5027536 4.14502508 -8.81332583 3.49646926 -6 3 C-6 2.34 -6 1.68 -6 1 C-3.92446352 0.4465236 -2.15634036 0 0 0 Z " fill="#332D20" transform="translate(100,89)"/>
<path d="M0 0 C-0.33 0.598125 -0.66 1.19625 -1 1.8125 C-2.20787988 4.05386471 -2.20787988 4.05386471 -2 7 C-7.625 10 -7.625 10 -11 10 C-11 9.34 -11 8.68 -11 8 C-10.01 8 -9.02 8 -8 8 C-8 6.35 -8 4.7 -8 3 C-2.25 0 -2.25 0 0 0 Z " fill="#E2AD45" transform="translate(102,110)"/>
<path d="M0 0 C2.44009082 0.25511405 4.87577058 0.52832678 7.3125 0.8125 C8.00279297 0.88275391 8.69308594 0.95300781 9.40429688 1.02539062 C12.38836857 1.38578576 14.5583612 1.66289109 16.98046875 3.51171875 C18 5 18 5 18 6 C12.9697924 5.47462276 7.98114761 4.89405214 3 4 C3 3.34 3 2.68 3 2 C2.01 1.67 1.02 1.34 0 1 C0 0.67 0 0.34 0 0 Z " fill="#6E541F" transform="translate(36,94)"/>
<path d="M0 0 C6.6 0 13.2 0 20 0 C20.33 0.99 20.66 1.98 21 3 C14.4 2.67 7.8 2.34 1 2 C0.67 1.34 0.34 0.68 0 0 Z " fill="#BE9236" transform="translate(52,100)"/>
<path d="M0 0 C0.6496875 0.19980469 1.299375 0.39960937 1.96875 0.60546875 C3.56659163 1.09891984 5.15889803 1.61023172 6.75 2.125 C5.41666667 2.45833333 4.08333333 2.79166667 2.75 3.125 C1.79867187 3.46337891 1.79867187 3.46337891 0.828125 3.80859375 C-2.07395625 4.25045199 -3.83137909 3.34624329 -6.5 2.1875 C-7.39203125 1.80722656 -8.2840625 1.42695312 -9.203125 1.03515625 C-9.87859375 0.73480469 -10.5540625 0.43445313 -11.25 0.125 C-7.28050434 -2.74185798 -4.42656292 -1.39354759 0 0 Z " fill="#AB7F42" transform="translate(47.25,120.875)"/>
<path d="M0 0 C0.99 0 1.98 0 3 0 C4.52448631 2.9826906 5.93940067 5.818202 7 9 C8.32 9 9.64 9 11 9 C11 9.66 11 10.32 11 11 C7.49053006 10.69918829 6.02211769 10.0180963 3.25 7.75 C0.9819037 4.97788231 0.30081171 3.50946994 0 0 Z " fill="#B9B9B8" transform="translate(34,63)"/>
<path d="M0 0 C0.99 0.33 1.98 0.66 3 1 C3 3.31 3 5.62 3 8 C0.69 7.34 -1.62 6.68 -4 6 C-2.25 1.125 -2.25 1.125 0 0 Z " fill="#DEDEDD" transform="translate(109,37)"/>
<path d="M0 0 C0.66 0 1.32 0 2 0 C2.33 2.31 2.66 4.62 3 7 C4.32 7.33 5.64 7.66 7 8 C6.67 8.66 6.34 9.32 6 10 C4.35 9.67 2.7 9.34 1 9 C1 10.65 1 12.3 1 14 C0.34 13.67 -0.32 13.34 -1 13 C-1.02686553 11.02090602 -1.04633375 9.04171029 -1.0625 7.0625 C-1.07410156 5.96035156 -1.08570312 4.85820313 -1.09765625 3.72265625 C-1 1 -1 1 0 0 Z " fill="#AF893B" transform="translate(90,31)"/>
<path d="M0 0 C0 0.66 0 1.32 0 2 C-0.66 2 -1.32 2 -2 2 C-2 2.66 -2 3.32 -2 4 C-5.96 4 -9.92 4 -14 4 C-14 3.34 -14 2.68 -14 2 C-12.4176994 1.66179834 -10.83410625 1.32964061 -9.25 1 C-8.36828125 0.814375 -7.4865625 0.62875 -6.578125 0.4375 C-4 0 -4 0 0 0 Z " fill="#342913" transform="translate(96,111)"/>
<path d="M0 0 C0.66 0 1.32 0 2 0 C2 0.99 2 1.98 2 3 C3.32 3 4.64 3 6 3 C6 3.66 6 4.32 6 5 C5.34 5 4.68 5 4 5 C4.66 6.98 5.32 8.96 6 11 C5.01 11 4.02 11 3 11 C0 4.5 0 4.5 0 0 Z " fill="#856D3E" transform="translate(30,58)"/>
<path d="M0 0 C0 3 0 3 -1.625 5.625 C-4.43693229 8.43693229 -6.10240081 8.7342546 -10 9 C-9.34 7.68 -8.68 6.36 -8 5 C-7.34 5 -6.68 5 -6 5 C-6 4.34 -6 3.68 -6 3 C-4.02 2.01 -2.04 1.02 0 0 Z " fill="#523D16" transform="translate(111,79)"/>
<path d="M0 0 C1.37095624 3.69037278 0.60010967 5.70883835 -0.9375 9.25 C-1.31777344 10.14203125 -1.69804688 11.0340625 -2.08984375 11.953125 C-2.39019531 12.62859375 -2.69054687 13.3040625 -3 14 C-3.33 13.34 -3.66 12.68 -4 12 C-4.66 11.67 -5.32 11.34 -6 11 C-5.67 10.01 -5.34 9.02 -5 8 C-4.34 8 -3.68 8 -3 8 C-2.87625 7.236875 -2.7525 6.47375 -2.625 5.6875 C-2 3 -2 3 0 0 Z " fill="#8F6D28" transform="translate(126,55)"/>
<path d="M0 0 C0.99 0.495 0.99 0.495 2 1 C2.40729228 3.32156597 2.74438677 5.6568787 3 8 C3.33 6.35 3.66 4.7 4 3 C4.33 3 4.66 3 5 3 C5 5.64 5 8.28 5 11 C6.32 11.33 7.64 11.66 9 12 C6.6875 12.6875 6.6875 12.6875 4 13 C1.67490018 11.34560205 1.06865838 10.33280973 0.48828125 7.51953125 C0.43027344 6.62621094 0.37226563 5.73289062 0.3125 4.8125 C0.24675781 3.91144531 0.18101563 3.01039062 0.11328125 2.08203125 C0.07589844 1.39496094 0.03851562 0.70789063 0 0 Z " fill="#EB6B0C" transform="translate(22,91)"/>
<path d="M0 0 C6.75 1.625 6.75 1.625 9 5 C5.7 4.67 2.4 4.34 -1 4 C-0.67 2.68 -0.34 1.36 0 0 Z " fill="#99480A" transform="translate(16,23)"/>
<path d="M0 0 C-5.97332123 3.4753869 -10.11509775 4.57374185 -17 4 C-14.35103165 1.35103165 -12.13454484 1.13670541 -8.5 0.3125 C-6.75203125 -0.09548828 -6.75203125 -0.09548828 -4.96875 -0.51171875 C-2 -1 -2 -1 0 0 Z " fill="#B3702A" transform="translate(94,120)"/>
<path d="M0 0 C0.66 0.33 1.32 0.66 2 1 C0.68 1.33 -0.64 1.66 -2 2 C-2 3.32 -2 4.64 -2 6 C-1.34 6 -0.68 6 0 6 C0.33 7.98 0.66 9.96 1 12 C0.34 12 -0.32 12 -1 12 C-2.32 9.03 -3.64 6.06 -5 3 C-4.34 3 -3.68 3 -3 3 C-3 2.34 -3 1.68 -3 1 C-2.01 0.67 -1.02 0.34 0 0 Z " fill="#979797" transform="translate(90,95)"/>
<path d="M0 0 C0.33 0.99 0.66 1.98 1 3 C-0.70828921 5.10633718 -1.52148416 5.93801608 -4.26171875 6.29296875 C-5.06222656 6.25816406 -5.86273438 6.22335938 -6.6875 6.1875 C-7.49574219 6.16042969 -8.30398437 6.13335937 -9.13671875 6.10546875 C-9.75160156 6.07066406 -10.36648437 6.03585938 -11 6 C-8.35261084 4.5393715 -7.10551666 4 -4 4 C-3.67 3.01 -3.34 2.02 -3 1 C-3 1.66 -3 2.32 -3 3 C-2.01 2.01 -1.02 1.02 0 0 Z " fill="#4E4535" transform="translate(111,49)"/>
<path d="M0 0 C0.33 0 0.66 0 1 0 C1.05416188 1.60379341 1.09286638 3.20811406 1.125 4.8125 C1.14820313 5.70582031 1.17140625 6.59914063 1.1953125 7.51953125 C1 10 1 10 -1 13 C-1.66 12.67 -2.32 12.34 -3 12 C-3 10.02 -3 8.04 -3 6 C-2.67 6.66 -2.34 7.32 -2 8 C-1.34 8 -0.68 8 0 8 C0 5.36 0 2.72 0 0 Z " fill="#5E5749" transform="translate(53,59)"/>
<path d="M0 0 C0.99 0.33 1.98 0.66 3 1 C2.0409375 2.11375 2.0409375 2.11375 1.0625 3.25 C-0.78333407 5.7111121 -1.56069174 7.03466926 -2 10 C-2.66 10 -3.32 10 -4 10 C-3.38461538 3.47692308 -3.38461538 3.47692308 -1.4375 1.0625 C-0.7259375 0.5365625 -0.7259375 0.5365625 0 0 Z " fill="#8B3C1C" transform="translate(12,36)"/>
<path d="M0 0 C1.67542976 0.28604898 3.34385343 0.61781233 5 1 C2.44008376 3.01136276 -0.04590299 4.62845496 -3 6 C-3 5.34 -3 4.68 -3 4 C-4.32 3.67 -5.64 3.34 -7 3 C-5.5459375 2.5359375 -5.5459375 2.5359375 -4.0625 2.0625 C-1.15934208 1.30476658 -1.15934208 1.30476658 0 0 Z " fill="#4A412F" transform="translate(99,107)"/>
<path d="M0 0 C3.23060419 0.55700072 5.0658223 1.29215122 7 4 C7.1875 6.6875 7.1875 6.6875 7 9 C3.33128986 6.55419324 1.93787866 3.87575732 0 0 Z " fill="#725723" transform="translate(46,48)"/>
<path d="M0 0 C0.66 0 1.32 0 2 0 C2.33 0.99 2.66 1.98 3 3 C6.51190809 4.22969878 6.51190809 4.22969878 10 5 C7 7 7 7 5.0625 6.875 C2.41860689 5.75334838 0.90904564 4.11358624 -1 2 C-0.67 1.34 -0.34 0.68 0 0 Z " fill="#A3A3A3" transform="translate(97,47)"/>
<path d="M0 0 C3.875 1.875 3.875 1.875 5 3 C5.04080783 4.99958364 5.04254356 7.00045254 5 9 C1.9083091 6.47043472 1.09068668 3.77545388 0 0 Z " fill="#D94905" transform="translate(7,89)"/>
<path d="M0 0 C1.26026798 2.52053595 0.91874445 3.8542098 0.5625 6.625 C0.46066406 7.44226562 0.35882812 8.25953125 0.25390625 9.1015625 C0.17011719 9.72804688 0.08632813 10.35453125 0 11 C-1.8125 11.625 -1.8125 11.625 -4 12 C-4.99 11.34 -5.98 10.68 -7 10 C-5.02 10 -3.04 10 -1 10 C-1.20625 9.0925 -1.4125 8.185 -1.625 7.25 C-2.0127245 3.88972103 -1.80411967 2.75924185 0 0 Z " fill="#CE873F" transform="translate(20,42)"/>
<path d="M0 0 C0.33 0.66 0.66 1.32 1 2 C3.58605332 2.4683265 3.58605332 2.4683265 6.5625 2.625 C8.08037109 2.73714844 8.08037109 2.73714844 9.62890625 2.8515625 C10.80259766 2.92503906 10.80259766 2.92503906 12 3 C12 3.99 12 4.98 12 6 C11.43796875 5.85691406 10.8759375 5.71382812 10.296875 5.56640625 C7.95454547 4.98879098 5.60582341 4.45716693 3.25 3.9375 C2.45078125 3.76089844 1.6515625 3.58429687 0.828125 3.40234375 C0.22484375 3.26957031 -0.3784375 3.13679688 -1 3 C-0.67 2.01 -0.34 1.02 0 0 Z " fill="#AF6920" transform="translate(14,25)"/>
<path d="M0 0 C2.64 0 5.28 0 8 0 C8 0.66 8 1.32 8 2 C7.195625 2.12375 6.39125 2.2475 5.5625 2.375 C4.2940625 2.684375 4.2940625 2.684375 3 3 C2.67 3.66 2.34 4.32 2 5 C1.34 5 0.68 5 0 5 C0 3.35 0 1.7 0 0 Z " fill="#1C170C" transform="translate(73,97)"/>
<path d="M0 0 C0.6875 1.6875 0.6875 1.6875 1 4 C-0.25 6.75 -0.25 6.75 -2 9 C-2.99 9 -3.98 9 -5 9 C-4.34 8.01 -3.68 7.02 -3 6 C-3.66 5.67 -4.32 5.34 -5 5 C-4.360625 4.731875 -3.72125 4.46375 -3.0625 4.1875 C-0.66868314 3.11332248 -0.66868314 3.11332248 0 0 Z " fill="#926D27" transform="translate(113,75)"/>
<path d="M0 0 C0.66 0.33 1.32 0.66 2 1 C1.01 1.33 0.02 1.66 -1 2 C-2.20882096 4.00016466 -2.20882096 4.00016466 -3 6 C-4.65 5.67 -6.3 5.34 -8 5 C-8 4.34 -8 3.68 -8 3 C-6.02 3 -4.04 3 -2 3 C-2 2.34 -2 1.68 -2 1 C-1.34 0.67 -0.68 0.34 0 0 Z " fill="#F55453" transform="translate(80,68)"/>
<path d="M0 0 C1.98 0.495 1.98 0.495 4 1 C4 2.98 4 4.96 4 7 C1.525 6.01 1.525 6.01 -1 5 C-0.34 4.01 0.32 3.02 1 2 C0.67 1.34 0.34 0.68 0 0 Z " fill="#F4F4F4" transform="translate(48,57)"/>
<path d="M0 0 C1.0725 0.53625 2.145 1.0725 3.25 1.625 C-1.00061356 3.04187119 -3.46851625 1.81820039 -7.75 0.625 C-4.61227723 -1.75966931 -3.83407554 -1.4058277 0 0 Z " fill="#A85921" transform="translate(43.75,120.375)"/>
<path d="M0 0 C5.53846154 0.61538462 5.53846154 0.61538462 7.875 2.5625 C8.431875 3.2740625 8.431875 3.2740625 9 4 C7.02 4 5.04 4 3 4 C3 3.34 3 2.68 3 2 C2.01 1.67 1.02 1.34 0 1 C0 0.67 0 0.34 0 0 Z " fill="#554017" transform="translate(36,94)"/>
<path d="M0 0 C0.33 0 0.66 0 1 0 C1 3.3 1 6.6 1 10 C-0.65 10.33 -2.3 10.66 -4 11 C-4.33 10.01 -4.66 9.02 -5 8 C-2.525 8.495 -2.525 8.495 0 9 C0 6.03 0 3.06 0 0 Z " fill="#EA6902" transform="translate(8,64)"/>
<path d="M0 0 C3.465 1.485 3.465 1.485 7 3 C7 3.99 7 4.98 7 6 C3.75728494 5.4409112 2.06942576 4.5867822 0 2 C0 1.34 0 0.68 0 0 Z " fill="#725F38" transform="translate(93,49)"/>
<path d="M0 0 C0.33 1.32 0.66 2.64 1 4 C-1.57213134 5.61949011 -2.67669159 6.04408751 -5.75 5.625 C-6.4925 5.41875 -7.235 5.2125 -8 5 C-8 4.67 -8 4.34 -8 4 C-5.36 3.34 -2.72 2.68 0 2 C0 1.34 0 0.68 0 0 Z " fill="#856A33" transform="translate(109,33)"/>
<path d="M0 0 C0.33 0 0.66 0 1 0 C1.33 4.29 1.66 8.58 2 13 C1.01 12.67 0.02 12.34 -1 12 C-0.67 8.04 -0.34 4.08 0 0 Z " fill="#C14B02" transform="translate(9,64)"/>
<path d="M0 0 C0.99 0.33 1.98 0.66 3 1 C2.34 3.31 1.68 5.62 1 8 C0.34 8 -0.32 8 -1 8 C-0.67 5.36 -0.34 2.72 0 0 Z " fill="#9A9998" transform="translate(109,44)"/>
<path d="M0 0 C-0.33 0.66 -0.66 1.32 -1 2 C-4.47325181 3.1577506 -7.36067448 3.06866652 -11 3 C-7.48550811 -0.37391222 -4.73940561 -0.27342725 0 0 Z " fill="#B36919" transform="translate(67,11)"/>
</svg>
