<?xml version="1.0" encoding="UTF-8"?>
<svg version="1.1" xmlns="http://www.w3.org/2000/svg" width="129" height="127">
<path d="M0 0 C42.57 0 85.14 0 129 0 C129 41.91 129 83.82 129 127 C86.43 127 43.86 127 0 127 C0 85.09 0 43.18 0 0 Z " fill="#DD2030" transform="translate(0,0)"/>
<path d="M0 0 C42.57 0 85.14 0 129 0 C129 41.91 129 83.82 129 127 C86.43 127 43.86 127 0 127 C0 85.09 0 43.18 0 0 Z M41 6 C42.25541557 8.51083114 43.50063488 8.87125446 46 10 C45.67 10.99 45.34 11.98 45 13 C43.0625 12.1875 43.0625 12.1875 41 11 C40.505 9.515 40.505 9.515 40 8 C37.3364031 8.35994553 35.41816548 8.71161002 33.1875 10.25 C31.61234912 12.57127498 31.91461872 14.24982395 32 17 C31.20335938 17.37511719 30.40671875 17.75023437 29.5859375 18.13671875 C28.52632812 18.64847656 27.46671875 19.16023438 26.375 19.6875 C25.33085937 20.18636719 24.28671875 20.68523438 23.2109375 21.19921875 C12.85874003 27.0050132 8.45288598 36.62223797 5.0625 47.625 C3.65228881 53.39482748 3.72181269 59.09624709 4 65 C5.1055189 64.06409496 6.20935453 63.12620142 7.3125 62.1875 C8.23482422 61.40439453 8.23482422 61.40439453 9.17578125 60.60546875 C11.68404567 58.39992095 11.68404567 58.39992095 14 56 C14 55.34 14 54.68 14 54 C14.66 54 15.32 54 16 54 C16 53.34 16 52.68 16 52 C18.5 53.25 18.5 53.25 21 55 C21 56.32 21 57.64 21 59 C19.3603125 58.9071875 19.3603125 58.9071875 17.6875 58.8125 C14.1369312 58.67772264 14.1369312 58.67772264 12.125 60.25 C8.85253386 65.34050288 9.45615419 72.21408482 10 78 C10.95585093 81.06495679 11.90348105 82.45017966 14 85 C15.65 85.33 17.3 85.66 19 86 C15.37 86 11.74 86 8 86 C14.62413603 102.56034007 26.37778779 114.51851671 42.6640625 121.6796875 C57.62953045 127.6027884 75.68718538 126.53805478 90.41796875 120.62890625 C106.41373007 113.35493409 117.34987607 101.33580026 123.95703125 85.0546875 C129.10621848 69.97354737 128.92218971 52.36505591 122.55859375 37.671875 C118.7463176 30.06501307 114.03204188 23.96659477 108 18 C107.48308594 17.44957031 106.96617188 16.89914063 106.43359375 16.33203125 C102.5543866 12.55410889 97.90273625 10.19913331 93.125 7.75 C92.46491943 7.4082373 91.80483887 7.06647461 91.12475586 6.71435547 C82.7163285 2.57764418 74.54717477 1.61199923 65.25 1.625 C64.29077637 1.62371094 63.33155273 1.62242188 62.34326172 1.62109375 C54.6355196 1.73537872 48.14562945 2.97996038 41 6 Z " fill="#FDFBFB" transform="translate(0,0)"/>
<path d="M0 0 C2.41015625 2.22265625 2.41015625 2.22265625 4 4 C2.948125 3.95875 1.89625 3.9175 0.8125 3.875 C-2.80609469 3.99364245 -4.75222966 4.59555877 -8 6 C-9.32 6 -10.64 6 -12 6 C-12 6.66 -12 7.32 -12 8 C-13.98 8 -15.96 8 -18 8 C-17.98839844 8.95261719 -17.97679687 9.90523437 -17.96484375 10.88671875 C-17.95582031 12.14097656 -17.94679687 13.39523438 -17.9375 14.6875 C-17.92589844 15.92886719 -17.91429687 17.17023437 -17.90234375 18.44921875 C-17.98521327 21.46235454 -18.29160551 24.08275339 -19 27 C-19.66 27 -20.32 27 -21 27 C-21 27.66 -21 28.32 -21 29 C-23.1875 28.9375 -23.1875 28.9375 -26 28 C-27.26953125 26.375 -27.26953125 26.375 -28.5 24.4375 C-29.66641058 22.53676 -29.66641058 22.53676 -31 21 C-33.71471005 20.41231617 -33.71471005 20.41231617 -36 21 C-36.226875 21.556875 -36.45375 22.11375 -36.6875 22.6875 C-38.36718835 25.6469509 -40.54133285 27.66126784 -43 30 C-43.556875 30.598125 -44.11375 31.19625 -44.6875 31.8125 C-46 33 -46 33 -48 33 C-48 33.66 -48 34.32 -48 35 C-51 37 -51 37 -54 37 C-54 35.68 -54 34.36 -54 33 C-54.66 33 -55.32 33 -56 33 C-56.33 28.38 -56.66 23.76 -57 19 C-58.815 19.639375 -60.63 20.27875 -62.5 20.9375 C-67.40105239 22.58086235 -71.85769241 23.60443788 -77 24 C-75.68592291 19.75452018 -73.98395932 15.96791865 -72 12 C-71.32204472 10.00379834 -70.65266469 8.00461299 -70 6 C-69.67 5.67 -69.34 5.34 -69 5 C-69.0825 4.05125 -69.165 3.1025 -69.25 2.125 C-69.1675 1.09375 -69.085 0.0625 -69 -1 C-66.14925356 -3.31141604 -64.6860549 -4 -61 -4 C-59.3125 -1.5 -59.3125 -1.5 -58 1 C-57.01 0.67 -56.02 0.34 -55 0 C-55.66868314 -3.11332248 -55.66868314 -3.11332248 -58.0625 -4.1875 C-58.701875 -4.455625 -59.34125 -4.72375 -60 -5 C-45.95336786 -19.04663214 -14.14147232 -8.3767957 0 0 Z " fill="#BC0241" transform="translate(101,12)"/>
<path d="M0 0 C4.75481646 0.57634139 7.97048212 2.55068521 12 5 C12 5.66 12 6.32 12 7 C14.65228812 8.07525194 17.28368454 9.09456151 20 10 C20 10.66 20 11.32 20 12 C22.475 12.495 22.475 12.495 25 13 C25.33 14.65 25.66 16.3 26 18 C25.2575 18.391875 24.515 18.78375 23.75 19.1875 C20.80216929 21.13038842 19.06901389 23.16468467 17 26 C18.65 26.33 20.3 26.66 22 27 C22 27.66 22 28.32 22 29 C22.99 29.33 23.98 29.66 25 30 C24.67 31.65 24.34 33.3 24 35 C23.34 35 22.68 35 22 35 C21.01 37.475 21.01 37.475 20 40 C19.34 40 18.68 40 18 40 C18 40.66 18 41.32 18 42 C13.61213061 43.46262313 9.76545233 43.73201682 5.4375 41.9375 C0.29853003 37.85267772 -3.50779253 33.10261947 -6 27 C-6.20597558 24.2811224 -6.28948136 21.82358378 -6.1875 19.125 C-6.17396484 18.43664062 -6.16042969 17.74828125 -6.14648438 17.0390625 C-6.1114837 15.35902999 -6.05768954 13.6794065 -6 12 C-5.34 12 -4.68 12 -4 12 C-3.896875 10.948125 -3.79375 9.89625 -3.6875 8.8125 C-3.02266585 5.12569246 -2.11433704 3.03361401 0 0 Z " fill="#0B0808" transform="translate(90,44)"/>
<path d="M0 0 C1.32 0 2.64 0 4 0 C4 2.64 4 5.28 4 8 C4.969375 8.268125 5.93875 8.53625 6.9375 8.8125 C7.948125 9.204375 8.95875 9.59625 10 10 C10.33 10.99 10.66 11.98 11 13 C11.67417969 13.26554687 12.34835938 13.53109375 13.04296875 13.8046875 C17.32844881 15.53699516 20.66835391 18.31780257 24.3125 21.125 C25.05306641 21.68832031 25.79363281 22.25164062 26.55664062 22.83203125 C28.37501609 24.21634289 30.18924674 25.60574226 32 27 C27.61057997 31.38942003 19.99605245 31.25797983 14.06030273 31.32836914 C13.27727783 31.32313232 12.49425293 31.31789551 11.6875 31.3125 C10.86515869 31.31048584 10.04281738 31.30847168 9.19555664 31.30639648 C1.89760748 31.18701579 -5.39179695 30.30410153 -12 27 C-11.53198701 22.00786149 -9.08284263 17.87036007 -6 14 C-5.34 14 -4.68 14 -4 14 C-3.34 12.68 -2.68 11.36 -2 10 C-1.34 10 -0.68 10 0 10 C0 6.7 0 3.4 0 0 Z " fill="#482426" transform="translate(54,94)"/>
<path d="M0 0 C5.29626864 0.50860454 9.44916772 1.84774046 14.1875 4.3125 C14.79013672 4.60833984 15.39277344 4.90417969 16.01367188 5.20898438 C19.60410481 7.03375984 22.32370205 8.99165516 25 12 C23.948125 11.95875 22.89625 11.9175 21.8125 11.875 C18.19390531 11.99364245 16.24777034 12.59555877 13 14 C11.68 14 10.36 14 9 14 C9 14.66 9 15.32 9 16 C7.02 16 5.04 16 3 16 C3.01160156 16.95261719 3.02320313 17.90523437 3.03515625 18.88671875 C3.04417969 20.14097656 3.05320313 21.39523438 3.0625 22.6875 C3.07410156 23.92886719 3.08570313 25.17023437 3.09765625 26.44921875 C3.01478673 29.46235454 2.70839449 32.08275339 2 35 C1.34 35 0.68 35 0 35 C0 35.66 0 36.32 0 37 C-2.1875 36.9375 -2.1875 36.9375 -5 36 C-6.26953125 34.375 -6.26953125 34.375 -7.5 32.4375 C-8.66641058 30.53676 -8.66641058 30.53676 -10 29 C-12.71471005 28.41231617 -12.71471005 28.41231617 -15 29 C-15.226875 29.556875 -15.45375 30.11375 -15.6875 30.6875 C-17.36718835 33.6469509 -19.54133285 35.66126784 -22 38 C-22.556875 38.598125 -23.11375 39.19625 -23.6875 39.8125 C-25 41 -25 41 -27 41 C-27 41.66 -27 42.32 -27 43 C-30 45 -30 45 -33 45 C-33 43.68 -33 42.36 -33 41 C-33.66 41 -34.32 41 -35 41 C-35.33 36.38 -35.66 31.76 -36 27 C-37.815 27.639375 -39.63 28.27875 -41.5 28.9375 C-46.40105239 30.58086235 -50.85769241 31.60443788 -56 32 C-54.68592291 27.75452018 -52.98395932 23.96791865 -51 20 C-50.32204472 18.00379834 -49.65266469 16.00461299 -49 14 C-48.67 13.67 -48.34 13.34 -48 13 C-47.95919217 11.00041636 -47.95745644 8.99954746 -48 7 C-46.68 6.67 -45.36 6.34 -44 6 C-42 9 -42 9 -42.375 11.6875 C-42.58125 12.450625 -42.7875 13.21375 -43 14 C-43.66 14 -44.32 14 -45 14 C-45.1546875 15.299375 -45.1546875 15.299375 -45.3125 16.625 C-46.03398414 20.16683123 -47.27123261 22.84312042 -49 26 C-45.535 25.505 -45.535 25.505 -42 25 C-42 24.34 -42 23.68 -42 23 C-39.03 22.67 -36.06 22.34 -33 22 C-32.49645133 24.43681587 -31.99703244 26.87435439 -31.5 29.3125 C-31.35691406 30.00279297 -31.21382812 30.69308594 -31.06640625 31.40429688 C-30.47374956 34.32524773 -30 37.01108122 -30 40 C-29.34 40 -28.68 40 -28 40 C-27.773125 39.4225 -27.54625 38.845 -27.3125 38.25 C-25.66511725 35.42591529 -23.56545162 34.0023037 -21 32 C-20.443125 31.2575 -19.88625 30.515 -19.3125 29.75 C-18.879375 29.1725 -18.44625 28.595 -18 28 C-17.34 28 -16.68 28 -16 28 C-15.34 26.02 -14.68 24.04 -14 22 C-12 22 -12 22 -9.625 24.25 C-8.75875 25.1575 -7.8925 26.065 -7 27 C-6.236875 27.763125 -5.47375 28.52625 -4.6875 29.3125 C-4.130625 29.869375 -3.57375 30.42625 -3 31 C-0.58877632 29.03464283 -0.58877632 29.03464283 -0.8046875 25.3046875 C-0.817991 23.82799892 -0.84185165 22.35137642 -0.875 20.875 C-0.88402344 20.12089844 -0.89304688 19.36679687 -0.90234375 18.58984375 C-0.9259313 16.72642746 -0.96180281 14.86317407 -1 13 C0.65 13 2.3 13 4 13 C4 12.34 4 11.68 4 11 C6.31 10.34 8.62 9.68 11 9 C8.66330145 7.11266655 6.54966678 5.78807848 3.8125 4.5 C1 3 1 3 0 0 Z " fill="#800840" transform="translate(80,4)"/>
<path d="M0 0 C2.57531492 0.34801553 4.54832896 0.70964005 6.75 2.125 C8.61159182 4.91738772 8.68969198 7.71073498 9 11 C9.66 11 10.32 11 11 11 C11 13.31 11 15.62 11 18 C10.01 18 9.02 18 8 18 C8 18.66 8 19.32 8 20 C7.34 20.33 6.68 20.66 6 21 C5.34786708 23.02463255 5.34786708 23.02463255 5 25 C6.98 25.33 8.96 25.66 11 26 C10.25 33.625 10.25 33.625 8 37 C7.34 37 6.68 37 6 37 C6 36.34 6 35.68 6 35 C4.906875 35.061875 3.81375 35.12375 2.6875 35.1875 C-1 35 -1 35 -2.875 33.6875 C-5.15862947 30.2620558 -5.16258934 27.12067016 -5.1875 23.125 C-5.20167969 22.09632812 -5.21585938 21.06765625 -5.23046875 20.0078125 C-4.90737948 15.79122372 -4.00286641 13.00286641 -1 10 C2.625 9.875 2.625 9.875 6 10 C6 8.68 6 7.36 6 6 C3.57327433 4.21030974 3.57327433 4.21030974 1 3 C1 3.66 1 4.32 1 5 C0.34 5 -0.32 5 -1 5 C-1.25523438 5.58265625 -1.51046875 6.1653125 -1.7734375 6.765625 C-3.11741087 9.21388223 -4.61810296 10.81743248 -6.625 12.75 C-7.57246094 13.67039062 -7.57246094 13.67039062 -8.5390625 14.609375 C-9.02117188 15.06828125 -9.50328125 15.5271875 -10 16 C-10.33 14.68 -10.66 13.36 -11 12 C-10.54109375 11.63648438 -10.0821875 11.27296875 -9.609375 10.8984375 C-5.56506013 7.58481817 -2.67466686 4.49344033 0 0 Z " fill="#110D0D" transform="translate(15,49)"/>
<path d="M0 0 C2.49361571 1.20381448 4.68143083 2.45428722 7 4 C7 4.66 7 5.32 7 6 C7.99 6 8.98 6 10 6 C9.67 7.32 9.34 8.64 9 10 C8.34 10 7.68 10 7 10 C5.18266856 17.04215935 5.51081821 24.92638649 7 32 C8.86747263 33.39238047 8.86747263 33.39238047 11 34 C11.66 34.99 12.32 35.98 13 37 C8.84473143 37.33242149 6.44142764 37.22487823 2.6875 35.3125 C-0.07650505 32.93417008 -1.03714243 31.46628726 -2 28 C-2.66 28 -3.32 28 -4 28 C-6.51579573 20.92432451 -7.13171419 13.28193568 -5 6 C-4.34 6 -3.68 6 -3 6 C-2.87625 5.38125 -2.7525 4.7625 -2.625 4.125 C-2 2 -2 2 0 0 Z " fill="#E4E4E4" transform="translate(92,47)"/>
<path d="M0 0 C5.35345718 0.96537752 9.94371657 3.81871657 13.8125 7.6875 C13.95443337 10.69081018 13.85486378 13.67967134 13.8125 16.6875 C10.8425 16.6875 7.8725 16.6875 4.8125 16.6875 C4.8125 16.0275 4.8125 15.3675 4.8125 14.6875 C3.74 14.935 2.6675 15.1825 1.5625 15.4375 C-2.1875 15.6875 -2.1875 15.6875 -4.5625 14.125 C-6.55914354 11.13003468 -7.1875 9.29709513 -7.1875 5.6875 C-5.24776457 1.96967376 -4.12143402 0.88893675 0 0 Z " fill="#E8E8E8" transform="translate(57.1875,105.3125)"/>
<path d="M0 0 C4.75481646 0.57634139 7.97048212 2.55068521 12 5 C12 5.66 12 6.32 12 7 C14.65228812 8.07525194 17.28368454 9.09456151 20 10 C20 10.66 20 11.32 20 12 C22.475 12.495 22.475 12.495 25 13 C22.3333581 14.33332095 20.83319697 13.67102033 18 13 C18 12.34 18 11.68 18 11 C16.35 10.34 14.7 9.68 13 9 C13 10.32 13 11.64 13 13 C12.34 12.67 11.68 12.34 11 12 C11.33 11.01 11.66 10.02 12 9 C11.01 9 10.02 9 9 9 C6.3125 6.5 6.3125 6.5 4 4 C2.00016466 4.79117904 2.00016466 4.79117904 0 6 C-0.33 6.99 -0.66 7.98 -1 9 C-1.66 9 -2.32 9 -3 9 C-3.02726927 11.35424675 -3.04696719 13.70816962 -3.0625 16.0625 C-3.07410156 17.37347656 -3.08570312 18.68445313 -3.09765625 20.03515625 C-3.00452335 23.8163519 -2.61448726 27.27920707 -2 31 C-1.34 31 -0.68 31 0 31 C0.61875 31.94875 1.2375 32.8975 1.875 33.875 C3.99566653 36.99362725 4.63484839 37.73654958 8 39 C10.36222232 39.23979762 10.36222232 39.23979762 12.75 39.125 C13.54921875 39.10695312 14.3484375 39.08890625 15.171875 39.0703125 C15.77515625 39.04710937 16.3784375 39.02390625 17 39 C17.33 39.99 17.66 40.98 18 42 C13.61213061 43.46262313 9.76545233 43.73201682 5.4375 41.9375 C0.29853003 37.85267772 -3.50779253 33.10261947 -6 27 C-6.20597558 24.2811224 -6.28948136 21.82358378 -6.1875 19.125 C-6.17396484 18.43664062 -6.16042969 17.74828125 -6.14648438 17.0390625 C-6.1114837 15.35902999 -6.05768954 13.6794065 -6 12 C-5.34 12 -4.68 12 -4 12 C-3.896875 10.948125 -3.79375 9.89625 -3.6875 8.8125 C-3.02266585 5.12569246 -2.11433704 3.03361401 0 0 Z " fill="#482427" transform="translate(90,44)"/>
<path d="M0 0 C5.29626864 0.50860454 9.44916772 1.84774046 14.1875 4.3125 C14.79013672 4.60833984 15.39277344 4.90417969 16.01367188 5.20898438 C19.60410481 7.03375984 22.32370205 8.99165516 25 12 C23.4221875 11.938125 23.4221875 11.938125 21.8125 11.875 C18.19390531 11.99364245 16.24777034 12.59555877 13 14 C11.68 14 10.36 14 9 14 C9 14.66 9 15.32 9 16 C7.02 16 5.04 16 3 16 C3.01160156 16.95261719 3.02320312 17.90523437 3.03515625 18.88671875 C3.04417969 20.14097656 3.05320312 21.39523438 3.0625 22.6875 C3.07410156 23.92886719 3.08570312 25.17023437 3.09765625 26.44921875 C3.01478673 29.46235454 2.70839449 32.08275339 2 35 C1.34 35 0.68 35 0 35 C0.66 28.4 1.32 21.8 2 15 C1.01 15 0.02 15 -1 15 C-1 14.34 -1 13.68 -1 13 C0.65 13 2.3 13 4 13 C4 12.34 4 11.68 4 11 C6.31 10.34 8.62 9.68 11 9 C8.66330145 7.11266655 6.54966678 5.78807848 3.8125 4.5 C1 3 1 3 0 0 Z " fill="#80073F" transform="translate(80,4)"/>
<path d="M0 0 C5.94 0 11.88 0 18 0 C18.66 1.32 19.32 2.64 20 4 C18.73532205 7.79403384 17.38302487 8.06684293 14 10 C12.24850835 11.58245275 12.24850835 11.58245275 11 13 C10.01 12.67 9.02 12.34 8 12 C8 11.34 8 10.68 8 10 C7.05125 9.87625 6.1025 9.7525 5.125 9.625 C2 9 2 9 0 7 C0 4.69 0 2.38 0 0 Z " fill="#FB525C" transform="translate(45,80)"/>
<path d="M0 0 C3.76904401 1.884522 6.92822223 4.08201223 10.25 6.625 C10.80429688 7.04523438 11.35859375 7.46546875 11.9296875 7.8984375 C13.28866663 8.92938719 14.64463835 9.96429911 16 11 C11.47498763 15.52501237 3.6381693 15.25428586 -2.44726562 15.2734375 C-3.26904297 15.26570313 -4.09082031 15.25796875 -4.9375 15.25 C-5.78634766 15.25773437 -6.63519531 15.26546875 -7.50976562 15.2734375 C-8.31994141 15.27085938 -9.13011719 15.26828125 -9.96484375 15.265625 C-10.6930835 15.26336914 -11.42132324 15.26111328 -12.17163086 15.25878906 C-14 15 -14 15 -16 13 C-12.43954823 11.81318274 -9.56191663 11.90310168 -5.8125 11.9375 C-4.54019531 11.94652344 -3.26789063 11.95554687 -1.95703125 11.96484375 C-0.49330078 11.98224609 -0.49330078 11.98224609 1 12 C0.67 8.04 0.34 4.08 0 0 Z " fill="#1D0506" transform="translate(70,110)"/>
<path d="M0 0 C1.8125 0.1875 1.8125 0.1875 4 1 C5.8125 3.375 5.8125 3.375 7 6 C6.67 6.99 6.34 7.98 6 9 C5.67 8.67 5.34 8.34 5 8 C1.54178598 7.74996036 1.54178598 7.74996036 -2 8 C-4.82514281 10.82514281 -4.9508503 12.93605355 -5.1328125 16.875 C-5.13023438 17.90625 -5.12765625 18.9375 -5.125 20 C-5.12757812 21.03125 -5.13015625 22.0625 -5.1328125 23.125 C-5.01863671 25.59657009 -4.71350656 27.6442958 -4 30 C-4.66 30 -5.32 30 -6 30 C-7.59412284 26.81175432 -7.10174735 23.37103338 -7.0625 19.875 C-7.05798828 19.12089844 -7.05347656 18.36679688 -7.04882812 17.58984375 C-7.03703499 15.72652873 -7.01909942 13.86325445 -7 12 C-8.65 12.66 -10.3 13.32 -12 14 C-11.61328125 13.55269531 -11.2265625 13.10539062 -10.828125 12.64453125 C-10.30734375 12.03996094 -9.7865625 11.43539062 -9.25 10.8125 C-8.43015625 9.86117187 -8.43015625 9.86117187 -7.59375 8.890625 C-6.26789342 7.31779514 -5.00087924 5.69559234 -3.75 4.0625 C-3.1725 3.381875 -2.595 2.70125 -2 2 C-1.34 2 -0.68 2 0 2 C0 1.34 0 0.68 0 0 Z " fill="#B9B8B8" transform="translate(16,52)"/>
<path d="M0 0 C0.33 0 0.66 0 1 0 C1.3690205 11.52164009 1.3690205 11.52164009 -1 17 C-1.33 16.01 -1.66 15.02 -2 14 C-2.66 13.67 -3.32 13.34 -4 13 C-4 12.34 -4 11.68 -4 11 C-5.65 10.67 -7.3 10.34 -9 10 C-7.55873214 6.63704165 -5.79407345 4.37072898 -3 2 C-2.01 2 -1.02 2 0 2 C0 1.34 0 0.68 0 0 Z " fill="#61171F" transform="translate(116,60)"/>
<path d="M0 0 C2 1 2 1 3.125 4.25 C3.85463482 7.37700635 4.19234975 9.82622905 4 13 C0.625 12.75 0.625 12.75 -3 12 C-4.98187369 9.68781402 -5.02234293 8.45803016 -4.875 5.4375 C-3.82403075 2.50979994 -2.61277458 1.60137797 0 0 Z " fill="#E9E8E8" transform="translate(55,107)"/>
<path d="M0 0 C2.5592805 0.34584872 4.52075586 0.68050391 6.6875 2.125 C9.44241706 6.0605958 10 10.29347345 10 15 C9.34 15 8.68 15 8 15 C7.91363281 14.38511719 7.82726562 13.77023438 7.73828125 13.13671875 C6.92508804 7.79246389 6.92508804 7.79246389 3.375 3.9375 C2.59125 3.628125 1.8075 3.31875 1 3 C1 3.66 1 4.32 1 5 C0.34 5 -0.32 5 -1 5 C-1.25523438 5.58265625 -1.51046875 6.1653125 -1.7734375 6.765625 C-3.11741087 9.21388223 -4.61810296 10.81743248 -6.625 12.75 C-7.57246094 13.67039062 -7.57246094 13.67039062 -8.5390625 14.609375 C-9.02117188 15.06828125 -9.50328125 15.5271875 -10 16 C-10.33 14.68 -10.66 13.36 -11 12 C-10.54109375 11.63648438 -10.0821875 11.27296875 -9.609375 10.8984375 C-5.56506013 7.58481817 -2.67466686 4.49344033 0 0 Z " fill="#482326" transform="translate(15,49)"/>
<path d="M0 0 C0.33 0.99 0.66 1.98 1 3 C1.66 3 2.32 3 3 3 C4.25718503 10.5431102 4.25718503 17.4568898 3 25 C2.34 25 1.68 25 1 25 C1.33 23.02 1.66 21.04 2 19 C0.02 18.67 -1.96 18.34 -4 18 C-3.67 16.35 -3.34 14.7 -3 13 C-2.34 13 -1.68 13 -1 13 C-1 12.34 -1 11.68 -1 11 C-0.01 11 0.98 11 2 11 C2 8.69 2 6.38 2 4 C1.34 4 0.68 4 0 4 C0 2.68 0 1.36 0 0 Z " fill="#831E28" transform="translate(24,56)"/>
<path d="M0 0 C2 2 2 2 2.1875 5 C2 8 2 8 1 10 C0.175 10.474375 -0.65 10.94875 -1.5 11.4375 C-4.29155483 12.81319541 -4.29155483 12.81319541 -5 16 C-10.75 17.125 -10.75 17.125 -13 16 C-13 15.34 -13 14.68 -13 14 C-13.99 14 -14.98 14 -16 14 C-16.33 13.01 -16.66 12.02 -17 11 C-14.0625 11.375 -14.0625 11.375 -11 12 C-10.67 12.66 -10.34 13.32 -10 14 C-7.76224708 12.99686938 -6.1492612 12.15523165 -4.4375 10.375 C-3 9 -3 9 0 9 C-0.33 6.69 -0.66 4.38 -1 2 C-3.31 2 -5.62 2 -8 2 C-4.77626323 -0.14915785 -3.73296326 -0.38286803 0 0 Z " fill="#E32C46" transform="translate(64,78)"/>
<path d="M0 0 C0.66 0.33 1.32 0.66 2 1 C2.3125 3.3125 2.3125 3.3125 2 6 C0.0625 7.5 0.0625 7.5 -3 9 C-4.56281351 9.91613206 -6.12529334 10.83283351 -7.6875 11.75 C-10.01171875 13.109375 -10.01171875 13.109375 -12 14 C-12.66 13.67 -13.32 13.34 -14 13 C-12.41984377 11.39270369 -10.83574348 9.78928424 -9.25 8.1875 C-8.36828125 7.29417969 -7.4865625 6.40085937 -6.578125 5.48046875 C-4.46551149 3.44787848 -2.39205335 1.68226182 0 0 Z " fill="#C2DFBB" transform="translate(31,11)"/>
<path d="M0 0 C0.33 0.99 0.66 1.98 1 3 C2.98 3 4.96 3 7 3 C4.04784867 4.68766187 1.91471005 5.25558953 -1.4765625 5.265625 C-2.311875 5.26820312 -3.1471875 5.27078125 -4.0078125 5.2734375 C-5.30332031 5.26183594 -5.30332031 5.26183594 -6.625 5.25 C-7.93210937 5.26160156 -7.93210937 5.26160156 -9.265625 5.2734375 C-10.09835938 5.27085938 -10.93109375 5.26828125 -11.7890625 5.265625 C-12.54912598 5.26336914 -13.30918945 5.26111328 -14.09228516 5.25878906 C-16 5 -16 5 -18 3 C-13.45255028 1.48418343 -8.81999829 1.55411033 -4.0546875 1.28125 C-1.12681152 1.33991096 -1.12681152 1.33991096 0 0 Z " fill="#150B0B" transform="translate(72,120)"/>
<path d="M0 0 C0.66 0.33 1.32 0.66 2 1 C0.68 1.33 -0.64 1.66 -2 2 C-2 2.66 -2 3.32 -2 4 C-4.64846603 6.36214538 -6.61516396 7.87172132 -10 9 C-10.4021875 9.86625 -10.4021875 9.86625 -10.8125 10.75 C-12.55133944 14.04464314 -15.07645336 15.71200698 -18 18 C-16.34517059 11.68156045 -13.71917876 7.75646374 -8.296875 4.25390625 C-5.56099895 2.70333776 -2.90649324 1.20284825 0 0 Z " fill="#BB304B" transform="translate(28,19)"/>
<path d="M0 0 C0.66 0.33 1.32 0.66 2 1 C2 2.32 2 3.64 2 5 C2.515625 5.680625 3.03125 6.36125 3.5625 7.0625 C4.036875 7.701875 4.51125 8.34125 5 9 C4.67 9.99 4.34 10.98 4 12 C1.03 11.01 -1.94 10.02 -5 9 C-4.67 7.35 -4.34 5.7 -4 4 C-3.01 4 -2.02 4 -1 4 C-0.67 2.68 -0.34 1.36 0 0 Z " fill="#3D0406" transform="translate(47,112)"/>
<path d="M0 0 C3.36143418 1.12047806 4.57528834 2.49707183 7 5 C9.40545638 6.20272819 10.94996953 6.10071472 13.625 6.0625 C14.44226563 6.05347656 15.25953125 6.04445313 16.1015625 6.03515625 C16.72804688 6.02355469 17.35453125 6.01195313 18 6 C18.33 6.99 18.66 7.98 19 9 C14.5122634 10.4959122 10.66209007 10.77306515 6.3125 8.75 C3.95445132 6.96553073 1.90902955 5.26255354 0 3 C0 2.01 0 1.02 0 0 Z " fill="#3F1C1F" transform="translate(89,77)"/>
<path d="M0 0 C2.31 0 4.62 0 7 0 C7.33 0.99 7.66 1.98 8 3 C6.5 5 6.5 5 4 7 C1.24128373 7.35800135 -1.20097524 7.18660165 -4 7 C-4.66 5.35 -5.32 3.7 -6 2 C-2.37 2 1.26 2 5 2 C3.35 1.67 1.7 1.34 0 1 C0 0.67 0 0.34 0 0 Z " fill="#48272A" transform="translate(14,84)"/>
<path d="M0 0 C1.65 0 3.3 0 5 0 C4.01 0.33 3.02 0.66 2 1 C2.02320312 1.94101562 2.04640625 2.88203125 2.0703125 3.8515625 C2.09738281 5.71941406 2.09738281 5.71941406 2.125 7.625 C2.14820312 8.85476562 2.17140625 10.08453125 2.1953125 11.3515625 C2.0030428 14.94316041 1.30258556 17.66661175 0 21 C-1.32 21 -2.64 21 -4 21 C-3 19 -2 17 -1 15 C-0.76827173 12.45384991 -0.58105471 9.92603775 -0.4375 7.375 C-0.39431641 6.66859375 -0.35113281 5.9621875 -0.30664062 5.234375 C-0.20055249 3.48981463 -0.09977111 1.74493303 0 0 Z " fill="#6A0240" transform="translate(80,18)"/>
<path d="M0 0 C2.0625 0.4375 2.0625 0.4375 4 1 C5.125 5.75 5.125 5.75 4 8 C3.34 8 2.68 8 2 8 C1.71125 8.804375 1.4225 9.60875 1.125 10.4375 C0 13 0 13 -2 14 C-2.04254356 12.00045254 -2.04080783 9.99958364 -2 8 C-1.67 7.67 -1.34 7.34 -1 7 C-1 6.01 -1 5.02 -1 4 C-1 1 -1 1 0 0 Z " fill="#740140" transform="translate(33,10)"/>
<path d="M0 0 C0.33 0 0.66 0 1 0 C1 1.65 1 3.3 1 5 C2.65 5 4.3 5 6 5 C6 5.66 6 6.32 6 7 C5.01 7 4.02 7 3 7 C3 7.66 3 8.32 3 9 C0.36 9.33 -2.28 9.66 -5 10 C-3.85017555 6.10828647 -2.70784225 3.06103907 0 0 Z " fill="#6D043F" transform="translate(29,26)"/>
<path d="M0 0 C0.99 0.33 1.98 0.66 3 1 C3 3.97 3 6.94 3 10 C1.02 10 -0.96 10 -3 10 C-3.36629408 5.72656908 -2.40814077 3.51187196 0 0 Z " fill="#CF9BAE" transform="translate(66,5)"/>
<path d="M0 0 C2.875 -0.125 2.875 -0.125 6 0 C6.66 0.66 7.32 1.32 8 2 C7.625 5.125 7.625 5.125 7 8 C3.62496331 6.8141763 1.35277269 5.72426311 -1 3 C-0.67 2.01 -0.34 1.02 0 0 Z " fill="#9F143D" transform="translate(27,108)"/>
<path d="M0 0 C2.31 0 4.62 0 7 0 C6.01 0.495 6.01 0.495 5 1 C5.99 5.29 6.98 9.58 8 14 C5.69 14.33 3.38 14.66 1 15 C2.32 14.67 3.64 14.34 5 14 C4.01 10.04 3.02 6.08 2 2 C1.01 2.33 0.02 2.66 -1 3 C-0.67 2.01 -0.34 1.02 0 0 Z " fill="#8D8D8D" transform="translate(54,106)"/>
<path d="M0 0 C1.32 0 2.64 0 4 0 C4.70466321 5.10880829 4.70466321 5.10880829 4 8 C1.62339412 10.49126669 -1.04280654 12.25736814 -4 14 C-3.34 12.68 -2.68 11.36 -2 10 C-1.34 10 -0.68 10 0 10 C0 6.7 0 3.4 0 0 Z " fill="#71101B" transform="translate(54,94)"/>
<path d="M0 0 C0.66 0 1.32 0 2 0 C2.33 0.66 2.66 1.32 3 2 C3.99 2.33 4.98 2.66 6 3 C5.67 5.64 5.34 8.28 5 11 C3.02 11 1.04 11 -1 11 C-0.67 10.01 -0.34 9.02 0 8 C0.99 7.67 1.98 7.34 3 7 C2.33131686 3.88667752 2.33131686 3.88667752 -0.0625 2.8125 C-0.701875 2.544375 -1.34125 2.27625 -2 2 C-1.34 1.34 -0.68 0.68 0 0 Z " fill="#A7325E" transform="translate(43,5)"/>
<path d="M0 0 C2.9375 0.8125 2.9375 0.8125 6 2 C6.33 2.99 6.66 3.98 7 5 C7.825 5.309375 8.65 5.61875 9.5 5.9375 C10.7375 6.4634375 10.7375 6.4634375 12 7 C12.65625 9.06640625 12.65625 9.06640625 13 11 C12.32453125 10.59007813 11.6490625 10.18015625 10.953125 9.7578125 C10.06109375 9.21898438 9.1690625 8.68015625 8.25 8.125 C7.36828125 7.59132813 6.4865625 7.05765625 5.578125 6.5078125 C3.41725907 5.24403334 1.25429605 4.08501165 -1 3 C-0.34 2.67 0.32 2.34 1 2 C0.67 1.34 0.34 0.68 0 0 Z " fill="#532D31" transform="translate(58,102)"/>
<path d="M0 0 C0.33 0 0.66 0 1 0 C1 3.96 1 7.92 1 12 C1.66 12 2.32 12 3 12 C3.33 14.31 3.66 16.62 4 19 C4.66 19 5.32 19 6 19 C5.34 20.32 4.68 21.64 4 23 C-0.84230868 15.58521483 -0.39922611 8.5168236 0 0 Z " fill="#691D24" transform="translate(84,56)"/>
<path d="M0 0 C0.66 0 1.32 0 2 0 C2 0.99 2 1.98 2 3 C3.32 3.33 4.64 3.66 6 4 C5.01 4.33 4.02 4.66 3 5 C3 6.32 3 7.64 3 9 C5.64 8.67 8.28 8.34 11 8 C11 8.66 11 9.32 11 10 C7.47955362 11.17348213 5.57539179 10.83679382 2 10 C0 8 0 8 -0.1953125 6.0546875 C-0.13020833 4.03645833 -0.06510417 2.01822917 0 0 Z " fill="#391515" transform="translate(71,113)"/>
<path d="M0 0 C0 2.31 0 4.62 0 7 C-2.31 6.67 -4.62 6.34 -7 6 C-5.96849913 3.42124782 -5.35028898 2.21229635 -2.9375 0.75 C-1 0 -1 0 0 0 Z " fill="#C8C8C8" transform="translate(114,64)"/>
<path d="M0 0 C2.03144641 0.93446535 4.03533587 1.93224776 6 3 C6 4.32 6 5.64 6 7 C4.68 7 3.36 7 2 7 C1.34 6.34 0.68 5.68 0 5 C0 4.01 0 3.02 0 2 C-0.66 1.67 -1.32 1.34 -2 1 C-1.34 0.67 -0.68 0.34 0 0 Z " fill="#ECC6CD" transform="translate(40,6)"/>
<path d="M0 0 C3.63 0 7.26 0 11 0 C11.33 0.66 11.66 1.32 12 2 C8.37 1.67 4.74 1.34 1 1 C1.33 3.64 1.66 6.28 2 9 C0.68 8.34 -0.64 7.68 -2 7 C-1.125 2.25 -1.125 2.25 0 0 Z " fill="#E32844" transform="translate(44,79)"/>
<path d="M0 0 C3.71888239 0.50712033 6.73454239 1.11608215 10 3 C10 3.66 10 4.32 10 5 C11.65 5.33 13.3 5.66 15 6 C12.3333581 7.33332095 10.83319697 6.67102033 8 6 C8 5.34 8 4.68 8 4 C5.525 3.01 5.525 3.01 3 2 C3 3.32 3 4.64 3 6 C2.34 5.67 1.68 5.34 1 5 C0.375 2.4375 0.375 2.4375 0 0 Z " fill="#521217" transform="translate(100,51)"/>
<path d="M0 0 C0.99 0 1.98 0 3 0 C3.66 0.99 4.32 1.98 5 3 C4.67 3.99 4.34 4.98 4 6 C1.69 5.34 -0.62 4.68 -3 4 C-1.6875 2 -1.6875 2 0 0 Z " fill="#690F0F" transform="translate(47,118)"/>
<path d="M0 0 C0 2.31 0 4.62 0 7 C-1.65 6.67 -3.3 6.34 -5 6 C-4.625 3.5625 -4.625 3.5625 -4 1 C-2 0 -2 0 0 0 Z " fill="#C3C3C3" transform="translate(25,68)"/>
<path d="M0 0 C0.99 0.33 1.98 0.66 3 1 C0.03 3.97 -2.94 6.94 -6 10 C-6.33 8.68 -6.66 7.36 -7 6 C-5.90716423 4.96704564 -4.80029421 3.94892165 -3.6875 2.9375 C-3.07261719 2.36902344 -2.45773438 1.80054688 -1.82421875 1.21484375 C-0.92123047 0.61349609 -0.92123047 0.61349609 0 0 Z " fill="#472024" transform="translate(11,55)"/>
<path d="M0 0 C4.67239145 2.13206212 8.59287819 4.02502456 12 8 C7.6305794 7.74297526 5.48177009 7.39976667 2.0625 4.5625 C0 2 0 2 0 0 Z " fill="#A21A46" transform="translate(93,8)"/>
<path d="M0 0 C2.31 0 4.62 0 7 0 C7.33 0.99 7.66 1.98 8 3 C7 4 7 4 4.05859375 4.09765625 C2.26615234 4.08025391 2.26615234 4.08025391 0.4375 4.0625 C-1.35880859 4.04896484 -1.35880859 4.04896484 -3.19140625 4.03515625 C-4.11824219 4.02355469 -5.04507812 4.01195313 -6 4 C-6 3.34 -6 2.68 -6 2 C-2.37 2 1.26 2 5 2 C3.35 1.67 1.7 1.34 0 1 C0 0.67 0 0.34 0 0 Z " fill="#8B8687" transform="translate(14,84)"/>
<path d="M0 0 C0 1.32 0 2.64 0 4 C-2.97 4 -5.94 4 -9 4 C-9.33 3.34 -9.66 2.68 -10 2 C-3.375 0 -3.375 0 0 0 Z " fill="#660040" transform="translate(46,27)"/>
<path d="M0 0 C0.6875 1.625 0.6875 1.625 1 4 C-0.4375 7.25 -0.4375 7.25 -2 10 C-3.24546405 7.50907189 -2.7767578 6.58919267 -2 4 C-3.32 4.33 -4.64 4.66 -6 5 C-5.67 4.34 -5.34 3.68 -5 3 C-4.34 3 -3.68 3 -3 3 C-3 2.34 -3 1.68 -3 1 C-2.01 0.67 -1.02 0.34 0 0 Z " fill="#BA1A39" transform="translate(29,20)"/>
<path d="M0 0 C0.33 0 0.66 0 1 0 C1.58718592 3.34440677 2.05863115 6.59939315 2 10 C0.0625 12.625 0.0625 12.625 -2 14 C-2.04254356 12.00045254 -2.04080783 9.99958364 -2 8 C-1.67 7.67 -1.34 7.34 -1 7 C-1 6.01 -1 5.02 -1 4 C-1 1 -1 1 0 0 Z " fill="#752351" transform="translate(33,10)"/>
<path d="M0 0 C4.75 0.875 4.75 0.875 7 2 C7 2.66 7 3.32 7 4 C4.69 4 2.38 4 0 4 C0 2.68 0 1.36 0 0 Z " fill="#5B0000" transform="translate(74,118)"/>
<path d="M0 0 C0.33 0 0.66 0 1 0 C1.309375 0.94875 1.61875 1.8975 1.9375 2.875 C2.87394742 5.86080408 2.87394742 5.86080408 4 8 C1.36 8.66 -1.28 9.32 -4 10 C-3.525625 9.649375 -3.05125 9.29875 -2.5625 8.9375 C-0.32126175 6.15836457 -0.32882342 3.4855283 0 0 Z " fill="#170909" transform="translate(56,97)"/>
<path d="M0 0 C3.37339774 1.12446591 4.60069275 2.44589873 7 5 C7.66 5.66 8.32 6.32 9 7 C3.53571429 6.39285714 3.53571429 6.39285714 1.125 4.625 C0 3 0 3 0 0 Z " fill="#442B2C" transform="translate(89,77)"/>
<path d="M0 0 C1.9375 0.3125 1.9375 0.3125 4 1 C4.33 1.99 4.66 2.98 5 4 C2.69 4 0.38 4 -2 4 C-1.34 2.68 -0.68 1.36 0 0 Z " fill="#FCFCFC" transform="translate(16,54)"/>
<path d="M0 0 C0.66 1.65 1.32 3.3 2 5 C0.35 5 -1.3 5 -3 5 C-3.66 3.68 -4.32 2.36 -5 1 C-3 0 -3 0 0 0 Z " fill="#B53766" transform="translate(40,8)"/>
<path d="M0 0 C2.31 0.33 4.62 0.66 7 1 C7 1.66 7 2.32 7 3 C7.66 3.33 8.32 3.66 9 4 C3.63636364 4 3.63636364 4 1 3 C0.67 2.01 0.34 1.02 0 0 Z " fill="#6F033F" transform="translate(86,7)"/>
<path d="M0 0 C0.66 0.33 1.32 0.66 2 1 C0.68 1.33 -0.64 1.66 -2 2 C-2 2.66 -2 3.32 -2 4 C-5 6 -5 6 -7.1875 5.625 C-7.785625 5.41875 -8.38375 5.2125 -9 5 C-7.54735962 4.1361871 -6.0876837 3.28419546 -4.625 2.4375 C-3.40683594 1.72400391 -3.40683594 1.72400391 -2.1640625 0.99609375 C-1.44992188 0.66738281 -0.73578125 0.33867187 0 0 Z " fill="#943C5A" transform="translate(28,19)"/>
<path d="M0 0 C2.1519437 3.22791555 2.20086443 4.28400809 2 8 C0.68 8 -0.64 8 -2 8 C-1.33333333 5.33333333 -0.66666667 2.66666667 0 0 Z " fill="#F8D5D9" transform="translate(66,7)"/>
<path d="M0 0 C0.99 0 1.98 0 3 0 C2.67 3.3 2.34 6.6 2 10 C1.01 9.67 0.02 9.34 -1 9 C-0.34 9 0.32 9 1 9 C0.65772428 6.02934491 0.65772428 6.02934491 0 3 C-0.66 2.67 -1.32 2.34 -2 2 C-1.34 1.34 -0.68 0.68 0 0 Z " fill="#635E5F" transform="translate(113,62)"/>
<path d="M0 0 C0.33 0.66 0.66 1.32 1 2 C1.99 2.33 2.98 2.66 4 3 C3.01 3 2.02 3 1 3 C1 3.66 1 4.32 1 5 C-0.32 5.33 -1.64 5.66 -3 6 C-1.125 1.125 -1.125 1.125 0 0 Z " fill="#5D282D" transform="translate(15,49)"/>
</svg>
