<?xml version="1.0" encoding="UTF-8"?>
<svg version="1.1" xmlns="http://www.w3.org/2000/svg" width="129" height="130">
<path d="M0 0 C42.57 0 85.14 0 129 0 C129 42.57 129 85.14 129 129 C86.43 129 43.86 129 0 129 C0 86.43 0 43.86 0 0 Z " fill="#FBF95A" transform="translate(0,0)"/>
<path d="M0 0 C42.57 0 85.14 0 129 0 C129 42.57 129 85.14 129 129 C86.43 129 43.86 129 0 129 C0 86.43 0 43.86 0 0 Z M59 2 C58.79410279 9.56407533 58.79410279 9.56407533 60 17 C57.03 17.99 54.06 18.98 51 20 C51 20.66 51 21.32 51 22 C50.34 22 49.68 22 49 22 C48.67 22.66 48.34 23.32 48 24 C44.93197901 18.37529486 43.10938353 13.30596952 42 7 C37.24518354 7.57634139 34.02951788 9.55068521 30 12 C30.33 13.65 30.66 15.3 31 17 C31.66 17 32.32 17 33 17 C33.48108275 18.41601714 33.95978141 19.83284437 34.4375 21.25 C34.70433594 22.03890625 34.97117188 22.8278125 35.24609375 23.640625 C35.91954708 25.74821988 36.49150595 27.84753973 37 30 C37.66 30 38.32 30 39 30 C38.505 32.475 38.505 32.475 38 35 C36.74896484 35.34611328 36.74896484 35.34611328 35.47265625 35.69921875 C21.83624172 39.65112353 13.27562838 45.55114237 3.375 55.6875 C1.0678419 61.24565361 1.70738 67.06631669 2 73 C5.91063224 74.47047336 5.91063224 74.47047336 10 75 C12.08554278 78.42624885 12.26953755 81.14910816 12.25 85.125 C12.25515625 86.17945312 12.2603125 87.23390625 12.265625 88.3203125 C12 91 12 91 10 93 C10.40541135 99.33721956 15.02266631 103.42570665 19 108 C19.53753906 108.63421875 20.07507813 109.2684375 20.62890625 109.921875 C29.02899487 119.1009192 40.12634747 124.04411182 52 127 C52.64195313 127.19207031 53.28390625 127.38414063 53.9453125 127.58203125 C70.40426979 130.93014614 88.16181357 125.91260693 102 117 C114.09502891 108.44581477 124.54527441 94.47419728 127.1875 79.75 C128.07160126 74.21674556 128.95261422 68.56912929 128 63 C125.56272118 60.14445983 125.56272118 60.14445983 123 58 C123.06973115 55.14102286 123.6991435 53.51814176 125.125 51.0625 C126.39590355 48.06679877 125.71940933 46.15259482 125 43 C124.05204682 40.84150273 123.02878489 38.71469447 121.9375 36.625 C121.38964844 35.56539062 120.84179688 34.50578125 120.27734375 33.4140625 C119.85582031 32.61742188 119.43429688 31.82078125 119 31 C118.01 31 117.02 31 116 31 C115.67 32.65 115.34 34.3 115 36 C114.34 36 113.68 36 113 36 C112.67 37.98 112.34 39.96 112 42 C111.34 42 110.68 42 110 42 C110 42.66 110 43.32 110 44 C108.02 43.67 106.04 43.34 104 43 C103.6875 39.8125 103.6875 39.8125 104 36 C104.825 35.21625 105.65 34.4325 106.5 33.625 C109.15529395 30.83694135 109.43865072 30.32131102 109.625 26.6875 C109.29869748 21.52676801 107.46491608 17.80396514 104 14 C99.46313097 10.33355289 99.46313097 10.33355289 94 9 C94 10.65 94 12.3 94 14 C93.34 14 92.68 14 92 14 C91.9175 13.2575 91.835 12.515 91.75 11.75 C90.81602546 8.32542668 89.85448107 7.10330184 87 5 C83.35278304 4.19234122 83.35278304 4.19234122 80 4 C80.99 4.33 81.98 4.66 83 5 C83 5.66 83 6.32 83 7 C83.66 7 84.32 7 85 7 C85 7.66 85 8.32 85 9 C85.66 9 86.32 9 87 9 C87 9.66 87 10.32 87 11 C87.66 11 88.32 11 89 11 C89.99 14.465 89.99 14.465 91 18 C91.68707031 18.03738281 92.37414062 18.07476563 93.08203125 18.11328125 C93.98308594 18.17902344 94.88414063 18.24476562 95.8125 18.3125 C96.70582031 18.37050781 97.59914063 18.42851562 98.51953125 18.48828125 C101.34524829 19.07122445 102.12505566 19.89983712 104 22 C104.66 22 105.32 22 106 22 C106 23.98 106 25.96 106 28 C105.34 28 104.68 28 104 28 C100.44676624 33.88504342 99.60773005 37.91404714 99.95703125 44.77734375 C99.97121094 45.51082031 99.98539062 46.24429688 100 47 C99 48 99 48 96.1875 48.0625 C95.135625 48.041875 94.08375 48.02125 93 48 C91.68 48 90.36 48 89 48 C88.34 49.32 87.68 50.64 87 52 C78.37757848 52.76681614 78.37757848 52.76681614 75 50.88671875 C73.375 49.5 73.375 49.5 71 47 C70.44828125 47.31710938 69.8965625 47.63421875 69.328125 47.9609375 C66.71522011 49.12709975 64.59420998 49.40045711 61.75 49.625 C60.85796875 49.69976562 59.9659375 49.77453125 59.046875 49.8515625 C58.37140625 49.90054688 57.6959375 49.94953125 57 50 C56.52422907 41.75330396 56.52422907 41.75330396 58.5 38.625 C58.995 38.08875 59.49 37.5525 60 37 C60 36.01 60 35.02 60 34 C58.02 33.34 56.04 32.68 54 32 C52.55667506 25.74559194 52.55667506 25.74559194 54.375 22.6875 C58.03601235 20.33399206 61.74440653 19.69107928 66 19 C65.505 16.525 65.505 16.525 65 14 C64.34 14 63.68 14 63 14 C62.94577053 12.5629191 62.90710277 11.12524538 62.875 9.6875 C62.85179687 8.88699219 62.82859375 8.08648437 62.8046875 7.26171875 C63 5 63 5 65 2 C63.02 2 61.04 2 59 2 Z " fill="#FDFDFC" transform="translate(0,0)"/>
<path d="M0 0 C58 0 58 0 71 1 C71 1.33 71 1.66 71 2 C67.04 2 63.08 2 59 2 C59.495 9.425 59.495 9.425 60 17 C57.94921875 17.71614583 55.8984375 18.43229167 53.84765625 19.1484375 C51.81317884 19.85271413 51.81317884 19.85271413 51 22 C50.34 22 49.68 22 49 22 C48.67 23.32 48.34 24.64 48 26 C44.35920537 19.56479472 42.35865323 14.41216681 42 7 C36.555 9.475 36.555 9.475 31 12 C31 13.65 31 15.3 31 17 C31.66 17 32.32 17 33 17 C33.67595315 18.41225926 34.34040059 19.83002905 35 21.25 C35.37125 22.03890625 35.7425 22.8278125 36.125 23.640625 C37 26 37 26 37 30 C37.66 30 38.32 30 39 30 C39 31.65 39 33.3 39 35 C37.54166667 35.58333333 36.08333333 36.16666667 34.625 36.75 C33.71105469 37.11996094 32.79710937 37.48992188 31.85546875 37.87109375 C30.05756387 38.58189335 28.24851872 39.26569824 26.42578125 39.91015625 C17.00065769 43.3280582 7.60924462 49.78151076 3 59 C2.92883618 61.37402501 2.91590915 63.75000677 2.9375 66.125 C2.94652344 67.40632813 2.95554688 68.68765625 2.96484375 70.0078125 C2.97644531 70.99523437 2.98804688 71.98265625 3 73 C4.6396875 73.37125 4.6396875 73.37125 6.3125 73.75 C10.24530671 75.08315482 11.04596501 75.5064223 13 79 C13.36328125 81.9453125 13.36328125 81.9453125 13.3125 85.125 C13.30863281 86.17945312 13.30476562 87.23390625 13.30078125 88.3203125 C13 91 13 91 11 93 C11.5306305 100.89312868 18.88508459 107.16059444 24.375 112.25 C35.02842425 121.26723281 46.60145195 124.84740046 60 128 C60 128.33 60 128.66 60 129 C40.2 129 20.4 129 0 129 C0 86.43 0 43.86 0 0 Z " fill="#FEFDFD" transform="translate(0,0)"/>
<path d="M0 0 C1.13308594 0.00386719 2.26617187 0.00773438 3.43359375 0.01171875 C6.41105669 0.29794178 8.136663 0.59778307 10.5625 2.3125 C10.8925 3.3025 11.2225 4.2925 11.5625 5.3125 C12.2225 5.3125 12.8825 5.3125 13.5625 5.3125 C13.5625 5.9725 13.5625 6.6325 13.5625 7.3125 C14.2225 7.3125 14.8825 7.3125 15.5625 7.3125 C15.5625 7.9725 15.5625 8.6325 15.5625 9.3125 C16.2225 9.3125 16.8825 9.3125 17.5625 9.3125 C18.2225 11.2925 18.8825 13.2725 19.5625 15.3125 C20.22636719 15.33828125 20.89023438 15.3640625 21.57421875 15.390625 C25.81330647 15.66291677 28.90871427 15.95945571 32.6875 18 C34.5625 20.3125 34.5625 20.3125 34.875 23.5625 C34.771875 24.47 34.66875 25.3775 34.5625 26.3125 C33.9025 26.3125 33.2425 26.3125 32.5625 26.3125 C32.376875 27.17875 32.376875 27.17875 32.1875 28.0625 C31.5625 30.3125 31.5625 30.3125 30.5234375 32.1015625 C29.31829462 34.87437092 29.43280437 36.93018256 29.5625 39.9375 C29.6875 42.8515625 29.6875 42.8515625 29.5625 45.3125 C27.5625 47.3125 27.5625 47.3125 24.625 47.5 C21.5625 47.3125 21.5625 47.3125 18.5625 46.3125 C18.27375 47.1375 17.985 47.9625 17.6875 48.8125 C15.5625 51.3125 15.5625 51.3125 13.34765625 51.8203125 C8.75972855 52.02728668 5.5391533 51.82104094 1.9375 48.8125 C1.15375 47.9875 0.37 47.1625 -0.4375 46.3125 C-1.26507813 46.80363281 -1.26507813 46.80363281 -2.109375 47.3046875 C-4.82530923 48.48037715 -6.74301759 48.51498638 -9.6875 48.4375 C-11.02554688 48.41042969 -11.02554688 48.41042969 -12.390625 48.3828125 C-13.06609375 48.35960937 -13.7415625 48.33640625 -14.4375 48.3125 C-15.96596661 45.25556678 -15.66992445 42.68265453 -15.4375 39.3125 C-14 37.0625 -14 37.0625 -12.4375 35.3125 C-12.1075 34.3225 -11.7775 33.3325 -11.4375 32.3125 C-12.38625 32.209375 -13.335 32.10625 -14.3125 32 C-17.4375 31.3125 -17.4375 31.3125 -19.4375 28.3125 C-19.875 25.9375 -19.875 25.9375 -19.4375 23.3125 C-17.33136921 20.32315308 -15.7328873 18.60926933 -12.1015625 17.77734375 C-9.8730858 17.52778248 -7.67867178 17.36621 -5.4375 17.3125 C-5.7675 15.6625 -6.0975 14.0125 -6.4375 12.3125 C-7.0975 12.3125 -7.7575 12.3125 -8.4375 12.3125 C-9.96241998 9.26266004 -9.67312548 6.6701631 -9.4375 3.3125 C-7.00901222 -0.40266026 -4.17828714 -0.06165463 0 0 Z " fill="#FEFCC6" transform="translate(71.4375,1.6875)"/>
<path d="M0 0 C12.51962211 -0.22304384 24.6386543 -0.15649645 37 2 C35.68 2.33 34.36 2.66 33 3 C33.99 8.28 34.98 13.56 36 19 C41.28 19.66 46.56 20.32 52 21 C52 20.34 52 19.68 52 19 C52.66 19 53.32 19 54 19 C54.12375 18.46375 54.2475 17.9275 54.375 17.375 C55.12206016 14.5361714 56.05303364 11.77776798 57 9 C56.01 9 55.02 9 54 9 C54 8.34 54 7.68 54 7 C53.34 6.67 52.68 6.34 52 6 C57.39731187 5.78834071 61.98006021 6.49612862 67.1875 7.875 C67.88552734 8.04902344 68.58355469 8.22304687 69.30273438 8.40234375 C72.7402121 9.28542556 75.91237041 10.22880163 79 12 C79 12.66 79 13.32 79 14 C79.886875 14.103125 80.77375 14.20625 81.6875 14.3125 C85.0826755 15.01715907 87.21942098 15.9554566 90 18 C90 18.66 90 19.32 90 20 C72.72761368 29.55542003 54.63486327 34.71369051 34.90625 29.0390625 C20.97348068 24.05772293 7.56233474 15.00721576 0 2 C0 1.34 0 0.68 0 0 Z " fill="#620303" transform="translate(12,97)"/>
<path d="M0 0 C0.99 0 1.98 0 3 0 C3.67354499 1.43429001 4.33859701 2.87257057 5 4.3125 C5.37125 5.11300781 5.7425 5.91351563 6.125 6.73828125 C7 9 7 9 7 12 C7.66 12 8.32 12 9 12 C9.70429659 13.38743406 10.38777598 14.78544635 11.0625 16.1875 C11.44535156 16.96480469 11.82820313 17.74210937 12.22265625 18.54296875 C13 21 13 21 12 26 C8.37 26.66 4.74 27.32 1 28 C1.886875 28.226875 2.77375 28.45375 3.6875 28.6875 C7.50327495 30.19941083 9.38568606 31.86282327 12 35 C14.14969701 41.24628943 13.92007255 49.24571692 11.75 55.4375 C8.87113443 61.29804776 6.24980177 64.71641859 0 67 C-3.63897586 67.50407066 -6.85299413 67.78856653 -10 65.625 C-11 64 -11 64 -11 62 C-11.66 62 -12.32 62 -13 62 C-15.59134645 54.22596065 -14.30821132 44.01279431 -13 36 C-13.50789063 36.59167969 -14.01578125 37.18335938 -14.5390625 37.79296875 C-18.44840484 42.28065949 -22.29408087 46.35291267 -27 50 C-27.38696632 46.66613633 -27.2124221 45.30827697 -25.27734375 42.5 C-15.24909971 31.78534861 -5.86937553 27.42211973 8 23 C8.33 21.35 8.66 19.7 9 18 C8.34 18 7.68 18 7 18 C6.32942113 16.2097939 5.6636531 14.41778511 5 12.625 C4.62875 11.62726562 4.2575 10.62953125 3.875 9.6015625 C3 7 3 7 3 5 C2.34 5 1.68 5 1 5 C0.67 3.35 0.34 1.7 0 0 Z " fill="#EDEDED" transform="translate(30,12)"/>
<path d="M0 0 C1.98 0 3.96 0 6 0 C5.01 1.485 5.01 1.485 4 3 C3.75892674 5.28648848 3.75892674 5.28648848 3.875 7.6875 C3.90207031 8.89986328 3.90207031 8.89986328 3.9296875 10.13671875 C3.95289063 10.75160156 3.97609375 11.36648438 4 12 C4.66 12 5.32 12 6 12 C6.33 13.65 6.66 15.3 7 17 C6.09507813 17.14695312 6.09507813 17.14695312 5.171875 17.296875 C1.46622474 17.99019021 -1.42829778 18.63247714 -4.625 20.6875 C-6.60736089 24.02147059 -5.84768092 26.32671603 -5 30 C-3.02 30.66 -1.04 31.32 1 32 C0.25 36.75 0.25 36.75 -2 39 C-2.24253813 41.21072977 -2.24253813 41.21072977 -2.125 43.625 C-2.09792969 44.85089844 -2.09792969 44.85089844 -2.0703125 46.1015625 C-2.04710937 46.72804687 -2.02390625 47.35453125 -2 48 C-0.41590006 47.88512252 1.16728963 47.75765492 2.75 47.625 C4.07257812 47.52058594 4.07257812 47.52058594 5.421875 47.4140625 C7.99066382 47.00149945 9.75841015 46.28839043 12 45 C12.78375 45.825 13.5675 46.65 14.375 47.5 C17.9766533 50.50854094 21.19722855 50.71478668 25.78515625 50.5078125 C28.28774311 50.16635165 28.28774311 50.16635165 30.125 47.5 C30.41375 46.675 30.7025 45.85 31 45 C31.63808594 45.08378906 32.27617188 45.16757812 32.93359375 45.25390625 C33.75988281 45.35574219 34.58617187 45.45757812 35.4375 45.5625 C36.26121094 45.66691406 37.08492187 45.77132812 37.93359375 45.87890625 C38.61550781 45.91886719 39.29742187 45.95882812 40 46 C40.33 45.67 40.66 45.34 41 45 C40.96736071 43.31165845 40.89833157 41.62397426 40.8125 39.9375 C40.72984769 34.18189393 42.04981679 30.88624095 45 26 C45.66 26 46.32 26 47 26 C47 24.02 47 22.04 47 20 C46.360625 19.690625 45.72125 19.38125 45.0625 19.0625 C43 18 43 18 42 17 C40.31816052 16.76712992 38.6287584 16.58735834 36.9375 16.4375 C36.01839844 16.35371094 35.09929687 16.26992188 34.15234375 16.18359375 C33.08693359 16.09271484 33.08693359 16.09271484 32 16 C31.34 13.69 30.68 11.38 30 9 C29.34 9 28.68 9 28 9 C28 8.34 28 7.68 28 7 C27.34 7 26.68 7 26 7 C26 6.34 26 5.68 26 5 C25.34 5 24.68 5 24 5 C24 4.34 24 3.68 24 3 C23.01 2.67 22.02 2.34 21 2 C24.75431122 2.28879317 27.30384286 2.48704211 30.375 4.75 C32.15988669 7.22138157 32.66602151 8.99419362 33 12 C33.66 12 34.32 12 35 12 C35 10.35 35 8.7 35 7 C40.7192002 8.90640007 45.45238946 11.80339149 48.9375 16.75 C50.3023157 20.92473037 50.91353261 24.65869902 50 29 C48.35353315 30.68662458 46.68816933 32.35511706 45 34 C44.66339855 37.64407137 44.66339855 37.64407137 46 41 C48.46115547 42.84434349 48.46115547 42.84434349 51 44 C51 44.66 51 45.32 51 46 C48.69 45.67 46.38 45.34 44 45 C43.71125 45.78375 43.4225 46.5675 43.125 47.375 C42 50 42 50 40 52 C37.375 52.125 37.375 52.125 35 52 C34.67 51.34 34.34 50.68 34 50 C33.01 49.67 32.02 49.34 31 49 C30.731875 49.61875 30.46375 50.2375 30.1875 50.875 C29 53 29 53 26 55 C20.05848812 54.80519633 16.58867709 53.7856586 12 50 C12 49.34 12 48.68 12 48 C11.61199219 48.48082031 11.22398438 48.96164063 10.82421875 49.45703125 C8.45911353 51.45749498 6.87308547 51.48876068 3.8125 51.6875 C2.91144531 51.75324219 2.01039062 51.81898437 1.08203125 51.88671875 C0.05142578 51.94279297 0.05142578 51.94279297 -1 52 C-1.495 50.515 -1.495 50.515 -2 49 C-2.99 48.67 -3.98 48.34 -5 48 C-5.93402724 42.58264203 -6.20808081 39.19548425 -4 34 C-5.98 34 -7.96 34 -10 34 C-10.66 31.03 -11.32 28.06 -12 25 C-11.01 25 -10.02 25 -9 25 C-8.67 22.69 -8.34 20.38 -8 18 C-5.03 17.01 -2.06 16.02 1 15 C0.835 14.38125 0.67 13.7625 0.5 13.125 C-0.20075317 8.74529271 -0.07734251 4.42571011 0 0 Z " fill="#DEAF23" transform="translate(59,2)"/>
<path d="M0 0 C0.66 0.33 1.32 0.66 2 1 C2 1.99 2 2.98 2 4 C2.66 4 3.32 4 4 4 C4.67595315 5.41225926 5.34040059 6.83002905 6 8.25 C6.37125 9.03890625 6.7425 9.8278125 7.125 10.640625 C8 13 8 13 8 17 C8.66 17 9.32 17 10 17 C10 18.65 10 20.3 10 22 C8.54166667 22.58333333 7.08333333 23.16666667 5.625 23.75 C4.25408203 24.30494141 4.25408203 24.30494141 2.85546875 24.87109375 C1.05756387 25.58189335 -0.75148128 26.26569824 -2.57421875 26.91015625 C-12.18212805 30.39434314 -18.61173692 36.17437773 -25 44 C-25.33 44 -25.66 44 -26 44 C-26.66178308 30.74428428 -18.68063084 18.45643078 -10.5 8.625 C-7.33796853 5.14031226 -3.93304887 2.56852171 0 0 Z " fill="#C3DBF5" transform="translate(29,13)"/>
<path d="M0 0 C3.15594557 2.14604299 3.80647804 2.59249481 5 6 C6.15917235 13.91135129 5.61636039 20.52638589 1.484375 27.42578125 C-0.27522199 29.29188016 -1.49710095 29.63098283 -4 30 C-4 30.66 -4 31.32 -4 32 C-11.22249793 32.6120761 -11.22249793 32.6120761 -14.9375 29.6875 C-19.0131805 24.37676481 -18.59577913 18.43931144 -18 12 C-17.0668782 8.99757182 -15.7756222 6.58272319 -14 4 C-13.46375 3.175 -12.9275 2.35 -12.375 1.5 C-8.42678914 -0.99360686 -4.5071086 -0.90287797 0 0 Z " fill="#E9E9E9" transform="translate(110,65)"/>
<path d="M0 0 C0.99 0 1.98 0 3 0 C3.67354499 1.43429001 4.33859701 2.87257057 5 4.3125 C5.37125 5.11300781 5.7425 5.91351563 6.125 6.73828125 C7 9 7 9 7 12 C7.66 12 8.32 12 9 12 C9.70429659 13.38743406 10.38777598 14.78544635 11.0625 16.1875 C11.44535156 16.96480469 11.82820313 17.74210937 12.22265625 18.54296875 C13 21 13 21 12 26 C8.37 26.66 4.74 27.32 1 28 C1.886875 28.226875 2.77375 28.45375 3.6875 28.6875 C7.50327495 30.19941083 9.38568606 31.86282327 12 35 C14.14969701 41.24628943 13.92007255 49.24571692 11.75 55.4375 C8.87113443 61.29804776 6.24980177 64.71641859 0 67 C-3.63897586 67.50407066 -6.85299413 67.78856653 -10 65.625 C-11 64 -11 64 -11 62 C-11.66 62 -12.32 62 -13 62 C-15.59134645 54.22596065 -14.30821132 44.01279431 -13 36 C-13.50789063 36.59167969 -14.01578125 37.18335938 -14.5390625 37.79296875 C-18.44840484 42.28065949 -22.29408087 46.35291267 -27 50 C-27.38696632 46.66613633 -27.2124221 45.30827697 -25.27734375 42.5 C-15.24909971 31.78534861 -5.86937553 27.42211973 8 23 C8.33 21.35 8.66 19.7 9 18 C8.34 18 7.68 18 7 18 C6.32942113 16.2097939 5.6636531 14.41778511 5 12.625 C4.62875 11.62726562 4.2575 10.62953125 3.875 9.6015625 C3 7 3 7 3 5 C2.34 5 1.68 5 1 5 C0.67 3.35 0.34 1.7 0 0 Z M-5.625 35.375 C-7.154669 37.80139095 -7.154669 37.80139095 -7 40 C-7.66 40 -8.32 40 -9 40 C-9 40.66 -9 41.32 -9 42 C-9.66 42 -10.32 42 -11 42 C-12.9202046 48.66695037 -12.69679171 55.59511969 -10 62 C-9.34 62 -8.68 62 -8 62 C-8 62.66 -8 63.32 -8 64 C-3.3364316 64.47587433 0.72213099 64.65925037 4.8125 62.125 C9.60923902 58.17605671 11.4476346 52.55336089 12.37890625 46.5625 C12.6643279 41.11186711 11.45002026 38.18184274 8 34 C6.34905878 32.34905878 4.45514063 32.71132307 2.1875 32.625 C-2.17460867 32.63839214 -2.17460867 32.63839214 -5.625 35.375 Z " fill="#F9B830" transform="translate(30,12)"/>
<path d="M0 0 C1.32 0 2.64 0 4 0 C4 2.97 4 5.94 4 9 C5.32 9 6.64 9 8 9 C8 10.65 8 12.3 8 14 C8.99 14 9.98 14 11 14 C10.49287967 17.71888239 9.88391785 20.73454239 8 24 C7.34 24 6.68 24 6 24 C6 24.66 6 25.32 6 26 C-5 26.2244898 -5 26.2244898 -10 25 C-12.35804706 21.67475397 -12.38622443 18.2295928 -12.625 14.25 C-12.73714844 12.49429688 -12.73714844 12.49429688 -12.8515625 10.703125 C-12.90054688 9.81109375 -12.94953125 8.9190625 -13 8 C-16.63 7.34 -20.26 6.68 -24 6 C-24 5.67 -24 5.34 -24 5 C-7.14790076 4.7509542 -7.14790076 4.7509542 0 8 C0 5.36 0 2.72 0 0 Z " fill="#898986" transform="translate(58,92)"/>
<path d="M0 0 C12.51962211 -0.22304384 24.6386543 -0.15649645 37 2 C35.68 2.33 34.36 2.66 33 3 C33.99 8.28 34.98 13.56 36 19 C41.28 19.66 46.56 20.32 52 21 C52 20.34 52 19.68 52 19 C52.66 19 53.32 19 54 19 C54.12375 18.46375 54.2475 17.9275 54.375 17.375 C55.12206016 14.5361714 56.05303364 11.77776798 57 9 C56.01 9 55.02 9 54 9 C54 8.34 54 7.68 54 7 C53.34 6.67 52.68 6.34 52 6 C58.67491831 5.54489193 64.59374557 7.2327574 71 9 C71 9.66 71 10.32 71 11 C71.99 11 72.98 11 74 11 C74 11.99 74 12.98 74 14 C69.31261335 13.09276387 64.65806256 12.0452733 60 11 C59.731875 12.216875 59.46375 13.43375 59.1875 14.6875 C57.48307057 21.26006006 57.48307057 21.26006006 55 24 C51.3125 24.3125 51.3125 24.3125 48 24 C48 23.34 48 22.68 48 22 C43.71 22 39.42 22 35 22 C31.12301147 14.48833472 31 12.47240602 31 3 C21.1 3 11.2 3 1 3 C0.67 2.01 0.34 1.02 0 0 Z " fill="#1B0502" transform="translate(12,97)"/>
<path d="M0 0 C0.33 4.95 0.66 9.9 1 15 C-1.05078125 15.71614583 -3.1015625 16.43229167 -5.15234375 17.1484375 C-7.18682116 17.85271413 -7.18682116 17.85271413 -8 20 C-8.66 20 -9.32 20 -10 20 C-10.33 21.32 -10.66 22.64 -11 24 C-14.65875889 17.43657756 -16.93787671 11.45071559 -18 4 C-16.43840941 3.51787786 -14.87568072 3.03944127 -13.3125 2.5625 C-12.00732422 2.16224609 -12.00732422 2.16224609 -10.67578125 1.75390625 C-7.05214504 0.73294013 -3.77241008 0 0 0 Z " fill="#FEF9C1" transform="translate(59,2)"/>
<path d="M0 0 C1.45742463 -0.08096803 2.91612807 -0.13917774 4.375 -0.1875 C5.18710938 -0.22230469 5.99921875 -0.25710937 6.8359375 -0.29296875 C7.55007812 -0.19628906 8.26421875 -0.09960938 9 0 C11.29013653 3.4352048 11.17842973 4.985331 11 9 C10.01 9 9.02 9 8 9 C8 10.32 8 11.64 8 13 C8.66 13.33 9.32 13.66 10 14 C9.625 16.9375 9.625 16.9375 9 20 C5.79770558 21.60114721 2.47499763 21.48323075 -1 21 C-3 19.5625 -3 19.5625 -4 17 C-5.04702535 10.25397594 -3.37572011 5.80201894 0 0 Z " fill="#0E0E0E" transform="translate(99,70)"/>
<path d="M0 0 C1.9375 1.125 1.9375 1.125 3 3 C3.1875 6.1875 3.1875 6.1875 3 9 C1.02 9.33 -0.96 9.66 -3 10 C-2.01 12.64 -1.02 15.28 0 18 C-1.625 20.0625 -1.625 20.0625 -4 22 C-7.0625 22 -7.0625 22 -10 21 C-12.20492189 18.75434052 -12.9625292 17.54658499 -13.1796875 14.37890625 C-12.13994262 4.76793114 -12.13994262 4.76793114 -9 1 C-5.95016004 -0.52491998 -3.3576631 -0.23562548 0 0 Z " fill="#101010" transform="translate(37,50)"/>
<path d="M0 0 C3.5 1.8125 3.5 1.8125 6 4 C6 4.99 6 5.98 6 7 C6.66 7 7.32 7 8 7 C9.00016217 14.90489618 9.49304404 20.74521623 6 28 C5.67 28.99 5.34 29.98 5 31 C4.34 31 3.68 31 3 31 C2.67 31.99 2.34 32.98 2 34 C-0.5625 35.1875 -0.5625 35.1875 -3 36 C-3 36.66 -3 37.32 -3 38 C-9.625 38.125 -9.625 38.125 -13 37 C-18.85333663 30.46306201 -19.59286004 24.24054081 -19.2109375 15.7109375 C-19.14132813 14.81632812 -19.07171875 13.92171875 -19 13 C-18.34 13 -17.68 13 -17 13 C-16.938125 12.13375 -16.87625 11.2675 -16.8125 10.375 C-15.75109107 5.9660706 -14.15610732 4.23125274 -11 1 C-7.27493231 -0.24168923 -3.86899993 -0.53918266 0 0 Z M-14 8 C-17.52407283 13.95446788 -17.94898585 20.17102336 -17 27 C-15.6336183 29.72966365 -15.6336183 29.72966365 -14 32 C-13.608125 32.598125 -13.21625 33.19625 -12.8125 33.8125 C-9.74973564 35.81913872 -6.58732113 35.17642563 -3 35 C-3 34.34 -3 33.68 -3 33 C-2.39671875 32.91105469 -1.7934375 32.82210937 -1.171875 32.73046875 C2.3886743 31.53294587 3.34458099 29.09815671 5.0078125 25.875 C7.10202833 19.80672105 7.35651651 12.87285463 5.21875 6.76953125 C3.51227998 4.20373168 1.58254839 3.12701465 -1.3828125 2.48046875 C-7.28717853 2.10153183 -10.470331 2.97289567 -14 8 Z " fill="#63624F" transform="translate(109,62)"/>
<path d="M0 0 C2.42536044 1.07793797 3.33548501 2.49664168 4.6875 4.75 C7.22901739 12.72510629 6.3221046 21.35098349 2.6875 28.75 C-0.02375723 32.95712329 -2.60056915 35.02833296 -7.3125 36.75 C-10.95147586 37.25407066 -14.16549413 37.53856653 -17.3125 35.375 C-18.3125 33.75 -18.3125 33.75 -18.3125 31.75 C-18.9725 31.75 -19.6325 31.75 -20.3125 31.75 C-22.36983687 25.5779894 -22.43127802 17.20892942 -20.41796875 10.984375 C-19.3125 8.8125 -19.3125 8.8125 -17.3125 5.75 C-16.6525 5.75 -15.9925 5.75 -15.3125 5.75 C-14.9825 4.76 -14.6525 3.77 -14.3125 2.75 C-10.32272891 -1.55895277 -5.36092717 -0.57955969 0 0 Z M-12.9375 5.125 C-14.467169 7.55139095 -14.467169 7.55139095 -14.3125 9.75 C-14.9725 9.75 -15.6325 9.75 -16.3125 9.75 C-16.3125 10.41 -16.3125 11.07 -16.3125 11.75 C-16.9725 11.75 -17.6325 11.75 -18.3125 11.75 C-20.2327046 18.41695037 -20.00929171 25.34511969 -17.3125 31.75 C-16.6525 31.75 -15.9925 31.75 -15.3125 31.75 C-15.3125 32.41 -15.3125 33.07 -15.3125 33.75 C-10.6489316 34.22587433 -6.59036901 34.40925037 -2.5 31.875 C2.29673902 27.92605671 4.1351346 22.30336089 5.06640625 16.3125 C5.3518279 10.86186711 4.13752026 7.93184274 0.6875 3.75 C-0.96344122 2.09905878 -2.85735937 2.46132307 -5.125 2.375 C-9.48710867 2.38839214 -9.48710867 2.38839214 -12.9375 5.125 Z " fill="#5A573B" transform="translate(37.3125,42.25)"/>
<path d="M0 0 C2.5 0.25 2.5 0.25 4.5 2.25 C6.83294775 2.29241723 9.16702567 2.29092937 11.5 2.25 C12.49 2.58 13.48 2.91 14.5 3.25 C14.75 6.0625 14.75 6.0625 14.5 9.25 C12.625 11.125 12.625 11.125 10.5 12.25 C9.84 12.25 9.18 12.25 8.5 12.25 C8.5 12.91 8.5 13.57 8.5 14.25 C5.3125 15.0625 5.3125 15.0625 1.5 15.25 C-1.375 12.875 -1.375 12.875 -3.5 10.25 C-3.83 9.92 -4.16 9.59 -4.5 9.25 C-4.6875 5.8125 -4.6875 5.8125 -4.5 2.25 C-2.5 0.25 -2.5 0.25 0 0 Z " fill="#FC645E" transform="translate(56.5,76.75)"/>
<path d="M0 0 C4.52615993 3.67832017 8.39424999 7.41086363 12 12 C11.01 14.31 10.02 16.62 9 19 C8.34 19 7.68 19 7 19 C6.67 20.98 6.34 22.96 6 25 C5.34 25 4.68 25 4 25 C4 25.66 4 26.32 4 27 C2.02 26.67 0.04 26.34 -2 26 C-3.46842878 19.75917768 -3.46842878 19.75917768 -1.1875 16.0625 C1 14 1 14 3 14 C2.58846263 9.02906176 2.20399168 4.55491614 0 0 Z " fill="#FDF9C2" transform="translate(106,17)"/>
<path d="M0 0 C1.98 0 3.96 0 6 0 C5.01 1.485 5.01 1.485 4 3 C3.75892674 5.28648848 3.75892674 5.28648848 3.875 7.6875 C3.90207031 8.89986328 3.90207031 8.89986328 3.9296875 10.13671875 C3.95289063 10.75160156 3.97609375 11.36648438 4 12 C4.66 12 5.32 12 6 12 C6.33 13.65 6.66 15.3 7 17 C6.09507813 17.14695312 6.09507813 17.14695312 5.171875 17.296875 C1.46622474 17.99019021 -1.42829778 18.63247714 -4.625 20.6875 C-6.32947014 23.08041636 -6.32947014 23.08041636 -5.875 26.6875 C-5.58625 27.780625 -5.2975 28.87375 -5 30 C-4.34 30.33 -3.68 30.66 -3 31 C-3 31.66 -3 32.32 -3 33 C-2.01 33.33 -1.02 33.66 0 34 C-0.99 34.99 -1.98 35.98 -3 37 C-3 36.01 -3 35.02 -3 34 C-5.31 34 -7.62 34 -10 34 C-10.66 31.03 -11.32 28.06 -12 25 C-11.01 25 -10.02 25 -9 25 C-8.67 22.69 -8.34 20.38 -8 18 C-5.03 17.01 -2.06 16.02 1 15 C0.835 14.38125 0.67 13.7625 0.5 13.125 C-0.20075317 8.74529271 -0.07734251 4.42571011 0 0 Z " fill="#E2B844" transform="translate(59,2)"/>
<path d="M0 0 C5.13565399 -0.53849576 8.75021582 -0.84985325 13.125 2.125 C16.52838172 7.15766021 15.80694359 14.2505269 15 20 C13.65625 22.93359375 13.65625 22.93359375 12 25 C11.01 25 10.02 25 9 25 C7.75453595 22.50907189 8.2232422 21.58919267 9 19 C8.01 18.67 7.02 18.34 6 18 C6.33 16.68 6.66 15.36 7 14 C7.99 14 8.98 14 10 14 C9.67 10.7 9.34 7.4 9 4 C5.7 4 2.4 4 -1 4 C-0.67 2.68 -0.34 1.36 0 0 Z " fill="#E9E9E9" transform="translate(100,65)"/>
<path d="M0 0 C3.75431122 0.28879317 6.30384286 0.48704211 9.375 2.75 C11.15988669 5.22138157 11.66602151 6.99419362 12 10 C12.66 10 13.32 10 14 10 C14 8.35 14 6.7 14 5 C18.52378174 6.50792725 22.53833938 8.70785369 26 12 C27.4375 15.3125 27.4375 15.3125 28 18 C23.25 17.25 23.25 17.25 21 15 C18.56747339 14.53837573 18.56747339 14.53837573 15.875 14.375 C14.96492188 14.30023438 14.05484375 14.22546875 13.1171875 14.1484375 C12.41851562 14.09945313 11.71984375 14.05046875 11 14 C10.34 11.69 9.68 9.38 9 7 C8.34 7 7.68 7 7 7 C7 6.34 7 5.68 7 5 C6.34 5 5.68 5 5 5 C5 4.34 5 3.68 5 3 C4.34 3 3.68 3 3 3 C3 2.34 3 1.68 3 1 C2.01 0.67 1.02 0.34 0 0 Z " fill="#E7C047" transform="translate(80,4)"/>
<path d="M0 0 C1.86323318 0.25288812 3.71708432 0.57690153 5.5625 0.9375 C6.57441406 1.13214844 7.58632812 1.32679687 8.62890625 1.52734375 C9.80259766 1.76130859 9.80259766 1.76130859 11 2 C10.49287967 5.71888239 9.88391785 8.73454239 8 12 C7.34 12 6.68 12 6 12 C6 12.66 6 13.32 6 14 C3.36 14 0.72 14 -2 14 C-1.85970581 11.8537974 -1.71261836 9.70803782 -1.5625 7.5625 C-1.48128906 6.36753906 -1.40007813 5.17257813 -1.31640625 3.94140625 C-1 1 -1 1 0 0 Z " fill="#F4F4F4" transform="translate(58,104)"/>
<path d="M0 0 C6.4781443 0.48891655 6.4781443 0.48891655 8.703125 2.66796875 C10.34252119 5.61591913 10.43333543 7.70169556 10.4375 11.0625 C10.45683594 12.10535156 10.47617188 13.14820312 10.49609375 14.22265625 C10 17 10 17 7.97265625 18.87109375 C6.99619141 19.42990234 6.99619141 19.42990234 6 20 C0 7.15533981 0 7.15533981 0 0 Z " fill="#FFCCCB" transform="translate(3,74)"/>
<path d="M0 0 C3.3 0 6.6 0 10 0 C9.38487182 5.00890086 8.7282448 10.00632136 8 15 C6.02 15 4.04 15 2 15 C-0.02558881 11.65060119 -0.21738987 9.13037449 -0.125 5.25 C-0.09792969 3.77273437 -0.09792969 3.77273437 -0.0703125 2.265625 C-0.04710937 1.51796875 -0.02390625 0.7703125 0 0 Z " fill="#EEEEEE" transform="translate(46,102)"/>
<path d="M0 0 C12.51962211 -0.22304384 24.6386543 -0.15649645 37 2 C35.68 2.33 34.36 2.66 33 3 C33.2475 4.2065625 33.2475 4.2065625 33.5 5.4375 C34.09247348 9.65887352 34.08506709 13.74664545 34 18 C33.690625 17.360625 33.38125 16.72125 33.0625 16.0625 C32.1654837 14.06389179 32.1654837 14.06389179 31 13 C31 9.7 31 6.4 31 3 C21.1 3 11.2 3 1 3 C0.67 2.01 0.34 1.02 0 0 Z " fill="#201107" transform="translate(12,97)"/>
<path d="M0 0 C3.05928602 2.92627359 4.16821681 4.74744294 4.3125 9 C4.23250344 14.50198558 2.80615848 19.26354462 0 24 C-1.94353088 25.84398418 -3.57510805 26.78755402 -6 28 C-7.65 27.01 -9.3 26.02 -11 25 C-9 24 -9 24 -6.5 23.625 C-3.65525519 23.21161165 -3.65525519 23.21161165 -2 20 C-2.66 19.01 -3.32 18.02 -4 17 C-4 15.68 -4 14.36 -4 13 C-2.02 12.67 -0.04 12.34 2 12 C1.1395861 7.66770285 1.1395861 7.66770285 -1 4 C-3.32817964 3.63239269 -5.6618385 3.29758419 -8 3 C-8 2.67 -8 2.34 -8 2 C-5.36 2 -2.72 2 0 2 C0 1.34 0 0.68 0 0 Z " fill="#ACACAC" transform="translate(38,47)"/>
<path d="M0 0 C1.32 0 2.64 0 4 0 C3.25 4.75 3.25 4.75 1 7 C0.75746187 9.21072977 0.75746187 9.21072977 0.875 11.625 C0.89304688 12.44226562 0.91109375 13.25953125 0.9296875 14.1015625 C0.95289063 14.72804688 0.97609375 15.35453125 1 16 C2.58409994 15.88512252 4.16728963 15.75765492 5.75 15.625 C6.63171875 15.55539063 7.5134375 15.48578125 8.421875 15.4140625 C10.99066382 15.00149945 12.75841015 14.28839043 15 13 C16.98 14.65 18.96 16.3 21 18 C19.02 18.99 19.02 18.99 17 20 C16.34 18.68 15.68 17.36 15 16 C14.61199219 16.48082031 14.22398438 16.96164063 13.82421875 17.45703125 C11.45911353 19.45749498 9.87308547 19.48876068 6.8125 19.6875 C5.91144531 19.75324219 5.01039062 19.81898437 4.08203125 19.88671875 C3.39496094 19.92410156 2.70789062 19.96148437 2 20 C1.67 19.01 1.34 18.02 1 17 C0.01 16.67 -0.98 16.34 -2 16 C-2.93402724 10.58264203 -3.20808081 7.19548425 -1 2 C-0.34 2.66 0.32 3.32 1 4 C1.33 3.34 1.66 2.68 2 2 C1.34 1.34 0.68 0.68 0 0 Z " fill="#E0BA3D" transform="translate(56,34)"/>
<path d="M0 0 C0.33 0 0.66 0 1 0 C1.03738281 0.80824219 1.07476562 1.61648437 1.11328125 2.44921875 C1.17902344 3.51785156 1.24476562 4.58648437 1.3125 5.6875 C1.37050781 6.74324219 1.42851563 7.79898438 1.48828125 8.88671875 C2.2026191 13.23272841 3.91533393 15.91533393 7 19 C9.65537372 19.56520003 12.29144713 19.73788198 15 20 C15 19.34 15 18.68 15 18 C15.61875 17.938125 16.2375 17.87625 16.875 17.8125 C19.23446438 17.18789421 19.23446438 17.18789421 20.125 14.6875 C20.41375 13.800625 20.7025 12.91375 21 12 C21.350625 11.360625 21.70125 10.72125 22.0625 10.0625 C23.26138896 7.42494429 23.61027831 4.85795906 24 2 C24.66 2 25.32 2 26 2 C25.48594831 6.96916636 24.76615118 11.29026351 23 16 C22.34 16 21.68 16 21 16 C20.67 16.99 20.34 17.98 20 19 C17.4375 20.1875 17.4375 20.1875 15 21 C15 21.66 15 22.32 15 23 C8.375 23.125 8.375 23.125 5 22 C1.5362151 18.61427223 0.10161023 15.15612619 -0.3203125 10.35546875 C-0.31329092 6.89031801 -0.21854451 3.45785983 0 0 Z " fill="#6D6B44" transform="translate(91,77)"/>
<path d="M0 0 C-3.625 3 -3.625 3 -7 3 C-7 3.66 -7 4.32 -7 5 C-8.66666667 6.33333333 -10.33333333 7.66666667 -12 9 C-12.804375 9.969375 -13.60875 10.93875 -14.4375 11.9375 C-17.09654574 15.11538393 -19.76309242 17.4405847 -23 20 C-23.38696632 16.66613633 -23.2124221 15.30827697 -21.27734375 12.5 C-6.52474721 -3.2623736 -6.52474721 -3.2623736 0 0 Z " fill="#F7B631" transform="translate(26,42)"/>
<path d="M0 0 C2.42536044 1.07793797 3.33548501 2.49664168 4.6875 4.75 C5.76028196 8.0712154 5.8530763 11.21040174 5.875 14.6875 C5.88917969 15.70714844 5.90335938 16.72679688 5.91796875 17.77734375 C5.68194914 20.82159667 4.97002995 22.99737643 3.6875 25.75 C3.0275 25.09 2.3675 24.43 1.6875 23.75 C2.0175 23.110625 2.3475 22.47125 2.6875 21.8125 C4.49582093 16.27451714 4.41064148 11.62359383 2.3125 6.1875 C-0.60751647 3.47605614 -1.36131719 3.30363203 -5.1875 3.125 C-10.02621911 3.396999 -12.64359241 4.66039361 -16.3125 7.75 C-15.43519491 5.04497597 -14.59581029 3.06599994 -12.6875 0.9375 C-8.58937424 -1.11156288 -4.4491509 -0.48098929 0 0 Z " fill="#535234" transform="translate(37.3125,42.25)"/>
<path d="M0 0 C0.66 0.33 1.32 0.66 2 1 C0.7315625 2.0209375 0.7315625 2.0209375 -0.5625 3.0625 C-3.40976483 5.84494655 -3.40976483 5.84494655 -2.9375 9.75 C-2.628125 10.8225 -2.31875 11.895 -2 13 C-1.34 13.33 -0.68 13.66 0 14 C0 14.66 0 15.32 0 16 C0.99 16.33 1.98 16.66 3 17 C2.01 17.99 1.02 18.98 0 20 C0 19.01 0 18.02 0 17 C-2.31 17 -4.62 17 -7 17 C-7.66 14.03 -8.32 11.06 -9 8 C-8.01 8 -7.02 8 -6 8 C-5.938125 7.236875 -5.87625 6.47375 -5.8125 5.6875 C-5 3 -5 3 -2.5625 1.125 C-1.716875 0.75375 -0.87125 0.3825 0 0 Z " fill="#D7A71D" transform="translate(56,19)"/>
<path d="M0 0 C0.66 0.33 1.32 0.66 2 1 C1.48636193 4.76667915 0.73730949 7.64120164 -1 11 C-1 11.99 -1 12.98 -1 14 C-0.175 14.78375 0.65 15.5675 1.5 16.375 C4 19 4 19 4.3125 21.8125 C4.1578125 22.8953125 4.1578125 22.8953125 4 24 C2.64078414 22.69306167 1.31590635 21.35053546 0 20 C-0.55171875 19.46761719 -1.1034375 18.93523438 -1.671875 18.38671875 C-3.34528878 16.65573339 -4.76894052 15.07123512 -6 13 C-5.5 9.8125 -5.5 9.8125 -4 7 C-3.62875 6.21625 -3.2575 5.4325 -2.875 4.625 C-2.58625 4.08875 -2.2975 3.5525 -2 3 C-1.34 3 -0.68 3 0 3 C0 2.01 0 1.02 0 0 Z " fill="#FAB92A" transform="translate(124,44)"/>
<path d="M0 0 C0.66 0.33 1.32 0.66 2 1 C0.58402042 5.89156583 -1.54796184 10.22766515 -3.87890625 14.73046875 C-5.1000095 17.07229951 -5.1000095 17.07229951 -6 20 C-6.9075 19.95875 -7.815 19.9175 -8.75 19.875 C-11.8782046 19.99531556 -13.38614006 20.3914708 -16 22 C-15.34 20.35 -14.68 18.7 -14 17 C-11.69 17.33 -9.38 17.66 -7 18 C-7 17.34 -7 16.68 -7 16 C-7.639375 15.87625 -8.27875 15.7525 -8.9375 15.625 C-9.618125 15.41875 -10.29875 15.2125 -11 15 C-11.33 14.34 -11.66 13.68 -12 13 C-10.35 13.33 -8.7 13.66 -7 14 C-7 13.34 -7 12.68 -7 12 C-6.34 12 -5.68 12 -5 12 C-4.67 10.02 -4.34 8.04 -4 6 C-3.34 6 -2.68 6 -2 6 C-1.855625 5.195625 -1.71125 4.39125 -1.5625 3.5625 C-1 1 -1 1 0 0 Z " fill="#FFCF52" transform="translate(117,30)"/>
<path d="M0 0 C0.33 0 0.66 0 1 0 C1.12375 1.11375 1.2475 2.2275 1.375 3.375 C1.6465813 7.03103677 1.6465813 7.03103677 4 9 C-1.61 8.67 -7.22 8.34 -13 8 C-13.33 9.32 -13.66 10.64 -14 12 C-14 10.02 -14 8.04 -14 6 C-17.63 5.34 -21.26 4.68 -25 4 C-25 3.67 -25 3.34 -25 3 C-16.23594608 2.87048196 -8.32942339 2.95264998 0 6 C0 4.02 0 2.04 0 0 Z " fill="#757449" transform="translate(59,94)"/>
<path d="M0 0 C0.99 0.33 1.98 0.66 3 1 C3.29943374 4.05422415 3.43790025 6.95530529 3 10 C1.37446717 11.70680947 -0.29115995 13.37660195 -2 15 C-2.16669318 18.54171978 -2.16669318 18.54171978 -2 22 C-3.4921875 24.21484375 -3.4921875 24.21484375 -5 26 C-6.30825934 18.26420566 -6.18549027 13.72215105 -2 7 C-1.34 7 -0.68 7 0 7 C0 4.69 0 2.38 0 0 Z " fill="#E0BB4A" transform="translate(106,21)"/>
<path d="M0 0 C0.33 0.66 0.66 1.32 1 2 C1.66 1.67 2.32 1.34 3 1 C8.42307692 0.53846154 8.42307692 0.53846154 10.875 2.5 C11.24625 2.995 11.6175 3.49 12 4 C11.67 4.66 11.34 5.32 11 6 C10.67 5.01 10.34 4.02 10 3 C5.545 3.495 5.545 3.495 1 4 C0.54625 5.134375 0.0925 6.26875 -0.375 7.4375 C-2 11 -2 11 -4 12 C-4.14975239 19.05651252 -4.14975239 19.05651252 -3 26 C-5 25 -5 25 -6 22 C-6.70530641 14.19537988 -6.19662124 8.66522197 -2 2 C-1.34 1.34 -0.68 0.68 0 0 Z " fill="#B0B0B0" transform="translate(98,67)"/>
<path d="M0 0 C0.66 0 1.32 0 2 0 C2.09796875 0.556875 2.1959375 1.11375 2.296875 1.6875 C3.41251443 7.3811081 5.22238779 11.90771095 8 17 C8.33 16.34 8.66 15.68 9 15 C9.66 15.33 10.32 15.66 11 16 C10.67 17.32 10.34 18.64 10 20 C9.01 20 8.02 20 7 20 C7.33 21.32 7.66 22.64 8 24 C5.4500131 22.72500655 5.34023585 21.81508648 4.375 19.1875 C3.98441406 18.15689453 3.98441406 18.15689453 3.5859375 17.10546875 C3 15 3 15 3 11 C2.34 11 1.68 11 1 11 C-0.17571451 7.32589215 -0.07366746 3.83070817 0 0 Z " fill="#FBC73E" transform="translate(40,7)"/>
<path d="M0 0 C1.60031344 3.20062687 0.03173691 5.72271806 -1 9 C-2.98 9 -4.96 9 -7 9 C-7 8.34 -7 7.68 -7 7 C-11.29 7 -15.58 7 -20 7 C-20.33 5.02 -20.66 3.04 -21 1 C-20.01 2.485 -20.01 2.485 -19 4 C-16.24288731 4.54501065 -13.65847454 4.92549765 -10.875 5.1875 C-10.12089844 5.26935547 -9.36679687 5.35121094 -8.58984375 5.43554688 C-6.72783393 5.6358897 -4.86404189 5.81954036 -3 6 C-3 5.34 -3 4.68 -3 4 C-2.34 4 -1.68 4 -1 4 C-0.67 2.68 -0.34 1.36 0 0 Z " fill="#504A4A" transform="translate(67,112)"/>
<path d="M0 0 C0.66 0 1.32 0 2 0 C3.04976964 3.14930893 3.10131595 5.38814456 3.0625 8.6875 C3.05347656 9.68136719 3.04445312 10.67523438 3.03515625 11.69921875 C3.02355469 12.45847656 3.01195312 13.21773437 3 14 C1.02 12.35 -0.96 10.7 -3 9 C-2.44271087 5.65626525 -1.64826111 2.96687001 0 0 Z " fill="#C9D9E7" transform="translate(125,49)"/>
<path d="M0 0 C3.75431122 0.28879317 6.30384286 0.48704211 9.375 2.75 C11.15988669 5.22138157 11.66602151 6.99419362 12 10 C12.66 10 13.32 10 14 10 C14 10.99 14 11.98 14 13 C12.68 13 11.36 13 10 13 C9.67 11.02 9.34 9.04 9 7 C8.34 7 7.68 7 7 7 C7 6.34 7 5.68 7 5 C6.34 5 5.68 5 5 5 C5 4.34 5 3.68 5 3 C4.34 3 3.68 3 3 3 C3 2.34 3 1.68 3 1 C2.01 0.67 1.02 0.34 0 0 Z " fill="#D9B54A" transform="translate(80,4)"/>
<path d="M0 0 C6.4781443 0.48891655 6.4781443 0.48891655 8.703125 2.66796875 C10.34252119 5.61591913 10.43333543 7.70169556 10.4375 11.0625 C10.45683594 12.10535156 10.47617188 13.14820312 10.49609375 14.22265625 C10 17 10 17 7.97265625 18.87109375 C6.99619141 19.42990234 6.99619141 19.42990234 6 20 C6 19.01 6 18.02 6 17 C6.66 17 7.32 17 8 17 C7.88570603 15.22844346 7.75816963 13.45773771 7.625 11.6875 C7.55539063 10.70136719 7.48578125 9.71523437 7.4140625 8.69921875 C7.16134528 5.78471567 7.16134528 5.78471567 5 3 C2.43717258 2.27034634 2.43717258 2.27034634 0 2 C0 1.34 0 0.68 0 0 Z " fill="#FFB290" transform="translate(3,74)"/>
<path d="M0 0 C0.98226563 0.18046875 1.96453125 0.3609375 2.9765625 0.546875 C3.76804687 0.77890625 4.55953125 1.0109375 5.375 1.25 C5.705 1.91 6.035 2.57 6.375 3.25 C5.71113281 3.19199219 5.04726563 3.13398437 4.36328125 3.07421875 C-1.62701635 2.68052333 -1.62701635 2.68052333 -6.625 5.75 C-7.285 6.575 -7.945 7.4 -8.625 8.25 C-9.285 8.25 -9.945 8.25 -10.625 8.25 C-11.285 9.57 -11.945 10.89 -12.625 12.25 C-12.4375 8.9375 -12.4375 8.9375 -11.625 5.25 C-9.0625 3.3125 -9.0625 3.3125 -6.625 2.25 C-7.285 1.92 -7.945 1.59 -8.625 1.25 C-4.99767305 -1.16821796 -4.14149943 -0.8086305 0 0 Z " fill="#E5C542" transform="translate(30.625,39.75)"/>
<path d="M0 0 C3.63 0.33 7.26 0.66 11 1 C9.68 1.33 8.36 1.66 7 2 C7.165 2.804375 7.33 3.60875 7.5 4.4375 C8.09247348 8.65887352 8.08506709 12.74664545 8 17 C7.690625 16.360625 7.38125 15.72125 7.0625 15.0625 C6.1654837 13.06389179 6.1654837 13.06389179 5 12 C4.92794489 10.31391034 4.91613932 8.62499341 4.9375 6.9375 C4.94652344 6.01839844 4.95554687 5.09929687 4.96484375 4.15234375 C4.97644531 3.44207031 4.98804688 2.73179688 5 2 C3.35 2 1.7 2 0 2 C0 1.34 0 0.68 0 0 Z " fill="#281512" transform="translate(38,98)"/>
<path d="M0 0 C0.33 0 0.66 0 1 0 C1.04898438 0.61488281 1.09796875 1.22976562 1.1484375 1.86328125 C1.22320312 2.67152344 1.29796875 3.47976562 1.375 4.3125 C1.44460937 5.11300781 1.51421875 5.91351563 1.5859375 6.73828125 C1.89564426 9.27224441 1.89564426 9.27224441 4 12 C6.56282742 12.72965366 6.56282742 12.72965366 9 13 C9 13.66 9 14.32 9 15 C6.03 14.505 6.03 14.505 3 14 C2.67 14.99 2.34 15.98 2 17 C-0.77133606 11.57280022 -1.68096227 7.10246958 -1 1 C-0.67 0.67 -0.34 0.34 0 0 Z " fill="#D5D5D5" transform="translate(94,78)"/>
<path d="M0 0 C3.89799684 3.72851871 3.89799684 3.72851871 4.16796875 7.09375 C4.17441406 7.8878125 4.18085937 8.681875 4.1875 9.5 C4.20167969 10.2940625 4.21585938 11.088125 4.23046875 11.90625 C4 14 4 14 2 16 C2 15.01 2 14.02 2 13 C1.34 12.67 0.68 12.34 0 12 C0.66 12 1.32 12 2 12 C1.1395861 7.66770285 1.1395861 7.66770285 -1 4 C-3.32817964 3.63239269 -5.6618385 3.29758419 -8 3 C-8 2.67 -8 2.34 -8 2 C-5.36 2 -2.72 2 0 2 C0 1.34 0 0.68 0 0 Z " fill="#908F8F" transform="translate(38,47)"/>
<path d="M0 0 C6.67491831 -0.45510807 12.59374557 1.2327574 19 3 C19 3.33 19 3.66 19 4 C15.04 3.67 11.08 3.34 7 3 C6.34 4.65 5.68 6.3 5 8 C4.67 7.34 4.34 6.68 4 6 C4.33 5.01 4.66 4.02 5 3 C4.01 3 3.02 3 2 3 C2 2.34 2 1.68 2 1 C1.34 0.67 0.68 0.34 0 0 Z " fill="#47462F" transform="translate(64,103)"/>
<path d="M0 0 C0.99 0 1.98 0 3 0 C3.33 0.66 3.66 1.32 4 2 C3.67 2.66 3.34 3.32 3 4 C2.34 4 1.68 4 1 4 C1 4.66 1 5.32 1 6 C0.34 6 -0.32 6 -1 6 C-1.33 10.29 -1.66 14.58 -2 19 C-2.33 19 -2.66 19 -3 19 C-4.30825934 11.26420566 -4.18549027 6.72215105 0 0 Z " fill="#8C8B6C" transform="translate(20,48)"/>
<path d="M0 0 C3.36591866 1.44253657 5.51047079 3.33264727 8 6 C6.68 6.33 5.36 6.66 4 7 C3.34 5.68 2.68 4.36 2 3 C1.60167969 3.51175781 1.20335938 4.02351563 0.79296875 4.55078125 C-1 6 -1 6 -3.26171875 5.85546875 C-4.06222656 5.63503906 -4.86273438 5.41460937 -5.6875 5.1875 C-6.49574219 4.97480469 -7.30398437 4.76210938 -8.13671875 4.54296875 C-8.75160156 4.36378906 -9.36648437 4.18460938 -10 4 C-10 3.67 -10 3.34 -10 3 C-8.72125 2.87625 -7.4425 2.7525 -6.125 2.625 C-2.65209064 2.30957601 -2.65209064 2.30957601 0 0 Z " fill="#E5C249" transform="translate(69,47)"/>
<path d="M0 0 C0.66 0 1.32 0 2 0 C1.67 1.65 1.34 3.3 1 5 C-0.74784829 5.36463732 -2.49840502 5.7163078 -4.25 6.0625 C-5.71179688 6.35833984 -5.71179688 6.35833984 -7.203125 6.66015625 C-9.868119 6.98397535 -11.48871723 6.85503199 -14 6 C-9.60555874 3.53482564 -5.95759667 2.68045445 -1 2 C-0.67 1.34 -0.34 0.68 0 0 Z " fill="#FCB827" transform="translate(41,33)"/>
<path d="M0 0 C0 0.33 0 0.66 0 1 C-0.61488281 1.12375 -1.22976562 1.2475 -1.86328125 1.375 C-6.8166326 2.52702031 -6.8166326 2.52702031 -10.265625 5.98046875 C-11.19133266 8.42318945 -11.19133266 8.42318945 -12 12 C-11.34 12 -10.68 12 -10 12 C-10 12.66 -10 13.32 -10 14 C-10.99 13.67 -11.98 13.34 -13 13 C-13.8125 9.8125 -13.8125 9.8125 -14 6 C-9.82690972 0.66771798 -6.55311302 -0.14562473 0 0 Z " fill="#F3E18F" transform="translate(66,19)"/>
<path d="M0 0 C0.33 0 0.66 0 1 0 C1.03738281 0.80824219 1.07476562 1.61648437 1.11328125 2.44921875 C1.17902344 3.51785156 1.24476562 4.58648437 1.3125 5.6875 C1.37050781 6.74324219 1.42851563 7.79898438 1.48828125 8.88671875 C2.2026191 13.23272841 3.91533393 15.91533393 7 19 C9.32275177 19.40047444 11.65739357 19.7397104 14 20 C14 20.33 14 20.66 14 21 C6.75898264 21.61364554 6.75898264 21.61364554 3.0625 18.625 C-0.21836279 14.44935645 -0.11065119 12.17163081 -0.0625 6.875 C-0.05347656 5.59367187 -0.04445313 4.31234375 -0.03515625 2.9921875 C-0.02355469 2.00476563 -0.01195313 1.01734375 0 0 Z " fill="#4E4C39" transform="translate(91,77)"/>
<path d="M0 0 C1.32 0 2.64 0 4 0 C4 2.97 4 5.94 4 9 C5.32 9.33 6.64 9.66 8 10 C4.28400809 10.20086443 3.22791555 10.1519437 0 8 C-0.40843923 5.28796348 -0.13336867 2.7562858 0 0 Z " fill="#B2AA45" transform="translate(58,92)"/>
<path d="M0 0 C0.99 0.33 1.98 0.66 3 1 C3 3.97 3 6.94 3 10 C1.68 10.33 0.36 10.66 -1 11 C-0.67 7.37 -0.34 3.74 0 0 Z " fill="#D8AF31" transform="translate(106,21)"/>
<path d="M0 0 C0.33 0 0.66 0 1 0 C0.125 6.75 0.125 6.75 -1 9 C-1.66 9 -2.32 9 -3 9 C-3 12.96 -3 16.92 -3 21 C-3.33 21 -3.66 21 -4 21 C-4 16.38 -4 11.76 -4 7 C-3.34 7 -2.68 7 -2 7 C-1.855625 6.030625 -1.71125 5.06125 -1.5625 4.0625 C-1 1 -1 1 0 0 Z " fill="#888743" transform="translate(94,68)"/>
<path d="M0 0 C6.15222436 0.43173504 9.81917949 1.65405342 15 5 C14.67 5.66 14.34 6.32 14 7 C11.525 6.01 11.525 6.01 9 5 C9 4.34 9 3.68 9 3 C8.01 3.33 7.02 3.66 6 4 C2.8125 2.5625 2.8125 2.5625 0 1 C0 0.67 0 0.34 0 0 Z " fill="#2A1F0E" transform="translate(87,110)"/>
<path d="M0 0 C2.125 0.375 2.125 0.375 4 1 C3.01 1 2.02 1 1 1 C1 2.32 1 3.64 1 5 C1.66 5.33 2.32 5.66 3 6 C2.67 7.98 2.34 9.96 2 12 C0.68 12.33 -0.64 12.66 -2 13 C-1.67 12.34 -1.34 11.68 -1 11 C-0.34 11 0.32 11 1 11 C0.01 8.03 -0.98 5.06 -2 2 C-1.34 1.34 -0.68 0.68 0 0 Z " fill="#7A7878" transform="translate(106,78)"/>
<path d="M0 0 C3.96 0 7.92 0 12 0 C11.34 0.66 10.68 1.32 10 2 C10.33 2.66 10.66 3.32 11 4 C3.375 3.375 3.375 3.375 0 0 Z " fill="#DBB12C" transform="translate(74,53)"/>
<path d="M0 0 C0.66 0.33 1.32 0.66 2 1 C1.45660208 5.56454251 0.20536179 8.9728176 -2 13 C-3.231394 9.30581799 -2.64432764 6.7943739 -2 3 C-1.34 3 -0.68 3 0 3 C0 2.01 0 1.02 0 0 Z " fill="#F4BC49" transform="translate(124,44)"/>
<path d="M0 0 C2.64 1.65 5.28 3.3 8 5 C7.67 5.66 7.34 6.32 7 7 C4.69 6.67 2.38 6.34 0 6 C0 4.02 0 2.04 0 0 Z " fill="#FDF660" transform="translate(97,10)"/>
<path d="M0 0 C1.98 0 3.96 0 6 0 C6 1.65 6 3.3 6 5 C4.35 5 2.7 5 1 5 C0.67 3.35 0.34 1.7 0 0 Z " fill="#D8D8D8" transform="translate(34,60)"/>
<path d="M0 0 C0.66 0 1.32 0 2 0 C0.91343356 4.93133998 -0.1009238 8.78316189 -3 13 C-4 11 -4 11 -3.4765625 8.90625 C-3.19554688 8.1121875 -2.91453125 7.318125 -2.625 6.5 C-2.21121094 5.30890625 -2.21121094 5.30890625 -1.7890625 4.09375 C-1 2 -1 2 0 0 Z " fill="#320505" transform="translate(70,108)"/>
<path d="M0 0 C-6 4 -6 4 -12 8 C-11.38722388 5.03824877 -10.74627478 3.61941217 -9 1 C-5.8035914 -0.06546953 -3.34252724 -0.07427838 0 0 Z " fill="#54512D" transform="translate(107,62)"/>
<path d="M0 0 C0 0.33 0 0.66 0 1 C-1.794375 1.12375 -1.794375 1.12375 -3.625 1.25 C-8.04377027 1.7767929 -10.51439983 3.29865987 -14 6 C-13.11789954 3.28019026 -12.21954259 1.26176232 -10.375 -0.9375 C-6.58426034 -2.63335722 -3.88501739 -1.23025551 0 0 Z " fill="#69674B" transform="translate(35,44)"/>
<path d="M0 0 C3.63 0.33 7.26 0.66 11 1 C8 4 8 4 4.8125 4.1875 C3.4203125 4.0946875 3.4203125 4.0946875 2 4 C1.34 2.68 0.68 1.36 0 0 Z " fill="#D7AD21" transform="translate(56,50)"/>
<path d="M0 0 C0.66 0 1.32 0 2 0 C2.268125 0.78375 2.53625 1.5675 2.8125 2.375 C3.84814432 5.28114923 3.84814432 5.28114923 7 7 C7 7.66 7 8.32 7 9 C5.35 9 3.7 9 2 9 C1.34 6.03 0.68 3.06 0 0 Z " fill="#FAB71C" transform="translate(47,27)"/>
<path d="M0 0 C0.66 0.33 1.32 0.66 2 1 C1.67 1.99 1.34 2.98 1 4 C-0.36125 3.938125 -0.36125 3.938125 -1.75 3.875 C-4.8782046 3.99531556 -6.38614006 4.3914708 -9 6 C-8.34 4.35 -7.68 2.7 -7 1 C-4.69 1.33 -2.38 1.66 0 2 C0 1.34 0 0.68 0 0 Z " fill="#F8E248" transform="translate(110,46)"/>
<path d="M0 0 C0.75 1.6875 0.75 1.6875 1 4 C-1.13381449 7.2769294 -2.25018012 8.75006004 -6 10 C-6.66 9.34 -7.32 8.68 -8 8 C-7.05125 7.4225 -6.1025 6.845 -5.125 6.25 C-2.23865902 4.17183449 -1.15904259 3.24531925 0 0 Z " fill="#69694B" transform="translate(39,67)"/>
<path d="M0 0 C0.66 0 1.32 0 2 0 C2.33 3.3 2.66 6.6 3 10 C2.01 10.495 2.01 10.495 1 11 C-0.17571451 7.32589215 -0.07366746 3.83070817 0 0 Z " fill="#FFD544" transform="translate(40,7)"/>
<path d="M0 0 C3.60296594 -0.41176754 4.78402067 -0.1535853 7.8125 2 C8.534375 2.66 9.25625 3.32 10 4 C7 5 7 5 4 4 C4 3.34 4 2.68 4 2 C2.35 2 0.7 2 -1 2 C-0.67 1.34 -0.34 0.68 0 0 Z " fill="#F56C55" transform="translate(54,77)"/>
<path d="M0 0 C0.33 0 0.66 0 1 0 C1.33 4.29 1.66 8.58 2 13 C1.67 12.01 1.34 11.02 1 10 C0.34 10 -0.32 10 -1 10 C-0.67 6.7 -0.34 3.4 0 0 Z " fill="#969652" transform="translate(116,69)"/>
<path d="M0 0 C0.33 0 0.66 0 1 0 C1.144375 1.0725 1.28875 2.145 1.4375 3.25 C1.87348673 6.78337031 1.87348673 6.78337031 2.6875 9.25 C3 11 3 11 1 14 C-0.04976964 10.85069107 -0.10131595 8.61185544 -0.0625 5.3125 C-0.05347656 4.31863281 -0.04445313 3.32476562 -0.03515625 2.30078125 C-0.02355469 1.54152344 -0.01195312 0.78226563 0 0 Z " fill="#63633D" transform="translate(16,60)"/>
<path d="M0 0 C0 0.33 0 0.66 0 1 C-0.886875 1.268125 -1.77375 1.53625 -2.6875 1.8125 C-5.76877548 2.91710819 -8.26221405 4.22849144 -11 6 C-8.67640938 -0.47285958 -6.6985661 -0.12404752 0 0 Z " fill="#454545" transform="translate(37,50)"/>
<path d="M0 0 C0.66 0 1.32 0 2 0 C2.66 1.98 3.32 3.96 4 6 C2.35 5.67 0.7 5.34 -1 5 C-1.33 4.01 -1.66 3.02 -2 2 C-1.34 2 -0.68 2 0 2 C0 1.34 0 0.68 0 0 Z " fill="#E8B942" transform="translate(104,16)"/>
<path d="M0 0 C0.99 0 1.98 0 3 0 C4.06775224 1.96466413 5.06553465 3.96855359 6 6 C5.67 6.66 5.34 7.32 5 8 C4.34 7.67 3.68 7.34 3 7 C3 6.34 3 5.68 3 5 C2.34 5 1.68 5 1 5 C0.67 3.35 0.34 1.7 0 0 Z " fill="#F7C443" transform="translate(30,12)"/>
<path d="M0 0 C0.99 0.33 1.98 0.66 3 1 C3 2.98 3 4.96 3 7 C2.01 7 1.02 7 0 7 C0 4.69 0 2.38 0 0 Z " fill="#FDB727" transform="translate(94,9)"/>
<path d="M0 0 C0.66 0.33 1.32 0.66 2 1 C2.4140625 3.06640625 2.4140625 3.06640625 2.625 5.5625 C2.69976562 6.38878906 2.77453125 7.21507813 2.8515625 8.06640625 C2.90054688 8.70449219 2.94953125 9.34257813 3 10 C2.70351562 9.39671875 2.40703125 8.7934375 2.1015625 8.171875 C0.85017604 5.70460241 -0.5578485 3.35988427 -2 1 C-1.34 0.67 -0.68 0.34 0 0 Z " fill="#716F4D" transform="translate(113,65)"/>
<path d="M0 0 C1.32 0.33 2.64 0.66 4 1 C4.33 3.31 4.66 5.62 5 8 C2.20127563 5.47211993 0.54226981 3.79588866 0 0 Z " fill="#FBAD1C" transform="translate(123,60)"/>
<path d="M0 0 C0.66 0.33 1.32 0.66 2 1 C1.01 2.485 1.01 2.485 0 4 C-0.66 4 -1.32 4 -2 4 C-2.66 5.32 -3.32 6.64 -4 8 C-3.67 5.69 -3.34 3.38 -3 1 C-2.01 0.67 -1.02 0.34 0 0 Z " fill="#ECE250" transform="translate(22,44)"/>
<path d="M0 0 C2.475 0.495 2.475 0.495 5 1 C5 2.98 5 4.96 5 7 C4.34 7 3.68 7 3 7 C2.01 4.69 1.02 2.38 0 0 Z " fill="#CBD3CF" transform="translate(89,7)"/>
<path d="M0 0 C1.98 0 3.96 0 6 0 C5.01 1.485 5.01 1.485 4 3 C3.34 3 2.68 3 2 3 C2 3.66 2 4.32 2 5 C1.34 5 0.68 5 0 5 C0 3.35 0 1.7 0 0 Z " fill="#E1AF23" transform="translate(59,2)"/>
<path d="M0 0 C0.33 0 0.66 0 1 0 C1.12375 1.11375 1.2475 2.2275 1.375 3.375 C1.6465813 7.03103677 1.6465813 7.03103677 4 9 C2.02 9 0.04 9 -2 9 C-1.34 6.03 -0.68 3.06 0 0 Z " fill="#38381E" transform="translate(59,94)"/>
<path d="M0 0 C0.66 0.33 1.32 0.66 2 1 C2 2.32 2 3.64 2 5 C-1.3 4.34 -4.6 3.68 -8 3 C-8 2.67 -8 2.34 -8 2 C-5.36 2 -2.72 2 0 2 C0 1.34 0 0.68 0 0 Z " fill="#B6B5B5" transform="translate(38,47)"/>
</svg>
