<?xml version="1.0" encoding="UTF-8"?>
<svg version="1.1" xmlns="http://www.w3.org/2000/svg" width="129" height="128">
<path d="M0 0 C42.57 0 85.14 0 129 0 C129 42.24 129 84.48 129 128 C86.43 128 43.86 128 0 128 C0 85.76 0 43.52 0 0 Z " fill="#FBC795" transform="translate(0,0)"/>
<path d="M0 0 C42.57 0 85.14 0 129 0 C129 42.24 129 84.48 129 128 C86.43 128 43.86 128 0 128 C0 85.76 0 43.52 0 0 Z M19 21 C18.43023438 21.57363281 17.86046875 22.14726562 17.2734375 22.73828125 C5.70279409 35.16930584 1.34260981 51.84675303 1.65625 68.40625 C2.4745987 84.55499776 10.84165869 98.78209459 22 110 C22.51820312 110.55300781 23.03640625 111.10601562 23.5703125 111.67578125 C27.47004048 115.4632134 32.13508873 117.80399678 36.9375 120.25 C37.60595947 120.5917627 38.27441895 120.93352539 38.96313477 121.28564453 C52.00371398 127.66994566 70.0221486 128.77941161 83.875 124.3125 C85.60322178 123.58735431 87.31412099 122.81877882 89 122 C90.27617187 121.45666016 90.27617187 121.45666016 91.578125 120.90234375 C108.08417542 113.43411542 116.77611721 100.89254215 124 85 C124.38542969 84.15824219 124.77085938 83.31648438 125.16796875 82.44921875 C130.18573792 67.67860246 127.70501992 49.71538354 121.3125 35.9375 C113.33140191 20.72414759 100.68313587 9.8422576 84.62890625 3.8125 C60.9561179 -3.50390413 35.98622948 3.13517245 19 21 Z " fill="#FDFEFC" transform="translate(0,0)"/>
<path d="M0 0 C11.74617232 9.35949986 20.15017325 20.93285101 23.625 35.6875 C23.88301392 36.60656128 23.88301392 36.60656128 24.14624023 37.54418945 C25.01640495 41.43974071 24.80958754 45.39949621 24.8125 49.375 C24.82474609 50.23544922 24.83699219 51.09589844 24.84960938 51.98242188 C24.88584659 68.01134987 18.29833964 83.83786371 7.25 95.5 C-2.53668478 104.6875 -2.53668478 104.6875 -7.375 104.6875 C-7.375 104.0275 -7.375 103.3675 -7.375 102.6875 C-6.715 102.6875 -6.055 102.6875 -5.375 102.6875 C-5.375 102.0275 -5.375 101.3675 -5.375 100.6875 C-3.66733767 99.38025505 -1.90718189 98.14117259 -0.125 96.9375 C4.29202558 93.83027277 6.96349556 91.31620337 9.625 86.6875 C10.285 86.6875 10.945 86.6875 11.625 86.6875 C11.810625 85.140625 11.810625 85.140625 12 83.5625 C12.625 79.6875 12.625 79.6875 13.6484375 77.0703125 C14.95201965 72.55470393 14.91624164 68.36155234 14.875 63.6875 C14.88273437 62.8109375 14.89046875 61.934375 14.8984375 61.03125 C14.88374817 56.15439137 14.43071534 52.2819649 12.625 47.6875 C12.1875 44.5 12.1875 44.5 12.625 41.6875 C15.0625 40 15.0625 40 17.625 38.6875 C18.55749614 35.89001159 18.75976152 34.14429119 18.75 31.25 C18.75257812 30.48816406 18.75515625 29.72632813 18.7578125 28.94140625 C18.62776015 26.73434141 18.23356199 24.80780724 17.625 22.6875 C16.965 22.6875 16.305 22.6875 15.625 22.6875 C15.150625 22.048125 14.67625 21.40875 14.1875 20.75 C12.7158635 18.40377037 12.7158635 18.40377037 9.625 17.6875 C9.625 17.0275 9.625 16.3675 9.625 15.6875 C5.665 15.6875 1.705 15.6875 -2.375 15.6875 C-2.375 16.3475 -2.375 17.0075 -2.375 17.6875 C-3.695 18.0175 -5.015 18.3475 -6.375 18.6875 C-6.375 19.3475 -6.375 20.0075 -6.375 20.6875 C-8.025 20.6875 -9.675 20.6875 -11.375 20.6875 C-11.56835938 20.08421875 -11.76171875 19.4809375 -11.9609375 18.859375 C-12.22132812 18.06015625 -12.48171875 17.2609375 -12.75 16.4375 C-13.00523438 15.64859375 -13.26046875 14.8596875 -13.5234375 14.046875 C-15.29577858 9.13635202 -17.08605188 6.77953237 -21.375 3.6875 C-22.426875 2.82125 -22.426875 2.82125 -23.5 1.9375 C-29.89860759 -0.8445033 -37.65110004 0.49214001 -44.375 1.6875 C-44.375 2.3475 -44.375 3.0075 -44.375 3.6875 C-47.83653846 6.6875 -47.83653846 6.6875 -50.375 6.6875 C-50.87 8.1725 -50.87 8.1725 -51.375 9.6875 C-52.035 9.6875 -52.695 9.6875 -53.375 9.6875 C-53.375 10.3475 -53.375 11.0075 -53.375 11.6875 C-56.1875 12 -56.1875 12 -59.375 11.6875 C-61.0625 9.25 -61.0625 9.25 -62.375 6.6875 C-63.365 6.3575 -64.355 6.0275 -65.375 5.6875 C-65.375 5.0275 -65.375 4.3675 -65.375 3.6875 C-73.4833649 3.66853163 -73.4833649 3.66853163 -80.5625 7.0625 C-82.50633767 9.61682936 -82.50633767 9.61682936 -83.375 12.6875 C-84.035 12.6875 -84.695 12.6875 -85.375 12.6875 C-84.24802957 17.65661366 -84.24802957 17.65661366 -81.375 21.6875 C-81.375 22.6775 -81.375 23.6675 -81.375 24.6875 C-83.04166667 26.35416667 -84.70833333 28.02083333 -86.375 29.6875 C-88.16820824 32.85395474 -88.16820824 32.85395474 -89.375 35.6875 C-90.035 35.6875 -90.695 35.6875 -91.375 35.6875 C-91.375 36.6775 -91.375 37.6675 -91.375 38.6875 C-92.035 38.6875 -92.695 38.6875 -93.375 38.6875 C-95.66294515 57.56957967 -95.66294515 57.56957967 -91.375 75.6875 C-90.98828125 76.54085937 -90.6015625 77.39421875 -90.203125 78.2734375 C-84.84741352 89.54687956 -77.56756561 95.49095168 -66.375 100.6875 C-66.375 101.3475 -66.375 102.0075 -66.375 102.6875 C-76.10324887 100.9707502 -81.07092353 97.22900725 -87.375 89.6875 C-98.21166631 74.19577877 -102.41804441 57.85961667 -99.8984375 39.1484375 C-97.58839802 27.48691289 -92.16479816 17.57821182 -84.375 8.6875 C-83.80394531 8.01074219 -83.23289062 7.33398438 -82.64453125 6.63671875 C-61.42567085 -16.6633092 -24.75418029 -17.8329863 0 0 Z " fill="#39C965" transform="translate(102.375,13.3125)"/>
<path d="M0 0 C4.50234373 -0.04944705 9.0045293 -0.08574161 13.50708008 -0.10986328 C15.03868361 -0.11991935 16.57026795 -0.133566 18.10180664 -0.15087891 C20.30359636 -0.17514498 22.50513219 -0.18648688 24.70703125 -0.1953125 C25.39150833 -0.20563507 26.07598541 -0.21595764 26.78120422 -0.22659302 C30.43061661 -0.22745382 31.87148502 -0.08567666 35 2 C33.35 2 31.7 2 30 2 C30.62279669 3.58420129 31.24833401 5.16732531 31.875 6.75 C32.22304688 7.63171875 32.57109375 8.5134375 32.9296875 9.421875 C33.28289063 10.27265625 33.63609375 11.1234375 34 12 C34.2578125 12.7425 34.515625 13.485 34.78125 14.25 C35.92136408 16.26559232 35.92136408 16.26559232 38.6015625 16.828125 C39.59929688 16.96734375 40.59703125 17.1065625 41.625 17.25 C43.39875 17.4975 45.1725 17.745 47 18 C47.495 11.565 47.495 11.565 48 5 C42.555 4.505 42.555 4.505 37 4 C37 3.01 37 2.02 37 1 C43.98983568 1.8929746 50.57587715 3.6776734 57.25 5.875 C58.00587402 6.11943848 58.76174805 6.36387695 59.54052734 6.61572266 C65.69041116 8.69267486 70.82145106 11.50491739 76.1875 15.1875 C78.60824211 16.7475338 80.19902491 17.56908075 83 18 C82.49220121 22.39831879 81.03107731 24.57551606 78.0625 27.8125 C77.35222656 28.60269531 76.64195313 29.39289063 75.91015625 30.20703125 C74 32 74 32 72 32 C71.7834375 32.61359375 71.566875 33.2271875 71.34375 33.859375 C68.96308945 37.65182262 65.12290881 38.07558553 60.984375 39.234375 C50.55176618 41.5069291 39.29570251 41.58131092 30 36 C29.34257813 35.72285156 28.68515625 35.44570312 28.0078125 35.16015625 C21.71695723 32.50428934 17.60465955 27.91625306 13 23 C12.29230469 22.31164062 11.58460937 21.62328125 10.85546875 20.9140625 C8.29213547 18.26978185 6.68844755 15.2366991 5 12 C4.55011719 11.14019531 4.10023437 10.28039062 3.63671875 9.39453125 C0 2.29524648 0 2.29524648 0 0 Z " fill="#620101" transform="translate(13,77)"/>
<path d="M0 0 C5.31991516 3.73660708 10.07563848 7.17344379 11.46484375 13.84375 C11.52285156 14.62105469 11.58085938 15.39835937 11.640625 16.19921875 C11.70636719 16.98941406 11.77210937 17.77960937 11.83984375 18.59375 C11.87722656 19.18542969 11.91460937 19.77710937 11.953125 20.38671875 C1.24576244 20.74562476 -10.27795959 20.79107613 -20.171875 16.26171875 C-28.98144402 12.33985081 -38.97487052 14.09311942 -48.046875 16.38671875 C-48.046875 17.37671875 -48.046875 18.36671875 -48.046875 19.38671875 C-48.76875 19.57234375 -49.490625 19.75796875 -50.234375 19.94921875 C-53.57059494 21.65439783 -54.76567115 23.43631548 -56.73828125 26.53515625 C-58.046875 28.38671875 -58.046875 28.38671875 -60.03125 30.27734375 C-62.28770947 32.63875482 -63.41241642 34.78418429 -64.734375 37.76171875 C-65.15074219 38.67695312 -65.56710938 39.5921875 -65.99609375 40.53515625 C-68.03426329 46.06624832 -68.18291535 51.42374653 -68.109375 57.26171875 C-68.10260742 58.29425781 -68.10260742 58.29425781 -68.09570312 59.34765625 C-68.08403836 61.0273821 -68.06610771 62.7070625 -68.046875 64.38671875 C-67.716875 63.39671875 -67.386875 62.40671875 -67.046875 61.38671875 C-56.156875 61.38671875 -45.266875 61.38671875 -34.046875 61.38671875 C-34.046875 61.71671875 -34.046875 62.04671875 -34.046875 62.38671875 C-44.606875 62.38671875 -55.166875 62.38671875 -66.046875 62.38671875 C-64.726875 65.35671875 -63.406875 68.32671875 -62.046875 71.38671875 C-62.541875 72.37671875 -62.541875 72.37671875 -63.046875 73.38671875 C-64.036875 71.73671875 -65.026875 70.08671875 -66.046875 68.38671875 C-65.716875 71.68671875 -65.386875 74.98671875 -65.046875 78.38671875 C-64.386875 78.38671875 -63.726875 78.38671875 -63.046875 78.38671875 C-62.76714844 79.0621875 -62.48742188 79.73765625 -62.19921875 80.43359375 C-59.3628415 86.74476114 -57.31984177 89.49150332 -51.046875 92.38671875 C-50.551875 93.37671875 -50.551875 93.37671875 -50.046875 94.38671875 C-47.7328128 95.11747523 -45.39858631 95.78810133 -43.046875 96.38671875 C-43.046875 97.04671875 -43.046875 97.70671875 -43.046875 98.38671875 C-42.386875 98.38671875 -41.726875 98.38671875 -41.046875 98.38671875 C-40.716875 99.37671875 -40.386875 100.36671875 -40.046875 101.38671875 C-42.88771141 102.80713696 -44.90164778 102.70124147 -48.046875 102.38671875 C-50.421875 100.38671875 -50.421875 100.38671875 -52.046875 98.38671875 C-48.89950318 99.08613471 -46.02098624 100.14750573 -43.046875 101.38671875 C-44.41394463 98.65257949 -45.97783997 98.33917578 -48.734375 97.07421875 C-60.35880229 91.38602104 -66.58065557 82.290706 -71.046875 70.38671875 C-73.81735693 59.92814946 -72.2575215 47.80833795 -70.046875 37.38671875 C-69.386875 37.38671875 -68.726875 37.38671875 -68.046875 37.38671875 C-68.046875 36.39671875 -68.046875 35.40671875 -68.046875 34.38671875 C-67.056875 33.89171875 -67.056875 33.89171875 -66.046875 33.38671875 C-65.758125 32.64421875 -65.469375 31.90171875 -65.171875 31.13671875 C-63.89641876 28.01893682 -62.31384904 25.8662216 -60.046875 23.38671875 C-59.386875 23.38671875 -58.726875 23.38671875 -58.046875 23.38671875 C-58.706875 22.33484375 -59.366875 21.28296875 -60.046875 20.19921875 C-61.8240335 17.12047938 -62.48494006 15.00075547 -62.046875 11.38671875 C-61.386875 11.38671875 -60.726875 11.38671875 -60.046875 11.38671875 C-59.985 10.82984375 -59.923125 10.27296875 -59.859375 9.69921875 C-58.57213047 6.03552277 -57.24937444 4.64730659 -54.046875 2.38671875 C-50.01297718 1.96126859 -46.0874332 2.09672653 -42.046875 2.38671875 C-42.046875 3.04671875 -42.046875 3.70671875 -42.046875 4.38671875 C-41.428125 4.44859375 -40.809375 4.51046875 -40.171875 4.57421875 C-38.046875 5.38671875 -38.046875 5.38671875 -36.796875 7.94921875 C-36.549375 8.75359375 -36.301875 9.55796875 -36.046875 10.38671875 C-34.066875 10.38671875 -32.086875 10.38671875 -30.046875 10.38671875 C-30.046875 9.72671875 -30.046875 9.06671875 -30.046875 8.38671875 C-28.5859375 6.87890625 -28.5859375 6.87890625 -26.671875 5.26171875 C-26.04539063 4.72289062 -25.41890625 4.1840625 -24.7734375 3.62890625 C-23.046875 2.38671875 -23.046875 2.38671875 -21.046875 2.38671875 C-21.046875 1.72671875 -21.046875 1.06671875 -21.046875 0.38671875 C-14.03554003 -2.10620035 -6.83923767 -3.62128867 0 0 Z " fill="#F9963B" transform="translate(79.046875,14.61328125)"/>
<path d="M0 0 C0 1.65 0 3.3 0 5 C3.96 5.33 7.92 5.66 12 6 C12.495 7.98 12.495 7.98 13 10 C11.25183142 10.50636607 9.50137737 11.00484619 7.75 11.5 C6.77546875 11.7784375 5.8009375 12.056875 4.796875 12.34375 C2 13 2 13 -2 13 C-2 13.66 -2 14.32 -2 15 C-5.46153846 18 -5.46153846 18 -8 18 C-8.495 19.485 -8.495 19.485 -9 21 C-9.66 21 -10.32 21 -11 21 C-11 21.66 -11 22.32 -11 23 C-13.8125 23.3125 -13.8125 23.3125 -17 23 C-18.6875 20.5625 -18.6875 20.5625 -20 18 C-20.99 17.67 -21.98 17.34 -23 17 C-23 16.34 -23 15.68 -23 15 C-31.1083649 14.98103163 -31.1083649 14.98103163 -38.1875 18.375 C-40.13133767 20.92932936 -40.13133767 20.92932936 -41 24 C-41.66 24 -42.32 24 -43 24 C-41.87302957 28.96911366 -41.87302957 28.96911366 -39 33 C-39 33.99 -39 34.98 -39 36 C-40.66666667 37.66666667 -42.33333333 39.33333333 -44 41 C-45.79320824 44.16645474 -45.79320824 44.16645474 -47 47 C-47.66 47 -48.32 47 -49 47 C-49 47.99 -49 48.98 -49 50 C-49.66 50 -50.32 50 -51 50 C-53.28794515 68.88207967 -53.28794515 68.88207967 -49 87 C-48.61328125 87.85335937 -48.2265625 88.70671875 -47.828125 89.5859375 C-42.47241352 100.85937956 -35.19256561 106.80345168 -24 112 C-24 112.66 -24 113.32 -24 114 C-33.72824887 112.2832502 -38.69592353 108.54150725 -45 101 C-55.83666631 85.50827877 -60.04304441 69.17211667 -57.5234375 50.4609375 C-55.21339802 38.79941289 -49.78979816 28.89071182 -42 20 C-41.42894531 19.32324219 -40.85789062 18.64648438 -40.26953125 17.94921875 C-30.80414581 7.55545862 -14.33350946 -1.33334972 0 0 Z " fill="#44CB69" transform="translate(60,2)"/>
<path d="M0 0 C3 2 3 2 4 5 C4.78375 5.78375 5.5675 6.5675 6.375 7.375 C8.81675556 9.81675556 10.43086473 11.94431553 12 15 C12 15.66 12 16.32 12 17 C12.60070313 17.26425781 13.20140625 17.52851562 13.8203125 17.80078125 C16.09443898 19.05195836 17.21198619 20.22334586 18.875 22.1875 C24.09928593 27.62851395 34.54205842 33.72683857 42.26831055 34.11352539 C43.13238525 34.10828857 43.99645996 34.10305176 44.88671875 34.09765625 C45.82451172 34.09443359 46.76230469 34.09121094 47.72851562 34.08789062 C48.70498047 34.07951172 49.68144531 34.07113281 50.6875 34.0625 C51.67556641 34.05798828 52.66363281 34.05347656 53.68164062 34.04882812 C56.12115474 34.03704303 58.56054689 34.02059011 61 34 C61 34.66 61 35.32 61 36 C63.5437873 35.74320437 66.08405374 35.47007458 68.625 35.1875 C69.33785156 35.11724609 70.05070312 35.04699219 70.78515625 34.97460938 C75.45529779 34.43904268 78.80728847 33.24389987 83 31 C83.99 31 84.98 31 86 31 C86 30.34 86 29.68 86 29 C87.609375 27.4140625 87.609375 27.4140625 89.75 25.625 C92.06903702 23.66242273 94.25219284 21.7411705 96.375 19.5625 C98 18 98 18 100 18 C98.59868598 22.6960702 96.29614189 24.80056111 92.5 27.8125 C91.5203125 28.60269531 90.540625 29.39289063 89.53125 30.20703125 C87 32 87 32 85 32 C85 32.66 85 33.32 85 34 C84.34 34 83.68 34 83 34 C83.33 34.99 83.66 35.98 84 37 C82.14801206 37.79675015 80.2932889 38.58714361 78.4375 39.375 C76.88869141 40.03628906 76.88869141 40.03628906 75.30859375 40.7109375 C67.8144024 43.63075231 61.35301469 44.38742681 53.375 44.375 C52.30701172 44.37338867 51.23902344 44.37177734 50.13867188 44.37011719 C38.84690309 44.19486454 29.90531541 41.43821238 20 36 C20 35.67 20 35.34 20 35 C21.98 34.34 23.96 33.68 26 33 C26 32.34 26 31.68 26 31 C25.34 31 24.68 31 24 31 C24 30.34 24 29.68 24 29 C21.69 28.67 19.38 28.34 17 28 C16.67 27.01 16.34 26.02 16 25 C15.4225 24.87625 14.845 24.7525 14.25 24.625 C9.99839116 23.44399754 7.61149877 19.88561891 5.1875 16.375 C4 14 4 14 4 11 C3.34 11 2.68 11 2 11 C1.34 7.37 0.68 3.74 0 0 Z " fill="#D69455" transform="translate(12,82)"/>
<path d="M0 0 C5.31991516 3.73660708 10.07563848 7.17344379 11.46484375 13.84375 C11.52285156 14.62105469 11.58085938 15.39835937 11.640625 16.19921875 C11.73923828 17.38451172 11.73923828 17.38451172 11.83984375 18.59375 C11.87722656 19.18542969 11.91460937 19.77710937 11.953125 20.38671875 C0.07557605 20.78484888 -11.97511327 20.36745008 -22.8984375 15.2890625 C-25.26069747 14.29691331 -27.52662297 13.81560374 -30.046875 13.38671875 C-30.484375 11.26171875 -30.484375 11.26171875 -30.046875 8.38671875 C-27.963753 6.05209121 -25.65976056 4.10696694 -23.046875 2.38671875 C-22.386875 2.38671875 -21.726875 2.38671875 -21.046875 2.38671875 C-21.046875 1.72671875 -21.046875 1.06671875 -21.046875 0.38671875 C-14.03554003 -2.10620035 -6.83923767 -3.62128867 0 0 Z " fill="#994D20" transform="translate(79.046875,14.61328125)"/>
<path d="M0 0 C0 1.65 0 3.3 0 5 C3.96 5.33 7.92 5.66 12 6 C12.495 7.98 12.495 7.98 13 10 C11.25183142 10.50636607 9.50137737 11.00484619 7.75 11.5 C6.77546875 11.7784375 5.8009375 12.056875 4.796875 12.34375 C2 13 2 13 -2 13 C-2 13.66 -2 14.32 -2 15 C-5.46153846 18 -5.46153846 18 -8 18 C-8.33 18.99 -8.66 19.98 -9 21 C-9.66 21 -10.32 21 -11 21 C-11 21.66 -11 22.32 -11 23 C-13.8125 23.3125 -13.8125 23.3125 -17 23 C-18.6875 20.5625 -18.6875 20.5625 -20 18 C-20.99 17.67 -21.98 17.34 -23 17 C-23 16.01 -23 15.02 -23 14 C-26.3 14 -29.6 14 -33 14 C-30.6079402 9.2158804 -27.97437121 8.07034415 -23.375 5.875 C-22.68792969 5.52824219 -22.00085937 5.18148438 -21.29296875 4.82421875 C-14.33901031 1.41899707 -7.77623808 -0.32400992 0 0 Z " fill="#37C965" transform="translate(60,2)"/>
<path d="M0 0 C1.8359375 0.1875 1.8359375 0.1875 4 1 C5.4140625 3.1875 5.4140625 3.1875 6.625 6 C7.23214844 7.36125 7.23214844 7.36125 7.8515625 8.75 C10.47738829 16.18090836 11.32252245 23.14340121 11.25 31 C11.26160156 32.25683594 11.26160156 32.25683594 11.2734375 33.5390625 C11.2241573 49.45656693 4.58527423 65.24332165 -6.375 76.8125 C-16.16168478 86 -16.16168478 86 -21 86 C-21 85.34 -21 84.68 -21 84 C-20.34 84 -19.68 84 -19 84 C-19 83.34 -19 82.68 -19 82 C-17.29233767 80.69275505 -15.53218189 79.45367259 -13.75 78.25 C-9.33297442 75.14277277 -6.66150444 72.62870337 -4 68 C-3.34 68 -2.68 68 -2 68 C-1.87625 66.96875 -1.7525 65.9375 -1.625 64.875 C-1 61 -1 61 0.0234375 58.3828125 C1.32701965 53.86720393 1.29124164 49.67405234 1.25 45 C1.25773437 44.1234375 1.26546875 43.246875 1.2734375 42.34375 C1.25874817 37.46689137 0.80571534 33.5944649 -1 29 C-1.4375 25.8125 -1.4375 25.8125 -1 23 C1.4375 21.3125 1.4375 21.3125 4 20 C4.93249614 17.20251159 5.13476152 15.45679119 5.125 12.5625 C5.12757812 11.80066406 5.13015625 11.03882813 5.1328125 10.25390625 C5.00276015 8.04684141 4.60856199 6.12030724 4 4 C3.34 4 2.68 4 2 4 C1.34 2.68 0.68 1.36 0 0 Z " fill="#3FC864" transform="translate(116,32)"/>
<path d="M0 0 C3.96 0 7.92 0 12 0 C12 0.66 12 1.32 12 2 C12.928125 2.12375 12.928125 2.12375 13.875 2.25 C16 3 16 3 17.25 5.0625 C17.4975 5.701875 17.745 6.34125 18 7 C18.66 7 19.32 7 20 7 C21.69242399 9.95502601 22.27328801 12.09995022 22.25 15.5 C22.25773437 16.62921875 22.25773437 16.62921875 22.265625 17.78125 C21.95624142 20.36551284 21.50205095 21.86455407 20 24 C17.375 25.25 17.375 25.25 15 26 C15.2165625 26.63421875 15.433125 27.2684375 15.65625 27.921875 C19.89416203 42.1267283 19.6210652 57.24846549 14 71 C13.34 71 12.68 71 12 71 C12.144375 70.1028125 12.28875 69.205625 12.4375 68.28125 C14.30967298 55.6960872 15.31513056 43.43173959 12 31 C12 27 12 27 14.375 24.25 C17 22 17 22 19 22 C19 18.04 19 14.08 19 10 C18.01 9.67 17.02 9.34 16 9 C16 8.01 16 7.02 16 6 C10.29309366 5.00749455 4.78591511 4.89522488 -1 5 C-1 5.99 -1 6.98 -1 8 C-2.5 9.6875 -2.5 9.6875 -4 11 C-4.99 10.67 -5.98 10.34 -7 10 C-7 9.34 -7 8.68 -7 8 C-12.61 7.67 -18.22 7.34 -24 7 C-24 6.34 -24 5.68 -24 5 C-17.4 5 -10.8 5 -4 5 C-4 4.34 -4 3.68 -4 3 C-2.68 2.67 -1.36 2.34 0 2 C0 1.34 0 0.68 0 0 Z " fill="#F79A41" transform="translate(100,29)"/>
<path d="M0 0 C8.28136632 1.44595285 14.42939436 4.51137953 21.3125 9.25 C23.67214035 10.78651 25.25448891 11.57761368 28 12 C27.49220121 16.39831879 26.03107731 18.57551606 23.0625 21.8125 C22.35222656 22.60269531 21.64195313 23.39289063 20.91015625 24.20703125 C19 26 19 26 17 26 C16.7834375 26.61359375 16.566875 27.2271875 16.34375 27.859375 C13.96308945 31.65182262 10.12290881 32.07558553 5.984375 33.234375 C-4.36111418 35.48795167 -15.80761065 35.66153781 -25 30 C-26.175625 29.4225 -27.35125 28.845 -28.5625 28.25 C-29.366875 27.8375 -30.17125 27.425 -31 27 C-27.57905758 24.71937172 -26.31812778 24.78074993 -22.3125 24.875 C-20.82169922 24.90207031 -20.82169922 24.90207031 -19.30078125 24.9296875 C-18.54152344 24.95289062 -17.78226563 24.97609375 -17 25 C-17 25.66 -17 26.32 -17 27 C-16.02160156 27.09087891 -16.02160156 27.09087891 -15.0234375 27.18359375 C-7.56100982 27.89901823 -7.56100982 27.89901823 -3.875 28.5625 C1.87043173 29.43680483 7.30020747 29.13995851 13 28 C13.495 26.515 13.495 26.515 14 25 C14.99 25 15.98 25 17 25 C17 24.34 17 23.68 17 23 C18.875 20.875 18.875 20.875 21 19 C21.66 19 22.32 19 23 19 C23 18.01 23 17.02 23 16 C23.66 16 24.32 16 25 16 C25 15.01 25 14.02 25 13 C24.071875 12.7834375 24.071875 12.7834375 23.125 12.5625 C21 12 21 12 19 11 C19 10.34 19 9.68 19 9 C18.09507813 8.83564453 18.09507813 8.83564453 17.171875 8.66796875 C12.68093869 7.77702493 9.52701014 7.04052599 6 4 C4.01549844 2.96958573 2.01800895 1.96314063 0 1 C0 0.67 0 0.34 0 0 Z " fill="#3D1E14" transform="translate(68,83)"/>
<path d="M0 0 C1 2 1 2 0.328125 4.13671875 C-0.02765625 4.97847656 -0.3834375 5.82023437 -0.75 6.6875 C-1.12253906 7.58339844 -1.49507812 8.47929688 -1.87890625 9.40234375 C-2.54286368 10.94078169 -3.21436577 12.47605905 -3.90234375 14.00390625 C-6.72404996 20.27904394 -7.1483166 26.06248214 -7.0625 32.875 C-7.05573242 33.90753906 -7.05573242 33.90753906 -7.04882812 34.9609375 C-7.03716336 36.64066335 -7.01923271 38.32034375 -7 40 C-6.67 39.01 -6.34 38.02 -6 37 C4.89 37 15.78 37 27 37 C27 37.33 27 37.66 27 38 C16.44 38 5.88 38 -5 38 C-3.68 40.97 -2.36 43.94 -1 47 C-1.33 47.66 -1.66 48.32 -2 49 C-2.99 47.35 -3.98 45.7 -5 44 C-4.67 47.3 -4.34 50.6 -4 54 C-3.34 54 -2.68 54 -2 54 C-1.72027344 54.67546875 -1.44054688 55.3509375 -1.15234375 56.046875 C1.6840335 62.35804239 3.72703323 65.10478457 10 68 C10.495 68.99 10.495 68.99 11 70 C13.3140622 70.73075648 15.64828869 71.40138258 18 72 C18 72.66 18 73.32 18 74 C18.66 74 19.32 74 20 74 C20.33 74.99 20.66 75.98 21 77 C18.15916359 78.42041821 16.14522722 78.31452272 13 78 C10.625 76 10.625 76 9 74 C12.14737182 74.69941596 15.02588876 75.76078698 18 77 C16.63293037 74.26586074 15.06903503 73.95245703 12.3125 72.6875 C0.68807271 66.99930229 -5.53378057 57.90398725 -10 46 C-12.77048193 35.54143071 -11.2106465 23.4216192 -9 13 C-8.34 13 -7.68 13 -7 13 C-7 12.01 -7 11.02 -7 10 C-6.34 9.67 -5.68 9.34 -5 9 C-4.32558869 7.3364521 -3.6599679 5.66933058 -3 4 C-2.04175747 2.63634717 -1.05278825 1.29205831 0 0 Z " fill="#CD9E3D" transform="translate(18,39)"/>
<path d="M0 0 C9.44407273 -0.3346325 19.295283 -0.0632158 28 4 C29.91300146 6.52168374 30.05557635 7.59244012 29.625 10.75 C29.315625 11.86375 29.315625 11.86375 29 13 C27.56344146 13.08131463 26.1255517 13.13933559 24.6875 13.1875 C23.88699219 13.22230469 23.08648437 13.25710938 22.26171875 13.29296875 C19.52148416 12.93801608 18.70828921 12.10633718 17 10 C16.67 10.66 16.34 11.32 16 12 C14.68 11.67 13.36 11.34 12 11 C12.66 11 13.32 11 14 11 C13.67 10.01 13.34 9.02 13 8 C12.30132812 7.93941406 11.60265625 7.87882813 10.8828125 7.81640625 C9.97273438 7.73261719 9.06265625 7.64882812 8.125 7.5625 C7.22007813 7.48128906 6.31515625 7.40007813 5.3828125 7.31640625 C3 7 3 7 1 6 C0.375 2.9375 0.375 2.9375 0 0 Z " fill="#635639" transform="translate(59,1)"/>
<path d="M0 0 C4.26458299 3.50305031 6.24862334 7.87357457 8 13 C8.25 16.0625 8.25 16.0625 8 18 C3.48382401 18.07654536 -0.59085217 18.10228696 -5 17 C-5 16.34 -5 15.68 -5 15 C-6.98 15 -8.96 15 -11 15 C-9.65670996 9.02982203 -6.25361253 5.203452 -2 1 C-1.34 0.67 -0.68 0.34 0 0 Z " fill="#BD2E02" transform="translate(72,15)"/>
<path d="M0 0 C3 2.0625 3 2.0625 5 5 C5.39544552 8.82264001 5.21260877 11.36217368 4 15 C1.02827774 17.7667759 0.25809375 18 -4 18 C-4.0825 17.05125 -4.165 16.1025 -4.25 15.125 C-4.63382023 11.92689868 -4.63382023 11.92689868 -6.875 10.8125 C-7.57625 10.544375 -8.2775 10.27625 -9 10 C-10.75 8.625 -10.75 8.625 -12 7 C-12 3 -12 3 -10.5 1.25 C-6.98832598 -0.50583701 -3.79588197 -0.78924279 0 0 Z " fill="#FC9933" transform="translate(109,37)"/>
<path d="M0 0 C1.20076172 0.06960937 1.20076172 0.06960937 2.42578125 0.140625 C3.23402344 0.17671875 4.04226562 0.2128125 4.875 0.25 C5.79732422 0.31960937 5.79732422 0.31960937 6.73828125 0.390625 C6.73828125 1.050625 6.73828125 1.710625 6.73828125 2.390625 C9.70828125 2.390625 12.67828125 2.390625 15.73828125 2.390625 C15.73828125 3.050625 15.73828125 3.710625 15.73828125 4.390625 C24.31828125 4.390625 32.89828125 4.390625 41.73828125 4.390625 C34.99221557 8.88800212 27.98874528 8.77544478 20.11328125 8.765625 C19.05109375 8.76691406 17.98890625 8.76820312 16.89453125 8.76953125 C8.88487166 8.66182189 2.13726115 7.62767871 -5.26171875 4.390625 C-2.89519796 0.50003419 -2.89519796 0.50003419 0 0 Z " fill="#FECA97" transform="translate(45.26171875,117.609375)"/>
<path d="M0 0 C2.0836309 0.14151828 4.16689938 0.28837936 6.25 0.4375 C7.99023438 0.55931641 7.99023438 0.55931641 9.765625 0.68359375 C12.30977376 0.93247787 14.55953248 1.28114942 17 2 C17.0272415 3.41655793 17.04650467 4.83327045 17.0625 6.25 C17.07410156 7.03890625 17.08570312 7.8278125 17.09765625 8.640625 C17.00385306 10.90691002 16.63241063 12.8288895 16 15 C7.45589325 15.33506301 7.45589325 15.33506301 4 13 C1.40535829 8.66711793 0 5.07577239 0 0 Z " fill="#ECECEC" transform="translate(44,80)"/>
<path d="M0 0 C1.010625 0.391875 2.02125 0.78375 3.0625 1.1875 C3.3925 2.1775 3.7225 3.1675 4.0625 4.1875 C4.7225 4.5175 5.3825 4.8475 6.0625 5.1875 C7.13437353 15.70206896 7.13437353 15.70206896 4.57421875 19.25 C2.80163072 20.71798181 1.00857612 21.96349737 -0.9375 23.1875 C-1.5975 23.8475 -2.2575 24.5075 -2.9375 25.1875 C-3.2675 24.1975 -3.5975 23.2075 -3.9375 22.1875 C-4.9275 21.8575 -5.9175 21.5275 -6.9375 21.1875 C-2.1875 18.1875 -2.1875 18.1875 0.0625 18.1875 C0.62788822 11.6204596 0.62788822 11.6204596 -1.4375 5.5625 C-4.97521453 3.61675701 -7.98468375 3.62049767 -11.9375 4.1875 C-14.34307853 5.05015968 -14.34307853 5.05015968 -15.9375 6.1875 C-15.9375 7.1775 -15.9375 8.1675 -15.9375 9.1875 C-16.9275 8.8575 -17.9175 8.5275 -18.9375 8.1875 C-18.9375 7.5275 -18.9375 6.8675 -18.9375 6.1875 C-18.2775 6.1875 -17.6175 6.1875 -16.9375 6.1875 C-16.6075 5.1975 -16.2775 4.2075 -15.9375 3.1875 C-15.2775 3.1875 -14.6175 3.1875 -13.9375 3.1875 C-13.9375 2.1975 -13.9375 1.2075 -13.9375 0.1875 C-9.7582181 -1.90214095 -4.43215154 -1.09888055 0 0 Z " fill="#FEC28D" transform="translate(112.9375,33.8125)"/>
<path d="M0 0 C3 2 3 2 4 5 C4.78375 5.78375 5.5675 6.5675 6.375 7.375 C8.81675556 9.81675556 10.43086473 11.94431553 12 15 C12 15.66 12 16.32 12 17 C12.58910156 17.25910156 13.17820312 17.51820312 13.78515625 17.78515625 C16.15357165 19.08423419 17.60315957 20.4675963 19.4375 22.4375 C22.08471612 25.17599944 24.58314529 27.23980212 28 29 C27.67 29.66 27.34 30.32 27 31 C25.3501725 30.57781184 23.70516335 30.13675575 22.0625 29.6875 C21.14597656 29.44386719 20.22945312 29.20023438 19.28515625 28.94921875 C18.53105469 28.63597656 17.77695312 28.32273437 17 28 C16.67 27.01 16.34 26.02 16 25 C15.4225 24.87625 14.845 24.7525 14.25 24.625 C9.99839116 23.44399754 7.61149877 19.88561891 5.1875 16.375 C4 14 4 14 4 11 C3.34 11 2.68 11 2 11 C1.34 7.37 0.68 3.74 0 0 Z " fill="#E6AE7C" transform="translate(12,82)"/>
<path d="M0 0 C0.33 0 0.66 0 1 0 C1.05447047 1.41623216 1.09300508 2.83308191 1.125 4.25 C1.14820312 5.03890625 1.17140625 5.8278125 1.1953125 6.640625 C0.97198192 9.33845836 0.57511491 10.79295277 -1 13 C-3.625 14.25 -3.625 14.25 -6 15 C-5.7834375 15.63421875 -5.566875 16.2684375 -5.34375 16.921875 C-1.10583797 31.1267283 -1.3789348 46.24846549 -7 60 C-7.66 60 -8.32 60 -9 60 C-8.855625 59.1028125 -8.71125 58.205625 -8.5625 57.28125 C-6.69032702 44.6960872 -5.68486944 32.43173959 -9 20 C-9 16 -9 16 -6.625 13.25 C-4 11 -4 11 -2 11 C-2 10.01 -2 9.02 -2 8 C-1.34 8 -0.68 8 0 8 C0 5.36 0 2.72 0 0 Z " fill="#E89B3F" transform="translate(121,40)"/>
<path d="M0 0 C0.87785156 0.09023438 1.75570312 0.18046875 2.66015625 0.2734375 C4.9375 0.625 4.9375 0.625 6.9375 1.625 C6.6075 3.935 6.2775 6.245 5.9375 8.625 C3.9575 9.285 1.9775 9.945 -0.0625 10.625 C-0.0625 12.275 -0.0625 13.925 -0.0625 15.625 C-1.3825 15.295 -2.7025 14.965 -4.0625 14.625 C-4.0625 15.285 -4.0625 15.945 -4.0625 16.625 C-6.3725 16.955 -8.6825 17.285 -11.0625 17.625 C-11.0625 15.625 -11.0625 15.625 -9.0625 13.625 C-5.9375 13.5 -5.9375 13.5 -3.0625 13.625 C-4.31226756 9.97183329 -4.73348753 8.84434164 -8.0625 6.625 C-8.25 3.5 -8.25 3.5 -8.0625 0.625 C-4.90785201 -0.42654933 -3.25512346 -0.35475572 0 0 Z " fill="#F86A68" transform="translate(54.0625,63.375)"/>
<path d="M0 0 C1.49080078 0.02707031 1.49080078 0.02707031 3.01171875 0.0546875 C3.77097656 0.07789062 4.53023437 0.10109375 5.3125 0.125 C5.3125 0.785 5.3125 1.445 5.3125 2.125 C5.98796875 2.18558594 6.6634375 2.24617188 7.359375 2.30859375 C8.25140625 2.39238281 9.1434375 2.47617188 10.0625 2.5625 C10.94421875 2.64371094 11.8259375 2.72492188 12.734375 2.80859375 C15.00600452 3.08738465 17.11101823 3.51290577 19.3125 4.125 C19.3125 5.115 19.3125 6.105 19.3125 7.125 C15.6825 7.125 12.0525 7.125 8.3125 7.125 C8.3125 7.785 8.3125 8.445 8.3125 9.125 C2.08524933 7.47108232 -3.22712558 5.56740996 -8.6875 2.125 C-5.26655758 -0.15562828 -4.00562778 -0.09425007 0 0 Z " fill="#88322E" transform="translate(45.6875,107.875)"/>
<path d="M0 0 C0.33 0 0.66 0 1 0 C1.15855469 0.53367187 1.31710938 1.06734375 1.48046875 1.6171875 C5.52665654 14.53816287 11.19005369 24.5778358 23.296875 31.26953125 C25.18070947 32.21478862 27.08830913 33.11242924 29 34 C29 34.66 29 35.32 29 36 C19.30041765 34.288309 14.25468017 30.56134147 8 23 C-1.42831511 9.12058149 -1.42831511 9.12058149 -0.5625 2.8125 C-0.376875 1.884375 -0.19125 0.95625 0 0 Z " fill="#5EC666" transform="translate(7,80)"/>
<path d="M0 0 C0.9590625 -0.01675781 1.918125 -0.03351562 2.90625 -0.05078125 C5.5 0.3125 5.5 0.3125 7.34375 1.64453125 C8.5 3.3125 8.5 3.3125 8.5 6.3125 C2.56 5.3225 2.56 5.3225 -3.5 4.3125 C-5.30330533 7.91911066 -5.96599103 10.39643425 -6.5 14.3125 C-7.82 14.3125 -9.14 14.3125 -10.5 14.3125 C-11.84323432 8.08477723 -11.84323432 8.08477723 -10.25 4.5 C-7.14188498 0.61485623 -4.78358397 0.01928865 0 0 Z " fill="#FEBF86" transform="translate(31.5,19.6875)"/>
<path d="M0 0 C4.50234373 -0.04944705 9.0045293 -0.08574161 13.50708008 -0.10986328 C15.03868361 -0.11991935 16.57026795 -0.133566 18.10180664 -0.15087891 C20.30359636 -0.17514498 22.50513219 -0.18648688 24.70703125 -0.1953125 C25.39150833 -0.20563507 26.07598541 -0.21595764 26.78120422 -0.22659302 C30.43061661 -0.22745382 31.87148502 -0.08567666 35 2 C33.35 2 31.7 2 30 2 C30.66 4.97 31.32 7.94 32 11 C31.34 10.67 30.68 10.34 30 10 C30 8.68 30 7.36 30 6 C29.34 6 28.68 6 28 6 C28 4.68 28 3.36 28 2 C19.75 2 11.5 2 3 2 C3.33 3.98 3.66 5.96 4 8 C4.99 8 5.98 8 7 8 C7.66 9.98 8.32 11.96 9 14 C8.01 14 7.02 14 6 14 C4.99515796 12.04414675 3.99626195 10.08523763 3 8.125 C2.1646875 6.48917969 2.1646875 6.48917969 1.3125 4.8203125 C0 2 0 2 0 0 Z " fill="#371A13" transform="translate(13,77)"/>
<path d="M0 0 C-1.40131402 4.6960702 -3.70385811 6.80056111 -7.5 9.8125 C-8.96953125 10.99779297 -8.96953125 10.99779297 -10.46875 12.20703125 C-13 14 -13 14 -15 14 C-15 14.66 -15 15.32 -15 16 C-15.66 16 -16.32 16 -17 16 C-16.67 16.99 -16.34 17.98 -16 19 C-20.62197306 21.21854707 -23.76824163 22.38281159 -29 22 C-29 21.01 -29 20.02 -29 19 C-28.34 19 -27.68 19 -27 19 C-27 18.34 -27 17.68 -27 17 C-25.58398286 16.51891725 -24.16715563 16.04021859 -22.75 15.5625 C-21.96109375 15.29566406 -21.1721875 15.02882813 -20.359375 14.75390625 C-18.25178012 14.08045292 -16.15246027 13.50849405 -14 13 C-14 12.34 -14 11.68 -14 11 C-12.390625 9.4140625 -12.390625 9.4140625 -10.25 7.625 C-7.93096298 5.66242273 -5.74780716 3.7411705 -3.625 1.5625 C-2 0 -2 0 0 0 Z " fill="#E49F49" transform="translate(112,100)"/>
<path d="M0 0 C0.33 1.65 0.66 3.3 1 5 C-0.32 5.33 -1.64 5.66 -3 6 C-2.505 6.598125 -2.01 7.19625 -1.5 7.8125 C0 10 0 10 0 13 C-2.3260857 13.38063221 -4.66055264 13.71269945 -7 14 C-8.74104353 12.25895647 -8.21311272 9.92635979 -8.25 7.5625 C-8.27578125 6.57378906 -8.3015625 5.58507813 -8.328125 4.56640625 C-8.21984375 3.71949219 -8.1115625 2.87257812 -8 2 C-4.77208445 -0.1519437 -3.71599191 -0.20086443 0 0 Z " fill="#1F180F" transform="translate(31,50)"/>
<path d="M0 0 C0 0.66 0 1.32 0 2 C1.32 2.33 2.64 2.66 4 3 C3.67 3.66 3.34 4.32 3 5 C2.01 4.67 1.02 4.34 0 4 C-1.83056393 3.88145444 -3.66564306 3.82482767 -5.5 3.8125 C-6.4590625 3.79832031 -7.418125 3.78414062 -8.40625 3.76953125 C-11.23746139 3.81244889 -11.23746139 3.81244889 -14 6 C-16.39934911 9.43648712 -16.06717403 12.18199896 -15.625 16.25 C-15.51414062 17.32765625 -15.40328125 18.4053125 -15.2890625 19.515625 C-15.19367187 20.33546875 -15.09828125 21.1553125 -15 22 C-15.99 21.67 -16.98 21.34 -18 21 C-17.34 21 -16.68 21 -16 21 C-16.66 19.948125 -17.32 18.89625 -18 17.8125 C-19.7771585 14.73376063 -20.43806506 12.61403672 -20 9 C-19.34 9 -18.68 9 -18 9 C-17.9071875 8.1646875 -17.9071875 8.1646875 -17.8125 7.3125 C-14.73615477 -1.4432518 -7.89431129 -0.56657737 0 0 Z " fill="#DBA045" transform="translate(37,17)"/>
<path d="M0 0 C3.0625 -0.25 3.0625 -0.25 6 0 C7 1 7 1 7.0625 3.5625 C7.041875 4.366875 7.02125 5.17125 7 6 C6.01 6 5.02 6 4 6 C4.185625 7.134375 4.37125 8.26875 4.5625 9.4375 C4.706875 10.613125 4.85125 11.78875 5 13 C4 14 4 14 1.5 14.125 C-1 14 -1 14 -2 13 C-2.12494616 11.37860563 -2.17571624 9.75115878 -2.1875 8.125 C-2.20167969 7.24070312 -2.21585937 6.35640625 -2.23046875 5.4453125 C-2 3 -2 3 0 0 Z " fill="#1C150D" transform="translate(80,62)"/>
<path d="M0 0 C0 0.66 0 1.32 0 2 C-0.66 2 -1.32 2 -2 2 C-2 2.99 -2 3.98 -2 5 C-9.26 5 -16.52 5 -24 5 C-24 4.34 -24 3.68 -24 3 C-25.32 2.67 -26.64 2.34 -28 2 C-23.89598959 1.66472397 -19.79176762 1.33211132 -15.6875 1 C-14.52025391 0.90460938 -13.35300781 0.80921875 -12.15039062 0.7109375 C-11.03212891 0.62070313 -9.91386719 0.53046875 -8.76171875 0.4375 C-7.73006592 0.35371094 -6.69841309 0.26992187 -5.63549805 0.18359375 C-3.76054596 0.05298106 -1.87949594 0 0 0 Z " fill="#FAA55F" transform="translate(85,117)"/>
<path d="M0 0 C2.475 0.99 2.475 0.99 5 2 C5 2.66 5 3.32 5 4 C7.65918166 4.88639389 9.48064641 5.17989025 12.23046875 5.31640625 C13.03291016 5.35830078 13.83535156 5.40019531 14.66210938 5.44335938 C15.49548828 5.48267578 16.32886719 5.52199219 17.1875 5.5625 C18.03248047 5.60568359 18.87746094 5.64886719 19.74804688 5.69335938 C21.83184433 5.79931518 23.91590103 5.9001502 26 6 C26 6.66 26 7.32 26 8 C27.670625 7.9690625 27.670625 7.9690625 29.375 7.9375 C33 8 33 8 35 9 C35 9.66 35 10.32 35 11 C29.555 10.505 29.555 10.505 24 10 C24 9.34 24 8.68 24 8 C20.37 8 16.74 8 13 8 C12.67 8.66 12.34 9.32 12 10 C6.74308545 8.56629603 3.48214849 5.00396901 0 1 C0 0.67 0 0.34 0 0 Z " fill="#340403" transform="translate(27,100)"/>
<path d="M0 0 C3.96 0 7.92 0 12 0 C12 0.66 12 1.32 12 2 C13.32 2.33 14.64 2.66 16 3 C11.62791565 4.36627636 7.4008772 3.93453728 2.875 3.7421875 C-0.02284079 3.73620455 -0.02284079 3.73620455 -1.88183594 5.49780273 C-4.41965069 7.29761534 -5.69127146 7.35209093 -8.765625 7.29296875 C-9.65507813 7.28330078 -10.54453125 7.27363281 -11.4609375 7.26367188 C-12.38132812 7.23853516 -13.30171875 7.21339844 -14.25 7.1875 C-15.18585938 7.17396484 -16.12171875 7.16042969 -17.0859375 7.14648438 C-19.39121327 7.11119954 -21.6953106 7.06190281 -24 7 C-24 6.34 -24 5.68 -24 5 C-17.4 5 -10.8 5 -4 5 C-4 4.34 -4 3.68 -4 3 C-2.68 2.67 -1.36 2.34 0 2 C0 1.34 0 0.68 0 0 Z " fill="#D39B46" transform="translate(100,29)"/>
<path d="M0 0 C0.53625 0.7425 1.0725 1.485 1.625 2.25 C4.17009409 5.19695105 6.6519952 7.03486674 10 9 C10.66 9 11.32 9 12 9 C12 8.34 12 7.68 12 7 C13.32 7 14.64 7 16 7 C15.67 5.02 15.34 3.04 15 1 C15.66 1.33 16.32 1.66 17 2 C17.125 8.625 17.125 8.625 16 12 C13.02827774 14.7667759 12.25809375 15 8 15 C7.9175 14.05125 7.835 13.1025 7.75 12.125 C7.36617977 8.92689868 7.36617977 8.92689868 5.125 7.8125 C4.073125 7.4103125 4.073125 7.4103125 3 7 C1.25 5.625 1.25 5.625 0 4 C0 2.68 0 1.36 0 0 Z " fill="#FB9D50" transform="translate(97,40)"/>
<path d="M0 0 C0.66 0 1.32 0 2 0 C1 3 1 3 -1.16015625 4.38671875 C-9.9947573 8.34623712 -17.53276375 8.54064166 -27 8 C-27 7.34 -27 6.68 -27 6 C-23.37 6 -19.74 6 -16 6 C-16 5.01 -16 4.02 -16 3 C-15.02160156 3.01740234 -15.02160156 3.01740234 -14.0234375 3.03515625 C-9.2238086 3.08470994 -4.72215315 2.99413751 0 2 C0 1.34 0 0.68 0 0 Z " fill="#3E0F0B" transform="translate(81,109)"/>
<path d="M0 0 C0.97714065 2.54056569 0.99124953 4.04812761 0.5 6.75 C-3.28929182 14.96013228 -10.31323659 20.50317314 -18 25 C-18.66 25 -19.32 25 -20 25 C-20 24.34 -20 23.68 -20 23 C-19.34 23 -18.68 23 -18 23 C-18 22.34 -18 21.68 -18 21 C-16.29233767 19.69275505 -14.53218189 18.45367259 -12.75 17.25 C-8.33297442 14.14277277 -5.66150444 11.62870337 -3 7 C-2.34 7 -1.68 7 -1 7 C-0.67 4.69 -0.34 2.38 0 0 Z " fill="#68C266" transform="translate(115,93)"/>
<path d="M0 0 C1.98 0 3.96 0 6 0 C6 3.63 6 7.26 6 11 C4.02 11 2.04 11 0 11 C0 7.37 0 3.74 0 0 Z " fill="#F8F8F8" transform="translate(54,83)"/>
<path d="M0 0 C4.54783582 1.92019735 7.06186883 3.37001997 9 8 C9.1875 11.3125 9.1875 11.3125 9 14 C7.02 14 5.04 14 3 14 C3 11.03 3 8.06 3 5 C2.34 5 1.68 5 1 5 C0.67 3.35 0.34 1.7 0 0 Z " fill="#F2902E" transform="translate(78,18)"/>
<path d="M0 0 C-1.9862017 4.22536306 -4.34127542 8.02835984 -8 11 C-11.375 10.9375 -11.375 10.9375 -14 10 C-10.58370145 4.21857168 -7.21809809 0 0 0 Z " fill="#EE912D" transform="translate(66,16)"/>
<path d="M0 0 C10.89 0 21.78 0 33 0 C33 0.33 33 0.66 33 1 C22.44 1 11.88 1 1 1 C2.32 3.97 3.64 6.94 5 10 C4.67 10.66 4.34 11.32 4 12 C3.01 10.35 2.02 8.7 1 7 C1 9.31 1 11.62 1 14 C-1 12 -1 12 -1.1875 8.125 C-1.15892668 5.11908666 -0.75223433 3.00893734 0 0 Z " fill="#AB835B" transform="translate(12,76)"/>
<path d="M0 0 C4.80121171 0.71129062 7.78864741 3.48580927 10.75 7.1875 C12.46765406 11.05222163 12.73529278 14.81032371 13 19 C10.69 19 8.38 19 6 19 C7.32 18.67 8.64 18.34 10 18 C9.69255859 17.09507813 9.69255859 17.09507813 9.37890625 16.171875 C9.10949219 15.37265625 8.84007813 14.5734375 8.5625 13.75 C8.29566406 12.96109375 8.02882813 12.1721875 7.75390625 11.359375 C7 9 7 9 6.58984375 6.765625 C6.39519531 6.18296875 6.20054688 5.6003125 6 5 C5.01 4.67 4.02 4.34 3 4 C1.3125 1.9375 1.3125 1.9375 0 0 Z " fill="#763313" transform="translate(78,16)"/>
<path d="M0 0 C5.30277956 3.53518637 7.90139885 10.08576039 10 16 C8.35 16 6.7 16 5 16 C4.67 14.35 4.34 12.7 4 11 C3.34 11 2.68 11 2 11 C1.34 7.37 0.68 3.74 0 0 Z " fill="#FBC591" transform="translate(12,82)"/>
<path d="M0 0 C0.66 0.99 1.32 1.98 2 3 C1.34 3 0.68 3 0 3 C-0.33 3.99 -0.66 4.98 -1 6 C-1.99 5.01 -2.98 4.02 -4 3 C-5.1055189 3.93590504 -6.20935453 4.87379858 -7.3125 5.8125 C-7.92738281 6.33457031 -8.54226562 6.85664063 -9.17578125 7.39453125 C-10.85424679 8.87172469 -12.43882034 10.40039131 -14 12 C-12.94124926 8.59687262 -11.99097846 5.98646769 -10 3 C-10.66 2.67 -11.32 2.34 -12 2 C-7.89210262 0.00829218 -4.54899046 -0.42915004 0 0 Z " fill="#92310B" transform="translate(76,13)"/>
<path d="M0 0 C3.3 0.33 6.6 0.66 10 1 C10 3.97 10 6.94 10 10 C9.67 10 9.34 10 9 10 C9 7.36 9 4.72 9 2 C7.02 2 5.04 2 3 2 C3 5.63 3 9.26 3 13 C4.98 13 6.96 13 9 13 C9 13.33 9 13.66 9 14 C1.57142857 14.28571429 1.57142857 14.28571429 -2 12 C-1.01 12 -0.02 12 1 12 C0.67 8.04 0.34 4.08 0 0 Z " fill="#ADADAD" transform="translate(51,81)"/>
<path d="M0 0 C7.50769231 0.61538462 7.50769231 0.61538462 10 2.5625 C10.33 3.036875 10.66 3.51125 11 4 C8.66836622 4.67258667 6.3347961 5.33847444 4 6 C3.319375 6.268125 2.63875 6.53625 1.9375 6.8125 C-1.19371919 7.11552121 -3.34149687 5.51051314 -6 4 C-6 3.67 -6 3.34 -6 3 C-4.02 2.34 -2.04 1.68 0 1 C0 0.67 0 0.34 0 0 Z " fill="#F99C4B" transform="translate(38,114)"/>
<path d="M0 0 C2.74303891 0.40637613 4.05859648 1.04720272 6.25 2.8125 C9.59908432 5.47654435 13.13836908 7.19854439 17 9 C17 9.66 17 10.32 17 11 C9.36332199 9.65235094 5.11252416 7.84288476 0 2 C0 1.34 0 0.68 0 0 Z " fill="#4BC663" transform="translate(19,105)"/>
<path d="M0 0 C6.1112924 1.0388092 12.07704464 2.15730278 18 4 C18 4.33 18 4.66 18 5 C16.35 5 14.7 5 13 5 C12.67 8.96 12.34 12.92 12 17 C11.34 17 10.68 17 10 17 C10.33 12.71 10.66 8.42 11 4 C7.37 3.67 3.74 3.34 0 3 C0 2.01 0 1.02 0 0 Z " fill="#51443F" transform="translate(50,78)"/>
<path d="M0 0 C1 3 1 3 0.2578125 4.83203125 C-0.30292969 5.81236328 -0.30292969 5.81236328 -0.875 6.8125 C-4.4887712 13.14291739 -4.13179227 19.79652787 -4.0625 26.875 C-4.05798828 27.75414063 -4.05347656 28.63328125 -4.04882812 29.5390625 C-4.03712337 31.69273803 -4.01919069 33.84637817 -4 36 C-4.66 36 -5.32 36 -6 36 C-6.05850924 32.31256766 -6.09376673 28.6252563 -6.125 24.9375 C-6.14175781 23.89916016 -6.15851562 22.86082031 -6.17578125 21.79101562 C-6.23121943 13.05950244 -5.20403265 7.11217796 0 0 Z " fill="#FEA357" transform="translate(15,47)"/>
<path d="M0 0 C1.35439668 2.70879335 1.06501451 5.00933268 1 8 C2.32 8.33 3.64 8.66 5 9 C5 9.66 5 10.32 5 11 C6.65 11 8.3 11 10 11 C10 11.33 10 11.66 10 12 C3.49686791 12.46450943 -0.4174808 11.32575612 -6 8 C-5.34 7.67 -4.68 7.34 -4 7 C-3.29848848 5.6846659 -2.63474075 4.34882408 -2 3 C-1.34 2.01 -0.68 1.02 0 0 Z " fill="#953409" transform="translate(62,21)"/>
<path d="M0 0 C0.99 0.33 1.98 0.66 3 1 C2.49339844 1.79664063 2.49339844 1.79664063 1.9765625 2.609375 C0.70591484 5.71992048 1.01380654 7.92702015 1.375 11.25 C1.48585938 12.32765625 1.59671875 13.4053125 1.7109375 14.515625 C1.80632813 15.33546875 1.90171875 16.1553125 2 17 C1.01 16.67 0.02 16.34 -1 16 C-0.34 16 0.32 16 1 16 C0.01 14.4221875 0.01 14.4221875 -1 12.8125 C-2.7771585 9.73376063 -3.43806506 7.61403672 -3 4 C-2.34 4 -1.68 4 -1 4 C-0.67 2.68 -0.34 1.36 0 0 Z " fill="#CAA244" transform="translate(20,22)"/>
<path d="M0 0 C1 2 1 2 0.0625 5.125 C-0.288125 6.07375 -0.63875 7.0225 -1 8 C-1.66 8 -2.32 8 -3 8 C-3.28875 8.598125 -3.5775 9.19625 -3.875 9.8125 C-5 12 -5 12 -7 15 C-7.39013716 16.9896995 -7.73202649 18.99019869 -8 21 C-8.66 21 -9.32 21 -10 21 C-9.67 18.36 -9.34 15.72 -9 13 C-8.34 13 -7.68 13 -7 13 C-7 12.01 -7 11.02 -7 10 C-6.34 9.67 -5.68 9.34 -5 9 C-4.32558869 7.3364521 -3.6599679 5.66933058 -3 4 C-2.04175747 2.63634717 -1.05278825 1.29205831 0 0 Z " fill="#B2A645" transform="translate(18,39)"/>
<path d="M0 0 C1.33804688 0.04060547 1.33804688 0.04060547 2.703125 0.08203125 C3.37859375 0.11683594 4.0540625 0.15164062 4.75 0.1875 C5.08 0.8475 5.41 1.5075 5.75 2.1875 C1.79 2.1875 -2.17 2.1875 -6.25 2.1875 C-6.25 3.1775 -6.25 4.1675 -6.25 5.1875 C-7.75 6.875 -7.75 6.875 -9.25 8.1875 C-10.24 7.8575 -11.23 7.5275 -12.25 7.1875 C-12.25 6.5275 -12.25 5.8675 -12.25 5.1875 C-14.56 5.1875 -16.87 5.1875 -19.25 5.1875 C-19.25 4.8575 -19.25 4.5275 -19.25 4.1875 C-18.57453125 4.15011719 -17.8990625 4.11273438 -17.203125 4.07421875 C-16.31109375 4.00847656 -15.4190625 3.94273438 -14.5 3.875 C-13.61828125 3.81699219 -12.7365625 3.75898437 -11.828125 3.69921875 C-9.18605042 3.37207524 -9.18605042 3.37207524 -7.25 1.65625 C-4.6795124 -0.23145183 -3.14697331 -0.12422263 0 0 Z " fill="#F8A865" transform="translate(105.25,31.8125)"/>
<path d="M0 0 C0.474375 0.495 0.94875 0.99 1.4375 1.5 C5.08026677 3.63235128 8.86156404 3.81490438 13 3 C13.66 2.01 14.32 1.02 15 0 C14.8125 2.375 14.8125 2.375 14 5 C11.4375 6.3125 11.4375 6.3125 9 7 C9 7.99 9 8.98 9 10 C8.608125 9.566875 8.21625 9.13375 7.8125 8.6875 C5.99694204 6.85835102 5.99694204 6.85835102 3.375 5.5625 C1 4 1 4 0.1875 1.8125 C0.125625 1.214375 0.06375 0.61625 0 0 Z " fill="#43964F" transform="translate(75,10)"/>
<path d="M0 0 C2.97 0 5.94 0 9 0 C9.33 1.65 9.66 3.3 10 5 C8.35 5.33 6.7 5.66 5 6 C4.67 5.34 4.34 4.68 4 4 C1.98330173 2.86649466 1.98330173 2.86649466 0 2 C0 1.34 0 0.68 0 0 Z " fill="#8D718C" transform="translate(77,8)"/>
<path d="M0 0 C3.63 0 7.26 0 11 0 C11 1.66666667 11 3.33333333 11 5 C5.375 5.25 5.375 5.25 2 3 C2 2.34 2 1.68 2 1 C1.34 0.67 0.68 0.34 0 0 Z " fill="#9B8D93" transform="translate(59,1)"/>
<path d="M0 0 C2.97 0.495 2.97 0.495 6 1 C5.01 1.66 4.02 2.32 3 3 C1.31183067 4.64488294 -0.35353315 6.31337542 -2 8 C-3.33333333 9.33333333 -4.66666667 10.66666667 -6 12 C-6.33 11.01 -6.66 10.02 -7 9 C-6.67 8.34 -6.34 7.68 -6 7 C-5.01 7 -4.02 7 -3 7 C-3 5.35 -3 3.7 -3 2 C-2.01 2 -1.02 2 0 2 C0 1.34 0 0.68 0 0 Z " fill="#F69F5A" transform="translate(25,32)"/>
<path d="M0 0 C10.55808656 0.77904328 10.55808656 0.77904328 15 3 C15 3.33 15 3.66 15 4 C10.71 4 6.42 4 2 4 C1.34 2.68 0.68 1.36 0 0 Z " fill="#47BF67" transform="translate(72,2)"/>
<path d="M0 0 C6.6613344 1.03312362 11.51713579 3.08580266 17 7 C16.67 7.66 16.34 8.32 16 9 C14.3509698 8.38348417 12.70584159 7.75652258 11.0625 7.125 C10.14597656 6.77695313 9.22945312 6.42890625 8.28515625 6.0703125 C6 5 6 5 5 3 C3.35636866 2.27840576 1.68949614 1.60648579 0 1 C0 0.67 0 0.34 0 0 Z " fill="#422619" transform="translate(68,83)"/>
<path d="M0 0 C0.53625 0.474375 1.0725 0.94875 1.625 1.4375 C4.42842836 3.28186076 6.69620258 3.62456847 10 4 C9.34 2.68 8.68 1.36 8 0 C9.65 0.33 11.3 0.66 13 1 C13.33 1.99 13.66 2.98 14 4 C12.41913952 4.36504603 10.83516093 4.71660506 9.25 5.0625 C8.36828125 5.25972656 7.4865625 5.45695313 6.578125 5.66015625 C4.01320972 5.99825872 2.42908361 5.81158635 0 5 C0 3.35 0 1.7 0 0 Z " fill="#695C46" transform="translate(60,2)"/>
<path d="M0 0 C-5.59962003 2.8505108 -11.19137441 5.60078508 -17 8 C-17 7.34 -17 6.68 -17 6 C-13.53846154 3 -13.53846154 3 -11 3 C-11 2.34 -11 1.68 -11 1 C-4.03571429 -1.27678571 -4.03571429 -1.27678571 0 0 Z " fill="#685626" transform="translate(69,14)"/>
<path d="M0 0 C2.97 0.495 2.97 0.495 6 1 C6 1.66 6 2.32 6 3 C6.66 3 7.32 3 8 3 C8.33 3.99 8.66 4.98 9 6 C6.15916359 7.42041821 4.14522722 7.31452272 1 7 C-1.375 5 -1.375 5 -3 3 C0.14737182 3.69941596 3.02588876 4.76078698 6 6 C4.62776167 3.25552334 2.59786905 2.53207662 0 1 C0 0.67 0 0.34 0 0 Z " fill="#E69E41" transform="translate(30,110)"/>
<path d="M0 0 C0 0.66 0 1.32 0 2 C-2.31 2.33 -4.62 2.66 -7 3 C-7 3.66 -7 4.32 -7 5 C-5.68 5.33 -4.36 5.66 -3 6 C-5.70879335 7.35439668 -8.00933268 7.06501451 -11 7 C-11 6.01 -11 5.02 -11 4 C-10.34 4 -9.68 4 -9 4 C-9 3.34 -9 2.68 -9 2 C-2.25 0 -2.25 0 0 0 Z " fill="#EA9C3F" transform="translate(94,115)"/>
<path d="M0 0 C0.66 0.33 1.32 0.66 2 1 C2 1.66 2 2.32 2 3 C2.99 3.33 3.98 3.66 5 4 C-0.28 4 -5.56 4 -11 4 C-11 3.34 -11 2.68 -11 2 C-7.37 2 -3.74 2 0 2 C0 1.34 0 0.68 0 0 Z " fill="#4D261B" transform="translate(65,113)"/>
<path d="M0 0 C1.49080078 0.02707031 1.49080078 0.02707031 3.01171875 0.0546875 C3.77097656 0.07789062 4.53023437 0.10109375 5.3125 0.125 C5.3125 0.455 5.3125 0.785 5.3125 1.125 C2.3425 1.125 -0.6275 1.125 -3.6875 1.125 C-3.6875 1.785 -3.6875 2.445 -3.6875 3.125 C-0.7175 3.62 -0.7175 3.62 2.3125 4.125 C2.3125 4.785 2.3125 5.445 2.3125 6.125 C-1.81501449 5.51801257 -5.0196148 4.08689209 -8.6875 2.125 C-5.26655758 -0.15562828 -4.00562778 -0.09425007 0 0 Z " fill="#582D23" transform="translate(45.6875,107.875)"/>
<path d="M0 0 C0.33 0.99 0.66 1.98 1 3 C1.66 3 2.32 3 3 3 C3.33 5.31 3.66 7.62 4 10 C4.66 10 5.32 10 6 10 C6 10.99 6 11.98 6 13 C6.66 13 7.32 13 8 13 C8 13.66 8 14.32 8 15 C7.01 15 6.02 15 5 15 C4.15415002 13.44424022 3.32381601 11.8800388 2.5 10.3125 C2.0359375 9.44238281 1.571875 8.57226562 1.09375 7.67578125 C-0.04818792 4.88211171 -0.21504208 2.98370887 0 0 Z " fill="#E09F44" transform="translate(8,80)"/>
<path d="M0 0 C0.99 0.33 1.98 0.66 3 1 C1.71034824 2.37562854 0.37310707 3.70766393 -1 5 C-1.66 5 -2.32 5 -3 5 C-3.226875 5.639375 -3.45375 6.27875 -3.6875 6.9375 C-5 9 -5 9 -7.625 9.75 C-8.40875 9.8325 -9.1925 9.915 -10 10 C-9 8 -9 8 -6 7 C-6 6.01 -6 5.02 -6 4 C-5.01 4 -4.02 4 -3 4 C-3 3.34 -3 2.68 -3 2 C-2.01 1.34 -1.02 0.68 0 0 Z " fill="#623E2B" transform="translate(88,104)"/>
<path d="M0 0 C2.475 0.99 2.475 0.99 5 2 C4.34 2.66 3.68 3.32 3 4 C2.97624074 5.9931567 2.97624074 5.9931567 3.375 8.125 C3.684375 10.043125 3.684375 10.043125 4 12 C2 11 2 11 0.875 8.25 C0.08026605 5.29813104 -0.17810598 3.02780163 0 0 Z " fill="#A23F0B" transform="translate(76,16)"/>
<path d="M0 0 C3.00492736 -0.33388082 5.10640654 -0.56215006 8 0 C10 2 10 2 11 4 C9.68 3.67 8.36 3.34 7 3 C7 3.66 7 4.32 7 5 C6.34 5 5.68 5 5 5 C4.67 4.01 4.34 3.02 4 2 C2.02 2.33 0.04 2.66 -2 3 C-1.34 2.01 -0.68 1.02 0 0 Z " fill="#FD9C51" transform="translate(101,37)"/>
<path d="M0 0 C0.66 0.33 1.32 0.66 2 1 C-0.64 3.64 -3.28 6.28 -6 9 C-6 5.06368636 -4.57142871 3.87394974 -2 1 C-1.34 0.67 -0.68 0.34 0 0 Z M-9 9 C-8.34 9.33 -7.68 9.66 -7 10 C-7.99 11.32 -8.98 12.64 -10 14 C-10.66 13.67 -11.32 13.34 -12 13 C-11.01 11.68 -10.02 10.36 -9 9 Z " fill="#FDC18E" transform="translate(28,34)"/>
<path d="M0 0 C0.99 0 1.98 0 3 0 C3 1.32 3 2.64 3 4 C1.68 3.67 0.36 3.34 -1 3 C-1 3.66 -1 4.32 -1 5 C-3.31 5.33 -5.62 5.66 -8 6 C-8 4 -8 4 -6 2 C-2.875 1.875 -2.875 1.875 0 2 C0 1.34 0 0.68 0 0 Z " fill="#A0876B" transform="translate(51,75)"/>
<path d="M0 0 C1.8125 0.125 1.8125 0.125 4 1 C7.64223198 6.07310883 7.3186572 11.02812802 7 17 C6.67 17 6.34 17 6 17 C5.93941406 16.39671875 5.87882812 15.7934375 5.81640625 15.171875 C5.73261719 14.37265625 5.64882812 13.5734375 5.5625 12.75 C5.48128906 11.96109375 5.40007812 11.1721875 5.31640625 10.359375 C5.02365007 8.17635361 4.57935581 6.1226818 4 4 C3.34 4 2.68 4 2 4 C1.34 2.68 0.68 1.36 0 0 Z " fill="#91B35E" transform="translate(116,32)"/>
<path d="M0 0 C0.99 0.33 1.98 0.66 3 1 C2.34 1 1.68 1 1 1 C1.33 1.99 1.66 2.98 2 4 C-0.95664519 5.4783226 -3.74229737 5.06032783 -7 5 C-7 4.34 -7 3.68 -7 3 C-3.535 2.505 -3.535 2.505 0 2 C0 1.34 0 0.68 0 0 Z " fill="#AFAB4E" transform="translate(94,115)"/>
<path d="M0 0 C3.465 1.98 3.465 1.98 7 4 C6.67 4.66 6.34 5.32 6 6 C4.35153231 5.55123384 2.70626545 5.09069512 1.0625 4.625 C0.14597656 4.36976562 -0.77054688 4.11453125 -1.71484375 3.8515625 C-4 3 -4 3 -5 1 C-2.525 1.495 -2.525 1.495 0 2 C0 1.34 0 0.68 0 0 Z " fill="#EBA873" transform="translate(33,107)"/>
<path d="M0 0 C0.928125 0.433125 1.85625 0.86625 2.8125 1.3125 C3.1425 2.3025 3.4725 3.2925 3.8125 4.3125 C0.0061543 3.64079194 -3.53956816 2.58503436 -7.1875 1.3125 C-4.38629123 -0.62679838 -3.41465603 -0.73649444 0 0 Z " fill="#88B255" transform="translate(32.1875,111.6875)"/>
<path d="M0 0 C2.9375 1.25 2.9375 1.25 6 3 C6.875 5.1875 6.875 5.1875 7 7 C4.83125748 6.49396008 3.00032373 6.00016187 1 5 C0.375 2.4375 0.375 2.4375 0 0 Z " fill="#E6882B" transform="translate(78,18)"/>
<path d="M0 0 C0.33 0 0.66 0 1 0 C1.05447047 1.41623216 1.09300508 2.83308191 1.125 4.25 C1.14820312 5.03890625 1.17140625 5.8278125 1.1953125 6.640625 C0.97767636 9.26966951 0.46290812 10.81048189 -1 13 C-1.99 13.33 -2.98 13.66 -4 14 C-4 13.01 -4 12.02 -4 11 C-3.34 11 -2.68 11 -2 11 C-2 10.01 -2 9.02 -2 8 C-1.34 8 -0.68 8 0 8 C0 5.36 0 2.72 0 0 Z " fill="#D99A39" transform="translate(121,40)"/>
<path d="M0 0 C0.99 0.33 1.98 0.66 3 1 C2.67 1.99 2.34 2.98 2 4 C1.01 4 0.02 4 -1 4 C-0.67 5.65 -0.34 7.3 0 9 C-0.99 8.67 -1.98 8.34 -3 8 C-2.45276317 4.62537285 -1.9451 2.91765 0 0 Z " fill="#FC9A3D" transform="translate(28,24)"/>
<path d="M0 0 C3.375 -0.1875 3.375 -0.1875 7 0 C7.66 0.99 8.32 1.98 9 3 C8.34 3 7.68 3 7 3 C6.67 3.99 6.34 4.98 6 6 C5.34 5.01 4.68 4.02 4 3 C1.94996045 1.80767387 1.94996045 1.80767387 0 1 C0 0.67 0 0.34 0 0 Z " fill="#72220E" transform="translate(69,13)"/>
<path d="M0 0 C2.475 0.99 2.475 0.99 5 2 C5 2.66 5 3.32 5 4 C5.99 4.33 6.98 4.66 8 5 C9.1875 7.0625 9.1875 7.0625 10 9 C6.78956118 7.61811547 4.95063635 6.07578097 2.75 3.375 C2.22921875 2.74335937 1.7084375 2.11171875 1.171875 1.4609375 C0.78515625 0.97882813 0.3984375 0.49671875 0 0 Z " fill="#472718" transform="translate(27,100)"/>
<path d="M0 0 C4.75207471 -0.43200679 7.78210698 1.01510917 12 3 C8.90521121 4.03159626 7.47368607 3.97482862 4.3125 3.5625 C3.10013672 3.40974609 3.10013672 3.40974609 1.86328125 3.25390625 C1.24839844 3.17011719 0.63351563 3.08632812 0 3 C0 2.01 0 1.02 0 0 Z " fill="#340303" transform="translate(63,83)"/>
<path d="M0 0 C3.63 0.66 7.26 1.32 11 2 C6.46780033 4.26609984 4.82227075 3.92735976 0 3 C0 2.01 0 1.02 0 0 Z " fill="#685844" transform="translate(50,78)"/>
<path d="M0 0 C1 3 1 3 0.00390625 5.26171875 C-0.47175781 6.06222656 -0.94742187 6.86273438 -1.4375 7.6875 C-1.91058594 8.49574219 -2.38367188 9.30398437 -2.87109375 10.13671875 C-3.24363281 10.75160156 -3.61617187 11.36648437 -4 12 C-4.33 12 -4.66 12 -5 12 C-5.58305225 8.15185513 -4.7002883 6.23691365 -2.5 3.1875 C-1.67780256 2.11635945 -0.84795951 1.0508641 0 0 Z " fill="#F79E4B" transform="translate(15,47)"/>
<path d="M0 0 C2.76223278 2.76223278 2.57856291 5.20706617 3 9 C1.35 9.33 -0.3 9.66 -2 10 C-2 9.01 -2 8.02 -2 7 C-1.34 7 -0.68 7 0 7 C0 4.69 0 2.38 0 0 Z " fill="#5CC76B" transform="translate(123,42)"/>
<path d="M0 0 C2.97 0.33 5.94 0.66 9 1 C9 1.66 9 2.32 9 3 C10.65 3 12.3 3 14 3 C14 3.33 14 3.66 14 4 C8.32723489 4.29341888 5.00932754 4.00559652 0 1 C0 0.67 0 0.34 0 0 Z " fill="#A75E40" transform="translate(58,29)"/>
<path d="M0 0 C0.99 0.495 0.99 0.495 2 1 C2 1.66 2 2.32 2 3 C3.98 3 5.96 3 8 3 C8 3.66 8 4.32 8 5 C5.36 5 2.72 5 0 5 C0 3.35 0 1.7 0 0 Z " fill="#B49F49" transform="translate(41,22)"/>
<path d="M0 0 C0.66 0.33 1.32 0.66 2 1 C2 2.65 2 4.3 2 6 C4.64 6 7.28 6 10 6 C10 6.33 10 6.66 10 7 C6.37 7.33 2.74 7.66 -1 8 C-0.67 5.36 -0.34 2.72 0 0 Z " fill="#F9A058" transform="translate(39,21)"/>
<path d="M0 0 C3.88375805 0.57537156 6.17781201 2.33036271 9 5 C9.8125 7.25 9.8125 7.25 10 9 C9.34 8.67 8.68 8.34 8 8 C8 7.34 8 6.68 8 6 C7.236875 5.7525 6.47375 5.505 5.6875 5.25 C2.7635955 3.89004442 1.69995644 2.68414174 0 0 Z " fill="#6C4B23" transform="translate(78,16)"/>
<path d="M0 0 C0 0.66 0 1.32 0 2 C-3.63 1.67 -7.26 1.34 -11 1 C-11 0.67 -11 0.34 -11 0 C-6.98195309 -0.84098656 -3.98196457 -1.05404945 0 0 Z " fill="#4B1111" transform="translate(62,109)"/>
<path d="M0 0 C0.66 0.33 1.32 0.66 2 1 C-0.64 3.64 -3.28 6.28 -6 9 C-6.66 8.67 -7.32 8.34 -8 8 C-5.58443874 4.80800833 -3.31996462 2.25283313 0 0 Z " fill="#DE852A" transform="translate(60,17)"/>
<path d="M0 0 C2.64 0 5.28 0 8 0 C7.67 1.32 7.34 2.64 7 4 C4.69 3.01 2.38 2.02 0 1 C0 0.67 0 0.34 0 0 Z " fill="#FEBA7A" transform="translate(32,117)"/>
<path d="M0 0 C0.99 0.33 1.98 0.66 3 1 C1.90554162 1.86657116 0.79902219 2.71792724 -0.3125 3.5625 C-0.92738281 4.03816406 -1.54226562 4.51382813 -2.17578125 5.00390625 C-2.77777344 5.33261719 -3.37976563 5.66132812 -4 6 C-4.99 5.67 -5.98 5.34 -7 5 C-5.68 4.67 -4.36 4.34 -3 4 C-3 3.34 -3 2.68 -3 2 C-2.01 1.34 -1.02 0.68 0 0 Z " fill="#DF9640" transform="translate(101,109)"/>
<path d="M0 0 C0 0.66 0 1.32 0 2 C-3.96 1.67 -7.92 1.34 -12 1 C-12 0.67 -12 0.34 -12 0 C-3.42857143 -1.28571429 -3.42857143 -1.28571429 0 0 Z " fill="#67341F" transform="translate(76,7)"/>
<path d="M0 0 C1.32 0 2.64 0 4 0 C4.66 1.98 5.32 3.96 6 6 C5.01 6 4.02 6 3 6 C2.01 4.02 1.02 2.04 0 0 Z " fill="#40170C" transform="translate(16,85)"/>
<path d="M0 0 C2.475 0.495 2.475 0.495 5 1 C4.67 2.32 4.34 3.64 4 5 C3.01 5 2.02 5 1 5 C0.67 3.35 0.34 1.7 0 0 Z " fill="#F09340" transform="translate(27,28)"/>
<path d="M0 0 C2.31 0 4.62 0 7 0 C7.33 1.32 7.66 2.64 8 4 C7.34 4 6.68 4 6 4 C6 3.34 6 2.68 6 2 C4.35 2 2.7 2 1 2 C0.67 1.34 0.34 0.68 0 0 Z " fill="#469551" transform="translate(65,8)"/>
<path d="M0 0 C0.33 0.66 0.66 1.32 1 2 C1.66 2.309375 2.32 2.61875 3 2.9375 C5 4 5 4 6 7 C5.01 7 4.02 7 3 7 C0.64276511 4.46815512 0 3.52809907 0 0 Z " fill="#E9595F" transform="translate(48,68)"/>
<path d="M0 0 C1.98 0 3.96 0 6 0 C6.33 0.99 6.66 1.98 7 3 C4.625 3.1875 4.625 3.1875 2 3 C1.34 2.01 0.68 1.02 0 0 Z " fill="#9897C2" transform="translate(79,9)"/>
</svg>
